<?xml version="1.0" standalone="no"?>
<!DOCTYPE svg PUBLIC "-//W3C//DTD SVG 1.1//EN" "http://www.w3.org/Graphics/SVG/1.1/DTD/svg11.dtd" >
<svg xmlns="http://www.w3.org/2000/svg">
<metadata>Generated by IcoMoon</metadata>
<defs>
<font id="icomoon" horiz-adv-x="1024">
<font-face units-per-em="1024" ascent="960" descent="-64" />
<missing-glyph horiz-adv-x="1024" />
<glyph unicode="&#x20;" horiz-adv-x="512" d="" />
<glyph unicode="&#xe900;" glyph-name="arrow-back" d="M1023.999 447.95c0-28.276-22.922-51.198-51.198-51.198v0h-797.972l270.991-270.991c9.643-9.323 15.63-22.376 15.63-36.826 0-28.276-22.922-51.198-51.198-51.198-14.451 0-27.503 5.987-36.812 15.616l-358.4 358.4c-9.292 9.27-15.041 22.087-15.041 36.248s5.749 26.978 15.040 36.247l358.387 358.387c9.323 9.643 22.376 15.63 36.826 15.63 28.276 0 51.198-22.922 51.198-51.198 0-14.451-5.987-27.503-15.616-36.812l-271.005-271.108h797.972c28.276 0 51.198-22.922 51.198-51.198v0z" />
<glyph unicode="&#xe901;" glyph-name="arrow-down" d="M512.587 331.969l387.281 387.601c13.159 12.738 31.115 20.588 50.906 20.588 40.442 0 73.226-32.784 73.226-73.226 0-19.87-7.914-37.891-20.762-51.083l0.015 0.016-438.846-439.165c-13.211-13.18-31.444-21.329-51.581-21.329-19.064 0-36.423 7.305-49.429 19.268l0.052-0.047-441.913 440.89c-13.306 13.266-21.538 31.614-21.538 51.884 0 40.462 32.801 73.263 73.263 73.263 20.191 0 38.475-8.168 51.727-21.38l-0.002 0.002z" />
<glyph unicode="&#xe902;" glyph-name="arrow-next" d="M687.049 785.027l-54.735-54.735 243.544-243.544h-875.859v-77.498h875.859l-243.544-243.544 54.735-54.735 336.951 336.951z" />
<glyph unicode="&#xe903;" glyph-name="bank" d="M30.772-64.076c-16.108 0.115-29.275 12.555-30.542 28.353l-0.007 0.109c0 0.815 0 1.578 0 2.393v68.684c0.223 52.112 40.274 94.8 91.273 99.207l0.374 0.026v396.831h-61.098c-17.001 0.029-30.775 13.803-30.803 30.801v91.65c-0.025 0.237-0.039 0.511-0.039 0.789s0.014 0.553 0.042 0.823l-0.003-0.034c0.621 10.626 6.417 19.775 14.885 25.023l0.135 0.078 448.407 266.081c13.955 8.185 30.691 13.109 48.557 13.339l0.066 0.001c17.647-0.072 34.188-4.746 48.502-12.883l-0.49 0.256c0.407-0.356 0.407-0.713 0.713-0.713l448.051-266.081c9.179-5.498 15.238-15.377 15.274-26.674v-91.652c0.001-0.076 0.001-0.166 0.001-0.257 0-16.872-13.677-30.549-30.549-30.549-0.126 0-0.251 0.001-0.377 0.002h-60.722v-396.831c51.429-4.313 91.55-47.073 91.647-99.223v-68.694c0.001-0.091 0.002-0.199 0.002-0.308 0-16.872-13.677-30.549-30.549-30.549-0.126 0-0.252 0.001-0.377 0.002h0.019zM1008.337-33.222v0zM46.046 35.463v0zM61.88 35.463v-37.881h901.193v37.881c-0.165 10.411-4.433 19.794-11.253 26.629l0.001-0.001c-6.844 6.796-16.225 11.045-26.599 11.201h-825.207c-0.061 0-0.133 0.001-0.205 0.001-20.965 0-37.983-16.894-38.184-37.811v-0.019zM916.894 127.109v0zM779.424 127.109v0zM596.13 127.109v0zM458.66 127.109v0zM275.367 127.109v0zM137.896 127.109v0zM795.208 135.154h75.66v396.525h-75.66zM611.914 135.154h121.636v396.525h-121.636zM474.444 135.154h75.761v396.525h-75.761zM291.15 135.154h121.737v396.525h-121.737zM153.68 135.154h75.66v396.525h-75.66zM1008.388 562.482c0-0.509 0-1.069 0-1.578 0 0.509 0 1.069 0 1.578v0zM46.097 640.993v0zM494.148 893.429l-432.166-256.967v-43.125h901.193v43.125l-432.776 257.324c-5.036 2.764-11.030 4.401-17.404 4.43h-0.009c-0.055 0-0.12 0-0.185 0-6.975 0-13.526-1.812-19.209-4.991l0.199 0.102z" />
<glyph unicode="&#xe904;" glyph-name="calendar" horiz-adv-x="929" d="M273.685-64.056c-173.721 0-273.797 100.020-273.797 273.797v404.884c0 161.652 86.386 259.436 238.091 272.4v37.102c-0.018 0.421-0.028 0.916-0.028 1.412 0 19.72 15.986 35.705 35.705 35.705s35.705-15.986 35.705-35.705c0-0.497-0.010-0.991-0.030-1.483l0.002 0.071v-35.594h309.502v35.594c0 19.75 16.011 35.761 35.761 35.761s35.761-16.011 35.761-35.761v0-37.102c151.706-13.019 238.091-110.804 238.091-272.4v-404.884c0-173.889-99.964-273.797-273.797-273.797zM71.299 209.741c0-136.172 66.27-202.386 202.386-202.386h380.969c136.284 0 202.554 66.214 202.554 202.386v340.849h-785.909zM857.096 622.224c-2.235 118.738-56.883 182.159-166.625 192.999v-33.861c0-19.75-16.011-35.761-35.761-35.761s-35.761 16.011-35.761 35.761v0 35.594h-309.502v-35.594c0.018-0.421 0.028-0.916 0.028-1.412 0-19.72-15.986-35.705-35.705-35.705s-35.705 15.986-35.705 35.705c0 0.497 0.010 0.991 0.030 1.483l-0.002-0.071v33.917c-109.742-10.784-164.39-74.26-166.625-193.055zM596.989 175.88c-4.128 4.407-7.487 9.596-9.825 15.31l-0.121 0.336c-2.293 5.359-3.662 11.589-3.743 18.129v0.031c0.064 6.569 1.434 12.802 3.863 18.473l-0.119-0.313c2.42 6.062 5.785 11.256 9.967 15.667l-0.021-0.022c8.571 8.503 20.376 13.758 33.407 13.758 3.365 0 6.648-0.35 9.815-1.017l-0.309 0.054c3.392-0.414 6.471-1.421 9.246-2.918l-0.138 0.068c3.326-1.133 6.208-2.57 8.855-4.333l-0.138 0.086c2.584-1.846 4.843-3.68 6.985-5.638l-0.056 0.051c8.762-8.622 14.191-20.608 14.191-33.862 0-26.231-21.264-47.495-47.495-47.495-0.078 0-0.156 0-0.234 0.001h0.012c-13.226 0.172-25.199 5.395-34.109 13.824l0.024-0.022zM430.476 175.88c-8.409 8.792-13.663 20.662-13.913 33.757l-0.001 0.049c0.068 6.585 1.501 12.818 4.029 18.453l-0.117-0.293c2.303 6.107 5.706 11.324 10.004 15.648l-0.002-0.002c8.855 8.192 20.743 13.217 33.806 13.217s24.951-5.025 33.839-13.247l-0.033 0.030c4.297-4.322 7.699-9.538 9.902-15.344l0.1-0.301c2.333-5.349 3.757-11.568 3.91-18.102l0.001-0.058c0.001-0.117 0.002-0.256 0.002-0.394 0-26.046-21.114-47.16-47.16-47.16-0.197 0-0.394 0.001-0.59 0.004h0.030c-13.15 0.215-25.030 5.478-33.822 13.929l0.017-0.016zM279.608 165.933c-6.022 2.56-11.196 5.906-15.691 9.987l0.046-0.041c-8.388 8.799-13.623 20.669-13.857 33.76l-0.001 0.046c0.047 6.578 1.462 12.814 3.972 18.454l-0.117-0.294c2.303 6.107 5.706 11.324 10.004 15.648l-0.002-0.002c8.642 8.673 20.597 14.040 33.806 14.040 26.301 0 47.632-21.278 47.719-47.558v-0.008c-0.25-13.144-5.505-25.013-13.931-33.824l0.018 0.019c-8.737-8.293-20.506-13.465-33.482-13.689l-0.044-0.001c-0.061 0-0.133 0-0.205 0-6.694 0-13.077 1.335-18.896 3.753l0.326-0.12zM613.137 332.67c-6.142 2.415-11.41 5.781-15.898 9.972l0.029-0.026c-1.732 2.347-3.688 4.805-5.588 7.096-1.564 2.447-2.993 5.263-4.136 8.222l-0.111 0.327c-1.281 2.472-2.272 5.34-2.821 8.361l-0.028 0.188c-0.438 2.725-0.777 6.035-0.941 9.391l-0.009 0.219c0.185 13.115 5.363 24.986 13.713 33.83l-0.023-0.024c4.464 4.155 9.73 7.519 15.532 9.828l0.337 0.118c5.458 2.384 11.817 3.771 18.501 3.771 12.99 0 24.756-5.239 33.3-13.72l-0.003 0.003c8.434-8.772 13.683-20.659 13.857-33.771v-0.034c0-2.85-0.559-6.202-0.894-9.611-0.608-3.216-1.596-6.080-2.936-8.737l0.086 0.188c-1.276-3.286-2.722-6.101-4.418-8.741l0.115 0.192c-1.826-2.655-3.661-4.97-5.639-7.153l0.051 0.057c-8.704-8.384-20.476-13.635-33.472-13.912l-0.054-0.001c-6.813 0.014-13.267 1.536-19.051 4.251l0.276-0.116zM446.401 332.67c-6.081 2.358-11.286 5.731-15.659 9.959l0.013-0.012c-8.415 8.685-13.677 20.469-13.913 33.48l-0.001 0.046c0.066 6.527 1.499 12.703 4.027 18.277l-0.116-0.285c2.534 6.115 5.905 11.368 10.041 15.913l-0.039-0.044c4.365 4.206 9.568 7.578 15.328 9.837l0.317 0.11c5.463 2.358 11.824 3.729 18.504 3.729 13.034 0 24.849-5.219 33.468-13.682l-0.007 0.007c8.409-8.792 13.663-20.662 13.913-33.757l0.001-0.049c-0.147-3.502-0.547-6.805-1.186-10.023l0.068 0.412c-0.608-3.216-1.596-6.080-2.936-8.737l0.086 0.188c-1.106-3.26-2.544-6.089-4.322-8.665l0.076 0.116c-1.453-2.347-3.911-4.805-5.588-7.096-8.726-8.348-20.484-13.589-33.463-13.912l-0.063-0.001c-6.857 0.083-13.322 1.682-19.1 4.476l0.269-0.117zM279.664 332.67c-17.398 6.725-29.514 23.319-29.514 42.743 0 0.355 0.004 0.709 0.012 1.061l-0.001-0.052c0.047 6.578 1.462 12.814 3.972 18.454l-0.117-0.294c2.594 6.019 5.956 11.19 10.043 15.692l-0.041-0.046c4.407 4.128 9.596 7.487 15.31 9.825l0.336 0.121c5.415 2.26 11.706 3.573 18.303 3.573 13.070 0 24.936-5.152 33.679-13.535l-0.017 0.016c8.409-8.792 13.663-20.662 13.913-33.757l0.001-0.049c-0.147-3.502-0.547-6.805-1.186-10.023l0.068 0.412c-0.492-3.199-1.49-6.077-2.918-8.686l0.069 0.137c-1.052-3.26-2.495-6.095-4.311-8.645l0.065 0.096c-1.819-2.655-3.655-4.97-5.636-7.15l0.048 0.054c-8.726-8.348-20.484-13.589-33.463-13.912l-0.063-0.001c-6.87 0.016-13.381 1.538-19.226 4.253l0.283-0.118z" />
<glyph unicode="&#xe905;" glyph-name="camera" d="M899.699 755.347h-146.616l-17.047 51.2c-16.858 49.993-63.32 85.353-118.041 85.353-0.12 0-0.239 0-0.359-0.001h-210.878c-0.101 0-0.22 0.001-0.34 0.001-54.721 0-101.183-35.36-117.785-84.478l-0.257-0.876-17.106-51.2h-146.556c-68.851-0.068-124.647-55.864-124.715-124.708v-502.24c0.303-68.673 56.009-124.234 124.709-124.301h774.991c68.673 0.303 124.234 56.009 124.301 124.709v502.003c-0.303 68.673-56.009 124.234-124.709 124.301h-0.006zM956.109 128.813c-0.034-31.14-25.268-56.375-56.405-56.409h-774.987c-31.14 0.034-56.375 25.268-56.409 56.405v502c0.101 31.089 25.31 56.257 56.405 56.291h171.242c14.996 0.015 27.727 9.692 32.306 23.14l0.071 0.24 24.919 74.699c7.67 22.521 28.6 38.449 53.261 38.534h210.966c24.692-0.075 45.637-16.036 53.155-38.195l0.117-0.396 24.919-74.639c4.65-13.689 17.382-23.365 32.376-23.38h171.655c31.14-0.034 56.375-25.268 56.409-56.405v-0.003zM512.238 652.947c-141.45 0-256.118-114.668-256.118-256.118s114.668-256.118 256.118-256.118c141.45 0 256.118 114.668 256.118 256.118v0c0 141.45-114.668 256.118-256.118 256.118v0zM512.238 209.016c-103.725 0-187.812 84.087-187.812 187.812s84.087 187.812 187.812 187.812c103.725 0 187.812-84.087 187.812-187.812v0c0-103.725-84.087-187.812-187.812-187.812v0zM866.672 574.578c0-13.992-11.342-25.334-25.334-25.334s-25.334 11.342-25.334 25.334c0 13.992 11.342 25.334 25.334 25.334s25.334-11.342 25.334-25.334z" />
<glyph unicode="&#xe906;" glyph-name="card" d="M898.412 790.947h-772.823c-69.324-0.090-125.498-56.264-125.588-125.58v-434.726c0.090-69.324 56.264-125.498 125.58-125.588h772.832c69.324 0.090 125.498 56.264 125.588 125.58v434.726c-0.068 69.334-56.255 125.521-125.582 125.588h-0.007zM966.168 230.64c0-37.421-30.335-67.756-67.756-67.756h-772.823c-37.421 0-67.756 30.335-67.756 67.756v0 317.18h908.176zM966.168 605.812h-908.216v59.546c0 37.421 30.335 67.756 67.756 67.756v0h772.823c37.421 0 67.756-30.335 67.756-67.756v0zM676.37 281.936c0 16.003 12.973 28.976 28.976 28.976v0h96.613c16.003 0 28.976-12.973 28.976-28.976s-12.973-28.976-28.976-28.976v0h-96.772c-15.994 0.023-28.953 12.982-28.976 28.974v0.002z" />
<glyph unicode="&#xe907;" glyph-name="check" d="M371.056-50.688c-0.003 0-0.006 0-0.009 0-32.987 0-62.548 14.674-82.51 37.851l-0.12 0.142-261.159 304.507c-16.923 19.095-27.258 44.365-27.258 72.049 0 60.116 48.733 108.849 108.849 108.849 33.562 0 63.577-15.19 83.544-39.070l0.139-0.171 170.743-199.209 539.625 650.673c83.539 117.023 170.969 52.198 87.034-65.276l-530.324-824.742c-19.030-26.425-49.121-43.858-83.35-45.481l-0.245-0.010z" />
<glyph unicode="&#xe908;" glyph-name="close" d="M96.78-58.264c-1.623-0.097-3.522-0.152-5.433-0.152-24.177 0-46.288 8.851-63.269 23.489l0.125-0.106c-17.43 17.525-28.204 41.685-28.204 68.361s10.774 50.837 28.209 68.366l822.903 822.903c17.267 16.129 40.531 26.033 66.105 26.033 53.543 0 96.949-43.405 96.949-96.949 0-23.161-8.121-44.425-21.672-61.099l0.14 0.179-828.050-828.050c-16.848-14.512-38.944-23.348-63.103-23.348-1.684 0-3.358 0.042-5.020 0.127l0.233-0.010zM919.087-58.349c-26.493 0.108-50.462 10.826-67.897 28.122l-822.901 822.901c-15.565 17.135-25.094 39.997-25.094 65.085 0 53.543 43.405 96.949 96.949 96.949 25.067 0 47.912-9.514 65.121-25.126l-0.081 0.072 828.050-822.907c18.954-17.742 30.765-42.913 30.765-70.843 0-25.673-9.979-49.015-26.269-66.359l0.047 0.051q-2.143-2.314-4.543-4.543c-16.921-14.762-39.201-23.761-63.582-23.761-3.571 0-7.096 0.193-10.567 0.569l0.43-0.038z" />
<glyph unicode="&#xe909;" glyph-name="company" d="M995.098 26.546h-113.64v761.376c-0.337 15.092-12.652 27.197-27.794 27.197-0.217 0-0.433-0.003-0.649-0.007l0.033 0.001h-85.129v81.571c-0.336 15.093-12.651 27.201-27.794 27.201-0.27 0-0.54-0.004-0.809-0.011l0.039 0.001h-454.712c-0.183 0.005-0.4 0.007-0.616 0.007-15.142 0-27.455-12.105-27.793-27.165l-0.001-0.032v-81.571h-85.23c-0.183 0.005-0.4 0.007-0.616 0.007-15.142 0-27.455-12.105-27.793-27.165l-0.001-0.032v-761.376h-113.691c-0.497 0.033-1.078 0.051-1.664 0.051-15.045 0-27.241-12.197-27.241-27.241s12.197-27.241 27.241-27.241c0.586 0 1.166 0.019 1.742 0.055l-0.079-0.004h966.192c0.497-0.033 1.078-0.051 1.664-0.051 15.045 0 27.241 12.197 27.241 27.241s-12.197 27.241-27.241 27.241c-0.586 0-1.166-0.019-1.742-0.055l0.079 0.004zM313.107 869.493h397.841v-54.38h-397.841zM369.927 26.546v163.141h113.691v-163.141zM540.438 26.546v163.141h113.64v-163.141zM710.948 26.546v190.331c-0.337 15.092-12.652 27.197-27.794 27.197-0.217 0-0.433-0.003-0.649-0.007l0.033 0.001h-341.021c-0.183 0.005-0.4 0.007-0.616 0.007-15.142 0-27.455-12.105-27.793-27.165l-0.001-0.032v-190.331h-113.691v734.186h625.12v-734.186zM767.92 651.971c-0.337-15.092-12.652-27.197-27.794-27.197-0.217 0-0.433 0.003-0.649 0.007l0.033-0.001h-113.894c-0.497-0.033-1.078-0.051-1.664-0.051-15.045 0-27.241 12.197-27.241 27.241s12.197 27.241 27.241 27.241c0.586 0 1.166-0.019 1.742-0.055l-0.079 0.004h113.691c0.244 0.007 0.532 0.012 0.82 0.012 15.144 0 27.459-12.108 27.793-27.171l0.001-0.031zM426.899 651.971c-0.337-15.092-12.652-27.197-27.794-27.197-0.217 0-0.433 0.003-0.649 0.007l0.033-0.001h-113.843c-0.497-0.033-1.078-0.051-1.664-0.051-15.045 0-27.241 12.197-27.241 27.241s12.197 27.241 27.241 27.241c0.586 0 1.166-0.019 1.742-0.055l-0.079 0.004h113.691c0.183 0.005 0.4 0.007 0.616 0.007 15.142 0 27.455-12.105 27.793-27.165l0.001-0.032zM767.92 516.020c-0.337-15.092-12.652-27.197-27.794-27.197-0.217 0-0.433 0.003-0.649 0.007l0.033-0.001h-113.894c-0.497-0.033-1.078-0.051-1.664-0.051-15.045 0-27.241 12.197-27.241 27.241s12.197 27.241 27.241 27.241c0.586 0 1.166-0.019 1.742-0.055l-0.079 0.004h113.691c0.244 0.007 0.531 0.012 0.819 0.012 15.161 0 27.488-12.137 27.794-27.224v-0.029zM426.899 516.020c-0.337-15.092-12.652-27.197-27.794-27.197-0.217 0-0.433 0.003-0.649 0.007l0.033-0.001h-113.843c-0.497-0.033-1.078-0.051-1.664-0.051-15.045 0-27.241 12.197-27.241 27.241s12.197 27.241 27.241 27.241c0.586 0 1.166-0.019 1.742-0.055l-0.079 0.004h113.691c0.183 0.005 0.399 0.007 0.615 0.007 15.159 0 27.485-12.133 27.794-27.218l0.001-0.029zM767.92 380.069c-0.337-15.092-12.652-27.197-27.794-27.197-0.217 0-0.433 0.003-0.649 0.007l0.033-0.001h-113.894c-0.497-0.033-1.078-0.051-1.664-0.051-15.045 0-27.241 12.197-27.241 27.241s12.197 27.241 27.241 27.241c0.586 0 1.166-0.019 1.742-0.055l-0.079 0.004h113.691c0.244 0.007 0.532 0.012 0.82 0.012 15.144 0 27.459-12.108 27.793-27.171l0.001-0.031zM426.899 380.069c-0.337-15.092-12.652-27.197-27.794-27.197-0.217 0-0.433 0.003-0.649 0.007l0.033-0.001h-113.843c-0.497-0.033-1.078-0.051-1.664-0.051-15.045 0-27.241 12.197-27.241 27.241s12.197 27.241 27.241 27.241c0.586 0 1.166-0.019 1.742-0.055l-0.079 0.004h113.691c0.183 0.005 0.4 0.007 0.616 0.007 15.142 0 27.455-12.105 27.793-27.165l0.001-0.032z" />
<glyph unicode="&#xe90a;" glyph-name="copy" d="M264.99-64c-108.862 0.119-197.084 88.322-197.232 197.166v477.15c0.237 108.791 88.425 196.905 197.221 197.023h349.696c108.852-0.059 197.099-88.196 197.337-197.001v-477.055c-0.119-108.862-88.322-197.084-197.166-197.232h-0.014zM144.114 610.316v-477.032c0.089-66.693 54.13-120.735 120.815-120.824h349.693c0.062 0 0.136 0 0.209 0 66.724 0 120.832 54.016 120.98 120.705v477.15c-0.089 66.693-54.13 120.735-120.815 120.824h-349.693c-0.062 0-0.135 0-0.209 0-66.761 0-120.891-54.076-120.98-120.815v-0.008zM876.728 200.925v600.099c-0.089 43.854-35.63 79.376-79.482 79.436h-441.234c-21.964 0-39.77 17.806-39.77 39.77s17.806 39.77 39.77 39.77h441.176c87.775-0.089 158.909-71.205 159.028-158.964v-600.215c0.017-0.43 0.026-0.934 0.026-1.44 0-21.964-17.806-39.77-39.77-39.77s-39.77 17.806-39.77 39.77c0 0.507 0.009 1.011 0.028 1.513l-0.002-0.072z" />
<glyph unicode="&#xe90b;" glyph-name="download" d="M796.445-64.001h-568.888c-125.675 0-227.556 101.88-227.556 227.556v0 56.889c0 31.419 25.47 56.889 56.889 56.889s56.889-25.47 56.889-56.889v0-56.889c0-62.838 50.94-113.778 113.778-113.778v0h568.888c62.838 0 113.778 50.94 113.778 113.778v0 56.889c0 31.419 25.47 56.889 56.889 56.889s56.889-25.47 56.889-56.889v-56.889c0-125.675-101.88-227.556-227.556-227.556v0zM512.001 163.555c-0.039 0-0.086 0-0.132 0-15.433 0-29.427 6.161-39.656 16.159l0.011-0.010-227.778 228.074c-9.047 10.033-14.582 23.386-14.582 38.032 0 31.419 25.47 56.889 56.889 56.889 14.591 0 27.899-5.493 37.969-14.524l-0.053 0.047 130.444-130.444v545.332c0 31.419 25.47 56.889 56.889 56.889s56.889-25.47 56.889-56.889v-545.332l130.444 130.444c10.233 9.946 24.217 16.079 39.634 16.079 31.419 0 56.889-25.47 56.889-56.889 0-15.417-6.133-29.402-16.092-39.648l-229.468-229.32c-4.478-4.011-9.668-7.348-15.336-9.785l-0.368-0.141c-6.494-2.81-14.056-4.445-22-4.445-0.078 0-0.156 0-0.234 0h0.012z" />
<glyph unicode="&#xe90c;" glyph-name="email" d="M933.972 838.074h-843.943c-49.686-0.087-89.942-40.342-90.029-90.020v-600.098c0.087-49.686 40.342-89.942 90.020-90.029h843.951c49.686 0.087 89.942 40.342 90.029 90.020v600.098c-0.087 49.686-40.342 89.942-90.020 90.029h-0.008zM921.519 778.054l-407.732-407.732-411.050 407.732zM60.020 160.408v575.592l289.021-286.52zM102.431 117.997l289.174 289.174 101.308-100.44c5.427-5.407 12.913-8.75 21.181-8.75s15.754 3.343 21.181 8.751l98.806 98.806 287.643-287.592zM964.135 160.408l-287.643 287.643 287.643 287.643z" />
<glyph unicode="&#xe90d;" glyph-name="files" d="M868.405 747.472l-193.29 182.45c-19.657 18.625-46.273 30.078-75.564 30.078-0.064 0-0.129 0-0.193 0h-367.82c-0.048 0-0.106 0-0.163 0-60.799 0-110.103-49.213-110.251-109.977v-804.032c0.148-60.778 49.452-109.991 110.251-109.991 0 0 0 0 0 0h561.25c0 0 0 0 0 0 60.799 0 110.103 49.213 110.251 109.977v621.582c-0.061 31.451-13.271 59.805-34.423 79.867l-0.049 0.046zM810.008 719.999h-149.736c0 0 0 0 0 0-5.526 0-10.007 4.47-10.026 9.991v140.721zM792.658-4.008h-561.283c0 0 0 0 0 0-27.64 0-50.055 22.369-50.129 49.992v804.025c0.074 27.629 22.489 49.999 50.129 49.999 0 0 0 0 0 0h358.813v-170.016c0.093-38.672 31.463-69.985 70.148-69.985 0 0 0 0 0 0h182.288v-614.016c-0.074-27.584-22.415-49.925-49.992-49.999h-0.007zM729.736 559.423h-447.158c-16.18 0-29.296-13.116-29.296-29.296s13.116-29.296 29.296-29.296h447.158c16.18 0 29.296 13.116 29.296 29.296s-13.116 29.296-29.296 29.296v0zM729.736 399.206h-447.158c-16.18 0-29.296-13.116-29.296-29.296s13.116-29.296 29.296-29.296h447.158c16.18 0 29.296 13.116 29.296 29.296s-13.116 29.296-29.296 29.296v0zM428.083 238.955h-142.152c-16.18 0-29.296-13.116-29.296-29.296s13.116-29.296 29.296-29.296h142.119c16.18 0 29.296 13.116 29.296 29.296s-13.116 29.296-29.296 29.296v0z" />
<glyph unicode="&#xe90e;" glyph-name="language" d="M512 908.8c-254.493 0-460.8-206.307-460.8-460.8s206.307-460.8 460.8-460.8c254.493 0 460.8 206.307 460.8 460.8v0c-0.291 254.376-206.425 460.509-460.773 460.8h-0.027zM512 960c282.77 0 512-229.23 512-512s-229.23-512-512-512c-282.77 0-512 229.23-512 512v0c0 282.77 229.23 512 512 512v0zM559.053 95.744l-1.587 4.045c-1.499 3.748-3.063 6.898-4.841 9.906l0.181-0.332c-1.868 3.294-3.713 6.087-5.724 8.748l0.143-0.198c-2.148 2.76-4.31 5.214-6.61 7.532l0.005-0.005c-1.126 1.178-2.355 2.304-3.584 3.43-3.173-2.723-6.799-5.054-10.722-6.846l-0.286-0.117c-6.022-2.558-13.026-4.045-20.377-4.045-0.036 0-0.072 0-0.108 0h-0.506c-8.637 0.041-16.801 2.019-24.095 5.522l0.338-0.146c-8.3 3.899-15.307 9.251-20.977 15.794l-0.066 0.078c-6.442 7.236-11.938 15.517-16.17 24.511l-0.266 0.628c-4.626 9.728-8.588 21.108-11.301 32.964l-0.219 1.135-0.973 4.557 2.099 1.178h-3.482v22.426h164.864v-21.606h-18.688v-109.158zM464.435 175.77c3.722-7.81 8.078-14.542 13.178-20.629l-0.122 0.149c3.763-4.399 8.323-7.994 13.474-10.588l0.248-0.113c4.18-1.935 9.068-3.081 14.219-3.123h0.476c0.011 0 0.024 0 0.036 0 3.344 0 6.534 0.658 9.448 1.852l-0.166-0.060c2.853 1.152 5.288 2.782 7.322 4.813v0c1.982 1.941 3.524 4.323 4.466 6.989l0.040 0.128c1.118 2.884 1.789 6.22 1.843 9.705v0.023c0.003 0.148 0.005 0.322 0.005 0.497 0 2.949-0.547 5.77-1.544 8.367l0.054-0.16c-0.89 2.671-2.236 4.974-3.961 6.934l0.019-0.022c-0.614 0.741-1.286 1.397-2.020 1.975l-0.028 0.021c0-0.512 0-1.024 0-1.536 0.001-0.069 0.001-0.15 0.001-0.232 0-5.445-2.125-10.394-5.591-14.063l0.009 0.010-0.256-0.256c-1.662-1.489-3.525-2.813-5.528-3.915l-0.155-0.078-0.512-0.256c-2.364-1.046-5.113-1.695-8.002-1.791l-0.036-0.001h-0.563c-2.994 0.007-5.828 0.686-8.361 1.894l0.118-0.051c-2.686 1.254-4.954 2.982-6.789 5.095l-0.021 0.025c-3.779 4.162-6.093 9.715-6.093 15.808 0 0.041 0 0.081 0 0.122v-0.006c0.029 3.934 0.952 7.646 2.575 10.952l-0.066-0.149c0.673 1.437 1.39 2.663 2.203 3.816l-0.052-0.078c-0.687 0.718-1.405 1.387-2.16 2.014l-0.042 0.034c-1.684 1.503-3.521 2.949-5.443 4.28l-0.189 0.123h-22.323c2.749-10.917 6.272-20.409 10.678-29.39l-0.386 0.872zM539.75 197.376c3.656-4.061 6.646-8.811 8.744-14.016l0.114-0.32c2.139-5.369 3.379-11.591 3.379-18.102 0-0.026 0-0.052 0-0.078v0.004c-0.019-3.887-0.41-7.671-1.138-11.334l0.063 0.377c-0.47-2.428-1.054-4.523-1.785-6.549l0.095 0.302c1.178-1.126 2.355-2.304 3.533-3.482v60.723h-22.528c3.661-2.089 6.799-4.59 9.5-7.501l0.023-0.025zM213.606 356.096c-1.131 3.188-2.444 5.926-4.005 8.496l0.114-0.201-2.56 4.762-6.963-4.403-3.482 5.12c-0.41 0.614-0.819 1.178-1.178 1.792-7.686-4.852-16.917-7.957-26.826-8.543l-0.157-0.007h-0.563c-0.031 0-0.067 0-0.104 0-14.138 0-25.6 11.462-25.6 25.6 0 0.811 0.038 1.614 0.112 2.406l-0.008-0.101c2.691 24.148 18.757 43.964 40.526 52.032l0.434 0.141c0 5.12 0 10.24 0 15.36-21.146 0-23.91 0-28.723 0.307l-5.939 0.512-0.717 23.091h6.81c6.861-0.666 17.613-0.666 28.826-0.666 0 6.195 0.307 12.698 0.563 17.51l0.256 6.656 30.413-2.458-2.458-7.629c-0.714-2.304-2.116-4.22-3.963-5.559l-0.031-0.021c0-2.56-0.256-5.12-0.461-7.987 20.111 0.811 39.107 3.067 57.616 6.684l-2.371-0.386 6.707 1.28 2.867-23.45-5.939-1.024q-19.968-3.584-40.294-5.12l24.781-5.12-0.922-5.786c21.077-4.824 36.564-23.415 36.564-45.623 0-0.287-0.003-0.573-0.008-0.858l0.001 0.043c0-19.917-11.52-45.056-66.56-51.2l-5.12-0.563zM214.886 385.894c0.621-1.315 1.253-2.423 1.956-3.478l-0.062 0.098 3.584-5.427-4.659-2.816c17.971 1.894 46.746 8.090 46.746 28.57v1.331c-0.229 11.449-8.42 20.919-19.25 23.116l-0.154 0.026c-6.912-16.064-16.419-29.754-28.135-41.191l-0.025-0.025zM166.758 391.68c0-5.12 1.946-5.12 3.021-5.12h0.819c6.803 0.812 12.891 3.36 17.963 7.185l-0.094-0.068c-1.586 7.050-2.857 15.555-3.542 24.225l-0.042 0.658c-9.569-5.765-16.313-15.39-18.097-26.664l-0.028-0.216zM206.541 459.162c0-3.123 0-6.195 0-9.165 5.121 1.128 11.059 1.848 17.14 1.995l0.114 0.002h1.434c0 0.563 0 1.126 0.256 1.69l1.024 6.554c-6.81-0.563-13.414-0.922-20.019-1.126zM852.070 369.869l-0.307 0.358c-2.192 2.927-3.51 6.619-3.51 10.619 0 0.353 0.010 0.704 0.031 1.052l-0.002-0.048v24.422c-2.854-0.751-6.145-1.214-9.533-1.279l-0.042-0.001h-0.512c-4.932 0.001-9.63 0.999-13.906 2.802l0.236-0.088c-1.702 0.718-3.149 1.489-4.517 2.373l0.114-0.069c-2.368-4.809-5.366-8.92-8.952-12.434l-0.008-0.007c-5.607-4.952-13.020-7.976-21.138-7.976-0.561 0-1.118 0.014-1.672 0.043l0.078-0.003c-0.010 0-0.021 0-0.032 0-4.432 0-8.662 0.865-12.53 2.435l0.223-0.080c-3.935 1.553-7.324 3.626-10.285 6.182l0.045-0.038c-3.27 2.94-6.071 6.311-8.337 10.043l-0.111 0.197c-1.69 2.662-3.277 5.478-4.813 8.448-2.932 0.261-5.616 0.75-8.21 1.458l0.325-0.076-5.632 1.587 3.738 20.48 6.042-0.768c1.978-0.295 4.363-0.515 6.781-0.61l0.131-0.004h0.768c2.215 0.005 4.345 0.36 6.34 1.014l-0.145-0.041c1.841 0.724 3.431 1.655 4.849 2.793l-0.036-0.028c1.251 1.272 2.283 2.763 3.033 4.409l0.039 0.096c0.763 2.231 1.204 4.802 1.204 7.475s-0.441 5.244-1.253 7.643l0.049-0.168c-0.59 1.714-1.538 3.173-2.761 4.349l-0.004 0.003c-1.19 1.152-2.625 2.060-4.218 2.636l-0.083 0.026c-1.966 0.746-4.239 1.178-6.613 1.178-0.051 0-0.102 0-0.153-0.001h-0.555c-0.223 0.032-0.481 0.051-0.742 0.051s-0.519-0.018-0.771-0.054l0.029 0.003h-1.126c-0.824-0.051-1.594-0.179-2.335-0.377l0.082 0.019-6.605-1.946-4.659 21.862 6.298 1.331c3.299 0.733 7.15 1.229 11.091 1.379l0.122 0.004h0.614c0.021 0 0.047 0 0.072 0 5.404 0 10.553-1.092 15.239-3.066l-0.258 0.097c4.571-2.156 8.459-5.013 11.705-8.478l0.019-0.021c3.083-3.512 5.499-7.696 6.995-12.294l0.070-0.25c1.386-4.064 2.19-8.746 2.202-13.614v-0.005c-0.011-4.387-0.684-8.614-1.924-12.589l0.081 0.301c-1.281-4.037-3.148-7.543-5.536-10.625l0.058 0.077c-2.34-3.262-5.278-5.939-8.674-7.916l-0.132-0.071c-0.87-0.581-1.892-1.177-2.95-1.712l-0.174-0.080c1.552-2.428 3.24-4.539 5.125-6.457l-0.005 0.006c1.977-1.84 4.637-2.97 7.561-2.97 0.006 0 0.012 0 0.018 0h0.306c0.072-0.002 0.156-0.003 0.24-0.003 1.776 0 3.455 0.417 4.944 1.158l-0.065-0.029c1.828 0.984 3.351 2.311 4.531 3.906l0.026 0.037c1.668 2.514 3.002 5.429 3.843 8.546l0.048 0.209c0.845 3.558 1.329 7.642 1.329 11.84 0 0.806-0.018 1.607-0.053 2.404l0.004-0.113v22.067h22.63v-18.33c-0.003-0.173-0.005-0.378-0.005-0.583 0-3.13 0.451-6.154 1.291-9.012l-0.057 0.226c0.621-1.678 1.545-3.112 2.715-4.302l-0.002 0.002c1-0.896 2.196-1.596 3.514-2.028l0.070-0.020c1.384-0.422 2.975-0.666 4.623-0.666 0.013 0 0.026 0 0.039 0h-0.002c3.77 0.124 7.279 1.133 10.36 2.825l-0.12-0.060v51.2l-9.216 18.278c-1.13 1.951-2.437 3.633-3.94 5.118l-0.002 0.002c-1.138 1.278-2.517 2.313-4.070 3.040l-0.077 0.032c-1.668 0.795-3.604 1.372-5.64 1.629l-0.094 0.010c-2.465 0.346-5.355 0.568-8.288 0.614l-0.057 0.001h-24.422v23.040h24.832c4.263-0.016 8.423-0.407 12.464-1.14l-0.432 0.065c3.935-0.677 7.459-1.871 10.707-3.528l-0.211 0.098c3.283-1.722 6.089-3.858 8.486-6.386l0.013-0.014c2.273-2.432 4.319-5.13 6.073-8.026l0.122-0.217 13.414-23.091 2.662 1.075v-5.786l3.686-6.451-3.789-1.485v-87.859l9.882 5.632 8.858-20.48-3.789-3.021c-3.207-2.595-6.918-4.74-10.937-6.257l-0.276-0.091c-2.871-1.262-6.217-1.997-9.736-1.997-0.033 0-0.067 0-0.1 0h-1.070c-4.329 0.026-8.212 1.913-10.893 4.901l-0.012 0.014zM532.019 371.968v54.272h-12.39c0.864-2.932 1.362-6.301 1.362-9.785 0-6.804-1.896-13.166-5.189-18.585l0.090 0.159c-6.449-10.795-18.072-17.912-31.357-17.912-0.622 0-1.241 0.016-1.856 0.046l0.086-0.003c-0.951-0.084-2.057-0.133-3.174-0.133-21.013 0-38.052 17.014-38.093 38.017v6.455h22.733v-6.502c-0.001-0.076-0.002-0.166-0.002-0.257 0-4.676 1.965-8.893 5.114-11.87l0.008-0.007c2.886-2.783 6.82-4.498 11.153-4.498 0.417 0 0.831 0.016 1.24 0.047l-0.054-0.003h0.922c0.346-0.029 0.75-0.045 1.157-0.045 4.080 0 7.776 1.64 10.467 4.296l-0.002-0.002c2.82 2.786 4.566 6.653 4.566 10.928 0 0.19-0.003 0.379-0.010 0.568l0.001-0.027v0.307c0 0.027 0 0.060 0 0.092 0 4.142-1.64 7.902-4.305 10.664l0.004-0.005-1.382 1.28c-2.988 2.284-6.777 3.66-10.887 3.66-0.331 0-0.66-0.009-0.986-0.027l0.046 0.002h-12.646v21.35h13.107c0.431-0.049 0.931-0.077 1.438-0.077 7.348 0 13.327 5.863 13.512 13.167v0.017c0.003 0.102 0.004 0.221 0.004 0.342 0 7.691-6.235 13.926-13.926 13.926-0.344 0-0.685-0.012-1.022-0.037l0.045 0.003h-1.178c-0.431 0.046-0.93 0.073-1.436 0.073-7.779 0-14.1-6.24-14.232-13.987v-6.31h-22.323v6.4c0.029 19.489 15.835 35.277 35.328 35.277 0.018 0 0.036 0 0.054 0h3.171c0.859 0.076 1.858 0.119 2.868 0.119 18.975 0 34.372-15.314 34.508-34.257v-0.013c0.014-0.339 0.022-0.738 0.022-1.138 0-7.676-2.883-14.679-7.625-19.985l0.026 0.029h20.992v53.504h44.954v-21.35h-22.323v-108.186zM523.981 651.981l-9.882 26.214h-41.267l-9.83-26.214h-25.293l45.261 121.651h21.504l44.8-121.651zM480.922 700.16h25.242l-12.595 34.56z" />
<glyph unicode="&#xe90f;" glyph-name="linkdin" d="M1024-63.32v374.555c0 184.095-39.773 324.724-254.437 324.724-2.667 0.115-5.796 0.18-8.94 0.18-81.382 0-152.536-43.792-191.183-109.096l-0.564-1.030h-2.557v93.298h-203.244v-682.63h212.221v338.758c0 89.491 16.592 175.118 126.538 175.118 108.639 0 109.946-101.025 109.946-180.232v-332.394h212.221zM17.84 619.31h212.221v-682.687h-212.221zM123.979 959.375c-0.185 0.001-0.405 0.002-0.623 0.002-68.127 0-123.355-55.228-123.355-123.355s55.228-123.355 123.355-123.355c68.127 0 123.355 55.228 123.355 123.355 0 0.219-0.001 0.438-0.002 0.657v-0.034c-0.032 67.769-54.961 122.698-122.727 122.73h-0.003z" />
<glyph unicode="&#xe910;" glyph-name="meeting" d="M878.515 866.717h-87.208v46.671c0 25.742-20.869 46.611-46.611 46.611s-46.611-20.869-46.611-46.611v0-46.671h-139.533v46.671c0 25.742-20.869 46.611-46.611 46.611s-46.611-20.869-46.611-46.611v0-46.671h-139.503v46.671c0 25.742-20.869 46.611-46.611 46.611s-46.611-20.869-46.611-46.611v0-46.671h-87.208c-80.2-0.154-145.178-65.11-145.366-145.288v-133.837h1023.94v133.819c-0.188 80.227-65.217 145.203-145.446 145.306h-0.010zM0.031 81.456c0.103-80.292 65.164-145.353 145.446-145.456h733.037c80.292 0.103 145.353 65.164 145.456 145.446v413.075h-1023.94zM339.48 268.473c8.423 8.414 20.053 13.616 32.898 13.616s24.477-5.203 32.899-13.617v0l60.143-60.143 153.365 153.365c8.466 8.692 20.284 14.085 33.361 14.085 25.709 0 46.551-20.842 46.551-46.551 0-13.077-5.393-24.896-14.075-33.351l-186.274-186.274c-8.423-8.414-20.053-13.616-32.898-13.616s-24.477 5.203-32.899 13.617v0l-93.223 93.223c-8.324 8.407-13.466 19.977-13.466 32.748 0 12.846 5.204 24.477 13.617 32.899v0z" />
<glyph unicode="&#xe911;" glyph-name="pause" d="M256 960h512c141.385 0 256-114.615 256-256v-512c0-141.385-114.615-256-256-256h-512c-141.385 0-256 114.615-256 256v512c0 141.385 114.615 256 256 256z" />
<glyph unicode="&#xe912;" glyph-name="pencil" d="M978.616 914.505c-28.091 28.061-66.882 45.416-109.727 45.416s-81.636-17.354-109.728-45.417l-696.441-696.313c-38.743-38.538-62.72-91.887-62.72-150.837 0-0.184 0-0.367 0.001-0.551v0.029-87.935c0-23.647 19.169-42.816 42.816-42.816v0h87.935c0.163 0 0.356-0.001 0.549-0.001 58.941 0 112.282 23.978 150.8 62.71l696.516 696.516c28.042 28.088 45.384 66.866 45.384 109.695s-17.341 81.607-45.386 109.697l0.002-0.002zM221.567 59.344c-23.303-23.137-55.376-37.468-90.796-37.568h-44.819v44.8c0 0.096 0 0.21 0 0.324 0 35.367 14.387 67.372 37.627 90.485l528.577 528.577 98.495-98.495zM918.072 755.85l-107.327-107.327-98.495 98.239 107.327 107.327c12.587 12.563 29.962 20.331 49.152 20.331 38.428 0 69.578-31.152 69.578-69.578 0-19.238-7.807-36.652-20.426-49.247l-0.001-0.001z" />
<glyph unicode="&#xe913;" glyph-name="record" d="M590.957-62.835l-34.802 8.647c-13.245 3.451-28.451 5.432-44.12 5.432s-30.874-1.981-45.381-5.706l1.261 0.275-34.731-8.647c-2.778-0.709-5.973-1.132-9.262-1.165h-0.021c-0.011 0-0.025 0-0.038 0-17.886 0-32.911 12.25-37.141 28.818l-0.057 0.265c-0.714 2.774-1.123 5.958-1.123 9.236 0 17.912 12.218 32.97 28.774 37.294l0.268 0.059 34.661 8.647c6.528 1.753 14.812 3.419 23.245 4.623l1.215 0.142v89.157c-99.103 9.943-185.99 55.604-248.912 123.731l-0.241 0.264c-64.252 69.426-103.664 162.652-103.664 265.083 0 0.083 0 0.165 0 0.248v-0.013c0.080 21.157 17.21 38.286 38.358 38.366h0.008c0 0 0 0 0 0 21.204 0 38.396-17.169 38.437-38.362v-0.004c0.221-173.552 140.832-314.189 314.355-314.45h0.025c173.562 0.241 314.194 140.885 314.415 314.429v0.021c0.020 21.182 17.185 38.346 38.364 38.366h0.002c21.14-0.040 38.26-17.186 38.26-38.331 0-0.012 0-0.025 0-0.037v0.002c0-0.162 0-0.354 0-0.546 0-102.32-39.387-195.441-103.827-265.027l0.233 0.255c-63.172-68.376-150.054-114.033-247.511-123.86l-1.642-0.134v-89.157c9.6-1.336 17.86-3.002 25.942-5.109l-1.553 0.344 34.731-8.647c16.833-4.304 29.079-19.335 29.079-37.225 0-3.326-0.423-6.554-1.219-9.631l0.058 0.266c-4.337-16.818-19.354-29.049-37.233-29.084h-0.004c-3.288 0.038-6.458 0.461-9.492 1.225l0.281-0.060zM267.33 538.816v176.479c0.141 135.103 109.636 244.585 244.729 244.705h0.012c135.091-0.141 244.565-109.616 244.705-244.692v-176.492c-0.141-135.091-109.616-244.565-244.692-244.705h-0.013c-135.118 0.12-244.62 109.623-244.741 244.729v0.012zM337.921 715.295v-176.479c0.14-96.155 78.062-174.064 174.208-174.184h0.012c96.159 0.1 174.084 78.026 174.184 174.175v176.488c-0.121 96.136-78.043 174.034-174.177 174.114h-0.008c-96.196-0.060-174.17-77.997-174.29-174.173v-0.012z" />
<glyph unicode="&#xe914;" glyph-name="record-fill" d="M511.954 251.215c108.608 0.313 196.569 88.274 196.882 196.852v315.041c0.012 0.81 0.020 1.767 0.020 2.726 0 53.493-22.158 101.811-57.796 136.276l-0.053 0.051c-35.522 35.728-84.705 57.839-139.053 57.839s-103.53-22.112-139.043-57.83l-0.009-0.009c-35.692-34.521-57.849-82.842-57.849-136.339 0-0.954 0.007-1.907 0.021-2.857l-0.002 0.144v-315.011c0.313-108.608 88.274-196.569 196.852-196.882h0.030zM854.689 554.544c-7.108 7.021-16.88 11.357-27.667 11.357-21.633 0-39.191-17.444-39.375-39.034v-78.77c-1.6-151.023-124.399-272.833-275.649-272.833s-274.049 121.81-275.648 272.681l-0.001 0.152v78.753c0 21.747-17.629 39.376-39.376 39.376s-39.376-17.629-39.376-39.376v0-78.753c0.117-181.751 137.047-331.484 313.371-351.792l1.64-0.154v-81.369h-157.506c-21.755 0-39.391-17.636-39.391-39.391s17.636-39.391 39.391-39.391v0h393.764c21.755 0 39.391 17.636 39.391 39.391s-17.636 39.391-39.391 39.391v0h-157.506v81.369c177.929 20.524 314.824 170.2 315.040 351.895v78.775c0.001 0.112 0.002 0.245 0.002 0.377 0 10.75-4.49 20.453-11.698 27.332l-0.015 0.014z" />
<glyph unicode="&#xe915;" glyph-name="replace" d="M535.494 552.963v-51.479c-0.035-0.87-0.054-1.892-0.054-2.918 0-13.888 3.618-26.932 9.962-38.24l-0.203 0.394c8.097-13.956 22.967-23.192 39.995-23.192 0.020 0 0.039 0 0.059 0h-0.003c19.19 1.12 36.122 9.951 47.888 23.411l0.069 0.080 170.024 170.024c17.294 17.341 27.989 41.272 27.989 67.702s-10.694 50.361-27.991 67.704l-170.022 170.059c-11.837 13.54-28.767 22.371-47.771 23.483l-0.186 0.009c-24.765 0-49.755-19.782-49.755-63.956v-46.796c-244.060-15.116-440.301-201.447-470.695-439.599l-0.261-2.509c-0.149-1.123-0.234-2.422-0.234-3.74 0-16.553 13.419-29.973 29.973-29.973 9.934 0 18.737 4.832 24.191 12.274l0.059 0.084c77.896 105.885 202.021 173.833 342.015 173.833 26.506 0 52.442-2.436 77.598-7.096l-2.61 0.402zM151.274 507.629c66.797 166.749 226.992 282.405 414.215 282.536h0.017c16.553 0 29.973 13.419 29.973 29.973v0 69.2l165.341-165.379c6.46-6.478 10.454-15.417 10.454-25.29s-3.994-18.812-10.455-25.291l-165.34-165.34v69.313c0 0.005 0 0.011 0 0.017 0 14.108-9.747 25.94-22.874 29.128l-0.205 0.042c-33.663 8.396-72.308 13.212-112.079 13.212-117.956 0-226.017-42.374-309.787-112.73l0.741 0.606zM940.772 520.367c-3.272 1.335-7.069 2.11-11.047 2.11-9.909 0-18.694-4.808-24.151-12.219l-0.058-0.083c-77.896-105.885-202.021-173.833-342.015-173.833-26.506 0-52.442 2.436-77.598 7.096l2.61-0.402v51.479c0 44.173-24.99 63.956-49.755 63.956-19.191-1.116-36.124-9.948-47.888-23.411l-0.069-0.081-170.024-170.024c-17.306-17.343-28.007-41.282-28.007-67.72s10.702-50.378 28.009-67.722l170.022-170.022c11.834-13.543 28.766-22.376 47.771-23.483l0.186-0.009c24.765 0 49.755 19.782 49.755 63.956v46.758c244.060 15.116 440.301 201.447 470.695 439.599l0.261 2.509c0.144 1.102 0.226 2.377 0.226 3.671 0 12.589-7.761 23.364-18.757 27.804l-0.201 0.072zM458.538 105.837c-16.553 0-29.973-13.419-29.973-29.973v0-69.2l-165.341 165.304c-6.46 6.478-10.454 15.417-10.454 25.29s3.994 18.812 10.455 25.291l165.34 165.34v-69.2c0-0.002 0-0.005 0-0.008 0-14.121 9.766-25.962 22.912-29.137l0.205-0.042c33.663-8.396 72.308-13.212 112.079-13.212 117.956 0 226.017 42.374 309.787 112.73l-0.741-0.606c-66.797-166.749-226.992-282.405-414.215-282.536h-0.017z" />
<glyph unicode="&#xe916;" glyph-name="sound" d="M513.918 939.619l-308.082-267.303h-109.84c-52.993-0.061-95.935-43.003-95.996-95.991v-256.211c0.061-52.993 43.003-95.935 95.991-95.996h107.314l310.884-268.002c13.702-12.041 31.657-19.537 51.353-19.984l0.093-0.002c51.556 6.265 91.109 49.764 91.109 102.503 0 4.276-0.26 8.491-0.765 12.63l0.049-0.498v794.85c0 95.781-83.983 144.533-142.108 94.003zM63.997 320.115v256.205c0.181 17.599 14.399 31.818 31.981 31.998h96.013v-319.987h-95.996c-17.525 0.178-31.698 14.276-31.998 31.755v0.028zM592.029 50.765c0.185-1.674 0.29-3.615 0.29-5.58 0-17.832-8.664-33.639-22.011-43.444l-0.15-0.105c-3.501-1.616-7.649-2.316-14.221 3.339l-299.948 258.576v367.608l299.894 259.976c6.572 5.71 10.774 5.010 14.221 3.393 13.501-9.909 22.166-25.719 22.166-43.553 0-1.983-0.107-3.941-0.316-5.869l0.021 0.239zM855.991 160.337c-17.673 0-31.998 14.326-31.998 31.998s14.326 31.998 31.998 31.998v0c49.183 0 104.023 92.010 104.023 223.991s-54.786 223.991-104.023 223.991c-17.673 0-31.998 14.326-31.998 31.998s14.326 31.998 31.998 31.998v0c153.798 0 217.957-307.92 124.44-484.021-20.814-50.889-67.869-87.078-123.889-91.918l-0.551-0.038zM766.299 251.755c-17.673 0-31.998 14.326-31.998 31.998s14.326 31.998 31.998 31.998v0c22.087 0 55.432 52.901 55.432 132.574s-33.346 132.574-55.432 132.574c-17.673 0-31.998 14.326-31.998 31.998s14.326 31.998 31.998 31.998v0c110.649 0 153.152-209.284 90.070-327.96-15.219-36.442-49.306-62.196-89.725-65.162l-0.346-0.020z" />
<glyph unicode="&#xe917;" glyph-name="star" d="M1018.747 575.381c-10.742 31.465-37.681 54.699-70.617 59.947l-0.509 0.067-246.916 38.2-107.738 234.166c-14.425 31.041-45.337 52.177-81.188 52.177s-66.763-21.137-80.958-51.627l-0.23-0.55-107.943-234.166-246.916-38.2c-33.35-5.383-60.186-28.601-70.684-59.385l-0.186-0.629c-3.082-8.717-4.864-18.77-4.864-29.24 0-24.204 9.52-46.186 25.020-62.403l-0.032 0.034 182.14-189.975-40.658-252.959c-0.804-4.5-1.263-9.68-1.263-14.968 0-31.505 16.314-59.199 40.955-75.096l0.352-0.213c13.608-9.087 30.341-14.501 48.338-14.501 18.257 0 35.213 5.572 49.261 15.107l-0.307-0.197 207.999 136.67 207.999-136.926c13.808-9.127 30.753-14.562 48.966-14.562 49.491 0 89.611 40.12 89.611 89.611 0 5.252-0.452 10.398-1.319 15.403l0.077-0.534-40.555 252.959 182.14 190.18c15.641 16.233 25.276 38.346 25.276 62.71 0 10.398-1.755 20.387-4.986 29.687l0.192-0.635zM952.179 527.965l-193.252-201.598c-5.509-5.74-8.9-13.547-8.9-22.147 0-1.781 0.145-3.527 0.425-5.23l-0.025 0.185 43.115-268.833c0.274-1.407 0.431-3.024 0.431-4.679 0-9.099-4.747-17.090-11.899-21.631l-0.104-0.062c-3.831-2.627-8.569-4.196-13.672-4.196s-9.84 1.568-13.756 4.25l0.083-0.054-225.307 148.498c-4.954 3.3-11.041 5.267-17.589 5.267s-12.636-1.966-17.707-5.341l0.118 0.074-225.614-148.498c-3.831-2.627-8.569-4.196-13.672-4.196s-9.84 1.568-13.756 4.25l0.083-0.054c-7.262 4.602-12.012 12.596-12.012 21.698 0 1.67 0.16 3.303 0.465 4.886l-0.026-0.161 43.167 268.833c0.254 1.516 0.4 3.263 0.4 5.044 0 8.6-3.391 16.407-8.911 22.158l0.010-0.011-193.149 201.547c-4.543 4.745-7.338 11.193-7.338 18.294 0 3.094 0.531 6.065 1.506 8.825l-0.057-0.185c2.989 9.123 10.801 15.858 20.346 17.24l0.136 0.016 263.917 40.965c10.662 1.765 19.418 8.592 23.83 17.882l0.083 0.194 115.214 249.63c4.011 8.914 12.816 15.008 23.043 15.008s19.031-6.094 22.979-14.849l0.064-0.159 115.214-249.784c4.505-9.607 13.377-16.514 23.987-18.205l0.182-0.024 263.917-40.965c9.681-1.399 17.493-8.133 20.431-17.078l0.051-0.178c0.873-2.512 1.378-5.408 1.378-8.421 0-7.137-2.829-13.613-7.428-18.366l0.007 0.007z" />
<glyph unicode="&#xe918;" glyph-name="trash" d="M715.958-64h-407.847c-78.234 0.074-141.639 63.456-141.75 141.674v635.969h-34.545c-19.114 0-34.61 15.495-34.61 34.61v0c0.037 19.086 15.518 34.545 34.609 34.545 0 0 0 0 0 0h760.435c19.078 0 34.545-15.466 34.545-34.545v0c0 0 0 0 0 0 0-19.091-15.458-34.572-34.541-34.609h-34.614v-635.958c-0.111-78.206-63.479-141.574-141.674-141.685h-0.011zM633.038 558.127c-19.114 0-34.61-15.495-34.61-34.61v-345.641c0-19.114 15.495-34.61 34.61-34.61v0c19.086 0.037 34.545 15.518 34.545 34.609 0 0 0 0 0 0v0 345.641c0 0 0 0 0 0 0 19.091-15.458 34.572-34.541 34.609h-0.004zM391.031 558.127c-19.086-0.037-34.545-15.518-34.545-34.609 0 0 0 0 0 0v0-345.641c0 0 0 0 0 0 0-19.091 15.458-34.572 34.541-34.609h0.004c19.114 0 34.61 15.495 34.61 34.61v0 345.641c0 19.114-15.495 34.61-34.61 34.61v0zM684.465 873.768c23.812 0 43.116 19.304 43.116 43.116s-19.304 43.116-43.116 43.116h-344.861c-23.812 0-43.116-19.304-43.116-43.116s19.304-43.116 43.116-43.116v0z" />
<glyph unicode="&#xe919;" glyph-name="twitter" d="M806.457 910.799h157.017l-343.040-392.075 403.566-533.524h-315.976l-247.505 323.579-283.185-323.579h-157.114l366.916 419.361-387.136 506.239h324.007l223.709-295.765zM751.348 79.184h86.998l-561.617 742.565h-93.366z" />
<glyph unicode="&#xe91a;" glyph-name="upi" d="M791.762 343.142h-43.736l60.827 219.356h43.736zM428.021 356.95c-2.217-8.656-9.886-14.975-19.053-15.112h-225.602c-0.297-0.020-0.643-0.031-0.993-0.031-5.264 0-9.924 2.583-12.783 6.552l-0.032 0.046c-1.846 2.727-2.947 6.090-2.947 9.711 0 2.056 0.355 4.028 1.007 5.86l-0.038-0.122 55.27 198.309h43.568l-49.167-177.261h174.946l49.167 177.261h43.905l-57.207-205.212zM768.988 555.595c-2.975 4.024-7.704 6.605-13.035 6.605-0.39 0-0.777-0.014-1.161-0.041l0.051 0.003h-240.403l-11.828-43.4h218.893l-12.629-45.715h-218.514l-36.328-131.21h43.736l24.331 88.147h196.667c6.634 0.018 12.717 2.367 17.476 6.269l-0.049-0.039c5.015 3.813 8.72 9.116 10.473 15.243l0.050 0.206 24.331 87.81c0.783 1.919 1.236 4.146 1.236 6.479 0 3.588-1.074 6.926-2.919 9.709l0.041-0.065zM96.356 772.972h831.288c26.906-0.172 51.086-11.703 68.009-30.034l0.058-0.063c17.528-18.778 28.289-44.069 28.289-71.873 0-0.171-0.001-0.343-0.001-0.515v0.027-445.026c0.001-0.145 0.001-0.317 0.001-0.488 0-27.804-10.761-53.095-28.346-71.935l0.057 0.062c-16.981-18.395-41.161-29.926-68.036-30.098h-831.319c-26.906 0.172-51.086 11.703-68.009 30.034l-0.058 0.063c-17.527 18.748-28.289 44.012-28.289 71.791 0 0.201 0.001 0.401 0.002 0.602v-0.031 445.068c-0.001 0.133-0.001 0.289-0.001 0.446 0 27.804 10.761 53.095 28.346 71.934l-0.057-0.062c16.981 18.395 41.161 29.926 68.036 30.098h0.031zM927.644 737.655h-831.288c-17.625-0.127-33.459-7.688-44.54-19.701l-0.038-0.042c-11.502-12.306-18.564-28.887-18.564-47.119 0-0.098 0-0.197 0.001-0.296v0.015-445.026c-0.001-0.083-0.001-0.182-0.001-0.281 0-18.231 7.063-34.812 18.601-47.158l-0.037 0.039c11.12-12.054 26.954-19.616 44.556-19.742h831.311c17.625 0.127 33.459 7.688 44.54 19.701l0.038 0.042c11.502 12.312 18.564 28.898 18.564 47.135 0 0.093 0 0.186-0.001 0.279v-0.015 445.026c0.001 0.132 0.001 0.288 0.001 0.444 0 18.15-6.995 34.666-18.437 46.999l0.041-0.044c-11.157 12.094-27.060 19.666-44.733 19.743h-0.014z" />
<glyph unicode="&#xe91b;" glyph-name="upload" d="M250.663-64c0 0 0 0 0 0-81.735 0-148.010 66.187-148.155 147.887v728.212c0.145 81.715 66.421 147.901 148.155 147.901 0 0 0 0 0 0h385.064c12.053-0.108 22.889-5.232 30.537-13.382l0.021-0.023 243.58-255.524c7.044-7.602 11.429-17.756 11.626-28.931l0.001-0.039v-578.136c-0.181-81.7-66.435-147.865-148.152-147.901h-0.003zM187.132 812.099v-728.198c0.459-34.901 28.63-63.072 63.488-63.531h522.717c34.901 0.459 63.072 28.63 63.531 63.488v536.44h-120.011c0 0 0 0 0 0-67.91 0-122.979 54.98-123.124 122.856v132.286h-343.070c-34.877-0.387-63.064-28.485-63.594-63.291l-0.001-0.050zM678.23 743.167c0.215-21.099 17.369-38.119 38.498-38.119 0.045 0 0.091 0 0.136 0h62.826l-101.46 106.288zM315.72 100.483c-22.652 0.906-40.673 19.488-40.673 42.28s18.021 41.375 40.591 42.278l0.082 0.003h392.497c0.489 0.020 1.063 0.032 1.639 0.032 23.368 0 42.312-18.944 42.312-42.312s-18.944-42.312-42.312-42.312c-0.576 0-1.15 0.012-1.721 0.034l0.082-0.003zM469.72 268.46v213.529l-66.327-71.346c-7.815-8.28-18.865-13.434-31.118-13.434-11.106 0-21.223 4.235-28.825 11.177l0.033-0.030c-8.075 7.475-13.238 17.994-13.657 29.722l-0.002 0.074c-0.016 0.432-0.025 0.939-0.025 1.448 0 11.141 4.365 21.262 11.478 28.748l-0.017-0.018 139.769 149.871c7.702 8.273 18.655 13.432 30.813 13.432s23.111-5.159 30.789-13.407l0.023-0.026 139.769-150.061c7.028-7.389 11.351-17.408 11.351-28.437 0-0.657-0.015-1.31-0.046-1.96l0.003 0.092c-0.876-22.654-19.409-40.698-42.176-40.787h-0.009c-12.119 0.010-23.040 5.129-30.728 13.319l-66.602 71.622v-213.529c0-23.333-18.915-42.248-42.248-42.248s-42.248 18.915-42.248 42.248v0z" />
<glyph unicode="&#xe91c;" glyph-name="user" d="M935.432-63.898c-19.792 0-35.836 16.044-35.836 35.836v0 105.717c-0.117 97.131-78.825 175.84-175.945 175.956h-423.188c-97.131-0.117-175.84-78.825-175.956-175.945v-105.83c0-19.792-16.044-35.836-35.836-35.836s-35.836 16.044-35.836 35.836v0 105.819c0.175 136.64 110.969 247.344 247.627 247.373h423.334c136.55-0.175 247.199-110.823 247.373-247.357v-105.836c-0.058-19.712-16.022-35.676-35.728-35.734h-0.006zM505.241 960c136.62 0 247.373-110.753 247.373-247.373s-110.753-247.373-247.373-247.373c-136.62 0-247.373 110.753-247.373 247.373v0c0.175 136.55 110.823 247.199 247.357 247.373h0.017zM505.241 536.669c97.178 0 175.956 78.778 175.956 175.956s-78.778 175.956-175.956 175.956c-97.178 0-175.956-78.778-175.956-175.956v0c0.117-97.131 78.825-175.84 175.945-175.956h0.011z" />
<glyph unicode="&#xe91d;" glyph-name="user-circle" d="M875.021 811.005c-92.765 92.086-220.557 148.995-361.639 148.995-283.533 0-513.382-229.849-513.382-513.382 0-141.076 56.903-268.86 149.010-361.654l-0.031 0.031c92.765-92.086 220.557-148.995 361.639-148.995 283.533 0 513.382 229.849 513.382 513.382 0 141.076-56.903 268.86-149.010 361.654l0.031-0.031zM221.425 100.474c18.099 146.038 141.164 258.039 290.501 258.592h0.057c149.523-0.091 272.818-112.266 290.42-257.051l0.139-1.407c-78.006-65.742-179.624-105.693-290.575-105.693s-212.57 39.952-291.257 106.253l0.682-0.56zM511.983 420.913c-86.118 0-155.929 69.812-155.929 155.929s69.812 155.929 155.929 155.929c86.118 0 155.929-69.812 155.929-155.929v0c-0.095-86.079-69.85-155.833-155.92-155.929h-0.009zM854.327 151.351c-29.261 114.743-111.74 205.518-218.937 245.743l-2.439 0.802c57.743 39.387 95.159 104.866 95.159 179.085 0 119.345-96.748 216.094-216.094 216.094s-216.094-96.748-216.094-216.094c0-74.219 37.416-139.698 94.414-178.605l0.745-0.48c-109.689-40.931-192.222-131.694-220.947-243.997l-0.531-2.448c-68.859 79.061-110.839 183.106-110.839 296.957 0 250.305 202.912 453.218 453.218 453.218s453.218-202.912 453.218-453.218c0-113.85-41.98-217.896-111.305-297.503l0.465 0.545z" />
<glyph unicode="&#xe91e;" glyph-name="video" d="M956.796 682.075c-0.060 0.001-0.131 0.001-0.202 0.001-7.821 0-15.105-2.299-21.212-6.258l0.152 0.093-197.708-124.805c-5.499-3.504-9.103-9.558-9.136-16.455v-173.761c0.034-6.902 3.637-12.956 9.057-16.413l0.079-0.047 197.727-124.805c6.044-3.802 13.378-6.087 21.241-6.165h47.552c0.055-0.001 0.121-0.001 0.187-0.001 10.739 0 19.448 8.695 19.468 19.43v429.721c-0.085 10.77-8.835 19.468-19.617 19.468-0.013 0-0.027 0-0.040 0h0.002zM552.076 155.427h-434.371c-64.839 0.222-117.357 52.66-117.705 117.448v350.216c0.233 64.783 52.681 117.238 117.439 117.481h434.319c64.789-0.233 117.249-52.692 117.481-117.459v-349.962c0-0.039 0-0.085 0-0.131 0-64.794-52.404-117.349-117.141-117.593h-0.023z" />
<glyph unicode="&#xe91f;" glyph-name="facebook" d="M581.498-64h-168.727v477.731h-161.047v162.909h160.815v148.945c0 146.793 85.12 234.415 227.782 234.415 53.236 0 104.32-3.258 131.956-5.818v-144.756h-86.924c-91.52 0-103.913-51.724-103.913-102.284v-130.502h182.691l-21.062-162.909h-161.571v-477.731z" />
<glyph unicode="&#xe920;" glyph-name="instagram" d="M282.116-64c-155.214 0.15-281 125.935-281.15 281.135v461.276c0 0.052 0 0.114 0 0.176 0 155.328 125.842 281.263 281.135 281.413h459.783c0 0 0 0 0 0 155.275 0 281.15-125.875 281.15-281.15 0-0.154 0-0.309 0-0.463v0.024-461.261c0-155.275-125.875-281.15-281.15-281.15v0zM90.671 638.083v-380.079c0-0.131 0-0.285 0-0.439 0-128.048 103.741-231.868 231.761-231.992h379.124c0.013 0 0.029 0 0.044 0 128.15 0 232.036 103.886 232.036 232.036 0 0.139 0 0.278 0 0.417v-0.022 380.079c0 0.052 0 0.114 0 0.176 0 128.209-103.884 232.156-232.071 232.256h-379.122c-128.039-0.275-231.729-104.134-231.729-232.212 0-0.077 0-0.155 0-0.232v0.012zM328.506 260.816c-47.304 47.822-76.526 113.611-76.526 186.226 0 0.291 0 0.581 0.001 0.871v-0.045c-0.008 0.76-0.012 1.658-0.012 2.557 0 144.065 116.181 260.995 259.96 262.206l0.115 0.001c0.082 0 0.178 0 0.275 0 70.95 0 135.184-28.757 181.682-75.251l2.24-2.24 2.24-2.152c45.476-47.678 73.459-112.389 73.459-183.635 0-36.635-7.398-71.541-20.784-103.306l0.655 1.751c-40.105-95.194-131.585-161.314-238.798-163.808l-0.311-0.006c-0.028 0-0.062 0-0.096 0-72.009 0-137.152 29.401-184.078 76.853l-0.023 0.024zM386.274 569.773c-30.78-31.339-49.781-74.337-49.781-121.773 0-24.599 5.109-48.005 14.326-69.214l-0.435 1.123c27.084-62.509 88.246-105.445 159.436-105.445 0.767 0 1.533 0.005 2.297 0.015l-0.116-0.001c94.505 0.694 170.847 77.465 170.847 172.068 0 0.465-0.002 0.929-0.006 1.393v-0.071c0 0.027 0 0.060 0 0.092 0 72.007-43.783 133.789-106.18 160.174l-1.141 0.428c-19.486 8.189-42.133 12.951-65.891 12.96h-0.003c-48.262-0.049-91.898-19.819-123.289-51.684l-0.021-0.021zM744.124 679.949c-11.3 11.448-18.279 27.185-18.279 44.553 0 8.562 1.696 16.728 4.771 24.18l-0.154-0.422c9.59 22.944 31.585 38.903 57.381 39.535l0.078 0.002c0.052 0 0.114 0 0.176 0 15.073 0 28.856-5.521 39.439-14.651l-0.078 0.066 1.274-1.274c2.145-1.605 4.019-3.381 5.668-5.351l0.042-0.052 1.274-1.625c8.699-10.529 13.977-24.167 13.977-39.037 0-0.33-0.003-0.66-0.008-0.989l0.001 0.050c0.007-0.359 0.012-0.782 0.012-1.206 0-16.831-6.708-32.094-17.597-43.264l0.013 0.013c-11.198-11.352-26.736-18.4-43.92-18.451h-0.010c-0.267-0.004-0.582-0.007-0.897-0.007-16.86 0-32.115 6.872-43.116 17.97l-0.004 0.004z" />
<glyph unicode="&#xe921;" glyph-name="delete" horiz-adv-x="832" d="M752.026 832h-176.026v32c-0.058 52.996-43.004 95.942-95.994 96h-128.006c-52.996-0.058-95.942-43.004-96-95.994v-32.006h-175.974c-44.185-0.029-79.996-35.84-80.026-80.023v-111.977c0-17.673 14.327-32 32-32v0h17.51l27.648-580.557c2.445-51.011 44.398-91.443 95.794-91.443 0.018 0 0.037 0 0.055 0h485.936c0.031 0 0.067 0 0.104 0 51.396 0 93.349 40.432 95.786 91.225l0.008 0.218 27.648 580.557h17.51c17.673 0 32 14.327 32 32v0 111.974c-0.029 44.167-35.811 79.967-79.969 80.026h-0.006zM320 864c0.029 17.661 14.339 31.971 31.997 32h128.003c17.661-0.029 31.971-14.339 32-31.997v-32.003h-192zM64 751.974c0.029 8.829 7.193 15.974 16.026 15.974 0 0 0 0 0 0h672c8.811-0.029 15.945-7.164 15.974-15.972v-79.977h-704zM690.944 30.464c-0.679-17.108-14.712-30.72-31.925-30.72-0.008 0-0.017 0-0.025 0h-485.989c-0.007 0-0.015 0-0.024 0-17.213 0-31.246 13.612-31.923 30.659l-0.002 0.061-27.494 577.536h604.877zM416 64c17.673 0 32 14.327 32 32v0 416c0 17.673-14.327 32-32 32s-32-14.327-32-32v0-416c0-17.673 14.327-32 32-32v0zM576 64c17.673 0 32 14.327 32 32v0 416c0 17.673-14.327 32-32 32s-32-14.327-32-32v0-416c0-17.673 14.327-32 32-32v0zM256 64c17.673 0 32 14.327 32 32v0 416c0 17.673-14.327 32-32 32s-32-14.327-32-32v0-416c0-17.673 14.327-32 32-32v0z" />
<glyph unicode="&#xe922;" glyph-name="edit" horiz-adv-x="1020" d="M824.037 512.917c-16.375 0-29.65-13.275-29.65-29.65v0-434.838c-0.029-27.29-22.144-49.405-49.431-49.434h-632.426c-27.29 0.029-49.405 22.144-49.434 49.431v632.477c0.029 27.29 22.144 49.405 49.431 49.434h434.841c16.375 0 29.65 13.275 29.65 29.65s-13.275 29.65-29.65 29.65h-434.838c-60.029-0.058-108.677-48.705-108.735-108.729v-632.48c0.058-60.029 48.705-108.677 108.729-108.735h632.479c60.073 0 108.778 48.67 108.836 108.729v434.843c0 0 0 0 0 0 0 16.375-13.275 29.65-29.65 29.65-0.053 0-0.107 0-0.16 0h0.008zM995.513 875.603l-55.658 55.658c-12.53 12.504-29.826 20.236-48.928 20.236s-36.398-7.732-48.929-20.237l-447.234-447.234c-4.017-4.025-6.883-9.2-8.063-14.989l-0.032-0.191-27.93-139.751c-0.368-1.754-0.579-3.769-0.579-5.833 0-16.375 13.275-29.65 29.65-29.65 2.049 0 4.050 0.208 5.982 0.604l-0.191-0.033 139.751 27.93c5.979 1.212 11.154 4.079 15.18 8.096l447.234 447.234c12.489 12.527 20.211 29.813 20.211 48.903s-7.722 36.375-20.213 48.905l0.002-0.002zM512.708 378.782l-87.332-17.456 17.456 87.332 364.001 364.001 69.876-69.876zM953.618 819.692l-34.963-34.963-69.876 69.876 34.963 34.963c1.812 1.73 4.273 2.795 6.983 2.795s5.17-1.065 6.986-2.799l55.654-55.654c1.88-1.839 3.046-4.402 3.046-7.237 0-2.709-1.064-5.169-2.797-6.985l0.004 0.004z" />
<glyph unicode="&#xe923;" glyph-name="share" horiz-adv-x="948" d="M754.637 322.406c-59.604-0.044-112.876-27.118-148.226-69.625l-0.254-0.314-230.707 130.97c7.042 19.207 11.115 41.384 11.115 64.512s-4.073 45.306-11.541 65.853l0.426-1.341 230.707 131.021c35.647-42.687 88.887-69.649 148.424-69.649 106.576 0 192.973 86.397 192.973 192.973s-86.397 192.973-192.973 192.973c-106.576 0-192.973-86.397-192.973-192.973 0-23.14 4.073-45.329 11.541-65.889l-0.426 1.343-230.912-131.021c-35.688 42.844-89.053 69.914-148.74 69.914-106.689 0-193.178-86.489-193.178-193.178s86.489-193.178 193.178-193.178c59.688 0 113.053 27.070 148.488 69.602l0.252 0.311 230.707-131.021c-7.026-19.208-11.090-41.386-11.090-64.512 0-106.689 86.489-193.178 193.178-193.178s193.178 86.489 193.178 193.178c0 106.689-86.489 193.178-193.178 193.178-0.007 0-0.014 0-0.021 0h0.001zM754.637 892.416c69.363 0 125.594-56.23 125.594-125.594s-56.23-125.594-125.594-125.594c-69.363 0-125.594 56.23-125.594 125.594v0c0.058 69.34 56.254 125.535 125.588 125.594h0.005zM193.229 322.406c-0.015 0-0.033 0-0.051 0-69.363 0-125.594 56.23-125.594 125.594s56.23 125.594 125.594 125.594c69.363 0 125.594-56.23 125.594-125.594v0c-0.087-69.31-56.236-125.477-125.531-125.594h-0.011zM754.637 3.584c-0.015 0-0.033 0-0.051 0-69.363 0-125.594 56.23-125.594 125.594s56.23 125.594 125.594 125.594c69.363 0 125.594-56.23 125.594-125.594v0c-0.087-69.31-56.236-125.477-125.531-125.594h-0.011z" />
<glyph unicode="&#xe924;" glyph-name="coin" d="M512.021-62.418c-0.004 0-0.009 0-0.013 0-281.885 0-510.397 228.513-510.397 510.397 0 140.945 57.131 268.548 149.498 360.912v0c92.669 94.27 221.55 152.689 364.074 152.689 281.885 0 510.397-228.513 510.397-510.397 0-142.524-58.418-271.405-152.616-364.003l-0.073-0.071c-91.858-92.365-219.030-149.529-359.554-149.529-0.464 0-0.926 0.001-1.39 0.002h0.072zM512.021 850.764c-222.429 0-402.743-180.314-402.743-402.743s180.314-402.743 402.743-402.743c222.429 0 402.743 180.314 402.743 402.743v0c-0.258 222.325-180.418 402.485-402.719 402.743h-0.025zM512.021 105.072c-189.291 0-342.743 153.452-342.743 342.743s153.452 342.743 342.743 342.743c189.291 0 342.743-153.452 342.743-342.743v0c-0.329-189.16-153.583-342.414-342.711-342.743h-0.032zM366.128 422.625v-52.279h74.33c0.749 0.034 1.627 0.054 2.509 0.054 10.293 0 19.971-2.636 28.396-7.268l-0.305 0.154c9.103-6.031 16.559-13.817 22.037-22.927l0.179-0.322 77.923-117.647h80.028l-76.89 115.046c-6.554 10.259-14.446 18.98-23.568 26.221l-0.217 0.166c-7.916 5.927-17.305 10.38-27.495 12.745l-0.503 0.099c24.412 3.974 45.668 15.314 61.939 31.629l0.003 0.003c15.206 16.211 25.123 37.545 26.904 61.15l0.021 0.338h46.58v41.294h-49.388c-2.909 15.094-9.754 28.258-19.42 38.792l0.053-0.058h68.549v41.294h-291.703v-41.294h110.38c36.421 0 59.134-13.049 67.475-38.734h-177.855v-41.294h179.341c-2.199-14.586-10.192-26.973-21.515-34.949l-0.164-0.11c-12.302-7.636-27.227-12.162-43.209-12.162-1.461 0-2.914 0.038-4.357 0.113l0.202-0.008z" />
<glyph unicode="&#xe925;" glyph-name="gender" horiz-adv-x="905" d="M4.492 175.799l62.841 114.22h-37.281c-16.569 0-30.001 13.432-30.001 30.001v0 209.282c0.122 82.040 46.89 153.128 115.197 188.175l1.192 0.555c-27.541 25.594-44.717 62.018-44.717 102.454 0 77.17 62.558 139.728 139.728 139.728s139.728-62.558 139.728-139.728c0-40.436-17.176-76.86-44.63-102.374l-0.087-0.080c69.328-35.658 115.957-106.657 116.078-188.559v-209.351c0-16.569-13.432-30.001-30.001-30.001v0h-28.71l55.767-117.111c1.842-3.777 2.919-8.217 2.919-12.909 0-16.569-13.432-30.001-30.001-30.001-0.010 0-0.020 0-0.029 0h-70.017v-164.1c0-16.569-13.432-30.001-30.001-30.001v0h-162.5c-16.569 0-30.001 13.432-30.001 30.001v0 163.997h-70.070c-0.002 0-0.004 0-0.006 0-16.569 0-30.001 13.432-30.001 30.001 0 5.851 1.675 11.311 4.571 15.926l-0.073-0.125zM211.554 900.050c-44.032 0-79.726-35.695-79.726-79.726s35.695-79.726 79.726-79.726c44.032 0 79.726 35.695 79.726 79.726v0c-0.059 44.008-35.718 79.668-79.721 79.726h-0.006zM159.918-3.947h102.498v133.945h-102.498zM344.879 190.051l-55.767 117.111c-1.842 3.777-2.919 8.217-2.919 12.909 0 16.569 13.432 30.001 30.001 30.001 0.010 0 0.020 0 0.029 0h46.213v179.23c0 83.529-67.714 151.243-151.243 151.243s-151.243-67.714-151.243-151.243v0-179.333h57.988c16.567-0.002 29.997-13.433 29.997-30.001 0-5.304-1.376-10.287-3.792-14.61l0.078 0.152-63.564-115.562zM598.93 718.032c-27.541 25.594-44.717 62.018-44.717 102.454 0 77.17 62.558 139.728 139.728 139.728s139.728-62.558 139.728-139.728c0-40.436-17.176-76.86-44.63-102.374l-0.087-0.080c69.328-35.658 115.957-106.657 116.078-188.559v-289.18c0-16.569-13.432-30.001-30.001-30.001v0h-49.984v-244.291c0-16.569-13.432-30.001-30.001-30.001v0h-202.001c-16.569 0-30.001 13.432-30.001 30.001v0 243.982h-50.5c-16.569 0-30.001 13.432-30.001 30.001v0 289.163c0.060 82.1 46.844 153.26 115.196 188.33l1.192 0.555zM693.992 899.999c-44.032 0-79.726-35.695-79.726-79.726s35.695-79.726 79.726-79.726c44.032 0 79.726 35.695 79.726 79.726v0c-0.059 44.008-35.718 79.668-79.721 79.726h-0.006zM542.646 269.984h50.5c16.569 0 30.001-13.432 30.001-30.001v0-243.982h142v243.982c0 16.569 13.432 30.001 30.001 30.001v0h49.984v259.318c-0.11 72.906-51.701 133.731-120.361 148.076l-0.985 0.172v-111.999c0-16.569-13.432-30.001-30.001-30.001s-30.001 13.432-30.001 30.001v0 111.999c-69.557-14.601-121.050-75.398-121.139-148.238v-0.010zM241.297 590.542c0-16.569-13.432-30.001-30.001-30.001s-30.001 13.432-30.001 30.001c0 16.569 13.432 30.001 30.001 30.001s30.001-13.432 30.001-30.001z" />
<glyph unicode="&#xe926;" glyph-name="search" d="M1006.029 39.68l-196.813 196.813c57.642 75.089 92.373 170.393 92.373 273.809 0 249.629-202.364 451.994-451.994 451.994s-451.994-202.364-451.994-451.994c0-249.629 202.364-451.994 451.994-451.994 103.416 0 198.72 34.731 274.884 93.165l-1.075-0.792 196.71-196.915c10.994-10.994 26.181-17.793 42.957-17.793 33.551 0 60.75 27.199 60.75 60.75 0 16.776-6.8 31.963-17.793 42.957v0zM217.549 276.173c-59.634 59.632-96.518 142.014-96.518 233.011 0 181.991 147.533 329.523 329.523 329.523s329.523-147.533 329.523-329.523c0-181.988-147.529-329.52-329.517-329.523v0c-90.988 0.047-173.355 36.917-233.014 96.515l0.003-0.003z" />
<glyph unicode="&#xe927;" glyph-name="user-contact" d="M619.981 15.974h-498.637c-0.051 0-0.112 0-0.173 0-12.854 0-24.315 5.966-31.764 15.279l-0.063 0.081c-5.851 7.134-9.398 16.353-9.398 26.4 0 3.053 0.327 6.029 0.949 8.896l-0.050-0.275c43.142 197.674 214.163 344.385 420.382 349.837l0.584 0.012c3.379 0 6.758 0 10.24 0 150.325 0.070 272.16 121.948 272.16 272.282 0 150.377-121.905 272.282-272.282 272.282s-272.282-121.905-272.282-272.282c0-89.092 42.789-168.189 108.937-217.863l0.702-0.505c-175.595-58.981-307.334-204.287-346.058-384.164l-0.617-3.42c-1.65-7.511-2.596-16.138-2.596-24.986 0-67.052 54.294-121.423 121.317-121.549h498.649c22.084 0 39.987 17.903 39.987 39.987s-17.903 39.987-39.987 39.987v0zM320 687.974c0.002 106.038 85.962 191.997 192 191.997s192-85.961 192-192c0-104.436-83.383-189.398-187.207-191.941l-0.236-0.005c-1.336 0.178-2.898 0.289-4.482 0.307h-9.394c-101.849 5.235-182.474 88.989-182.682 191.621v0.020zM1011.558-30.106l-0.461-0.512c-22.044-20.762-51.827-33.52-84.59-33.52-2.050 0-4.089 0.050-6.115 0.149l0.286-0.011c-81.512 6.358-153.355 43.254-204.967 99.118l-0.192 0.21c-56.074 51.803-92.97 123.646-99.26 204.085l-0.068 1.074c-0.086 1.725-0.135 3.745-0.135 5.777 0 32.788 12.778 62.592 33.626 84.703l-0.057-0.061 0.512 0.461c8.551 7.713 19.934 12.431 32.418 12.431 13.703 0 26.078-5.684 34.896-14.823l0.014-0.014c36.301-37.632 58.163-75.315 21.606-112.64l-32.102-32.358c17.618-34.447 39.559-63.907 65.604-89.159l0.086-0.083 2.304-2.304c25.301-26.222 54.727-48.245 87.275-65.069l1.864-0.876 32.307 32.102c37.427 36.557 75.11 14.694 112.64-21.606 9.153-8.832 14.838-21.207 14.838-34.91 0-12.485-4.718-23.867-12.469-32.461l0.038 0.043z" />
<glyph unicode="&#xe928;" glyph-name="info" d="M512 960c-282.77 0-512-229.23-512-512s229.23-512 512-512c282.77 0 512 229.23 512 512v0c0 282.77-229.23 512-512 512v0zM618.56 166.4q-39.552-15.616-63.040-23.744c-15.424-5.212-33.187-8.22-51.654-8.22-1.078 0-2.154 0.010-3.227 0.031l0.161-0.002c-2.034-0.136-4.409-0.213-6.802-0.213-25.66 0-49.245 8.883-67.848 23.741l0.218-0.168c-16.271 13.914-26.519 34.463-26.519 57.405 0 0.654 0.008 1.305 0.025 1.955l-0.002-0.096c0.007 10.072 0.704 19.975 2.048 29.671l-0.128-1.127c1.344 9.728 3.456 20.608 6.4 32.896l32.96 116.48c2.88 11.2 5.44 21.824 7.424 32 1.804 8.187 2.894 17.629 3.007 27.307l0.001 0.085c0.151 1.342 0.237 2.897 0.237 4.472 0 10.131-3.567 19.43-9.513 26.708l0.060-0.076c-8.225 5.659-18.401 9.038-29.365 9.038-2.078 0-4.128-0.121-6.143-0.358l0.245 0.023c-9.37-0.036-18.394-1.461-26.895-4.078l0.655 0.174c-8.896-2.752-16.576-5.184-22.912-7.616l8.768 35.712q32.384 13.184 61.952 22.592c16.657 5.752 35.858 9.178 55.827 9.407l0.109 0.001c2.039 0.138 4.419 0.217 6.817 0.217 25.242 0 48.443-8.74 66.741-23.359l-0.214 0.165c15.764-14.050 25.643-34.412 25.643-57.081 0-0.903-0.016-1.802-0.047-2.697l0.004 0.13q0-7.616-1.792-26.752c-1.066-12.963-3.334-24.923-6.721-36.404l0.321 1.268-32.832-116.16c-2.688-9.344-5.056-19.968-7.232-32-1.668-7.98-2.793-17.313-3.128-26.846l-0.008-0.29c-0.186-1.432-0.293-3.087-0.293-4.768 0-10.382 4.059-19.816 10.677-26.802l-0.017 0.018c8.657-5.421 19.175-8.636 30.445-8.636 1.9 0 3.778 0.091 5.631 0.27l-0.236-0.018c9.751 0.221 19.059 1.749 27.872 4.415l-0.736-0.191c8.606 2.2 15.916 4.717 22.955 7.744l-1.003-0.384zM612.736 638.016c-13.991-13.208-32.91-21.326-53.726-21.326-0.53 0-1.058 0.005-1.585 0.016l0.079-0.001c-0.434-0.009-0.946-0.013-1.459-0.013-20.911 0-39.928 8.114-54.072 21.366l0.044-0.040c-14.199 12.541-23.107 30.789-23.107 51.118 0 0.209 0.001 0.418 0.003 0.626v-0.032c-0.001 0.129-0.001 0.282-0.001 0.435 0 20.417 8.902 38.756 23.037 51.345l0.069 0.060c14.051 13.361 33.101 21.581 54.071 21.581 0.498 0 0.995-0.005 1.492-0.014l-0.074 0.001c0.444 0.009 0.968 0.014 1.493 0.014 20.865 0 39.809-8.224 53.767-21.608l-0.027 0.026c14.136-12.826 22.977-31.269 22.977-51.776s-8.841-38.95-22.919-51.724l-0.058-0.052z" />
<glyph unicode="&#xe929;" glyph-name="location" d="M512.029 959.999c-211.699-0.453-383.141-172.173-383.141-383.936 0-0.020 0-0.041 0-0.061v0.004c0-266.179 345.822-615.869 360.499-630.659 5.793-5.776 13.786-9.347 22.613-9.347s16.821 3.571 22.614 9.348l-0.001-0.001c14.677 14.791 360.499 364.481 360.499 630.659 0 0.017 0 0.038 0 0.058 0 211.742-171.408 383.451-383.038 383.936h-0.046zM512.029 14.294c-76.23 81.805-319.255 358.394-319.255 561.712 0 176.32 142.936 319.255 319.255 319.255s319.255-142.936 319.255-319.255v0c0-203.147-243.025-479.907-319.255-561.712zM512.029 768.003c-106.037 0-191.997-85.96-191.997-191.997s85.96-191.997 191.997-191.997c106.037 0 191.997 85.96 191.997 191.997v0c-0.129 105.985-86.012 191.868-191.985 191.997h-0.012zM512.029 448.008c-70.691 0-127.998 57.307-127.998 127.998s57.307 127.998 127.998 127.998c70.691 0 127.998-57.307 127.998-127.998v0c-0.065-70.665-57.333-127.933-127.992-127.998h-0.006z" />
<glyph unicode="&#xe92a;" glyph-name="mail" d="M904.021 823.979h-784.043c-66.224-0.097-119.882-53.755-119.979-119.969v-512.010c0.097-66.224 53.755-119.882 119.969-119.979h784.052c66.224 0.097 119.882 53.755 119.979 119.969v512.010c-0.097 66.224-53.755 119.882-119.969 119.979h-0.010zM943.843 192c0-21.993-17.829-39.822-39.822-39.822v0h-784.043c-21.993 0-39.822 17.829-39.822 39.822v512c0 21.993 17.829 39.822 39.822 39.822v0h784.043c21.993 0 39.822-17.829 39.822-39.822v0zM937.187 774.144l-425.188-316.473-425.188 316.302-47.73-64.171 472.975-351.801 472.975 351.801z" />
<glyph unicode="&#xe92b;" glyph-name="duration" d="M185.495-25.828c-0.124-1.019-0.195-2.2-0.195-3.396 0-16.403 13.295-29.702 29.698-29.706h593.106c0.083-0.001 0.18-0.001 0.278-0.001 15.351 0 28.045 11.372 30.119 26.15l0.018 0.161c0.124 1.019 0.195 2.2 0.195 3.396 0 16.403-13.295 29.702-29.698 29.706h-57.131c17.195 26.434 27.49 58.735 27.678 93.427v0.050c-1.014 157.148-237.851 281.953-237.851 352.112 0 71.477 236.786 200.896 236.938 358.145-0.359 33.89-10.341 65.377-27.336 91.945l0.418-0.699h56.573c0.083-0.001 0.18-0.001 0.278-0.001 15.351 0 28.045 11.372 30.119 26.15l0.018 0.161c0.128 1.035 0.201 2.233 0.201 3.448 0 16.406-13.3 29.706-29.706 29.706-0.071 0-0.141 0-0.212-0.001h-593.095c-0.083 0.001-0.18 0.001-0.278 0.001-15.351 0-28.045-11.372-30.119-26.15l-0.018-0.161c-0.124-1.019-0.195-2.2-0.195-3.396 0-16.403 13.295-29.702 29.698-29.706h57.334c-16.577-25.87-26.559-57.357-26.917-91.151l-0.001-0.096c0-157.148 236.938-286.465 236.938-358.145 0-69.906-236.837-195.319-237.851-352.112 0.188-34.743 10.483-67.044 28.092-94.156l-0.413 0.679h-56.269c-0.081 0.001-0.176 0.001-0.271 0.001-15.368 0-28.075-11.398-30.126-26.202l-0.018-0.159zM304.978 804.165c1.819 36.014 17.455 68.057 41.669 91.198l0.051 0.049h331.024c24.266-23.191 39.902-55.234 41.707-90.923l0.013-0.323c0-100.777-147.009-199.273-207.232-282.612-60.325 83.137-207.131 181.987-207.232 282.612zM304.015 93.502c0.659 100.118 147.769 196.283 208.195 277.999 60.375-81.667 207.536-177.881 208.195-277.999-1.753-36.77-17.759-69.491-42.572-93.014l-0.061-0.058h-331.074c-24.885 23.593-40.894 56.335-42.621 92.814l-0.012 0.308zM808.458-64h-593.106c-19.043 0.215-34.397 15.702-34.397 34.775 0 19.207 15.57 34.778 34.778 34.778 0.134 0 0.267-0.001 0.401-0.002h47.479c-14.929 25.354-23.784 55.837-23.876 88.381v0.027c0.608 96.012 86.532 179.351 155.576 246.317 44.154 42.836 82.275 79.842 82.275 105.745 0 26.766-38.425 64.938-82.883 109.090-68.588 68.131-153.954 152.94-154.055 249.003 0.27 31.737 8.853 61.413 23.672 87.029l-0.455-0.852h-48.513c-0.118-0.001-0.257-0.002-0.396-0.002-19.206 0-34.775 15.569-34.775 34.775 0 1.448 0.088 2.875 0.26 4.277l-0.017-0.168c2.217 17.462 16.981 30.827 34.866 30.827 0.218 0 0.435-0.002 0.652-0.006h593.073c0.007 0 0.015 0 0.023 0 19.206 0 34.775-15.569 34.775-34.775 0-1.393-0.082-2.767-0.241-4.118l0.016 0.164c-2.217-17.462-16.981-30.827-34.866-30.827-0.218 0-0.435 0.002-0.652 0.006h-47.72c14.363-24.765 22.945-54.441 23.217-86.098l0.001-0.079c0-96.012-85.468-180.872-154.106-249.105-44.458-44.204-82.832-82.326-82.832-109.040s38.172-62.961 82.326-105.745c69.044-66.864 154.917-150.101 155.525-246.317-0.109-32.577-8.981-63.058-24.379-89.239l0.452 0.832h48.31c19.043-0.215 34.397-15.702 34.397-34.775 0-19.207-15.57-34.778-34.778-34.778-0.134 0-0.267 0.001-0.401 0.002h0.020zM215.911-4.588c-0.166 0.004-0.362 0.006-0.559 0.006-12.679 0-23.152-9.441-24.774-21.677l-0.014-0.127c-0.104-0.852-0.164-1.838-0.164-2.839 0-13.607 11.030-24.637 24.637-24.637 0.004 0 0.008 0 0.013 0h593.105c0.166-0.004 0.362-0.006 0.559-0.006 12.679 0 23.152 9.441 24.774 21.677l0.014 0.127c0.104 0.852 0.164 1.838 0.164 2.839 0 13.607-11.030 24.637-24.637 24.637-0.004 0-0.008 0-0.013 0h-65.9l4.714 7.705c16.687 25.68 26.694 57.045 26.918 90.731v0.059c-0.608 91.956-84.81 173.521-152.484 239.068-47.702 46.232-85.417 82.731-85.417 113.045s37.868 68.537 85.822 116.188c67.27 66.864 151.014 150.101 151.115 241.906-0.369 32.97-10.085 63.596-26.616 89.444l0.407-0.681-4.461 7.705h65.546c0.166-0.004 0.362-0.006 0.559-0.006 12.679 0 23.152 9.441 24.774 21.677l0.014 0.127c0.105 0.854 0.165 1.842 0.165 2.844 0 13.607-11.030 24.637-24.637 24.637-0.183 0-0.365-0.002-0.547-0.006h-593.079c-0.166 0.004-0.362 0.006-0.559 0.006-12.679 0-23.152-9.441-24.774-21.677l-0.014-0.127c-0.104-0.852-0.164-1.838-0.164-2.839 0-13.607 11.030-24.637 24.637-24.637 0.004 0 0.008 0 0.013 0h66.306l-4.664-7.705c-16.123-25.168-25.839-55.794-26.207-88.664l-0.001-0.098c0-91.855 83.796-175.042 151.064-241.856 48.006-47.651 85.873-85.315 85.873-116.289 0-30.416-37.665-66.712-85.366-112.994-67.675-65.901-152.078-147.364-152.484-239.118 0.224-33.747 10.231-65.111 27.321-91.453l-0.403 0.663 4.714-7.705zM679.902-4.588h-335.434l-1.521 1.622c-25.719 24.405-42.249 58.275-43.99 96.005l-0.011 0.311c0.456 69.855 70.261 138.036 131.801 198.158 27.661 25.557 52.976 52.608 76.231 81.392l1.126 1.44 4.055 5.526 4.055-5.526c24.38-30.203 49.695-57.237 76.845-82.314l0.513-0.468c61.592-60.173 131.395-128.354 131.801-198.158-1.758-38.041-18.287-71.909-43.94-96.258l-0.062-0.058zM348.878 5.551h326.563c23.246 22.405 38.188 53.288 39.833 87.655l0.011 0.297c-0.406 65.597-68.588 132.207-128.759 191.010-26.309 24.519-50.603 50.179-73.226 77.282l-1.090 1.343c-23.727-28.465-48.038-54.141-73.864-78.212l-0.502-0.463c-60.173-58.753-128.303-125.363-128.759-190.96 1.657-34.665 16.598-65.548 39.805-87.913l0.040-0.038zM512.159 512.986l-4.106 5.678c-24.4 30.842-49.625 58.364-76.69 83.961l-0.364 0.341c-64.431 64.38-131.091 130.99-131.142 201.301 1.714 37.435 17.894 70.787 43.038 94.848l0.051 0.049 1.521 1.622h335.485l1.521-1.622c25.143-24.082 41.297-57.373 43.027-94.433l0.012-0.311c0-70.311-66.611-136.87-130.99-201.149-27.489-25.984-52.763-53.557-75.972-82.841l-1.234-1.613zM348.929 890.494c-22.628-22.032-37.185-52.257-38.869-85.872l-0.012-0.305c0-65.901 68.131-134.082 128.151-194.103 26.061-24.85 50.264-50.949 72.799-78.467l1.212-1.527c23.772 29.039 48.008 55.138 73.76 79.66l0.353 0.334c59.97 59.919 127.999 127.847 128.050 193.951-1.697 33.921-16.253 64.146-38.853 86.15l-0.029 0.028z" />
<glyph unicode="&#xe92c;" glyph-name="date" d="M775.291-63.971h-526.525c-108.238 0.132-195.946 87.841-196.079 196.066v526.597c0.132 108.238 87.841 195.946 196.066 196.079h14.568v67.126c0.033 21.035 17.093 38.075 38.133 38.075 0 0 0 0 0 0v0c21.015-0.033 38.042-17.060 38.075-38.072v-67.187h345.001v67.184c0.033 21.015 17.060 38.042 38.072 38.075h0.003c21.027-0.033 38.067-17.053 38.133-38.068v-67.19h14.496c108.238-0.132 195.946-87.841 196.079-196.066v-526.597c-0.165-108.193-87.828-195.855-196.005-196.021h-0.016zM129.069 462.613v-330.505c0.099-66.151 53.715-119.747 119.865-119.813h526.532c66.156 0.066 119.772 53.662 119.871 119.803v330.515zM248.941 778.505c-66.156-0.066-119.772-53.662-119.871-119.803v-119.94h766.326v119.93c-0.099 66.151-53.715 119.747-119.865 119.813h-14.503v-67.184c-0.033-21.047-17.086-38.1-38.13-38.133h-0.003c-21.035 0.033-38.075 17.093-38.075 38.133 0 0 0 0 0 0v0 67.184h-345.001v-67.184c0 0 0 0 0 0 0-21.040-17.040-38.1-38.072-38.133h-0.003c-21.047 0.033-38.1 17.086-38.133 38.13v67.187z" />
<glyph unicode="&#xe92d;" glyph-name="time" d="M511.941-63.941c-282.604 0.333-511.61 229.339-511.941 511.91v0.031c0.299 282.617 229.324 511.642 511.912 511.941h0.029c282.44-0.796 511.196-229.51 512.058-511.859v-0.083c-0.366-282.632-229.418-511.643-512.029-511.941h-0.029zM511.941 893.477c-245.872-0.333-445.093-199.595-445.36-445.451v-0.026c0.266-245.882 199.487-445.144 445.328-445.477h0.032c0.216 0 0.472-0.001 0.728-0.001 122.763 0 233.861 49.946 314.080 130.627l0.021 0.021c80.7 80.196 130.648 191.255 130.648 313.98 0 0.299 0 0.597-0.001 0.895v-0.046c-0.266 245.935-199.547 445.236-445.448 445.535h-0.029zM666.869 196.71c-12.104 0.001-23.064 4.896-31.010 12.815l-175.522 175.522c-7.929 7.949-12.855 18.897-12.931 30.994v351.060c0.033 24.253 19.686 43.906 43.936 43.939h0.003c24.216-0.067 43.822-19.713 43.822-43.939 0 0 0 0 0 0v0-332.791l162.709-162.592c7.917-7.91 12.814-18.842 12.814-30.916 0-0.074 0-0.147-0.001-0.22v0.011c0-0.042 0-0.091 0-0.141 0-12.060-4.897-22.975-12.813-30.867l-0.001-0.001c-7.937-7.938-18.897-12.854-31.005-12.872h-0.003z" />
<glyph unicode="&#xe92e;" glyph-name="event" d="M321.576 745.711c-19.658 0.128-35.564 16.013-35.724 35.652v142.912c0 19.73 15.994 35.724 35.724 35.724s35.724-15.994 35.724-35.724v-142.897c-0.159-19.654-16.066-35.54-35.712-35.667h-0.012zM702.598 745.711c-19.677 0.128-35.596 16.046-35.724 35.712v142.852c0 19.73 15.994 35.724 35.724 35.724s35.724-15.994 35.724-35.724v-142.897c-0.159-19.654-16.066-35.54-35.712-35.667h-0.012zM654.984 459.918h-381.135c-19.73 0-35.724 15.994-35.724 35.724s15.994 35.724 35.724 35.724h381.135c19.73 0 35.724-15.994 35.724-35.724s-15.994-35.724-35.724-35.724v0zM512.087 269.407h-238.124c-19.73 0-35.724 15.994-35.724 35.724s15.994 35.724 35.724 35.724h238.124c19.73 0 35.724-15.994 35.724-35.724s-15.994-35.724-35.724-35.724v0zM654.927-63.944h-285.795c-267.647 0-321.462 126.229-321.462 329.938v293.929c0 225.723 76.227 317.65 271.914 328.629h382.898c197.621-10.98 273.848-102.849 273.848-328.629v-302.404c0-19.73-15.994-35.724-35.724-35.724s-35.724 15.994-35.724 35.724v302.404c0 207.632-69.059 249.558-204.334 257.18h-378.973c-133.34-7.622-202.399-49.547-202.399-257.18v-293.872c0-182.433 34.757-258.603 250.297-258.603h285.738c19.73 0 35.724-15.994 35.724-35.724s-15.994-35.724-35.724-35.724v0zM654.984-63.944c-19.677 0.128-35.596 16.046-35.724 35.712v142.852c-0.691 5.602-1.085 12.086-1.085 18.663 0 88.942 72.102 161.043 161.043 161.043 6.577 0 13.061-0.394 19.431-1.16l-0.768 0.075h142.783c0.072 0.001 0.157 0.001 0.242 0.001 14.658 0 27.227-8.943 32.552-21.669l0.086-0.233c1.738-4.076 2.748-8.819 2.748-13.797 0-9.855-3.96-18.786-10.374-25.288l-285.734-285.734c-6.457-6.467-15.381-10.468-25.24-10.468-0.006 0-0.012 0-0.017 0h0.001zM797.882 221.793c-75.26 0-107.174-31.914-107.174-107.174v-56.886l163.831 163.831z" />
<glyph unicode="&#xe92f;" glyph-name="user-host" d="M512 960c-131.044 0-237.277-106.232-237.277-237.277s106.232-237.277 237.277-237.277c131.044 0 237.277 106.232 237.277 237.277v0c0 131.044-106.232 237.277-237.277 237.277v0zM349.644 722.723c0 89.666 72.689 162.356 162.356 162.356s162.356-72.689 162.356-162.356c0-89.666-72.689-162.356-162.356-162.356v0c-89.666 0-162.356 72.689-162.356 162.356v0zM362.159 410.526c-1.093 0.018-2.382 0.028-3.674 0.028-131.044 0-237.277-106.232-237.277-237.277s106.232-237.277 237.277-237.277c1.292 0 2.581 0.010 3.868 0.031l-0.194-0.002h299.682c1.093-0.018 2.382-0.028 3.674-0.028 131.044 0 237.277 106.232 237.277 237.277s-106.232 237.277-237.277 237.277c-1.292 0-2.581-0.010-3.868-0.031l0.194 0.002zM199.803 173.25c0 89.666 72.689 162.356 162.356 162.356v0h299.682c0.904 0.018 1.97 0.028 3.039 0.028 89.666 0 162.356-72.689 162.356-162.356s-72.689-162.356-162.356-162.356c-1.069 0-2.135 0.010-3.198 0.031l0.159-0.002h-299.682c-89.646 0-162.323 72.657-162.356 162.296v0.003z" />
<glyph unicode="&#xe930;" glyph-name="topic" d="M321.536 745.7c-19.659 0.128-35.566 16.014-35.726 35.654v142.92c0 19.731 15.995 35.726 35.726 35.726s35.726-15.995 35.726-35.726v-142.905c-0.16-19.655-16.067-35.542-35.714-35.669h-0.012zM702.578 745.7c-19.679 0.128-35.598 16.047-35.726 35.714v142.86c0 19.731 15.995 35.726 35.726 35.726s35.726-15.995 35.726-35.726v-142.905c-0.16-19.655-16.067-35.542-35.714-35.669h-0.012zM702.578-64h-381.156c-173.852 0-273.863 100.011-273.863 273.863v404.821c0 173.852 100.011 273.863 273.863 273.863h381.156c173.852 0 273.863-100.011 273.863-273.863v-404.821c0-173.852-100.068-273.863-273.863-273.863zM321.536 817.095c-136.192 0-202.411-66.219-202.411-202.411v-404.821c0-136.192 66.219-202.411 202.411-202.411h381.156c136.192 0 202.411 66.219 202.411 202.411v404.821c0 136.192-66.219 202.411-202.411 202.411zM702.578 459.89h-381.156c-19.731 0-35.726 15.995-35.726 35.726s15.995 35.726 35.726 35.726h381.156c19.731 0 35.726-15.995 35.726-35.726s-15.995-35.726-35.726-35.726v0zM512.057 221.753h-190.521c-19.731 0-35.726 15.995-35.726 35.726s15.995 35.726 35.726 35.726h190.521c19.731 0 35.726-15.995 35.726-35.726s-15.995-35.726-35.726-35.726v0z" />
<glyph unicode="&#xe931;" glyph-name="event-type" d="M892.574 551.461h-808.603c-19.701 0-35.671 15.971-35.671 35.671s15.971 35.671 35.671 35.671h808.603c19.701 0 35.671-15.971 35.671-35.671s-15.971-35.671-35.671-35.671v0zM297.998 745.974c-19.636 0.16-35.512 16.035-35.671 35.656v142.699c0 19.701 15.971 35.671 35.671 35.671s35.671-15.971 35.671-35.671v0-142.684c-0.16-19.636-16.035-35.512-35.656-35.671h-0.015zM678.547 745.974c-19.636 0.16-35.512 16.035-35.671 35.656v142.699c0 19.701 15.971 35.671 35.671 35.671s35.671-15.971 35.671-35.671v0-142.684c-0.16-19.636-16.035-35.512-35.656-35.671h-0.015zM321.778 329.754c-6.553 0.075-12.761 1.47-18.397 3.93l0.305-0.119c-6.083 2.444-11.295 5.83-15.724 10.034l0.022-0.020c-8.524 8.694-13.786 20.615-13.786 33.766s5.261 25.071 13.793 33.773l-0.008-0.008c4.463 4.071 9.656 7.44 15.345 9.877l0.358 0.136c5.34 2.254 11.549 3.563 18.063 3.563s12.723-1.31 18.377-3.68l-0.314 0.117c6.045-2.572 11.24-5.942 15.746-10.052l-0.043 0.039c1.94-2.137 3.807-4.455 5.533-6.881l0.156-0.23c1.691-2.457 3.133-5.278 4.189-8.281l0.077-0.252c1.287-2.468 2.276-5.331 2.817-8.35l0.027-0.183c0.498-2.772 0.844-6.044 0.964-9.375l0.004-0.125c-0.181-13.126-5.392-25-13.787-33.814l0.019 0.020c-4.463-4.071-9.656-7.44-15.345-9.877l-0.358-0.136c-5.31-2.353-11.494-3.766-17.997-3.868h-0.038zM488.244 329.811c-6.553 0.075-12.761 1.47-18.397 3.93l0.305-0.119c-6.083 2.444-11.295 5.83-15.724 10.034l0.022-0.020c-8.363 8.78-13.571 20.632-13.768 33.699v0.039c0.123 3.456 0.47 6.729 1.029 9.93l-0.062-0.428c0.568 3.202 1.557 6.065 2.924 8.701l-0.079-0.168c1.133 3.256 2.576 6.077 4.346 8.656l-0.079-0.122 5.689 7.111c8.843 8.182 20.718 13.202 33.766 13.202s24.921-5.019 33.799-13.232l-0.033 0.030 5.689-7.111c1.691-2.457 3.133-5.278 4.189-8.281l0.077-0.252c1.287-2.468 2.276-5.331 2.817-8.35l0.027-0.183c0.498-2.772 0.844-6.044 0.964-9.375l0.004-0.125c-0.181-13.126-5.392-25-13.787-33.814l0.019 0.020c-8.748-8.451-20.652-13.685-33.778-13.768h-0.016zM321.778 163.289c-6.553 0.075-12.761 1.47-18.397 3.93l0.305-0.119c-6.045 2.572-11.24 5.942-15.746 10.052l0.043-0.039c-8.375 8.793-13.587 20.668-13.768 33.758v0.036c0.095 3.264 0.443 6.379 1.026 9.411l-0.058-0.365c0.476 3.374 1.475 6.423 2.919 9.203l-0.075-0.158c1.133 3.256 2.576 6.077 4.346 8.656l-0.079-0.122c1.882 2.656 3.749 4.974 5.745 7.173l-0.056-0.062c4.463 4.071 9.656 7.44 15.345 9.877l0.358 0.136c5.34 2.254 11.549 3.563 18.063 3.563s12.723-1.31 18.377-3.68l-0.314 0.117c6.045-2.572 11.24-5.942 15.746-10.052l-0.043 0.039c1.94-2.137 3.807-4.455 5.533-6.881l0.156-0.23c1.691-2.457 3.133-5.278 4.189-8.281l0.077-0.252c1.37-2.622 2.368-5.671 2.827-8.894l0.018-0.151c0.524-2.666 0.872-5.782 0.965-8.961l0.002-0.085c-0.181-13.126-5.392-25-13.787-33.814l0.019 0.020c-4.463-4.071-9.656-7.44-15.345-9.877l-0.358-0.136c-5.313-2.334-11.501-3.729-18.004-3.811h-0.031zM669.956-63.994c-0.259-0.004-0.565-0.006-0.872-0.006-18.174 0-34.653 7.252-46.703 19.020l0.013-0.013c-11.793 12.161-19.062 28.765-19.062 47.069 0 4.033 0.353 7.983 1.030 11.823l-0.059-0.407 9.045 64.231c3.359 18.974 11.979 35.53 24.279 48.575l-0.044-0.047 168.4 168.4c17.524 19.702 41.643 33.202 68.866 37.025l0.598 0.069c1.615 0.087 3.505 0.137 5.406 0.137 32.391 0 61.424-14.376 81.068-37.094l0.115-0.136c22.911-18.473 37.445-46.538 37.445-77.999s-14.534-59.526-37.254-77.849l-0.191-0.149-168.4-168.4c-12.999-12.258-29.555-20.877-47.959-24.152l-0.569-0.084-64.231-9.045c-3.211-0.523-6.983-0.872-10.82-0.965l-0.104-0.002zM883.528 260.857h-1.422c-10.396-2.876-19.164-8.731-25.588-16.581l-0.070-0.089-168.4-168.4c-1.856-2.235-3.195-4.965-3.792-7.963l-0.019-0.115-8.533-59.452 59.452 8.533c3.093 1.014 5.776 2.466 8.137 4.311l-0.058-0.044 168.4 168.4c20.936 20.936 23.781 31.405 0 55.185-7.131 8.233-16.798 14.099-27.778 16.385l-0.326 0.057zM912.6 103.837c-0.079-0.001-0.173-0.001-0.267-0.001-3.298 0-6.474 0.521-9.451 1.484l0.217-0.061c-63.214 18.35-111.99 67.125-130.006 129.003l-0.333 1.336c-0.711 2.668-1.12 5.73-1.12 8.888 0 19.795 16.047 35.842 35.842 35.842 16.002 0 29.555-10.487 34.161-24.962l0.070-0.254c11.385-39.193 41.639-69.429 80.015-80.58l0.828-0.206c15.183-4.413 26.091-18.199 26.091-34.533 0-3.464-0.491-6.813-1.406-9.983l0.063 0.253c-4.582-15.152-18.354-26.021-34.687-26.17h-0.017zM488.187-62.629h-190.19c-173.634 0-273.479 99.902-273.479 273.479v404.33c0 173.634 99.902 273.479 273.479 273.479h380.492c173.634 0 273.479-99.902 273.479-273.479v-166.465c0-19.701-15.971-35.671-35.671-35.671s-35.671 15.971-35.671 35.671v0 166.465c0.114 136.028-66.051 202.364-202.079 202.364h-380.549c-136.028 0-202.364-66.335-202.364-202.364v-404.273c0-136.028 66.108-202.136 202.136-202.136h190.417c19.701 0 35.671-15.971 35.671-35.671s-15.971-35.671-35.671-35.671v0z" />
<glyph unicode="&#xe932;" glyph-name="video-outline" d="M928.203 711.363h47.658c26.586 0 48.139-21.553 48.139-48.139v0-430.623c0-26.586-21.553-48.139-48.139-48.139v0h-47.658c-13.357 0.085-25.801 3.919-36.354 10.499l0.294-0.171-0.437 0.263-198.244 125.117c-13.537 8.64-22.397 23.564-22.45 40.56v174.182c0 0.007 0 0.016 0 0.024 0 16.944 8.803 31.832 22.084 40.341l0.192 0.115 198.288 125.161c10.347 6.765 23.016 10.795 36.626 10.809h0.004zM967.152 654.472h-38.949c-0.060 0.001-0.13 0.002-0.2 0.002-2.133 0-4.122-0.62-5.794-1.691l0.043 0.026-194.131-122.535v-164.241l193.868-122.535c1.814-1.163 4.009-1.885 6.367-1.968l0.022-0.001h38.949zM582.041 126.214h-435.569c-80.808 0.025-146.324 65.463-146.473 146.24v351.077c0.075 80.744 65.51 146.18 146.247 146.254h435.444c80.744-0.075 146.18-65.51 146.254-146.247v-350.895c0-0.026 0-0.057 0-0.088 0-80.668-65.27-146.093-145.881-146.341h-0.024zM146.254 712.895c-49.334-0.050-89.313-40.029-89.363-89.358v-351.112c0.124-49.38 40.184-89.363 89.582-89.363 0 0 0 0 0.001 0h435.569c49.251 0.199 89.101 40.171 89.101 89.45 0 0.016 0 0.031 0 0.047v-0.003 350.975c-0.050 49.365-40.079 89.363-89.451 89.363 0 0 0 0 0 0v0z" />
<glyph unicode="&#xe933;" glyph-name="html" d="M226.64-64c-69.503 0.076-125.825 56.399-125.902 125.894v772.204c0.076 69.503 56.399 125.825 125.894 125.902h470.040c0.016 0 0.034 0 0.053 0 6.929 0 13.202-2.81 17.741-7.353l201.443-201.443c4.542-4.529 7.353-10.793 7.353-17.713 0-0.040 0-0.080 0-0.12v0.006-671.475c-0.076-69.491-56.38-125.806-125.859-125.902h-0.009zM151.099 61.902c0.038-41.705 33.836-75.503 75.537-75.541h570.758c41.697 0.057 75.484 33.844 75.541 75.535v209.238h-721.836zM151.099 834.098v-512.604h721.836v386.703h-75.541c-69.503 0.076-125.825 56.399-125.902 125.894v75.548h-444.852c-41.705-0.038-75.503-33.836-75.541-75.537v-0.004zM721.853 834.098c0.057-41.697 33.844-75.484 75.535-75.541h39.925l-115.46 115.46zM395.818 40.784v151.082h-21.554c-0.254-0.011-0.552-0.017-0.851-0.017-11.923 0-21.588 9.665-21.588 21.588s9.665 21.588 21.588 21.588c0.299 0 0.597-0.006 0.894-0.018l-0.042 0.001h86.285c0.254 0.011 0.552 0.017 0.851 0.017 11.923 0 21.588-9.665 21.588-21.588s-9.665-21.588-21.588-21.588c-0.299 0-0.597 0.006-0.894 0.018l0.042-0.001h-21.622v-151.082c0-11.904-9.65-21.554-21.554-21.554s-21.554 9.65-21.554 21.554v0zM289.926 40.784v64.764h-43.109v-64.697c0-11.904-9.65-21.554-21.554-21.554s-21.554 9.65-21.554 21.554v172.569c0 11.904 9.65 21.554 21.554 21.554s21.554-9.65 21.554-21.554v-64.697h43.142v64.697c-0.011 0.254-0.017 0.552-0.017 0.851 0 11.923 9.665 21.588 21.588 21.588s21.588-9.665 21.588-21.588c0-0.299-0.006-0.597-0.018-0.894l0.001 0.042v-172.569c0.011-0.254 0.017-0.552 0.017-0.851 0-11.923-9.665-21.588-21.588-21.588s-21.588 9.665-21.588 21.588c0 0.299 0.006 0.597 0.018 0.894l-0.001-0.042zM626.47 40.784v81.282l-23.837-47.708c-3.614-7.131-10.89-11.934-19.288-11.934s-15.674 4.803-19.232 11.811l-0.057 0.123-23.804 47.708v-81.181c0.011-0.254 0.017-0.552 0.017-0.851 0-11.923-9.665-21.588-21.588-21.588s-21.588 9.665-21.588 21.588c0 0.299 0.006 0.597 0.018 0.894l-0.001-0.042v172.569c0 0.014 0 0.032 0 0.049 0 11.904 9.65 21.554 21.554 21.554 8.411 0 15.697-4.818 19.248-11.844l0.056-0.123 45.425-90.817 45.459 90.817c3.616 7.127 10.89 11.925 19.284 11.925 1.758 0 3.467-0.211 5.104-0.608l-0.147 0.030c9.601-2.328 16.619-10.848 16.619-21.008 0-0.003 0-0.006 0-0.009v0-172.569c0.011-0.254 0.017-0.552 0.017-0.851 0-11.923-9.665-21.588-21.588-21.588s-21.588 9.665-21.588 21.588c0 0.299 0.006 0.597 0.018 0.894l-0.001-0.042zM707.953 19.297c0 0 0 0 0 0-11.911 0-21.569 9.646-21.588 21.553v172.672c0.47 11.551 9.948 20.737 21.571 20.737s21.101-9.186 21.57-20.694l0.001-0.042v-151.082h64.697c11.551-0.47 20.737-9.948 20.737-21.571s-9.186-21.101-20.694-21.57l-0.042-0.001zM455.311 411.572c-8.681 3.026-14.798 11.141-14.798 20.685 0 2.448 0.402 4.802 1.145 6.999l-0.045-0.154 99.714 299.31c2.933 8.673 10.998 14.806 20.495 14.806 0.007 0 0.013 0 0.020 0h-0.001c2.407-0.021 4.714-0.425 6.87-1.153l-0.155 0.046c8.682-2.941 14.819-11.015 14.819-20.524 0-2.459-0.41-4.822-1.167-7.025l0.045 0.152-99.714-299.142c-2.843-8.336-10.404-14.311-19.421-14.77l-0.052-0.002 0.403-1.88zM613.107 466.633c-3.848 3.956-6.221 9.364-6.221 15.326s2.373 11.37 6.226 15.332l84.467 84.433-84.874 84.942c-2.712 3.608-4.343 8.163-4.343 13.099 0 6.022 2.428 11.478 6.359 15.44l-0.001-0.001c3.945 3.954 9.4 6.401 15.426 6.401 4.947 0 9.508-1.648 13.165-4.426l-0.054 0.039 0.537-0.436 99.714-99.714c3.838-3.954 6.204-9.356 6.204-15.31s-2.366-11.355-6.21-15.315l-99.743-99.743c-3.938-3.859-9.337-6.241-15.293-6.241s-11.354 2.382-15.296 6.245l0.004-0.004zM380.911 466.197l-0.537 0.436-99.714 99.714c-3.838 3.954-6.204 9.356-6.204 15.31s2.366 11.355 6.21 15.315l100.246 100.213c3.603 2.738 8.165 4.386 13.112 4.386 6.026 0 11.481-2.446 15.426-6.4v0c3.936-3.957 6.369-9.412 6.369-15.436 0-4.939-1.635-9.495-4.394-13.158l0.040 0.056-0.47-0.537-84.404-84.404 84.874-85.009c2.719-3.607 4.354-8.163 4.354-13.102 0-6.023-2.433-11.479-6.369-15.437l0.001 0.001c-3.945-3.954-9.4-6.401-15.426-6.401-4.947 0-9.508 1.648-13.165 4.426l0.054-0.039z" />
<glyph unicode="&#xe934;" glyph-name="notification" d="M512.001-64c57.932 0.179 104.847 47.094 105.026 105.009v0.017h-210.051c0.179-57.932 47.094-104.847 105.009-105.026h0.017zM827.077 251.077v262.564c0 161.214-85.596 296.172-236.308 331.881v35.709c0 43.503-35.266 78.769-78.769 78.769s-78.769-35.266-78.769-78.769v0-35.709c-150.187-35.709-236.308-170.142-236.308-331.881v-262.564l-105.026-105.026v-52.513h840.205v52.513zM722.052 198.564h-420.103v315.077c0 130.232 79.294 236.308 210.051 236.308s210.051-106.076 210.051-236.308z" />
<glyph unicode="&#xe935;" glyph-name="verify" d="M953.011 549.2c-13.429 9.102-25.021 19.494-35.067 31.249l-0.198 0.239c0.842 17.836 4.444 34.582 10.39 50.171l-0.372-1.109c8.358 17.074 13.246 37.156 13.246 58.38 0 22.582-5.533 43.872-15.318 62.588l0.355-0.746c-24.638 24.757-58.74 40.078-96.42 40.078-6.375 0-12.646-0.438-18.788-1.287l0.711 0.081c-1.978-0.083-4.298-0.131-6.629-0.131-15 0-29.539 1.97-43.374 5.664l1.171-0.266c-8.267 12.76-15.049 27.5-19.576 43.195l-0.289 1.172c-13.053 37.154-29.311 83.411-72.82 97.322-6.537 1.145-14.065 1.799-21.746 1.799-35.688 0-68.076-14.13-91.873-37.102l0.039 0.037c-12.774-10.262-27.554-18.738-43.555-24.715l-1.099-0.359c-17.1 6.33-31.881 14.809-44.964 25.316l0.311-0.241c-23.775 22.93-56.173 37.056-91.872 37.056-7.667 0-15.182-0.652-22.492-1.903l0.784 0.111c-43.509-14.14-59.767-60.339-72.82-97.322-4.804-16.824-11.506-31.524-20.045-44.939l0.408 0.686c-12.656-3.509-27.188-5.525-42.192-5.525-2.417 0-4.821 0.053-7.211 0.156l0.341-0.012c-5.43 0.768-11.702 1.207-18.077 1.207-37.68 0-71.781-15.321-96.414-40.073l-0.005-0.005c-9.426-17.971-14.957-39.261-14.957-61.842 0-21.222 4.885-41.304 13.592-59.181l-0.353 0.802c5.493-14.379 9.105-31.010 10.057-48.349l0.018-0.426c-10.217-12.169-21.858-22.664-34.788-31.396l-0.591-0.377c-31.257-23.816-70.53-53.756-70.53-100.127s39.273-76.254 70.816-100.242c13.429-9.102 25.021-19.494 35.067-31.249l0.198-0.239c-0.842-17.836-4.444-34.582-10.39-50.171l0.372 1.109c-8.358-17.074-13.246-37.156-13.246-58.38 0-22.582 5.533-43.872 15.318-62.588l-0.355 0.746c24.638-24.757 58.74-40.078 96.42-40.078 6.375 0 12.646 0.438 18.788 1.287l-0.711-0.081c1.979 0.083 4.302 0.131 6.635 0.131 14.998 0 29.536-1.97 43.369-5.664l-1.171 0.266c8.267-12.76 15.049-27.5 19.576-43.195l0.289-1.172c13.053-37.154 29.311-83.411 72.82-97.322 7.125-2.424 15.333-3.828 23.868-3.835h0.004c34.591 4.19 65.292 18.272 89.882 39.294l-0.232-0.194c12.772 10.283 27.553 18.779 43.556 24.771l1.098 0.36c17.1-6.331 31.881-14.81 44.964-25.316l-0.311 0.242c23.782-22.928 56.188-37.053 91.892-37.053 7.66 0 15.168 0.65 22.474 1.898l-0.784-0.111c43.509 14.14 59.767 60.339 72.82 97.322 4.804 16.824 11.506 31.524 20.045 44.939l-0.408-0.686c12.656 3.509 27.188 5.525 42.192 5.525 2.417 0 4.821-0.053 7.211-0.156l-0.341 0.012c5.43-0.768 11.702-1.207 18.077-1.207 37.68 0 71.781 15.321 96.414 40.073l0.005 0.005c9.426 17.971 14.957 39.261 14.957 61.842 0 21.222-4.885 41.304-13.592 59.181l0.353-0.802c-5.493 14.379-9.105 31.010-10.057 48.349l-0.018 0.426c10.217 12.169 21.858 22.664 34.788 31.396l0.591 0.377c31.544 24.044 70.759 53.985 70.759 100.356s-39.329 76.14-70.988 99.955zM702.035 525.328l-213.307-213.021c-7.719-7.725-18.386-12.504-30.17-12.504s-22.451 4.778-30.169 12.504l-106.596 106.654c-7.991 7.761-12.948 18.605-12.948 30.608 0 23.555 19.095 42.65 42.65 42.65 11.619 0 22.153-4.646 29.844-12.182l-0.008 0.007 77.228-77.228 183.195 183.195c7.761 7.991 18.605 12.948 30.608 12.948 23.555 0 42.65-19.095 42.65-42.65 0-11.619-4.646-22.153-12.182-29.844l0.007 0.008z" />
<glyph unicode="&#xe936;" glyph-name="unverify" d="M377.459-43.245c-0.109-0.001-0.239-0.001-0.369-0.001-8.391 0-16.453 1.404-23.965 3.992l0.518-0.155c-43.511 14.084-59.771 60.343-72.824 97.328-4.795 16.889-11.579 31.652-20.258 45.074l0.392-0.647c-12.484 3.404-26.821 5.366-41.613 5.382h-7.509c-5.32-0.736-11.467-1.157-17.713-1.157-37.68 0-71.786 15.301-96.444 40.028l-0.003 0.003c-9.412 17.956-14.934 39.227-14.934 61.787 0 21.247 4.898 41.35 13.627 59.241l-0.353-0.8c5.558 14.519 9.141 31.308 9.949 48.822l0.013 0.358c-10.27 11.899-21.838 22.249-34.6 30.98l-0.611 0.394c-31.546 24.045-70.763 53.988-70.763 100.419s39.218 76.316 70.763 100.248c13.528 9.135 25.172 19.668 35.167 31.626l0.214 0.263c-0.936 17.759-4.551 34.396-10.453 49.904l0.376-1.126c-8.368 17.091-13.261 37.194-13.261 58.439 0 22.559 5.517 43.831 15.276 62.538l-0.356-0.749c24.573 24.772 58.626 40.107 96.261 40.107 6.433 0 12.762-0.448 18.957-1.315l-0.714 0.081h6.985c15 0.075 29.48 2.16 43.229 5.999l-1.149-0.274c8.16 12.73 14.864 27.433 19.348 43.075l0.29 1.18v0.343c13.054 36.985 29.313 83.072 72.767 97.328 7.112 2.39 15.302 3.772 23.813 3.779h0.003c34.594-4.18 65.3-18.265 89.887-39.295l-0.231 0.193c12.804-10.278 27.626-18.758 43.672-24.719l1.098-0.358c17.077 6.328 31.839 14.786 44.914 25.263l-0.314-0.243c24.405 20.832 55.139 34.929 88.95 39.079l0.821 0.082c8.534-0.002 16.744-1.384 24.42-3.936l-0.546 0.157c43.569-14.141 59.771-60.4 72.767-97.328 4.868-16.915 11.645-31.688 20.273-45.165l-0.407 0.68c12.56-3.36 26.991-5.319 41.871-5.382h7.022c5.393 0.755 11.623 1.187 17.955 1.187 37.717 0 71.858-15.312 96.546-40.058l0.003-0.003c9.408-17.957 14.928-39.228 14.928-61.788 0-21.246-4.896-41.349-13.62-59.241l0.353 0.801c-5.51-14.479-9.089-31.223-9.947-48.682l-0.015-0.383c10.253-12.003 21.867-22.397 34.719-31.102l0.606-0.386c31.546-24.045 70.763-53.931 70.763-100.305s-39.102-76.201-70.534-100.19v0c-13.531-9.111-25.188-19.586-35.233-31.468l-0.205-0.249c1.018-17.778 4.626-34.404 10.46-49.943l-0.383 1.165v-0.287c8.313-17.011 13.173-37.015 13.173-58.153 0-22.543-5.528-43.796-15.303-62.475l0.354 0.743c-24.627-24.733-58.705-40.037-96.358-40.037-6.257 0-12.415 0.423-18.447 1.24l0.703-0.078h-7.328c-15.021-0.141-29.494-2.222-43.265-6.003l1.185 0.277c-8.060-12.732-14.755-27.424-19.328-43.023l-0.31-1.232c-12.939-37.099-29.084-83.359-72.767-97.328-7.121-2.396-15.321-3.779-23.844-3.779-0.031 0-0.061 0-0.092 0h0.005c-34.601 4.201-65.317 18.259-89.952 39.243l0.239-0.198c-12.761 10.266-27.521 18.759-43.497 24.77l-1.101 0.363c-17.125-6.336-31.928-14.835-45.020-25.372l0.306 0.239-0.516-0.343c-24.281-20.936-54.919-35.131-88.657-39.361l-0.828-0.084zM514.863 391.582v0l110.324-111.583c6.726-6.951 16.094-11.309 26.481-11.45h3.69c9.75 0.057 18.636 3.715 25.403 9.711l-0.040-0.035 1.774 1.774c6.368 6.917 10.273 16.189 10.273 26.373 0 11.019-4.572 20.971-11.922 28.062l-0.012 0.012-111.526 112.156 111.927 113.301c5.276 6.614 8.467 15.094 8.467 24.319 0 10.188-3.891 19.469-10.269 26.435l0.027-0.030c-7.013 7.47-16.92 12.152-27.92 12.251h-0.018c-10.21-0.056-19.465-4.104-26.291-10.661l0.012 0.012-109.981-111.183-112.271 112.901h-0.287c-6.648 5.787-15.391 9.319-24.959 9.332h-0.003c-0.009 0-0.018 0-0.028 0-9.527 0-18.228-3.536-24.862-9.369l0.042 0.036c-8.229-7.157-13.402-17.644-13.402-29.339 0-9.574 3.465-18.338 9.211-25.106l-0.046 0.056 112.385-113.587-112.042-113.415c-6.855-7.029-11.083-16.647-11.083-27.252s4.229-20.223 11.091-27.26l0.279-0.279c6.642-5.763 15.374-9.275 24.925-9.275 0.012 0 0.026 0 0.038 0h3.604c9.542 0.016 18.262 3.525 24.952 9.316l-0.048-0.041 112.098 113.529z" />
<glyph unicode="&#xe937;" glyph-name="location-filled" d="M511.813-64v0c-78.099 55.239-146.573 114.488-208.824 179.728l-0.523 0.552c-95.536 100.986-209.453 256.527-209.453 424.732 0 231.401 187.587 418.988 418.988 418.988s418.988-187.587 418.988-418.988v0c0-168.205-113.971-323.852-209.56-424.732-62.799-65.792-131.328-125.028-205.142-177.292l-4.366-2.934zM511.813 680.736c-0.048 0-0.104 0-0.16 0-77.138 0-139.671-62.533-139.671-139.671s62.533-139.671 139.671-139.671c77.12 0 139.641 62.502 139.671 139.615v0.003c-0.090 76.963-62.319 139.361-139.209 139.725h-0.035z" />
<glyph unicode="&#xe938;" glyph-name="phone-filled" d="M1022.95 193.322v-154.142c0.001-0.125 0.001-0.272 0.001-0.42 0-56.754-46.008-102.761-102.761-102.761-3.266 0-6.497 0.152-9.685 0.45l0.408-0.031c-166.768 18.585-317.392 74.881-447.311 160.133l3.859-2.377c-124.937 80.21-228.073 183.346-305.892 304.312l-2.392 3.972c-83.205 126.706-139.551 278.166-157.355 441.209l-0.402 4.532c-0.253 2.707-0.398 5.854-0.398 9.035 0 56.703 45.926 102.679 102.609 102.761h154.21c0.301 0.003 0.657 0.005 1.013 0.005 51.677 0 94.445-38.145 101.682-87.815l0.066-0.555c7.296-54.031 19.948-102.811 37.662-149.086l-1.521 4.521c4.161-10.739 6.572-23.167 6.572-36.159 0-28.179-11.342-53.709-29.711-72.274l0.009 0.009-65.416-65.114c74.467-129.334 178.95-233.818 304.312-306.17l3.972-2.114 65.235 65.235c18.556 18.36 44.086 29.702 72.265 29.702 12.991 0 25.42-2.411 36.862-6.809l-0.703 0.238c41.754-16.193 90.534-28.845 141.141-35.758l3.424-0.383c50.179-7.347 88.273-50.092 88.273-101.735 0-0.848-0.010-1.694-0.031-2.537l0.002 0.125z" />
<glyph unicode="&#xe939;" glyph-name="mail-filled" d="M597.526 332.728c-24.038-16.265-53.675-25.966-85.577-25.966s-61.539 9.701-86.121 26.313l0.545-0.347-419.563 279.539c-2.304 1.536-4.608 3.174-6.809 4.812v-458.37c0-52.056 42.199-94.255 94.255-94.255h835.44c0 0 0 0 0 0 52.056 0 94.255 42.199 94.255 94.255 0 0.072 0 0.144 0 0.216v-0.011 458.473c-2.202-1.689-4.505-3.277-6.809-4.863zM40.139 662.389l419.819-279.743c14.686-9.954 32.798-15.892 52.298-15.892s37.613 5.937 52.629 16.103l-0.331-0.211 419.819 279.743c24.044 16.373 39.628 43.619 39.628 74.504 0 0.14 0 0.279-0.001 0.42v-0.022c-0.058 52.032-42.222 94.196-94.25 94.255h-835.446c-52.032-0.058-94.196-42.222-94.255-94.25v-0.006c0-0.034 0-0.076 0-0.117 0-31.072 15.781-58.458 39.766-74.582l0.322-0.204z" />
<glyph unicode="&#xe93a;" glyph-name="next" d="M610.633 447.727l-383.089 383.089c-10.112 10.151-16.364 24.154-16.364 39.616s6.251 29.465 16.366 39.618l33.585 33.585c10.151 10.112 24.154 16.364 39.616 16.364s29.465-6.251 39.618-16.366l456.135-456.135c10.089-10.206 16.32-24.242 16.32-39.734s-6.232-29.528-16.326-39.739l-455.662-455.662c-10.151-10.112-24.154-16.364-39.616-16.364s-29.465 6.251-39.618 16.366l-33.585 33.585c-10.131 10.142-16.396 24.148-16.396 39.616s6.265 29.474 16.397 39.617v0z" />
<glyph unicode="&#xe93b;" glyph-name="prev" d="M413.368 447.727l383.089 383.089c10.112 10.151 16.364 24.154 16.364 39.616s-6.252 29.466-16.366 39.618l-33.586 33.586c-10.151 10.112-24.154 16.364-39.616 16.364s-29.466-6.252-39.618-16.366l-456.135-456.135c-10.089-10.205-16.321-24.242-16.321-39.734s6.232-29.529 16.326-39.739l455.662-455.662c10.151-10.112 24.154-16.364 39.616-16.364s29.466 6.252 39.618 16.366l33.586 33.586c10.131 10.142 16.396 24.148 16.396 39.616s-6.265 29.474-16.397 39.617v0z" />
<glyph unicode="&#xe93c;" glyph-name="eye" d="M4.523 467.072c-5.803-11.691-6.229-25.728 0-38.144 0 0 16.896-33.664 47.787-78.635 19.243-27.989 44.288-61.099 74.965-94.635 38.144-41.771 85.504-84.779 141.611-119.467 68.053-42.069 149.589-72.192 243.115-72.192s175.061 30.123 243.115 72.192c56.107 34.688 103.467 77.696 141.611 119.467 30.635 33.536 55.723 66.645 74.965 94.635 30.891 44.971 47.787 78.635 47.787 78.635 5.803 11.691 6.229 25.728 0 38.144 0 0-16.896 33.664-47.787 78.635-19.243 27.989-44.288 61.099-74.965 94.635-38.144 41.771-85.504 84.779-141.611 119.467-68.053 42.069-149.589 72.192-243.115 72.192s-175.061-30.123-243.115-72.192c-56.107-34.688-103.467-77.696-141.611-119.467-30.677-33.536-55.723-66.603-74.965-94.635-30.891-44.971-47.787-78.635-47.787-78.635zM91.307 448c6.955 11.989 17.365 29.056 31.317 49.408 17.493 25.429 40.107 55.296 67.627 85.376 34.347 37.589 75.733 74.923 123.477 104.448 57.6 35.584 123.776 59.435 198.272 59.435s140.672-23.851 198.229-59.435c47.744-29.525 89.131-66.859 123.477-104.448 27.477-30.080 50.133-59.947 67.627-85.376 13.995-20.352 24.405-37.376 31.317-49.408-6.955-11.989-17.365-29.056-31.317-49.408-17.493-25.429-40.107-55.296-67.627-85.376-34.347-37.589-75.733-74.923-123.477-104.448-57.557-35.584-123.733-59.435-198.229-59.435s-140.672 23.851-198.229 59.435c-47.744 29.525-89.131 66.859-123.477 104.448-27.477 30.080-50.133 59.947-67.627 85.376-13.995 20.352-24.405 37.419-31.36 49.408zM682.667 448c0 47.104-19.157 89.856-50.005 120.661s-73.557 50.005-120.661 50.005-89.856-19.157-120.661-50.005-50.005-73.557-50.005-120.661 19.157-89.856 50.005-120.661 73.557-50.005 120.661-50.005 89.856 19.157 120.661 50.005 50.005 73.557 50.005 120.661zM597.333 448c0-23.595-9.515-44.843-25.003-60.331s-36.736-25.003-60.331-25.003-44.843 9.515-60.331 25.003-25.003 36.736-25.003 60.331 9.515 44.843 25.003 60.331 36.736 25.003 60.331 25.003 44.843-9.515 60.331-25.003 25.003-36.736 25.003-60.331z" />
<glyph unicode="&#xe93d;" glyph-name="eye-off" d="M432.128 737.536c27.776 6.485 55.296 9.429 79.36 9.131 75.008 0 141.184-23.851 198.741-59.435 47.744-29.525 89.131-66.859 123.477-104.448 27.477-30.080 50.133-59.947 67.627-85.376 13.952-20.267 24.32-37.291 31.275-49.28-23.296-40.661-49.493-77.696-75.861-108.459-15.317-17.877-13.269-44.843 4.608-60.16s44.843-13.269 60.16 4.608c34.901 40.704 68.736 90.112 97.408 143.787 6.315 11.904 6.955 26.368 0.555 39.211 0 0-16.896 33.664-47.787 78.635-19.243 27.989-44.288 61.099-74.965 94.635-38.144 41.771-85.504 84.779-141.611 119.467-68.053 42.027-149.589 72.149-242.603 72.149-31.317 0.384-65.707-3.371-99.84-11.349-22.955-5.376-37.205-28.331-31.829-51.285s28.331-37.205 51.285-31.829zM427.819 471.808l107.989-107.989c-7.765-2.603-15.872-4.011-24.021-4.309-21.888-0.768-43.947 6.784-61.184 22.869s-26.325 37.547-27.093 59.435c-0.341 10.155 1.067 20.309 4.309 30.037zM255.275 644.395l108.928-108.928c-18.517-29.483-27.136-63.317-25.941-96.683 1.536-43.605 19.755-86.741 54.229-118.827s78.763-47.232 122.368-45.696c29.525 1.024 58.837 9.728 84.651 25.941l99.072-99.072c-58.795-34.091-123.52-51.029-187.051-51.797-73.984 0-140.16 23.851-197.717 59.435-47.744 29.525-89.131 66.859-123.477 104.448-27.477 30.080-50.133 59.947-67.627 85.376-13.909 20.267-24.32 37.248-31.232 49.237 44.8 77.739 101.376 144.171 163.883 196.565zM12.501 887.168l182.229-182.229c-73.856-63.104-139.477-143.275-189.653-236.757-6.315-11.904-6.997-26.411-0.555-39.253 0 0 16.896-33.664 47.787-78.635 19.243-27.989 44.288-61.099 74.965-94.635 38.144-41.771 85.504-84.779 141.611-119.467 68.053-42.069 149.589-72.192 243.627-72.192 85.035 1.024 171.477 25.643 248.107 75.051l190.549-190.549c16.683-16.683 43.691-16.683 60.331 0s16.683 43.691 0 60.331l-378.709 378.709c-0.085 0.085-0.213 0.213-0.299 0.299l-179.584 179.627c-0.341 0.299-0.683 0.683-1.024 1.024l-379.051 379.008c-16.683 16.683-43.691 16.683-60.331 0s-16.683-43.691 0-60.331z" />
</font>
</defs>
</svg>
