<svg xmlns="http://www.w3.org/2000/svg" width="388.365" height="174.011" viewBox="0 0 388.365 174.011">
  <path id="Path_78639" data-name="Path 78639" d="M393.162,4023.583a98.6,98.6,0,0,1-10.243-.456.75.75,0,1,1,.175-1.49,107,107,0,0,0,13.9.389,131.443,131.443,0,0,0,32.107-4.89c22.1-6.4,50.7-22.312,61.455-61.749,2.909-10.667,4.276-20.338,4.1-28.94q-4.135.849-8.373,1.29a79.817,79.817,0,0,1-23.211-.91,51.118,51.118,0,0,1-17.99-6.842,28.062,28.062,0,0,1-5.143-4.25,18.858,18.858,0,0,1-3.4-4.952,14.542,14.542,0,0,1-1.354-5.543,15.433,15.433,0,0,1,.985-5.938,20.079,20.079,0,0,1,5.347-7.9,25.207,25.207,0,0,1,8.4-5.039,31.122,31.122,0,0,1,10.206-1.885,33.4,33.4,0,0,1,10.815,1.58,32.824,32.824,0,0,1,12.422,7.255A37.033,37.033,0,0,1,492.533,3907a54.516,54.516,0,0,1,3.542,17.6,80.557,80.557,0,0,0,37.784-20.189l2.123-2.039c19.811-19.031,38.523-37.005,58.249-46.275a71.065,71.065,0,0,1,15.081-5.213,56.235,56.235,0,0,1,15.676-1.187,59.015,59.015,0,0,1,16.414,3.577,81.763,81.763,0,0,1,17.295,9.039c9.614,6.482,16.936,12.209,23.4,17.263,12.419,9.716,20.624,16.135,32.356,17.177,11.645,1.034,27.1-3.052,55.139-14.57a.75.75,0,0,1,.57,1.387c-14.359,5.9-25.092,9.719-33.778,12.023-8.891,2.357-15.9,3.2-22.064,2.654-12.174-1.081-20.518-7.608-33.148-17.49-6.44-5.038-13.739-10.749-23.31-17.2-21.289-14.352-41.3-16.291-62.989-6.1-19.5,9.165-38.129,27.057-57.848,46l-2.123,2.039a80.141,80.141,0,0,1-23.535,15.67,83.857,83.857,0,0,1-15.234,4.973q.018.747.022,1.5a106.527,106.527,0,0,1-4.144,28.146,95.3,95.3,0,0,1-10.77,25.185A81.732,81.732,0,0,1,466,3999.082c-9.936,8.81-22.225,15.374-36.524,19.51a125.107,125.107,0,0,1-17.646,3.71,138.457,138.457,0,0,1-14.837,1.226C395.638,4023.567,394.357,4023.583,393.162,4023.583Zm67.6-137.594a29.926,29.926,0,0,0-10.325,1.786c-6.293,2.324-10.86,6.6-12.859,12.046-2.573,7,.385,13.719,8.326,18.91,9.667,6.319,24.7,9.129,40.225,7.515a83.041,83.041,0,0,0,8.48-1.327,53.024,53.024,0,0,0-3.472-17.365c-3.941-9.942-11.276-17.066-20.656-20.062A32.071,32.071,0,0,0,460.764,3885.989Z" transform="translate(-382.257 -3849.572)" fill="#d9d9d9"/>
</svg>
