<svg xmlns="http://www.w3.org/2000/svg" xmlns:xlink="http://www.w3.org/1999/xlink" width="173" height="142" viewBox="0 0 173 142">
  <defs>
    <clipPath id="clip-path">
      <rect width="173" height="142" fill="none"/>
    </clipPath>
  </defs>
  <g id="Group_59526" data-name="Group 59526" transform="translate(-1135 -4231)">
    <g id="Group_59525" data-name="Group 59525">
      <g id="Repeat_Grid_1" data-name="Repeat Grid 1" transform="translate(1135 4231)" clip-path="url(#clip-path)">
        <g transform="translate(-1346 -4341)">
          <circle id="Ellipse_9" data-name="Ellipse 9" cx="2.5" cy="2.5" r="2.5" transform="translate(1346 4341)" fill="#30ca9f"/>
        </g>
        <g transform="translate(-1331 -4341)">
          <circle id="Ellipse_9-2" data-name="Ellipse 9" cx="2.5" cy="2.5" r="2.5" transform="translate(1346 4341)" fill="#30ca9f"/>
        </g>
        <g transform="translate(-1316 -4341)">
          <circle id="Ellipse_9-3" data-name="Ellipse 9" cx="2.5" cy="2.5" r="2.5" transform="translate(1346 4341)" fill="#30ca9f"/>
        </g>
        <g transform="translate(-1301 -4341)">
          <circle id="Ellipse_9-4" data-name="Ellipse 9" cx="2.5" cy="2.5" r="2.5" transform="translate(1346 4341)" fill="#30ca9f"/>
        </g>
        <g transform="translate(-1286 -4341)">
          <circle id="Ellipse_9-5" data-name="Ellipse 9" cx="2.5" cy="2.5" r="2.5" transform="translate(1346 4341)" fill="#30ca9f"/>
        </g>
        <g transform="translate(-1271 -4341)">
          <circle id="Ellipse_9-6" data-name="Ellipse 9" cx="2.5" cy="2.5" r="2.5" transform="translate(1346 4341)" fill="#30ca9f"/>
        </g>
        <g transform="translate(-1256 -4341)">
          <circle id="Ellipse_9-7" data-name="Ellipse 9" cx="2.5" cy="2.5" r="2.5" transform="translate(1346 4341)" fill="#30ca9f"/>
        </g>
        <g transform="translate(-1241 -4341)">
          <circle id="Ellipse_9-8" data-name="Ellipse 9" cx="2.5" cy="2.5" r="2.5" transform="translate(1346 4341)" fill="#30ca9f"/>
        </g>
        <g transform="translate(-1226 -4341)">
          <circle id="Ellipse_9-9" data-name="Ellipse 9" cx="2.5" cy="2.5" r="2.5" transform="translate(1346 4341)" fill="#30ca9f"/>
        </g>
        <g transform="translate(-1211 -4341)">
          <circle id="Ellipse_9-10" data-name="Ellipse 9" cx="2.5" cy="2.5" r="2.5" transform="translate(1346 4341)" fill="#30ca9f"/>
        </g>
        <g transform="translate(-1196 -4341)">
          <circle id="Ellipse_9-11" data-name="Ellipse 9" cx="2.5" cy="2.5" r="2.5" transform="translate(1346 4341)" fill="#30ca9f"/>
        </g>
        <g transform="translate(-1181 -4341)">
          <circle id="Ellipse_9-12" data-name="Ellipse 9" cx="2.5" cy="2.5" r="2.5" transform="translate(1346 4341)" fill="#30ca9f"/>
        </g>
        <g transform="translate(-1346 -4326)">
          <circle id="Ellipse_9-13" data-name="Ellipse 9" cx="2.5" cy="2.5" r="2.5" transform="translate(1346 4341)" fill="#30ca9f"/>
        </g>
        <g transform="translate(-1331 -4326)">
          <circle id="Ellipse_9-14" data-name="Ellipse 9" cx="2.5" cy="2.5" r="2.5" transform="translate(1346 4341)" fill="#30ca9f"/>
        </g>
        <g transform="translate(-1316 -4326)">
          <circle id="Ellipse_9-15" data-name="Ellipse 9" cx="2.5" cy="2.5" r="2.5" transform="translate(1346 4341)" fill="#30ca9f"/>
        </g>
        <g transform="translate(-1301 -4326)">
          <circle id="Ellipse_9-16" data-name="Ellipse 9" cx="2.5" cy="2.5" r="2.5" transform="translate(1346 4341)" fill="#30ca9f"/>
        </g>
        <g transform="translate(-1286 -4326)">
          <circle id="Ellipse_9-17" data-name="Ellipse 9" cx="2.5" cy="2.5" r="2.5" transform="translate(1346 4341)" fill="#30ca9f"/>
        </g>
        <g transform="translate(-1271 -4326)">
          <circle id="Ellipse_9-18" data-name="Ellipse 9" cx="2.5" cy="2.5" r="2.5" transform="translate(1346 4341)" fill="#30ca9f"/>
        </g>
        <g transform="translate(-1256 -4326)">
          <circle id="Ellipse_9-19" data-name="Ellipse 9" cx="2.5" cy="2.5" r="2.5" transform="translate(1346 4341)" fill="#30ca9f"/>
        </g>
        <g transform="translate(-1241 -4326)">
          <circle id="Ellipse_9-20" data-name="Ellipse 9" cx="2.5" cy="2.5" r="2.5" transform="translate(1346 4341)" fill="#30ca9f"/>
        </g>
        <g transform="translate(-1226 -4326)">
          <circle id="Ellipse_9-21" data-name="Ellipse 9" cx="2.5" cy="2.5" r="2.5" transform="translate(1346 4341)" fill="#30ca9f"/>
        </g>
        <g transform="translate(-1211 -4326)">
          <circle id="Ellipse_9-22" data-name="Ellipse 9" cx="2.5" cy="2.5" r="2.5" transform="translate(1346 4341)" fill="#30ca9f"/>
        </g>
        <g transform="translate(-1196 -4326)">
          <circle id="Ellipse_9-23" data-name="Ellipse 9" cx="2.5" cy="2.5" r="2.5" transform="translate(1346 4341)" fill="#30ca9f"/>
        </g>
        <g transform="translate(-1181 -4326)">
          <circle id="Ellipse_9-24" data-name="Ellipse 9" cx="2.5" cy="2.5" r="2.5" transform="translate(1346 4341)" fill="#30ca9f"/>
        </g>
        <g transform="translate(-1346 -4311)">
          <circle id="Ellipse_9-25" data-name="Ellipse 9" cx="2.5" cy="2.5" r="2.5" transform="translate(1346 4341)" fill="#30ca9f"/>
        </g>
        <g transform="translate(-1331 -4311)">
          <circle id="Ellipse_9-26" data-name="Ellipse 9" cx="2.5" cy="2.5" r="2.5" transform="translate(1346 4341)" fill="#30ca9f"/>
        </g>
        <g transform="translate(-1316 -4311)">
          <circle id="Ellipse_9-27" data-name="Ellipse 9" cx="2.5" cy="2.5" r="2.5" transform="translate(1346 4341)" fill="#30ca9f"/>
        </g>
        <g transform="translate(-1301 -4311)">
          <circle id="Ellipse_9-28" data-name="Ellipse 9" cx="2.5" cy="2.5" r="2.5" transform="translate(1346 4341)" fill="#30ca9f"/>
        </g>
        <g transform="translate(-1286 -4311)">
          <circle id="Ellipse_9-29" data-name="Ellipse 9" cx="2.5" cy="2.5" r="2.5" transform="translate(1346 4341)" fill="#30ca9f"/>
        </g>
        <g transform="translate(-1271 -4311)">
          <circle id="Ellipse_9-30" data-name="Ellipse 9" cx="2.5" cy="2.5" r="2.5" transform="translate(1346 4341)" fill="#30ca9f"/>
        </g>
        <g transform="translate(-1256 -4311)">
          <circle id="Ellipse_9-31" data-name="Ellipse 9" cx="2.5" cy="2.5" r="2.5" transform="translate(1346 4341)" fill="#30ca9f"/>
        </g>
        <g transform="translate(-1241 -4311)">
          <circle id="Ellipse_9-32" data-name="Ellipse 9" cx="2.5" cy="2.5" r="2.5" transform="translate(1346 4341)" fill="#30ca9f"/>
        </g>
        <g transform="translate(-1226 -4311)">
          <circle id="Ellipse_9-33" data-name="Ellipse 9" cx="2.5" cy="2.5" r="2.5" transform="translate(1346 4341)" fill="#30ca9f"/>
        </g>
        <g transform="translate(-1211 -4311)">
          <circle id="Ellipse_9-34" data-name="Ellipse 9" cx="2.5" cy="2.5" r="2.5" transform="translate(1346 4341)" fill="#30ca9f"/>
        </g>
        <g transform="translate(-1196 -4311)">
          <circle id="Ellipse_9-35" data-name="Ellipse 9" cx="2.5" cy="2.5" r="2.5" transform="translate(1346 4341)" fill="#30ca9f"/>
        </g>
        <g transform="translate(-1181 -4311)">
          <circle id="Ellipse_9-36" data-name="Ellipse 9" cx="2.5" cy="2.5" r="2.5" transform="translate(1346 4341)" fill="#30ca9f"/>
        </g>
        <g transform="translate(-1346 -4296)">
          <circle id="Ellipse_9-37" data-name="Ellipse 9" cx="2.5" cy="2.5" r="2.5" transform="translate(1346 4341)" fill="#30ca9f"/>
        </g>
        <g transform="translate(-1331 -4296)">
          <circle id="Ellipse_9-38" data-name="Ellipse 9" cx="2.5" cy="2.5" r="2.5" transform="translate(1346 4341)" fill="#30ca9f"/>
        </g>
        <g transform="translate(-1316 -4296)">
          <circle id="Ellipse_9-39" data-name="Ellipse 9" cx="2.5" cy="2.5" r="2.5" transform="translate(1346 4341)" fill="#30ca9f"/>
        </g>
        <g transform="translate(-1301 -4296)">
          <circle id="Ellipse_9-40" data-name="Ellipse 9" cx="2.5" cy="2.5" r="2.5" transform="translate(1346 4341)" fill="#30ca9f"/>
        </g>
        <g transform="translate(-1286 -4296)">
          <circle id="Ellipse_9-41" data-name="Ellipse 9" cx="2.5" cy="2.5" r="2.5" transform="translate(1346 4341)" fill="#30ca9f"/>
        </g>
        <g transform="translate(-1271 -4296)">
          <circle id="Ellipse_9-42" data-name="Ellipse 9" cx="2.5" cy="2.5" r="2.5" transform="translate(1346 4341)" fill="#30ca9f"/>
        </g>
        <g transform="translate(-1256 -4296)">
          <circle id="Ellipse_9-43" data-name="Ellipse 9" cx="2.5" cy="2.5" r="2.5" transform="translate(1346 4341)" fill="#30ca9f"/>
        </g>
        <g transform="translate(-1241 -4296)">
          <circle id="Ellipse_9-44" data-name="Ellipse 9" cx="2.5" cy="2.5" r="2.5" transform="translate(1346 4341)" fill="#30ca9f"/>
        </g>
        <g transform="translate(-1226 -4296)">
          <circle id="Ellipse_9-45" data-name="Ellipse 9" cx="2.5" cy="2.5" r="2.5" transform="translate(1346 4341)" fill="#30ca9f"/>
        </g>
        <g transform="translate(-1211 -4296)">
          <circle id="Ellipse_9-46" data-name="Ellipse 9" cx="2.5" cy="2.5" r="2.5" transform="translate(1346 4341)" fill="#30ca9f"/>
        </g>
        <g transform="translate(-1196 -4296)">
          <circle id="Ellipse_9-47" data-name="Ellipse 9" cx="2.5" cy="2.5" r="2.5" transform="translate(1346 4341)" fill="#30ca9f"/>
        </g>
        <g transform="translate(-1181 -4296)">
          <circle id="Ellipse_9-48" data-name="Ellipse 9" cx="2.5" cy="2.5" r="2.5" transform="translate(1346 4341)" fill="#30ca9f"/>
        </g>
        <g transform="translate(-1346 -4281)">
          <circle id="Ellipse_9-49" data-name="Ellipse 9" cx="2.5" cy="2.5" r="2.5" transform="translate(1346 4341)" fill="#30ca9f"/>
        </g>
        <g transform="translate(-1331 -4281)">
          <circle id="Ellipse_9-50" data-name="Ellipse 9" cx="2.5" cy="2.5" r="2.5" transform="translate(1346 4341)" fill="#30ca9f"/>
        </g>
        <g transform="translate(-1316 -4281)">
          <circle id="Ellipse_9-51" data-name="Ellipse 9" cx="2.5" cy="2.5" r="2.5" transform="translate(1346 4341)" fill="#30ca9f"/>
        </g>
        <g transform="translate(-1301 -4281)">
          <circle id="Ellipse_9-52" data-name="Ellipse 9" cx="2.5" cy="2.5" r="2.5" transform="translate(1346 4341)" fill="#30ca9f"/>
        </g>
        <g transform="translate(-1286 -4281)">
          <circle id="Ellipse_9-53" data-name="Ellipse 9" cx="2.5" cy="2.5" r="2.5" transform="translate(1346 4341)" fill="#30ca9f"/>
        </g>
        <g transform="translate(-1271 -4281)">
          <circle id="Ellipse_9-54" data-name="Ellipse 9" cx="2.5" cy="2.5" r="2.5" transform="translate(1346 4341)" fill="#30ca9f"/>
        </g>
        <g transform="translate(-1256 -4281)">
          <circle id="Ellipse_9-55" data-name="Ellipse 9" cx="2.5" cy="2.5" r="2.5" transform="translate(1346 4341)" fill="#30ca9f"/>
        </g>
        <g transform="translate(-1241 -4281)">
          <circle id="Ellipse_9-56" data-name="Ellipse 9" cx="2.5" cy="2.5" r="2.5" transform="translate(1346 4341)" fill="#30ca9f"/>
        </g>
        <g transform="translate(-1226 -4281)">
          <circle id="Ellipse_9-57" data-name="Ellipse 9" cx="2.5" cy="2.5" r="2.5" transform="translate(1346 4341)" fill="#30ca9f"/>
        </g>
        <g transform="translate(-1211 -4281)">
          <circle id="Ellipse_9-58" data-name="Ellipse 9" cx="2.5" cy="2.5" r="2.5" transform="translate(1346 4341)" fill="#30ca9f"/>
        </g>
        <g transform="translate(-1196 -4281)">
          <circle id="Ellipse_9-59" data-name="Ellipse 9" cx="2.5" cy="2.5" r="2.5" transform="translate(1346 4341)" fill="#30ca9f"/>
        </g>
        <g transform="translate(-1181 -4281)">
          <circle id="Ellipse_9-60" data-name="Ellipse 9" cx="2.5" cy="2.5" r="2.5" transform="translate(1346 4341)" fill="#30ca9f"/>
        </g>
        <g transform="translate(-1346 -4266)">
          <circle id="Ellipse_9-61" data-name="Ellipse 9" cx="2.5" cy="2.5" r="2.5" transform="translate(1346 4341)" fill="#30ca9f"/>
        </g>
        <g transform="translate(-1331 -4266)">
          <circle id="Ellipse_9-62" data-name="Ellipse 9" cx="2.5" cy="2.5" r="2.5" transform="translate(1346 4341)" fill="#30ca9f"/>
        </g>
        <g transform="translate(-1316 -4266)">
          <circle id="Ellipse_9-63" data-name="Ellipse 9" cx="2.5" cy="2.5" r="2.5" transform="translate(1346 4341)" fill="#30ca9f"/>
        </g>
        <g transform="translate(-1301 -4266)">
          <circle id="Ellipse_9-64" data-name="Ellipse 9" cx="2.5" cy="2.5" r="2.5" transform="translate(1346 4341)" fill="#30ca9f"/>
        </g>
        <g transform="translate(-1286 -4266)">
          <circle id="Ellipse_9-65" data-name="Ellipse 9" cx="2.5" cy="2.5" r="2.5" transform="translate(1346 4341)" fill="#30ca9f"/>
        </g>
        <g transform="translate(-1271 -4266)">
          <circle id="Ellipse_9-66" data-name="Ellipse 9" cx="2.5" cy="2.5" r="2.5" transform="translate(1346 4341)" fill="#30ca9f"/>
        </g>
        <g transform="translate(-1256 -4266)">
          <circle id="Ellipse_9-67" data-name="Ellipse 9" cx="2.5" cy="2.5" r="2.5" transform="translate(1346 4341)" fill="#30ca9f"/>
        </g>
        <g transform="translate(-1241 -4266)">
          <circle id="Ellipse_9-68" data-name="Ellipse 9" cx="2.5" cy="2.5" r="2.5" transform="translate(1346 4341)" fill="#30ca9f"/>
        </g>
        <g transform="translate(-1226 -4266)">
          <circle id="Ellipse_9-69" data-name="Ellipse 9" cx="2.5" cy="2.5" r="2.5" transform="translate(1346 4341)" fill="#30ca9f"/>
        </g>
        <g transform="translate(-1211 -4266)">
          <circle id="Ellipse_9-70" data-name="Ellipse 9" cx="2.5" cy="2.5" r="2.5" transform="translate(1346 4341)" fill="#30ca9f"/>
        </g>
        <g transform="translate(-1196 -4266)">
          <circle id="Ellipse_9-71" data-name="Ellipse 9" cx="2.5" cy="2.5" r="2.5" transform="translate(1346 4341)" fill="#30ca9f"/>
        </g>
        <g transform="translate(-1181 -4266)">
          <circle id="Ellipse_9-72" data-name="Ellipse 9" cx="2.5" cy="2.5" r="2.5" transform="translate(1346 4341)" fill="#30ca9f"/>
        </g>
        <g transform="translate(-1346 -4251)">
          <circle id="Ellipse_9-73" data-name="Ellipse 9" cx="2.5" cy="2.5" r="2.5" transform="translate(1346 4341)" fill="#30ca9f"/>
        </g>
        <g transform="translate(-1331 -4251)">
          <circle id="Ellipse_9-74" data-name="Ellipse 9" cx="2.5" cy="2.5" r="2.5" transform="translate(1346 4341)" fill="#30ca9f"/>
        </g>
        <g transform="translate(-1316 -4251)">
          <circle id="Ellipse_9-75" data-name="Ellipse 9" cx="2.5" cy="2.5" r="2.5" transform="translate(1346 4341)" fill="#30ca9f"/>
        </g>
        <g transform="translate(-1301 -4251)">
          <circle id="Ellipse_9-76" data-name="Ellipse 9" cx="2.5" cy="2.5" r="2.5" transform="translate(1346 4341)" fill="#30ca9f"/>
        </g>
        <g transform="translate(-1286 -4251)">
          <circle id="Ellipse_9-77" data-name="Ellipse 9" cx="2.5" cy="2.5" r="2.5" transform="translate(1346 4341)" fill="#30ca9f"/>
        </g>
        <g transform="translate(-1271 -4251)">
          <circle id="Ellipse_9-78" data-name="Ellipse 9" cx="2.5" cy="2.5" r="2.5" transform="translate(1346 4341)" fill="#30ca9f"/>
        </g>
        <g transform="translate(-1256 -4251)">
          <circle id="Ellipse_9-79" data-name="Ellipse 9" cx="2.5" cy="2.5" r="2.5" transform="translate(1346 4341)" fill="#30ca9f"/>
        </g>
        <g transform="translate(-1241 -4251)">
          <circle id="Ellipse_9-80" data-name="Ellipse 9" cx="2.5" cy="2.5" r="2.5" transform="translate(1346 4341)" fill="#30ca9f"/>
        </g>
        <g transform="translate(-1226 -4251)">
          <circle id="Ellipse_9-81" data-name="Ellipse 9" cx="2.5" cy="2.5" r="2.5" transform="translate(1346 4341)" fill="#30ca9f"/>
        </g>
        <g transform="translate(-1211 -4251)">
          <circle id="Ellipse_9-82" data-name="Ellipse 9" cx="2.5" cy="2.5" r="2.5" transform="translate(1346 4341)" fill="#30ca9f"/>
        </g>
        <g transform="translate(-1196 -4251)">
          <circle id="Ellipse_9-83" data-name="Ellipse 9" cx="2.5" cy="2.5" r="2.5" transform="translate(1346 4341)" fill="#30ca9f"/>
        </g>
        <g transform="translate(-1181 -4251)">
          <circle id="Ellipse_9-84" data-name="Ellipse 9" cx="2.5" cy="2.5" r="2.5" transform="translate(1346 4341)" fill="#30ca9f"/>
        </g>
        <g transform="translate(-1346 -4236)">
          <circle id="Ellipse_9-85" data-name="Ellipse 9" cx="2.5" cy="2.5" r="2.5" transform="translate(1346 4341)" fill="#30ca9f"/>
        </g>
        <g transform="translate(-1331 -4236)">
          <circle id="Ellipse_9-86" data-name="Ellipse 9" cx="2.5" cy="2.5" r="2.5" transform="translate(1346 4341)" fill="#30ca9f"/>
        </g>
        <g transform="translate(-1316 -4236)">
          <circle id="Ellipse_9-87" data-name="Ellipse 9" cx="2.5" cy="2.5" r="2.5" transform="translate(1346 4341)" fill="#30ca9f"/>
        </g>
        <g transform="translate(-1301 -4236)">
          <circle id="Ellipse_9-88" data-name="Ellipse 9" cx="2.5" cy="2.5" r="2.5" transform="translate(1346 4341)" fill="#30ca9f"/>
        </g>
        <g transform="translate(-1286 -4236)">
          <circle id="Ellipse_9-89" data-name="Ellipse 9" cx="2.5" cy="2.5" r="2.5" transform="translate(1346 4341)" fill="#30ca9f"/>
        </g>
        <g transform="translate(-1271 -4236)">
          <circle id="Ellipse_9-90" data-name="Ellipse 9" cx="2.5" cy="2.5" r="2.5" transform="translate(1346 4341)" fill="#30ca9f"/>
        </g>
        <g transform="translate(-1256 -4236)">
          <circle id="Ellipse_9-91" data-name="Ellipse 9" cx="2.5" cy="2.5" r="2.5" transform="translate(1346 4341)" fill="#30ca9f"/>
        </g>
        <g transform="translate(-1241 -4236)">
          <circle id="Ellipse_9-92" data-name="Ellipse 9" cx="2.5" cy="2.5" r="2.5" transform="translate(1346 4341)" fill="#30ca9f"/>
        </g>
        <g transform="translate(-1226 -4236)">
          <circle id="Ellipse_9-93" data-name="Ellipse 9" cx="2.5" cy="2.5" r="2.5" transform="translate(1346 4341)" fill="#30ca9f"/>
        </g>
        <g transform="translate(-1211 -4236)">
          <circle id="Ellipse_9-94" data-name="Ellipse 9" cx="2.5" cy="2.5" r="2.5" transform="translate(1346 4341)" fill="#30ca9f"/>
        </g>
        <g transform="translate(-1196 -4236)">
          <circle id="Ellipse_9-95" data-name="Ellipse 9" cx="2.5" cy="2.5" r="2.5" transform="translate(1346 4341)" fill="#30ca9f"/>
        </g>
        <g transform="translate(-1181 -4236)">
          <circle id="Ellipse_9-96" data-name="Ellipse 9" cx="2.5" cy="2.5" r="2.5" transform="translate(1346 4341)" fill="#30ca9f"/>
        </g>
        <g transform="translate(-1346 -4221)">
          <circle id="Ellipse_9-97" data-name="Ellipse 9" cx="2.5" cy="2.5" r="2.5" transform="translate(1346 4341)" fill="#30ca9f"/>
        </g>
        <g transform="translate(-1331 -4221)">
          <circle id="Ellipse_9-98" data-name="Ellipse 9" cx="2.5" cy="2.5" r="2.5" transform="translate(1346 4341)" fill="#30ca9f"/>
        </g>
        <g transform="translate(-1316 -4221)">
          <circle id="Ellipse_9-99" data-name="Ellipse 9" cx="2.5" cy="2.5" r="2.5" transform="translate(1346 4341)" fill="#30ca9f"/>
        </g>
        <g transform="translate(-1301 -4221)">
          <circle id="Ellipse_9-100" data-name="Ellipse 9" cx="2.5" cy="2.5" r="2.5" transform="translate(1346 4341)" fill="#30ca9f"/>
        </g>
        <g transform="translate(-1286 -4221)">
          <circle id="Ellipse_9-101" data-name="Ellipse 9" cx="2.5" cy="2.5" r="2.5" transform="translate(1346 4341)" fill="#30ca9f"/>
        </g>
        <g transform="translate(-1271 -4221)">
          <circle id="Ellipse_9-102" data-name="Ellipse 9" cx="2.5" cy="2.5" r="2.5" transform="translate(1346 4341)" fill="#30ca9f"/>
        </g>
        <g transform="translate(-1256 -4221)">
          <circle id="Ellipse_9-103" data-name="Ellipse 9" cx="2.5" cy="2.5" r="2.5" transform="translate(1346 4341)" fill="#30ca9f"/>
        </g>
        <g transform="translate(-1241 -4221)">
          <circle id="Ellipse_9-104" data-name="Ellipse 9" cx="2.5" cy="2.5" r="2.5" transform="translate(1346 4341)" fill="#30ca9f"/>
        </g>
        <g transform="translate(-1226 -4221)">
          <circle id="Ellipse_9-105" data-name="Ellipse 9" cx="2.5" cy="2.5" r="2.5" transform="translate(1346 4341)" fill="#30ca9f"/>
        </g>
        <g transform="translate(-1211 -4221)">
          <circle id="Ellipse_9-106" data-name="Ellipse 9" cx="2.5" cy="2.5" r="2.5" transform="translate(1346 4341)" fill="#30ca9f"/>
        </g>
        <g transform="translate(-1196 -4221)">
          <circle id="Ellipse_9-107" data-name="Ellipse 9" cx="2.5" cy="2.5" r="2.5" transform="translate(1346 4341)" fill="#30ca9f"/>
        </g>
        <g transform="translate(-1181 -4221)">
          <circle id="Ellipse_9-108" data-name="Ellipse 9" cx="2.5" cy="2.5" r="2.5" transform="translate(1346 4341)" fill="#30ca9f"/>
        </g>
        <g transform="translate(-1346 -4206)">
          <circle id="Ellipse_9-109" data-name="Ellipse 9" cx="2.5" cy="2.5" r="2.5" transform="translate(1346 4341)" fill="#30ca9f"/>
        </g>
        <g transform="translate(-1331 -4206)">
          <circle id="Ellipse_9-110" data-name="Ellipse 9" cx="2.5" cy="2.5" r="2.5" transform="translate(1346 4341)" fill="#30ca9f"/>
        </g>
        <g transform="translate(-1316 -4206)">
          <circle id="Ellipse_9-111" data-name="Ellipse 9" cx="2.5" cy="2.5" r="2.5" transform="translate(1346 4341)" fill="#30ca9f"/>
        </g>
        <g transform="translate(-1301 -4206)">
          <circle id="Ellipse_9-112" data-name="Ellipse 9" cx="2.5" cy="2.5" r="2.5" transform="translate(1346 4341)" fill="#30ca9f"/>
        </g>
        <g transform="translate(-1286 -4206)">
          <circle id="Ellipse_9-113" data-name="Ellipse 9" cx="2.5" cy="2.5" r="2.5" transform="translate(1346 4341)" fill="#30ca9f"/>
        </g>
        <g transform="translate(-1271 -4206)">
          <circle id="Ellipse_9-114" data-name="Ellipse 9" cx="2.5" cy="2.5" r="2.5" transform="translate(1346 4341)" fill="#30ca9f"/>
        </g>
        <g transform="translate(-1256 -4206)">
          <circle id="Ellipse_9-115" data-name="Ellipse 9" cx="2.5" cy="2.5" r="2.5" transform="translate(1346 4341)" fill="#30ca9f"/>
        </g>
        <g transform="translate(-1241 -4206)">
          <circle id="Ellipse_9-116" data-name="Ellipse 9" cx="2.5" cy="2.5" r="2.5" transform="translate(1346 4341)" fill="#30ca9f"/>
        </g>
        <g transform="translate(-1226 -4206)">
          <circle id="Ellipse_9-117" data-name="Ellipse 9" cx="2.5" cy="2.5" r="2.5" transform="translate(1346 4341)" fill="#30ca9f"/>
        </g>
        <g transform="translate(-1211 -4206)">
          <circle id="Ellipse_9-118" data-name="Ellipse 9" cx="2.5" cy="2.5" r="2.5" transform="translate(1346 4341)" fill="#30ca9f"/>
        </g>
        <g transform="translate(-1196 -4206)">
          <circle id="Ellipse_9-119" data-name="Ellipse 9" cx="2.5" cy="2.5" r="2.5" transform="translate(1346 4341)" fill="#30ca9f"/>
        </g>
        <g transform="translate(-1181 -4206)">
          <circle id="Ellipse_9-120" data-name="Ellipse 9" cx="2.5" cy="2.5" r="2.5" transform="translate(1346 4341)" fill="#30ca9f"/>
        </g>
      </g>
    </g>
  </g>
</svg>
