<svg xmlns="http://www.w3.org/2000/svg" xmlns:xlink="http://www.w3.org/1999/xlink" width="194.925" height="228.5" viewBox="0 0 194.925 228.5">
  <defs>
    <linearGradient id="linear-gradient" x1="-0.098" y1="-0.103" x2="1.049" y2="1.124" gradientUnits="objectBoundingBox">
      <stop offset="0" stop-color="#39f681"/>
      <stop offset="1" stop-color="#19d1c5"/>
    </linearGradient>
    <linearGradient id="linear-gradient-2" x1="0.5" x2="0.5" y2="1" gradientUnits="objectBoundingBox">
      <stop offset="0" stop-color="#38ef7d"/>
      <stop offset="0.34" stop-color="#32d595"/>
      <stop offset="0.756" stop-color="#2fc6a4"/>
      <stop offset="1" stop-color="#2cb9b0"/>
    </linearGradient>
  </defs>
  <g id="Group_182864" data-name="Group 182864" transform="translate(-1267.575 -388.029)">
    <path id="Path_253633" data-name="Path 253633" d="M1254.471,210.65l3.137-5.3-2.587-5.588a.846.846,0,0,1,.953-1.182l6.009,1.346,4.516-4.187a.846.846,0,0,1,1.418.541l.577,6.131,5.378,3a.846.846,0,0,1-.077,1.516l-5.653,2.443-1.192,6.042a.846.846,0,0,1-1.465.4l-4.071-4.621-6.114.733a.846.846,0,0,1-.829-1.271" transform="translate(155.201 192.516)" fill="url(#linear-gradient)"/>
    <path id="Path_253636" data-name="Path 253636" d="M1074.019,159.418l-6.567,4.383,3.673,6.376-6.279,4.6,2.758,6.526-4.135,4.213,2.132,2.093,5.531-5.635-2.615-6.185,6.532-4.789-3.612-6.271,5.951-3.972Z" transform="translate(261.685 241.893)" fill="#13294b"/>
    <path id="Path_253643" data-name="Path 253643" d="M1176.07,402.06l-1.782,4.442-7.465-2.078-3.407,6.174-5.841-.642-.325,2.956,7.811.859,3.228-5.851,7.765,2.162,2.682-6.685Z" transform="translate(115.677 73.2)" fill="url(#linear-gradient-2)"/>
    <path id="Path_253657" data-name="Path 253657" d="M1114.476,508.982l-7.16,2.2-2.247,7.146a.73.73,0,0,1-1.294.2l-4.306-6.129-7.49.072a.73.73,0,0,1-.591-1.169l4.5-5.99-2.384-7.1a.73.73,0,0,1,.929-.923l7.087,2.428,6.017-4.461a.73.73,0,0,1,1.165.6l-.12,7.49,6.1,4.345a.73.73,0,0,1-.209,1.292" transform="translate(176.333 29.92)" fill="#13294b"/>
    <path id="Path_253670" data-name="Path 253670" d="M658.084,7.632l3.883.767s5.675-2.651,6.108-3.929.234-4.222,1.065-4.407A2.568,2.568,0,0,1,672.267,1.9c.462,1.418-1.144,5.881-.756,6.287a20.551,20.551,0,0,0,4.088,1.1,2.929,2.929,0,0,1,2.216,2.106v0a1.614,1.614,0,0,1-.786,1.844l-1.021.548.48,1.066a1.612,1.612,0,0,1-.765,2.11l-.8.382.349.642a1.611,1.611,0,0,1-.77,2.243l-.7.3.054.19a1.61,1.61,0,0,1-.941,1.932l-.7.278-10.34-2.044a7.132,7.132,0,0,1-2.7-1.149l-3.515-1.331a.826.826,0,0,1-.508-.948l1.964-9.187a.824.824,0,0,1,.959-.644" transform="translate(612.433 418.041)" fill="#30ca9f"/>
    <g id="Group_182861" data-name="Group 182861" transform="translate(1314.986 434.391)">
      <path id="Path_253673" data-name="Path 253673" d="M1145.636,1042.217a9.3,9.3,0,0,0-9.116-7.619,9.773,9.773,0,0,0-5.287-5.2c-4.555-1.775-11.171-.917-11.707,4.147-2.3,3.091-3.045,7.917-.617,10.939-1.608,4.393,1.984,9.47,7.477,10.189a9.99,9.99,0,0,0,8.472,6.261,21.818,21.818,0,0,1,2.444.118c-.268-.1,5.144,5.6,11.307-.827,6.289-6.553,3.855-16.1-2.973-18.007" transform="translate(-1093.394 -960.91)" fill="#ff862d"/>
      <path id="Path_253674" data-name="Path 253674" d="M1039.423,1036.985s-15.006-7.241-15.08-7.535c-.107-.428,5.069-6.1,7.778-6.562a13.161,13.161,0,0,0,4.625-2.38s-2.767-3.19-5.4-2.664a2.658,2.658,0,0,0-2.463,2.683s-7.064,3.808-11.17,7.546c-3.894,3.545,16.794,13.3,16.794,13.3Z" transform="translate(-1017.224 -952.725)" fill="#f7a491"/>
      <path id="Path_253675" data-name="Path 253675" d="M1062.381,1421.022a43.756,43.756,0,0,0,1.885,6.878c.072.172.76.8.839.98-.369,4.229-3.064,6.741-5.594,8.532.549-2.133,1.771-4.579,1.613-5.053a60.522,60.522,0,0,0-3.312-8.535c2.106-.238,2.855-1.517,4.57-2.8" transform="translate(-1048.082 -1259.301)" fill="#f7a491"/>
      <path id="Path_253676" data-name="Path 253676" d="M1044.875,1211.109l13.143,9.983s-6.507,6.261-8.949,8.588-16.118,11.243-16.331,11.776c-.157.4,1.213,5.4,4.354,21.423a16.069,16.069,0,0,1-6.26,3.271c-4.557-8.7-8.123-26.537-8.123-28.552,0-3.282,22.166-26.49,22.166-26.49" transform="translate(-1021.394 -1099.706)" fill="url(#linear-gradient)"/>
      <path id="Path_253677" data-name="Path 253677" d="M1241.412,1277.889a59.973,59.973,0,0,0-4.369,8.952c-1.589-1-2.55-2.193-4.326-2.866,1.4-2.028,4.133-6.906,4.357-8.067.533-2.754,1.158-3.16,1.158-3.16s9.234,3.124,9.849,4-4.943-.541-6.67,1.141" transform="translate(-1181.061 -1146.571)" fill="#f7a491"/>
      <path id="Path_253678" data-name="Path 253678" d="M1249.5,1272.3c-.716,0,.062-3.236.226-3.982a1.4,1.4,0,0,1,.792-1.121c.328-.081,10.59,3.391,12.324,4.638a2.065,2.065,0,0,1,.36.411c.95,1.772-7.51,2.109-8.728,1.334-1.083-.689-1.751-1.29-4.974-1.282" transform="translate(-1193.594 -1142.347)" fill="#13294b"/>
      <path id="Path_253679" data-name="Path 253679" d="M1103.466,1209.458s12.386-4.878,12.547-4.359c1.282,4.131,5.822,2.8,8.191,10.074.992,3.047,1.224,11.09,1.893,17.056.46,4.1,1.1,7.384,1.1,7.384s2.867-3.376,8.265-9.458c.418-.471,4.776,2.809,4.776,2.809-8.6,17.046-14.923,19.6-16.238,18.992-8.884-4.076-16.154-34.6-16.14-34.6-1.01-1.968-4.4-7.9-4.4-7.9" transform="translate(-1082.793 -1095.108)" fill="url(#linear-gradient)"/>
      <path id="Path_253680" data-name="Path 253680" d="M1183.215,1088.136s14.787-.019,17.953-.2c2.865-.165,14.23.124,14.674.073s3.382-5.026,3.87-4.492-1.634,2.467-.978,2.968,7.71-.621,7.616-.1c-.175.976-4.29.851-4.286,1.322s4.307-.264,4.6.518-4.139.319-4.316.668,4.109.988,3.671,1.715c-.238.395-3.8-.66-3.78-.121s2.614,1.763,2.3,2.192-2.038-1.316-3.545-1.338-2.586-.808-4.991-.148c-1.188.326-10.254,1.434-17.915,2.089-7.854.671-14.292.884-14.292.884Z" transform="translate(-1143.425 -1002.667)" fill="#f7a491"/>
      <path id="Path_253681" data-name="Path 253681" d="M1075.036,1101.808a50.66,50.66,0,0,1,.378-7.681c-.719-2.466-5.1-2.719-5.647-3.753,0,0,1.93-6.239,4.566-6.205,0,0,6.187,2.351,8.268,3.436a5.157,5.157,0,0,0,1.047.313c2.01-.014,9.03-.227,10.341.164l-.742,10.849c-.378.622-.993,13.762-1.769,14.789s-11.922,5.035-13.795,3.83c-.074-.048-2.25-10.941-2.646-15.74" transform="translate(-1057.172 -1003.195)" fill="#e9faff"/>
      <path id="Path_253682" data-name="Path 253682" d="M1155.555,1099.641c1.294-.619,10.756-.6,10.756-.6s1.309,6.526.252,8.094c0,0-8.38,1.247-8.141,1.935Z" transform="translate(-1122.396 -1014.504)" fill="#e9faff"/>
      <path id="Path_253683" data-name="Path 253683" d="M1124.235,1072.334a28.924,28.924,0,0,0-1.7,5c-.177,1.481-1.889,6-4.961,5.344s.724-6.069,1.326-7.427a55.609,55.609,0,0,0,1.638-5.741Z" transform="translate(-1092.621 -992.051)" fill="#f7a491"/>
      <path id="Path_253684" data-name="Path 253684" d="M1131.414,1071.706c.313-1.193.549-2.193.549-2.193l3.694,2.822s-.311.72-.667,1.645a3.679,3.679,0,0,1-3.575-2.275" transform="translate(-1104.041 -992.053)" fill="#f47458"/>
      <path id="Path_253685" data-name="Path 253685" d="M1137.652,1040.275a5.219,5.219,0,0,1,.856,3.511c-.257,2.025-2.934,6.346-7.259,5.74s-4.352-4.99-2.288-7.483,5.395-5.328,8.69-1.767" transform="translate(-1101.164 -968.547)" fill="#f7a491"/>
      <path id="Path_253686" data-name="Path 253686" d="M1132.843,1043.7c-.267.8-.108,1.571.357,1.727s1.059-.364,1.326-1.163.108-1.571-.357-1.727-1.059.365-1.326,1.163" transform="translate(-1105.029 -971.523)" fill="#f7a491"/>
      <path id="Path_253687" data-name="Path 253687" d="M1067.206,1449.741c.265-.665,2.94,1.456,3.571,1.886a1.4,1.4,0,0,1,.745,1.152c-.046.325-6.853,8.709-8.843,9.867a1.143,1.143,0,0,1-.7.068c-1.106-.426.694-7.285,2.146-8.64a8.8,8.8,0,0,0,3.081-4.333" transform="translate(-1050.99 -1281.039)" fill="#13294b"/>
      <path id="Path_253688" data-name="Path 253688" d="M1165.358,1043.792s-1.6,5.44-.361,7.108-.47,3.633-.47,3.633,3.872-4.609,3.321-6.894a8,8,0,0,0-2.489-3.848" transform="translate(-1129.215 -972.497)" fill="#ff862d"/>
      <path id="Path_253689" data-name="Path 253689" d="M1158.163,1073.636c-.749.466-1.1,1.255-.785,1.762s1.178.539,1.928.072,1.1-1.256.785-1.762-1.179-.538-1.928-.072" transform="translate(-1123.694 -994.936)" fill="#f7a491"/>
      <path id="Path_253690" data-name="Path 253690" d="M1116.235,1020.244l.287.787a1.109,1.109,0,0,1-.381,1.27l-.7.518a1.109,1.109,0,0,1-1.443-.1l-.613-.611Z" transform="translate(-1090.335 -954.594)" fill="url(#linear-gradient-2)"/>
      <path id="Path_253691" data-name="Path 253691" d="M1078.179,1012.033l-1.151-.313-.795.425s-5.157,2.3-6.179,2.3-1.808-1.856-1.562-2.207,3.59-1.2,3.59-1.2l2.077-1.879.117-1.361Z" transform="translate(-1056.168 -945.136)" fill="#13294b"/>
      <path id="Path_253692" data-name="Path 253692" d="M1093.206,988.539l3.643,6.444a1.318,1.318,0,0,1-.4,1.734l-2.2,1.518a1.318,1.318,0,0,1-1.729-.2l-4.853-5.407Z" transform="translate(-1070.782 -930.489)" fill="#13294b"/>
      <path id="Path_253693" data-name="Path 253693" d="M1055.343,943.117l-5.768,4.354a1.1,1.1,0,0,1-1.425-.082l-10.592-10.1,11.527-8.349,6.574,12.793a1.1,1.1,0,0,1-.316,1.383" transform="translate(-1032.684 -885.176)" fill="url(#linear-gradient-2)"/>
      <path id="Path_253694" data-name="Path 253694" d="M1040.052,929.16c-3.273,2.23-5.286,4.979-4.494,6.14s4.086.295,7.359-1.936,5.286-4.979,4.494-6.141-4.086-.294-7.359,1.936" transform="translate(-1031.032 -883.48)" fill="url(#linear-gradient-2)"/>
      <path id="Path_253695" data-name="Path 253695" d="M1039.5,937.847c.926.218,3.3-.5,5.872-2.249,3.221-2.2,4.432-4.37,4.241-4.818h0a.56.56,0,0,0-.16-.059c-.926-.219-3.3.5-5.872,2.249-3.222,2.2-4.432,4.371-4.241,4.818h0a.541.541,0,0,0,.159.059" transform="translate(-1034.023 -886.503)" fill="#b7ffeb"/>
      <path id="Path_253696" data-name="Path 253696" d="M1072.21,1017.448l1.367.512a2.089,2.089,0,0,1,1.1,1.169c.2.774,1.187.595.914-.217a8.02,8.02,0,0,0-.553-1.3,15.62,15.62,0,0,0,1.227,1.534c.646.067.743-.885-.359-1.967s-3.692.272-3.692.272" transform="translate(-1059.029 -951.943)" fill="#f7a491"/>
      <path id="Path_253697" data-name="Path 253697" d="M1090.4,1022.06s2.342.956,1.873,1.542-1.873,1.229-1.912.917.917-.742.293-1.385c-.174-.18-1.034-1.073-.253-1.073" transform="translate(-1072.612 -955.975)" fill="#f7a491"/>
      <path id="Path_253698" data-name="Path 253698" d="M1422.195,1398.905s5.455,3.932,6.314,5.105c1.237,1.69-9.241,4.851-8.1,2.872.263-.455,1.017-1.986,1.05-2.137.176-.805-2.047-2.975-2.047-2.975Z" transform="translate(-1323.005 -1242.486)" fill="#f7a491"/>
      <path id="Path_253699" data-name="Path 253699" d="M1407.665,1419.2l3.7-5.234a10.093,10.093,0,0,0,4.686-3.208,8.679,8.679,0,0,1,3.446,2.579,60.468,60.468,0,0,1-6.3,5.68,17.5,17.5,0,0,1-5.4,3.064c-3.13,1.058-.141-2.881-.141-2.881" transform="translate(-1313.093 -1251.501)" fill="#13294b"/>
      <path id="Path_253700" data-name="Path 253700" d="M1535.906,1098.132s-.67.593-.908.774c-.278.211-1.158.783-1.158.783s-3.183,1.811-3.292,1.573a1.578,1.578,0,0,1,.054-1.107c.157-.181.616-.368.774-.548a.586.586,0,0,0,.009-.748c-.2-.2-1.291.393-1.291.393a4.057,4.057,0,0,0-1.25,1.081,5.247,5.247,0,0,0-1.061,2.426,49.527,49.527,0,0,1-4.667,2.333s-13.35,5.55-14.069,5.853h-.009a3.877,3.877,0,0,0,.4,1.734c.319,1.907.887,2.034,1.32,3.873,2.048-1.036,16.222-8.845,17.663-9.658,0,0,2.159-.369,3.508-.645a12.032,12.032,0,0,0,2.895-1.264,12.708,12.708,0,0,0,2.589-1.569c1.144-.887-.333-.552-.333-.552s-2.4,1.275-2.466,1.072c-.048-.156,1.3-.776,2.579-1.744.328-.249.651-.5.945-.725.774-.6.639-1.232-.268-.728a10.094,10.094,0,0,0-1.19.758,8.348,8.348,0,0,1-1.155.647,10.881,10.881,0,0,1-1.195.659c0-.048-.19-.063.15-.338.409-.33,1.428-.846,1.993-1.377.32-.3,1.027-.891,1.027-.891a8.869,8.869,0,0,0,.863-1.156c-.24-.389-1.064.184-1.447.648a6.813,6.813,0,0,0-1.119.816s-1.751.978-1.886.738a23.07,23.07,0,0,1,1.827-1.688c.816-.8,1.513-1.735,1.384-1.914-.219-.3-1.218.491-1.218.491" transform="translate(-1391.132 -1013.386)" fill="#f8a492"/>
      <path id="Path_253701" data-name="Path 253701" d="M1354.677,1227.273l-.863,4.267-21.69,19.728,15.526,15.712-4.192,4.285s-22.93-16.838-23.756-19.044c-1.273-3.4,16.437-25.9,16.437-25.9Z" transform="translate(-1247.144 -1111.272)" fill="url(#linear-gradient)"/>
      <path id="Path_253702" data-name="Path 253702" d="M1520.407,1446.27s5.455,3.932,6.314,5.106c1.237,1.69-9.241,4.85-8.1,2.871.263-.455,1.017-1.986,1.05-2.136.176-.806-2.047-2.975-2.047-2.975Z" transform="translate(-1397.675 -1278.497)" fill="#f7a491"/>
      <path id="Path_253703" data-name="Path 253703" d="M1505.857,1466.952l3.7-5.234a9.434,9.434,0,0,0,4.835-3.113,7.973,7.973,0,0,1,3.3,2.484,60.45,60.45,0,0,1-6.3,5.68,17.5,17.5,0,0,1-5.395,3.064c-3.13,1.058-.141-2.881-.141-2.881" transform="translate(-1387.748 -1287.875)" fill="#13294b"/>
      <path id="Path_253704" data-name="Path 253704" d="M1409.149,1233.191l-.974,26.921,18.339,22.485-4.3,3.964s-21.29-18.272-23.627-23.362c-1.45-3.157-6.328-31.694-6.328-31.694Z" transform="translate(-1302.359 -1115.212)" fill="url(#linear-gradient)"/>
      <path id="Path_253705" data-name="Path 253705" d="M1389.391,1104.966c1.764-3.981,1.56-32.524,8.426-39.209,2.416.408,4.139.636,4.542.743.358,2.94.753,13.73.995,23.618.161,6.587-.005,13.5.806,17.138.5,2.257-16.38,1.347-14.768-2.29" transform="translate(-1300.096 -989.196)" fill="#e9faff"/>
      <path id="Path_253706" data-name="Path 253706" d="M1445.181,1070.3c1.927.439,3.346.748,5.873,4.479,2.418,3.572,7.788,12.05,7.788,12.05l14.144-6.282.661,7.164s-16,8.318-18.258,7.568-8.6-10.028-9.074-10.654c-.11-.147.533,9.909.533,11.516s3.068,15.6,3.068,15.6-7.783,1.916-9.3-1.564c-4.658-10.669-1.082-41.355-1.082-41.355s4.264,1.166,5.651,1.483" transform="translate(-1337.302 -991.52)" fill="url(#linear-gradient)"/>
      <path id="Path_253707" data-name="Path 253707" d="M1326.223,935.834a4.235,4.235,0,0,0,.619-2.562l.129-1.042c-.252-.066-5.016-.111-6.431.04a2.588,2.588,0,0,0-.021,1.085c.363,1.125,2.828,8.412,2.828,8.412l4.037-.454s-1.465-4.321-1.162-5.478" transform="translate(-1247.78 -887.629)" fill="#f7a491"/>
      <path id="Path_253708" data-name="Path 253708" d="M1350.349,990.578s-2.787,7.93-5.081,6.788-15.179-14.279-15.306-14.913-1.02-16.759-1.02-16.759l5.1-1.016,2.931,13.2s9.429,9.014,11.34,9.9a3.542,3.542,0,0,1,2.039,2.793" transform="translate(-1254.221 -912.348)" fill="url(#linear-gradient)"/>
      <path id="Path_253709" data-name="Path 253709" d="M1376.9,1103.335a8.646,8.646,0,0,1-3.14-.522s2.938-16.56,4.646-32.981c.675-6.487,1.3-9.146,3.977-8.677.774.135,2.87.934,3.631,1.063-6.725,19.028-6.749,33.674-7.7,37.922-.478,2.131-.894,3.21-1.414,3.2" transform="translate(-1288.294 -985.658)" fill="url(#linear-gradient)"/>
      <path id="Path_253710" data-name="Path 253710" d="M1425.585,1040.029l-.705,2.875s-.16,2.5,1,2.727c1.4.272,3.483-1.825,3.483-1.825l1.206-8.107Z" transform="translate(-1327.155 -966.344)" fill="#f7a491"/>
      <path id="Path_253711" data-name="Path 253711" d="M1425.585,1040.029l-.705,2.875s-.16,2.5,1,2.727c1.4.272,3.483-1.825,3.483-1.825l1.206-8.107Z" transform="translate(-1327.155 -966.344)" fill="#f7a491"/>
      <path id="Path_253712" data-name="Path 253712" d="M1431.148,1035.854l-4.973,4.293-.527,2.147c1.9-.457,4.611-2.549,5.5-6.44" transform="translate(-1327.745 -966.461)" fill="#f47458"/>
      <path id="Path_253713" data-name="Path 253713" d="M1415.443,1004.735a2.937,2.937,0,0,0-2.708,2.031,25.537,25.537,0,0,0-1.085,4.162c-.526,3.118,1.249,5.972,2.794,6.2s5.225-.8,6.039-5.212c.349-1.893.808-4.377-.749-5.681a7,7,0,0,0-4.29-1.5" transform="translate(-1317.03 -942.802)" fill="#f7a491"/>
      <path id="Path_253714" data-name="Path 253714" d="M1419.312,1002.461s5.446-4.853,5.684-8.645-3.264-5.823-6.258-5.928a20.323,20.323,0,0,0-3.665.189c-3,.378-4.944,1.708-4.26,4.166.918,3.3,7.145.516,8.418,1.54,1.051.845-.653,2.878.368,3.654.959.729.471.482.153,1.868a24.445,24.445,0,0,0-.44,3.157" transform="translate(-1316.362 -929.982)" fill="#271651"/>
      <path id="Path_253715" data-name="Path 253715" d="M1449.049,1024.685c-.135.908-.691,1.579-1.241,1.5s-.887-.884-.752-1.792.691-1.579,1.241-1.5.887.884.752,1.792" transform="translate(-1343.999 -956.602)" fill="#f7a491"/>
      <path id="Path_253716" data-name="Path 253716" d="M1330.055,934.032a5.633,5.633,0,0,0-1.473,1.788s-2.47-1.157-2.452-1.63c.024-.627,2.5.2,2.5.2Z" transform="translate(-1252.083 -888.99)" fill="#f47458"/>
      <path id="Path_253717" data-name="Path 253717" d="M1314.25,772.99l-40.122,20.659a4.4,4.4,0,0,1-5.922-1.9l-9.428-18.312a4.4,4.4,0,0,1,1.9-5.922l40.121-20.659a4.4,4.4,0,0,1,5.922,1.9l9.429,18.312a4.4,4.4,0,0,1-1.9,5.922" transform="translate(-1200.503 -746.371)" fill="#13294b"/>
      <rect id="Rectangle_18315" data-name="Rectangle 18315" width="53.922" height="6.248" rx="3.124" transform="matrix(0.889, -0.458, 0.458, 0.889, 64.631, 39.415)" fill="url(#linear-gradient)"/>
      <path id="Path_253718" data-name="Path 253718" d="M1342.542,925.644l.578,1.421-1.327.686s.337-.674.216-.859c-.661-1.01-.1-2,.533-1.249" transform="translate(-1263.93 -882.469)" fill="#f7a491"/>
    </g>
  </g>
</svg>
