<svg xmlns="http://www.w3.org/2000/svg" xmlns:xlink="http://www.w3.org/1999/xlink" width="241.808" height="192.882" viewBox="0 0 241.808 192.882">
  <defs>
    <linearGradient id="linear-gradient" x1="0.5" x2="0.5" y2="1" gradientUnits="objectBoundingBox">
      <stop offset="0" stop-color="#38ef7d"/>
      <stop offset="0.34" stop-color="#32d595"/>
      <stop offset="0.756" stop-color="#2fc6a4"/>
      <stop offset="1" stop-color="#2cb9b0"/>
    </linearGradient>
  </defs>
  <g id="Group_182865" data-name="Group 182865" transform="translate(-418.652 -434.917)">
    <g id="Group_182856" data-name="Group 182856" transform="translate(418.652 507.819)">
      <g id="Group_182853" data-name="Group 182853" transform="translate(78.301 64.96)">
        <path id="Path_253644" data-name="Path 253644" d="M903.809,1294.394c-1.8.354-8.99,9.989-8.99,9.989l-.253.667s13.008-1.446,13.479-2c1.272-1.5-2.758-8.943-4.236-8.653m-8.9,10.194c2.374-3.034,7.782-7.464,8.951-8.405a14.744,14.744,0,0,1,2.823,5.627c-1.495.308-7.978,2.319-11.774,2.778" transform="translate(-857.399 -1294.002)" fill="#13294b"/>
        <path id="Path_253645" data-name="Path 253645" d="M837.43,1294.951c-3.539-2.309-4.51-2.291-5.541-1.706s-4.834,6.04-3.134,7.741,15.18,2.915,15.18,2.915l.3-.824s-3.27-5.818-6.808-8.126m-6.333,5.435c-.786-.784,1.171-4.05,2.063-4.745.227-.128,9.3,5.643,10.562,7.614-5.061-.548-11.893-2.218-12.625-2.868" transform="translate(-808.445 -1292.914)" fill="#13294b"/>
        <path id="Path_253646" data-name="Path 253646" d="M884.694,1330.781h.759a1.361,1.361,0,0,0,1.361-1.361v-2.231a1.361,1.361,0,0,0-1.361-1.361h-.759a1.361,1.361,0,0,0-1.361,1.361v2.231a1.361,1.361,0,0,0,1.361,1.361" transform="translate(-849.098 -1317.237)" fill="#13294b"/>
        <path id="Path_253647" data-name="Path 253647" d="M816.519,1334.876l-61.668-.185a2.677,2.677,0,0,0-2.654,3.079l.954,6.293,3.091-.006,1.863,31.668a3.205,3.205,0,0,0,3.2,3.018h49.221l2.047-34.8,2.912-.006Z" transform="translate(-752.166 -1323.787)" fill="#30ca9f"/>
        <path id="Path_253648" data-name="Path 253648" d="M867.1,1381.122H829.314l-2.023-43.211h44.888l-1.882,40.206a3.18,3.18,0,0,1-3.2,3" transform="translate(-807.683 -1326.166)" fill="#41e3b6"/>
        <path id="Path_253649" data-name="Path 253649" d="M865.253,1344l-48.73.129-1.112-9.376,47.737.183a2.676,2.676,0,0,1,2.655,2.914Z" transform="translate(-798.904 -1323.836)" fill="#41e3b6"/>
        <path id="Path_253650" data-name="Path 253650" d="M819.673,1370.313l46.478-.129-45,2.457Z" transform="translate(-802.053 -1350.016)" fill="#30ca9f"/>
        <rect id="Rectangle_18302" data-name="Rectangle 18302" width="1.293" height="9.26" transform="translate(35.906 10.994)" fill="#13294b"/>
        <rect id="Rectangle_18303" data-name="Rectangle 18303" width="1.616" height="34.809" transform="translate(39.656 20.211)" fill="#13294b"/>
      </g>
      <g id="Group_182855" data-name="Group 182855" transform="translate(0 0)">
        <path id="Path_253629" data-name="Path 253629" d="M705.356,1115.294a31.034,31.034,0,0,0-12.741,11.8c-4.553,8.078-5.487,19.263-5.487,19.263l14,.143s-8.56-10.62,4.225-31.206" transform="translate(-625.802 -1096.695)" fill="url(#linear-gradient)"/>
        <path id="Path_253631" data-name="Path 253631" d="M740.762,1068.178l-2.974-7.031-7.478-1.537a1.049,1.049,0,0,1-.476-1.82l5.768-5-.85-7.587a1.049,1.049,0,0,1,1.584-1.015l6.539,3.941,6.953-3.152a1.049,1.049,0,0,1,1.455,1.193l-1.728,7.436,5.147,5.639a1.049,1.049,0,0,1-.685,1.752l-7.606.655-3.773,6.637a1.049,1.049,0,0,1-1.878-.11" transform="translate(-657.094 -1044.034)" fill="url(#linear-gradient)"/>
        <path id="Path_253640" data-name="Path 253640" d="M614.639,1128.852l-3.89.395-1.326-6.188-5.759-.124-1.75-4.469-2.262.886,2.34,5.977,5.457.118,1.38,6.438,5.853-.594Z" transform="translate(-561.159 -1099.038)" opacity="0.28" fill="url(#linear-gradient)"/>
        <g id="Group_182854" data-name="Group 182854" transform="translate(0 4.56)">
          <rect id="Rectangle_18304" data-name="Rectangle 18304" width="50.004" height="64.739" transform="translate(38.199 50.612)" fill="#13294b"/>
          <g id="Group_182863" data-name="Group 182863" transform="translate(44.321 50.611)">
            <rect id="Rectangle_18305" data-name="Rectangle 18305" width="1.81" height="64.739" fill="#244474"/>
            <rect id="Rectangle_18306" data-name="Rectangle 18306" width="1.81" height="64.739" transform="translate(5.345)" fill="#244474"/>
            <rect id="Rectangle_18307" data-name="Rectangle 18307" width="1.81" height="64.739" transform="translate(10.691)" fill="#244474"/>
            <rect id="Rectangle_18308" data-name="Rectangle 18308" width="1.81" height="64.739" transform="translate(16.036)" fill="#244474"/>
            <rect id="Rectangle_18309" data-name="Rectangle 18309" width="1.811" height="64.739" transform="translate(21.381)" fill="#244474"/>
            <rect id="Rectangle_18310" data-name="Rectangle 18310" width="1.811" height="64.739" transform="translate(26.726)" fill="#244474"/>
            <rect id="Rectangle_18311" data-name="Rectangle 18311" width="1.811" height="64.739" transform="translate(32.072)" fill="#244474"/>
            <rect id="Rectangle_18312" data-name="Rectangle 18312" width="1.811" height="64.739" transform="translate(37.417)" fill="#244474"/>
          </g>
          <rect id="Rectangle_18313" data-name="Rectangle 18313" width="50" height="2.669" transform="translate(38.2 50.608)" fill="#244474"/>
          <path id="Path_253652" data-name="Path 253652" d="M493.548,1206.968c0,5.266.686,6.268,2,6.944s9.6.923,10.214-2.01-7.313-17.825-7.313-17.825l-1.067.245s-3.839,7.379-3.834,12.646m9.99,2.9c-.282,1.355-5.024,1.541-6.357,1.084-.289-.15-.454-13.548.739-16.212,2.881,5.654,5.8,13.921,5.618,15.128" transform="translate(-482.748 -1159.475)" fill="url(#linear-gradient)"/>
          <path id="Path_253653" data-name="Path 253653" d="M505.386,1182.547l-.517-.792a1.7,1.7,0,0,0-2.349-.491l-2.328,1.522a1.7,1.7,0,0,0-.492,2.349l.517.791a1.7,1.7,0,0,0,2.349.492l2.328-1.522a1.7,1.7,0,0,0,.492-2.349" transform="translate(-487.09 -1149.802)" fill="url(#linear-gradient)"/>
          <rect id="Rectangle_18314" data-name="Rectangle 18314" width="11.553" height="57.936" transform="matrix(0.874, -0.486, 0.486, 0.874, 0, 5.612)" fill="url(#linear-gradient)"/>
        </g>
      </g>
    </g>
    <g id="Group_182857" data-name="Group 182857" transform="translate(526.169 507.819)">
      <path id="Path_253667" data-name="Path 253667" d="M792.39,608.512c-16.828-1.081-34.552,15.262-35.184,25.1-.316,4.921,2.808,9.6,8.115,13.174l-9.581,21.662L772.657,650.5a48.651,48.651,0,0,0,13.875,2.888c16.828,1.081,30.982-6.021,31.614-15.863s-8.927-27.936-25.755-29.017" transform="translate(-755.741 -608.461)" fill="#30ca9f" opacity="0.05"/>
      <path id="Path_253668" data-name="Path 253668" d="M860.107,664.053c-1.089,4.543-4.53,6.226-7.67,5.473-3.307-.793-5.32-3.889-4.343-7.964.929-3.875,4-6.245,7.712-5.357,3.741.9,5.189,4.14,4.3,7.848m-8.207-1.72c-.544,2.272-.168,4.092,1.3,4.445,1.436.344,2.49-.958,3.074-3.4.528-2.2.335-4.052-1.235-4.428-1.5-.36-2.621,1.208-3.141,3.379m.023,14.819,15.953-17.4a1.23,1.23,0,1,1,1.812,1.663L853.716,678.8a1.217,1.217,0,0,1-1.793-1.645m21.654-.334c-1.089,4.542-4.53,6.226-7.67,5.473-3.274-.784-5.287-3.881-4.343-7.964.928-3.875,4-6.246,7.712-5.357,3.741.9,5.189,4.14,4.3,7.848m-8.173-1.712c-.578,2.263-.2,4.084,1.268,4.436,1.436.344,2.49-.957,3.074-3.4.528-2.2.368-4.044-1.2-4.42-1.537-.368-2.621,1.209-3.141,3.38" transform="translate(-827.636 -645.583)" fill="#13294b"/>
    </g>
    <path id="Path_253634" data-name="Path 253634" d="M842.1,56.74l3.468-5.858-2.86-6.177a.936.936,0,0,1,1.054-1.306l6.642,1.488,4.992-4.629a.935.935,0,0,1,1.567.6l.638,6.777,5.944,3.317a.936.936,0,0,1-.085,1.676l-6.248,2.7-1.318,6.679a.935.935,0,0,1-1.62.437l-4.5-5.108-6.759.811a.935.935,0,0,1-.916-1.405" transform="translate(-231.303 532.221)" fill="url(#linear-gradient)"/>
    <path id="Path_253638" data-name="Path 253638" d="M310.2,321.707l-4.56-7.335-7.1,3.79-4.811-7.027-7.233,2.786-4.46-4.67-2.364,2.258,5.966,6.247,6.854-2.64,5.005,7.31,6.984-3.728,4.132,6.647Z" transform="translate(350.258 222.63)" fill="#13294b"/>
    <path id="Path_253642" data-name="Path 253642" d="M569.318,177.517l-6.778.688-2.311-10.783-10.034-.216-3.049-7.787-3.942,1.544,4.078,10.414,9.509.205,2.4,11.217,10.2-1.035Z" transform="translate(-110.59 286.562)" fill="#13294b"/>
    <path id="Path_253660" data-name="Path 253660" d="M701.758,558.3l3.206,5.326a.813.813,0,0,0,1.452-.121l2.277-5.784,6.055-1.4a.812.812,0,0,0,.334-1.418l-4.8-3.953.537-6.193a.812.812,0,0,0-1.246-.755l-5.242,3.341-5.724-2.424a.812.812,0,0,0-1.1.952l1.557,6.018-4.074,4.695a.812.812,0,0,0,.564,1.343Z" transform="translate(-177.758 -108.947)" fill="url(#linear-gradient)"/>
    <g id="Group_182862" data-name="Group 182862" transform="translate(578.713 466.965)">
      <path id="Path_253720" data-name="Path 253720" d="M871.283,380.631a5.7,5.7,0,0,1,4.889.127,4.417,4.417,0,0,1,2,6.023c-1.241,2.532-4.93,4.439-11.97,4.218-4.487-5.429-5.239-9.514-4-12.046a4.416,4.416,0,0,1,5.985-2.109,5.7,5.7,0,0,1,3.1,3.787" transform="translate(-850.847 -365.406)" fill="url(#linear-gradient)"/>
      <path id="Path_253721" data-name="Path 253721" d="M797.86,343.1a58.8,58.8,0,0,0,5.683,3.591c.592.328,1.521,1.073,2.213.792a.713.713,0,0,0,.482-.849c-.163-.734-1.162-1.035-1.758-1.366-1.818-1.01-3.826-2.238-5.784-3.6a.835.835,0,0,0-1.132.3.845.845,0,0,0,.3,1.132" transform="translate(-797.451 -336.458)" fill="url(#linear-gradient)"/>
      <path id="Path_253722" data-name="Path 253722" d="M962.518,470.905c.862.5,1.732.979,2.6,1.463a9.118,9.118,0,0,0,2.678,1.311.717.717,0,0,0,.691-1.187,9,9,0,0,0-2.517-1.581c-.871-.481-1.74-.965-2.618-1.433a.828.828,0,0,0-.835,1.428" transform="translate(-934.367 -442.734)" fill="url(#linear-gradient)"/>
      <path id="Path_253723" data-name="Path 253723" d="M803.712,431.065a10.35,10.35,0,0,1,5.159-1.177.669.669,0,0,0,.177-1.308c-1.98-.73-4.435.037-6.167,1.062a.824.824,0,0,0,.832,1.422" transform="translate(-801.636 -408.577)" fill="url(#linear-gradient)"/>
      <path id="Path_253724" data-name="Path 253724" d="M846.409,481.951a7.311,7.311,0,0,1,1.892-2.368c.488-.4,2.321-1.248,1.452-2.086-.819-.789-2.219.5-2.821,1.038a8.638,8.638,0,0,0-1.957,2.577c-.474.953.947,1.794,1.434.839" transform="translate(-836.887 -449.284)" fill="url(#linear-gradient)"/>
      <path id="Path_253725" data-name="Path 253725" d="M915.284,490.974l.859,1.861c.285.619.462,1.386,1.17,1.612a.732.732,0,0,0,.878-.5c.254-.628-.322-1.405-.585-1.968l-.869-1.855a.848.848,0,0,0-1.151-.3.861.861,0,0,0-.3,1.151" transform="translate(-895.345 -459.651)" fill="url(#linear-gradient)"/>
      <path id="Path_253726" data-name="Path 253726" d="M892.579,317.856c.641-5.465.69-5.467.522-6.041a.733.733,0,0,0-1.324-.173c-.308.545-.247.461-.9,6.214a.856.856,0,0,0,.851.851.871.871,0,0,0,.851-.851" transform="translate(-875.131 -311.293)" fill="url(#linear-gradient)"/>
      <path id="Path_253727" data-name="Path 253727" d="M941.214,352.9a12.642,12.642,0,0,0,1.9-1.928c.523-.66,1.415-1.6,1.024-2.485a.626.626,0,0,0-.56-.321c-.85.073-1.276,1.133-1.761,1.74a14.948,14.948,0,0,1-1.764,1.83.832.832,0,0,0,0,1.165.843.843,0,0,0,1.165,0" transform="translate(-915.824 -341.947)" fill="url(#linear-gradient)"/>
      <path id="Path_253728" data-name="Path 253728" d="M986.546,410.542a.732.732,0,0,0,0-1.015c-.465-.572-1.575-.432-2.243-.416a14.438,14.438,0,0,0-2.314.254.838.838,0,0,0-.58,1.022.852.852,0,0,0,1.022.58c2.909-.434,3.329.23,4.116-.425" transform="translate(-950.389 -392.607)" fill="url(#linear-gradient)"/>
    </g>
  </g>
</svg>
