<svg xmlns="http://www.w3.org/2000/svg" xmlns:xlink="http://www.w3.org/1999/xlink" width="345" height="475" viewBox="0 0 345 475">
  <defs>
    <clipPath id="clip-path">
      <rect id="Rectangle_18233" data-name="Rectangle 18233" width="345" height="475" transform="translate(1575 1884)" fill="#fff"/>
    </clipPath>
    <linearGradient id="linear-gradient" x1="0.5" x2="0.5" y2="1" gradientUnits="objectBoundingBox">
      <stop offset="0" stop-color="#39f681"/>
      <stop offset="1" stop-color="#19d1c5"/>
    </linearGradient>
  </defs>
  <g id="Mask_Group_170957" data-name="Mask Group 170957" transform="translate(-1575 -1884)" clip-path="url(#clip-path)">
    <g id="Group_182648" data-name="Group 182648" transform="translate(254 -3920)" opacity="0.5">
      <path id="Ellipse_2603" data-name="Ellipse 2603" d="M238.356,1.059A233.511,233.511,0,0,0,105.689,42.3,239.976,239.976,0,0,0,70.568,71.8,242.412,242.412,0,0,0,5.881,193.911a248.168,248.168,0,0,0,0,97.364A242.312,242.312,0,0,0,70.568,413.39a239.981,239.981,0,0,0,35.121,29.492A236.038,236.038,0,0,0,146,465.149a233.828,233.828,0,0,0,184.72,0,236.037,236.037,0,0,0,40.307-22.267,239.978,239.978,0,0,0,35.121-29.492,242.413,242.413,0,0,0,64.687-122.115,248.168,248.168,0,0,0,0-97.364A242.312,242.312,0,0,0,406.143,71.8,239.973,239.973,0,0,0,371.023,42.3a236.033,236.033,0,0,0-40.307-22.267,232.971,232.971,0,0,0-92.36-18.978m0-1.059C370,0,476.712,108.613,476.712,242.593S370,485.186,238.356,485.186,0,376.574,0,242.593,106.716,0,238.356,0Z" transform="translate(1433.995 5804)" opacity="0.5" fill="url(#linear-gradient)"/>
      <path id="Ellipse_2604" data-name="Ellipse 2604" d="M244.712,1.059A245.973,245.973,0,0,0,195.606,6a242.594,242.594,0,0,0-87.123,36.582A243.907,243.907,0,0,0,20.206,149.549a241.51,241.51,0,0,0-14.2,45.635,244.981,244.981,0,0,0,0,98A241.5,241.5,0,0,0,42.67,380.113a243.92,243.92,0,0,0,426.548-41.3,241.507,241.507,0,0,0,14.2-45.635,244.981,244.981,0,0,0,0-98,241.505,241.505,0,0,0-36.661-86.932A243.408,243.408,0,0,0,244.712,1.059m0-1.059C379.863,0,489.424,109.324,489.424,244.182S379.863,488.365,244.712,488.365,0,379.04,0,244.182,109.561,0,244.712,0Z" transform="translate(1327 5879.215)" opacity="0.5" fill="url(#linear-gradient)"/>
      <path id="Ellipse_2605" data-name="Ellipse 2605" d="M240.475,1.059A235.619,235.619,0,0,0,106.623,42.666a242.916,242.916,0,0,0-64.671,65.811A244.619,244.619,0,0,0,5.924,195.6a250.305,250.305,0,0,0,0,98.218A244.429,244.429,0,0,0,71.189,417.007a242.108,242.108,0,0,0,35.434,29.751A238.154,238.154,0,0,0,147.29,469.22a235.95,235.95,0,0,0,186.369,0,238.153,238.153,0,0,0,40.667-22.462A242.921,242.921,0,0,0,439,380.947a244.62,244.62,0,0,0,36.028-87.126,250.306,250.306,0,0,0,0-98.218A244.428,244.428,0,0,0,409.76,72.417a242.105,242.105,0,0,0-35.434-29.751A238.15,238.15,0,0,0,333.659,20.2,235.083,235.083,0,0,0,240.475,1.059m0-1.059c132.81,0,240.475,109.561,240.475,244.712S373.285,489.424,240.475,489.424,0,379.863,0,244.712,107.664,0,240.475,0Z" transform="translate(1444.589 5942.776)" opacity="0.5" fill="url(#linear-gradient)"/>
    </g>
  </g>
</svg>
