<svg xmlns="http://www.w3.org/2000/svg" width="28" height="28.003" viewBox="0 0 28 28.003">
  <path id="Path_253539" data-name="Path 253539" d="M16.776,1.412a4.024,4.024,0,0,0-3.551,0L2.086,6.9a1.936,1.936,0,0,0,0,3.478l11.139,5.484a4.023,4.023,0,0,0,3.551,0l11.139-5.486a1.936,1.936,0,0,0,0-3.478ZM2.149,13.231a.636.636,0,0,1,.563,0l10.513,5.176a4.024,4.024,0,0,0,3.551,0l10.513-5.176a.636.636,0,0,1,.563,0l.064.031a1.936,1.936,0,0,1,0,3.478L16.776,22.226a4.024,4.024,0,0,1-3.551,0L2.086,16.74a1.936,1.936,0,0,1,0-3.478ZM2.712,19.6a.636.636,0,0,0-.563,0l-.064.032a1.936,1.936,0,0,0,0,3.478L13.225,28.59a4.024,4.024,0,0,0,3.551,0L27.915,23.1a1.936,1.936,0,0,0,0-3.478l-.064-.031a.636.636,0,0,0-.563,0L16.776,24.771a4.024,4.024,0,0,1-3.551,0Z" transform="translate(-1 -1)" fill="#13294b" fill-rule="evenodd"/>
</svg>
