<svg xmlns="http://www.w3.org/2000/svg" width="18.889" height="24" viewBox="0 0 18.889 24">
  <g id="Group_171356" data-name="Group 171356" transform="translate(-603.5 -382)">
    <g id="Group_165442" data-name="Group 165442" transform="translate(603.5 382)">
      <path id="Path_122259" data-name="Path 122259" d="M-20.571-12.217a8.088,8.088,0,0,1,7.934,7.8A8.009,8.009,0,0,1-20.571,3.61a7.791,7.791,0,0,1-7.811-8.031A7.85,7.85,0,0,1-20.571-12.217Z" transform="translate(28.383 20.39)" fill="#414a59"/>
      <g id="Group_115047" data-name="Group 115047" transform="translate(1.866 10.085)">
        <path id="Union_77" data-name="Union 77" d="M3.388,10.959A11.974,11.974,0,0,1,1.911,9.919a4.587,4.587,0,0,1-.862-1.007A4.929,4.929,0,0,1,.6,8.167a6.024,6.024,0,1,1,2.792,2.792Z" transform="translate(0.008 0.485)" fill="#00a9ee"/>
        <path id="Union_388" data-name="Union 388" d="M21948.377-578.065v-.837a.318.318,0,0,1-.094.033.589.589,0,0,1-.193.017.533.533,0,0,1,.006.094.634.634,0,0,1-.039.226.584.584,0,0,1-.121.187.569.569,0,0,1-.187.121.69.69,0,0,1-.236.044h-.016a.668.668,0,0,1-.254-.055.945.945,0,0,1-.2-.127,1.081,1.081,0,0,1-.16-.176,2.1,2.1,0,0,1-.111-.193,1.842,1.842,0,0,1-.082-.187c-.016-.055-.033-.1-.045-.143l-.01-.039.275-.127.016.055c.012.044.033.088.051.143a1.189,1.189,0,0,0,.061.149c.027.05.055.1.088.149a.513.513,0,0,0,.1.121.6.6,0,0,0,.125.083.326.326,0,0,0,.145.033h.016a.313.313,0,0,0,.121-.028.214.214,0,0,0,.133-.143.64.64,0,0,0,.012-.11.224.224,0,0,0-.084-.187.449.449,0,0,0-.27-.072c-.033,0-.061.005-.088.005l-.061.011v-.331l.061.011h.033a.462.462,0,0,0,.148-.022.367.367,0,0,0,.115-.061.338.338,0,0,0,.061-.077.205.205,0,0,0,.023-.1.167.167,0,0,0-.018-.077.122.122,0,0,0-.039-.055.12.12,0,0,0-.061-.033.378.378,0,0,0-.154-.011l-.064.017a.3.3,0,0,0-.078.028c-.033.011-.061.022-.1.039l-.049.022-.115-.281.043-.022a.985.985,0,0,1,.221-.083.7.7,0,0,1,.215-.033h.006a.483.483,0,0,1,.2.039.5.5,0,0,1,.166.1.479.479,0,0,1,.109.149.438.438,0,0,1,.039.193.5.5,0,0,1-.193.4.634.634,0,0,1,.084.061c.021,0,.043.005.066.005a.759.759,0,0,0,.158,0l.078-.017c.027-.011.055-.028.082-.039s.045-.033.072-.055v-.8h.623v.308h-.3v1.686Z" transform="translate(-21941.926 585.293)" fill="#fff"/>
        <path id="Union_387" data-name="Union 387" d="M21948.291-577.862a.176.176,0,0,1-.133-.061.268.268,0,0,1-.049-.154v-.341c-.012.005-.023.005-.039.011a.764.764,0,0,1-.111.011h0a.406.406,0,0,1-.166-.039.356.356,0,0,1-.072-.044.574.574,0,0,1-.143.2.444.444,0,0,1-.275.1h-.016a.532.532,0,0,1-.16-.028.407.407,0,0,1-.133-.083.435.435,0,0,1-.115-.127.63.63,0,0,1-.082-.132c-.018,0-.033-.006-.045-.006-.027,0-.049-.005-.066-.005l-.049-.011.033-.253.049.005a.536.536,0,0,0,.133.006.157.157,0,0,0,.088-.017.114.114,0,0,0,.066-.044.134.134,0,0,0,.043-.066.21.21,0,0,0,.018-.083.244.244,0,0,0-.018-.094.134.134,0,0,0-.043-.066.279.279,0,0,0-.061-.044.334.334,0,0,0-.145-.011.148.148,0,0,0-.049.005l-.049.011-.045-.253.045-.011a.312.312,0,0,1,.07-.011.3.3,0,0,1,.072-.005h.012a.523.523,0,0,1,.2.044.386.386,0,0,1,.154.11.538.538,0,0,1,.088.16.585.585,0,0,1,.027.176.489.489,0,0,1-.021.149.611.611,0,0,1-.066.127.413.413,0,0,1-.1.1.3.3,0,0,1-.07.044.5.5,0,0,0,.088.1.164.164,0,0,0,.115.044h.006a.2.2,0,0,0,.082-.016.186.186,0,0,0,.066-.061.387.387,0,0,0,.055-.127,1.14,1.14,0,0,0,.021-.2v-.275h.266v.231a.3.3,0,0,0,.021.116.3.3,0,0,0,.045.072.239.239,0,0,0,.055.033.264.264,0,0,0,.066.011.484.484,0,0,0,.094-.011.238.238,0,0,0,.061-.033v-.711l-.121-.242a.242.242,0,0,0-.057-.077.221.221,0,0,0-.07-.05.4.4,0,0,0-.088-.022.764.764,0,0,0-.111-.011h-.3v-.264h.3a.839.839,0,0,1,.166.011.534.534,0,0,1,.143.05.407.407,0,0,1,.111.083.438.438,0,0,1,.082.11l.188.336.027-.011v.061l.039.066h-.039v1.212l.121-.088.121.275-.039.022a1.127,1.127,0,0,1-.143.072.384.384,0,0,1-.139.022Zm-.332-.589Z" transform="translate(-21937.9 585.215)" fill="#fff"/>
        <path id="Path_122128" data-name="Path 122128" d="M74.336,239.71s.049-.078.049-.078l-.282-.12s-.04.091-.054.087a1.211,1.211,0,0,0-.457.009c0-.1,0-.2.009-.282l.986,0v-.269l-.964,0a2.646,2.646,0,0,1,.054-.267l-.26-.054a2.629,2.629,0,0,0-.063.325h-.716v.269h.693c-.009.107-.009.233-.009.363a1.254,1.254,0,0,0-.273.152.8.8,0,0,0-.34.533.581.581,0,0,0,.582.645.649.649,0,0,0,.385-.125,2.085,2.085,0,0,0,.569-.909.455.455,0,0,1,.058.072c.175.282.04.448-.2.69l-.045.045.188.188.04-.04a.757.757,0,0,0,.242-1.021.545.545,0,0,0-.193-.211Zm-1.29.923a.3.3,0,0,1-.072-.233.555.555,0,0,1,.233-.349,1.161,1.161,0,0,1,.125-.076,3.335,3.335,0,0,0,.139.726A.336.336,0,0,1,73.046,240.633Zm.645-.143a3.3,3.3,0,0,1-.094-.609,1.2,1.2,0,0,1,.246-.031.839.839,0,0,1,.152.013H74A2.65,2.65,0,0,1,73.691,240.49Zm0,0" transform="translate(-71.398 -233.66)" fill="#fff"/>
        <path id="Union_386" data-name="Union 386" d="M21948.137-578.052l-.2-.545h-.75l-.191.545h-.359l.777-2.033h.3l.783,2.033Zm-.842-.848h.529l-.266-.716Z" transform="translate(-21941.635 581.575)" fill="#fff"/>
        <path id="Union_389" data-name="Union 389" d="M21948.832-578.06a.107.107,0,0,1-.105-.077.926.926,0,0,0-.381-.512s0,0,0-.005-.006.005-.006.005l-.006.005a1.277,1.277,0,0,1-.16.182.557.557,0,0,1-.523.088.882.882,0,0,1-.463-.32,2.173,2.173,0,0,1-.385-.766c-.021-.05-.033-.11-.055-.176a.1.1,0,0,1,.027-.1.084.084,0,0,1,.094-.028.086.086,0,0,1,.066.066c.016.05.033.094.049.143.027.088.061.182.094.264a.978.978,0,0,0,.441.49.554.554,0,0,0,.484.011.392.392,0,0,0,.221-.413.411.411,0,0,0-.117-.231.261.261,0,0,0-.164-.061.615.615,0,0,1,.027.171.284.284,0,0,1-.326.286.3.3,0,0,1-.279-.3.364.364,0,0,1,.088-.281.49.49,0,0,1,.336-.154.627.627,0,0,1,.633.512.741.741,0,0,1,.012.286.072.072,0,0,0,.021.066c.061.072.115.143.17.209v-1.1h-1.877c-.088,0-.111-.022-.111-.11,0-.072,0-.116.027-.143s.072-.033.145-.033h2.318c.094,0,.115.022.115.121,0,.143-.021.165-.164.165h-.148v1.642a.084.084,0,0,1-.072.1Z" transform="translate(-21942 588.974)" fill="#fff"/>
      </g>
      <path id="Path_122258" data-name="Path 122258" d="M-7.914,0h3.032V23.914H-7.6L-7.86,10.185Z" transform="translate(20.621)" fill="#414a59"/>
      <rect id="Rectangle_13256" data-name="Rectangle 13256" width="9.476" height="1.364" transform="translate(9.413 1.835)" fill="#09f"/>
    </g>
  </g>
</svg>
