<svg xmlns="http://www.w3.org/2000/svg" width="40" height="40" viewBox="0 0 40 40">
  <g id="Group_180646" data-name="Group 180646" transform="translate(-836 -857)">
    <rect id="Rectangle_16626" data-name="Rectangle 16626" width="40" height="40" rx="20" transform="translate(836 857)" fill="#fff" opacity="0.4"/>
    <g id="Group_180644" data-name="Group 180644" transform="translate(845.631 807.366)">
      <g id="Group_180643" data-name="Group 180643" transform="translate(0 61.767)">
        <g id="Page-1_23_" transform="translate(0 0)">
          <g id="_x30_24---Text-Magnification">
            <path id="Shape_37_" d="M15,77.014,9.278,62.225a.709.709,0,0,0-.665-.458H6.4a.715.715,0,0,0-.665.458L.024,77.014a.358.358,0,0,0,.333.486H2.613a.362.362,0,0,0,.336-.229L4.14,74.154a.358.358,0,0,1,.333-.229h6.072a.362.362,0,0,1,.336.229l1.191,3.118a.358.358,0,0,0,.333.229H14.66A.36.36,0,0,0,15,77.014ZM9.407,71.422H5.61a.375.375,0,0,1-.35-.511l1.9-4.967a.374.374,0,0,1,.7,0l1.9,4.967a.378.378,0,0,1-.354.511Z" transform="translate(0 -61.767)" fill="#fff"/>
            <path id="Shape_36_" d="M355.592,246.414l-2.9-7.634a.715.715,0,0,0-.669-.461h-1.037a.715.715,0,0,0-.669.461l-1.3,3.426.865,2.246a.333.333,0,0,1,.186-.054h2.875a.358.358,0,0,1,.333.225l.822,2.053a.358.358,0,0,0,.333.225h.83a.358.358,0,0,0,.333-.486Zm-3.229-3.447H350.65a.181.181,0,0,1-.168-.25l.855-2.138a.179.179,0,0,1,.336,0l.858,2.138a.182.182,0,0,1-.168.25Z" transform="translate(-334.878 -231.166)" fill="#fff"/>
          </g>
        </g>
      </g>
    </g>
  </g>
</svg>
