<svg xmlns="http://www.w3.org/2000/svg" width="60" height="60" viewBox="0 0 60 60">
  <g id="Group_182739" data-name="Group 182739" transform="translate(-304 -4990)">
    <circle id="Ellipse_2" data-name="Ellipse 2" cx="30" cy="30" r="30" transform="translate(304 4990)" fill="#033153"/>
    <g id="Group_182714" data-name="Group 182714" transform="translate(317 4974)">
      <g id="Group_182713" data-name="Group 182713" transform="translate(0 31)">
        <path id="Path_253537" data-name="Path 253537" d="M196.141,31h-8.075a7.066,7.066,0,0,0-1.009,14.059v3.1a1.009,1.009,0,0,0,1.723.714l3.742-3.742h3.62a7.066,7.066,0,1,0,0-14.131Zm-8.075,8.075a1.009,1.009,0,1,1,1.009-1.009A1.009,1.009,0,0,1,188.066,39.075Zm4.038,0a1.009,1.009,0,1,1,1.009-1.009A1.009,1.009,0,0,1,192.1,39.075Zm4.038,0a1.009,1.009,0,1,1,1.009-1.009A1.009,1.009,0,0,1,196.141,39.075Z" transform="translate(-168.82 -31)" fill="#fff"/>
        <path id="Path_253538" data-name="Path 253538" d="M22.678,125.638a3.032,3.032,0,0,0,3.028-3.028v-4.038a1.008,1.008,0,0,0-.69-.957L18.974,115.6a1.011,1.011,0,0,0-.879.117l-2.569,1.712a17.767,17.767,0,0,1-7.246-7.246l1.712-2.569a1.01,1.01,0,0,0,.117-.879L8.09,100.69a1.008,1.008,0,0,0-.957-.69h-4.1A3.019,3.019,0,0,0,0,103.014C0,114.644,11.048,125.638,22.678,125.638Z" transform="translate(0 -95.357)" fill="#fff"/>
      </g>
    </g>
  </g>
</svg>
