<svg xmlns="http://www.w3.org/2000/svg" width="69.493" height="76.999" viewBox="0 0 69.493 76.999">
  <g id="Group_182841" data-name="Group 182841" transform="translate(-24.957)">
    <path id="Path_253581" data-name="Path 253581" d="M24.957,34.834c0,3.683.074,7.389.212,11,.169,4.44.434,8.731.775,12.645a11.828,11.828,0,0,0,11.307,10.8c2.856.115,5.711.2,8.335.268,3.485.085,6.563.126,8.7.126s5.211-.041,8.7-.126q4.169-.1,8.335-.268a11.828,11.828,0,0,0,11.307-10.8c.341-3.914.606-8.2.775-12.645.138-3.608.212-7.314.212-11s-.074-7.389-.212-11c-.169-4.44-.434-8.731-.775-12.645A11.828,11.828,0,0,0,71.312.394Q67.146.227,62.977.126C59.492.041,56.414,0,54.281,0s-5.211.041-8.7.126q-4.168.1-8.335.268a11.828,11.828,0,0,0-11.307,10.8c-.341,3.914-.606,8.2-.775,12.645q-.21,5.5-.212,11Z" transform="translate(0)" fill="#b8ffeb"/>
    <path id="Path_253582" data-name="Path 253582" d="M62.977,70.308q4.169-.1,8.335-.268a11.828,11.828,0,0,0,11.307-10.8c.341-3.914.606-8.2.775-12.645q.149-3.924.193-7.851a11.884,11.884,0,0,0-5.467,2.535c-.912.734-2.074,1.767-3.454,3.069C72.909,46.009,70.912,48,68.892,50.1c-2.055,2.137-4.009,4.264-5.651,6.151-1.533,1.762-2.779,3.294-3.7,4.554A23.28,23.28,0,0,0,57.8,63.576C46.169,48.419,41.381,16.434,45.21.9c-2.521.063-5.238.149-7.959.259a11.828,11.828,0,0,0-11.307,10.8c-.341,3.914-.606,8.2-.775,12.645-.137,3.608-.212,7.314-.212,11s.074,7.389.212,11c.169,4.44.434,8.731.775,12.645a11.828,11.828,0,0,0,11.307,10.8c2.856.115,5.711.2,8.335.268,3.485.085,6.562.126,8.7.126S59.492,70.393,62.977,70.308Z" transform="translate(0 -0.766)" fill="#6aecc8"/>
    <path id="Path_253583" data-name="Path 253583" d="M355.782,316.84a26.6,26.6,0,0,0-7.55-4.556c-1.248,1.178-2.647,2.554-4.086,4.017-3.045,6.851,1.551,16.638,8.678,15.528.645-.6,1.289-1.214,1.925-1.825,2.044-1.965,4-3.928,5.589-5.615C359.916,321.318,356.809,317.866,355.782,316.84Z" transform="translate(-270.375 -265.32)" fill="#b8ffeb"/>
    <path id="Path_253584" data-name="Path 253584" d="M297.132,355.2a26.347,26.347,0,0,0,6.835,4.54q.915-.759,1.811-1.54c1.3-1.133,2.68-2.384,4.056-3.671-5.4-1.947-9.16-10.285-8.678-15.528q-.769.782-1.529,1.572c-1.915,1.992-3.832,4.07-5.5,5.981q-.781.9-1.54,1.811C293.494,351.278,296.52,354.584,297.132,355.2Z" transform="translate(-227.386 -288.015)" fill="#30ca9f"/>
    <path id="Path_253585" data-name="Path 253585" d="M392.739,288.932a12.522,12.522,0,0,0-5.914-5.914,6.43,6.43,0,0,0-6.934,1.092c-.834.671-1.93,1.651-3.179,2.829.79,1.213,1.537,2.344,2.375,3.46a31,31,0,0,0,5.921,6.005c1.229.947,2.47,1.769,3.81,2.641,1.178-1.248,2.158-2.345,2.829-3.179A6.431,6.431,0,0,0,392.739,288.932Z" transform="translate(-298.855 -239.975)" fill="#ff6e80"/>
    <path id="Path_253586" data-name="Path 253586" d="M267.906,413.438a22.644,22.644,0,0,0,5.531,3.427q.2-.076.395-.158a18.458,18.458,0,0,0,3.814-2.153c.73-.535,1.553-1.185,2.437-1.917a30.487,30.487,0,0,0-2.417-3.485,29.954,29.954,0,0,0-5.473-5.473,30.522,30.522,0,0,0-3.485-2.417c-.732.884-1.383,1.707-1.917,2.437a18.455,18.455,0,0,0-2.153,3.814c-.055.132-.107.263-.158.395A22.388,22.388,0,0,0,267.906,413.438Z" transform="translate(-203.501 -340.917)" fill="#f7e969"/>
    <path id="Path_253587" data-name="Path 253587" d="M118.028,218.807a16.137,16.137,0,0,0-4.763-4.763,15.938,15.938,0,0,0-2.731-1.463,13.958,13.958,0,0,0-1.026,5.866,3.788,3.788,0,0,0,4.118,4.117,13.96,13.96,0,0,0,5.866-1.026A15.945,15.945,0,0,0,118.028,218.807ZM87.714,180.221a1.128,1.128,0,0,1-.8-.33l-3.3-3.3a1.128,1.128,0,0,1,1.6-1.6l2.505,2.505,5.808-5.808a1.128,1.128,0,1,1,1.6,1.6l-6.606,6.605A1.127,1.127,0,0,1,87.714,180.221Z" transform="translate(-49.555 -145.589)" fill="#13294b"/>
    <g id="Group_182837" data-name="Group 182837" transform="translate(51.025 25.867)">
      <path id="Path_253588" data-name="Path 253588" d="M219.217,174.254H199.425a1.128,1.128,0,0,1,0-2.256h19.792a1.128,1.128,0,0,1,0,2.256Zm-9.973,6.413h-9.818a1.128,1.128,0,0,1,0-2.256h9.818a1.128,1.128,0,1,1,0,2.256Z" transform="translate(-198.297 -171.998)" fill="#13294b" opacity="0.5"/>
    </g>
    <path id="Path_253589" data-name="Path 253589" d="M87.714,294.344a1.124,1.124,0,0,1-.8-.33l-3.3-3.3a1.128,1.128,0,0,1,1.6-1.6l2.505,2.505,5.808-5.808a1.128,1.128,0,1,1,1.6,1.6l-6.606,6.606A1.124,1.124,0,0,1,87.714,294.344Z" transform="translate(-49.555 -242.55)" fill="#13294b"/>
    <g id="Group_182838" data-name="Group 182838" transform="translate(51.025 43.029)" opacity="0.5">
      <path id="Path_253590" data-name="Path 253590" d="M219.217,288.377H199.425a1.128,1.128,0,0,1,0-2.256h19.792a1.128,1.128,0,0,1,0,2.256Zm-9.973,6.414h-9.818a1.128,1.128,0,0,1,0-2.256h9.818a1.128,1.128,0,0,1,0,2.256Z" transform="translate(-198.297 -286.121)" fill="#13294b"/>
    </g>
    <g id="Group_182839" data-name="Group 182839" transform="translate(36.558 12.987)">
      <ellipse id="Ellipse_11775" data-name="Ellipse 11775" cx="4.777" cy="3.804" rx="4.777" ry="3.804" transform="translate(0)" fill="#30ca9f"/>
      <ellipse id="Ellipse_11776" data-name="Ellipse 11776" cx="4.777" cy="3.804" rx="4.777" ry="3.804" transform="translate(25.893)" fill="#30ca9f"/>
    </g>
    <g id="Group_182840" data-name="Group 182840" transform="translate(42.991 9.748)">
      <path id="Path_253591" data-name="Path 253591" d="M146,69.282a1.128,1.128,0,0,1-1.128-1.128V66.3a1.128,1.128,0,1,1,2.256,0v1.859A1.128,1.128,0,0,1,146,69.282Zm10.163,1.209a4.681,4.681,0,0,1-3.529-1.607,1.128,1.128,0,1,1,1.7-1.483,2.423,2.423,0,0,0,3.658,0,1.128,1.128,0,1,1,1.7,1.482A4.682,4.682,0,0,1,156.163,70.491Zm12.676-1.261a1.128,1.128,0,0,1-1.128-1.128,1.026,1.026,0,1,0-2.053,0,1.128,1.128,0,1,1-2.256,0,3.282,3.282,0,1,1,6.565,0A1.128,1.128,0,0,1,168.839,69.23Z" transform="translate(-144.873 -64.82)" fill="#13294b"/>
    </g>
  </g>
</svg>
