<svg xmlns="http://www.w3.org/2000/svg" width="24" height="15.724" viewBox="0 0 24 15.724"><g transform="translate(0 -88.276)"><path d="M22.2,88.276H1.8a1.8,1.8,0,0,0-1.8,1.8v3.444H24V90.073A1.8,1.8,0,0,0,22.2,88.276Z" fill="#fab446"/><path d="M0,315.352a1.8,1.8,0,0,0,1.8,1.8H22.2a1.8,1.8,0,0,0,1.8-1.8v-3.444H0Z" transform="translate(0 -213.149)" fill="#73af00"/><rect width="24" height="5.241" transform="translate(0 93.517)" fill="#f5f5f5"/><g transform="translate(9.776 93.914)"><path d="M210.776,213A2.224,2.224,0,1,1,213,210.776,2.227,2.227,0,0,1,210.776,213Zm0-4.034a1.81,1.81,0,1,0,1.81,1.81A1.812,1.812,0,0,0,210.776,208.966Z" transform="translate(-208.552 -208.552)" fill="#41479b"/><circle cx="0.252" cy="0.252" r="0.252" transform="translate(1.972 1.972)" fill="#41479b"/><path d="M214.983,253.953l-.641.065-1.376-.065v-.076l1.376-.065.641.065Z" transform="translate(-212.759 -251.691)" fill="#41479b"/><path d="M256,253.953l.641.065,1.376-.065v-.076l-1.376-.065-.641.065Z" transform="translate(-253.776 -251.691)" fill="#41479b"/><path d="M253.878,214.983l-.065-.641.065-1.376h.076l.065,1.376-.065.641Z" transform="translate(-251.691 -212.759)" fill="#41479b"/><path d="M253.878,256l-.065.641.065,1.376h.076l.065-1.376-.065-.641Z" transform="translate(-251.691 -253.776)" fill="#41479b"/><path d="M226.426,226.48l-.5-.407L225,225.053l.053-.053,1.019.928.407.5Z" transform="translate(-224.229 -224.229)" fill="#41479b"/><path d="M255.43,255.483l.407.5,1.019.928.053-.053-.928-1.019-.5-.407Z" transform="translate(-253.233 -253.233)" fill="#41479b"/><path d="M255.43,226.426l.407-.5,1.019-.928.053.053-.928,1.019-.5.407Z" transform="translate(-253.233 -224.229)" fill="#41479b"/><path d="M226.426,255.43l-.5.407L225,256.856l.053.053,1.019-.928.407-.5Z" transform="translate(-224.229 -253.233)" fill="#41479b"/><path d="M217.826,255.324l-.567.3-1.3.467-.029-.07,1.247-.587.617-.185Z" transform="translate(-215.587 -253.065)" fill="#41479b"/><path d="M255.72,239.628l.617-.185,1.247-.587-.029-.07-1.3.467-.567.3Z" transform="translate(-253.481 -237.369)" fill="#41479b"/><path d="M239.558,217.826l-.3-.567-.467-1.3.07-.029.587,1.247.185.617Z" transform="translate(-237.369 -215.587)" fill="#41479b"/><path d="M255.254,255.72l.185.617.587,1.247.07-.029-.467-1.3-.3-.567Z" transform="translate(-253.065 -253.481)" fill="#41479b"/><path d="M217.8,239.628l-.617-.185-1.247-.587.029-.07,1.3.467.567.3Z" transform="translate(-215.587 -237.369)" fill="#41479b"/><path d="M255.691,255.324l.567.3,1.3.467.029-.07-1.247-.587-.617-.185Z" transform="translate(-253.481 -253.065)" fill="#41479b"/><path d="M255.254,217.8l.185-.617.587-1.247.07.029-.467,1.3-.3.567Z" transform="translate(-253.065 -215.587)" fill="#41479b"/><path d="M239.558,255.691l-.3.567-.467,1.3.07.029.587-1.247.185-.617Z" transform="translate(-237.369 -253.481)" fill="#41479b"/></g><circle cx="0.34" cy="0.34" r="0.34" transform="translate(11.66 95.798)" fill="#f5f5f5"/><circle cx="0.204" cy="0.204" r="0.204" transform="translate(11.796 95.934)" fill="#41479b"/></g></svg>