<svg xmlns="http://www.w3.org/2000/svg" xmlns:xlink="http://www.w3.org/1999/xlink" width="178.928" height="92" viewBox="0 0 178.928 92"><defs><clipPath id="a"><rect width="6.973" height="5.359" fill="none" stroke="#fff" stroke-width="0.3"/></clipPath><linearGradient id="b" x1="1" y1="0.5" x2="0" y2="0.5" gradientUnits="objectBoundingBox"><stop offset="0" stop-color="#f79726"/><stop offset="0.378" stop-color="#fef7ef"/><stop offset="0.508" stop-color="#fff"/><stop offset="0.626" stop-color="#d7eee2"/><stop offset="1" stop-color="#09964b"/></linearGradient><linearGradient id="c" x1="0" x2="1" xlink:href="#b"/></defs><g transform="translate(22452.5 16298.001)"><path d="M4.4-16.992v-42.2H18a20,20,0,0,1,10.057,2.536A17.826,17.826,0,0,1,35.026-49.5a21.615,21.615,0,0,1,2.536,10.362v1.942A21.74,21.74,0,0,1,35.113-26.8a17.9,17.9,0,0,1-6.9,7.188,19.556,19.556,0,0,1-9.927,2.623ZM14.578-51.338v26.52h3.536a7.914,7.914,0,0,0,6.724-3.116q2.348-3.116,2.348-9.26V-39.02q0-6.116-2.348-9.217a8.052,8.052,0,0,0-6.84-3.1ZM60.292-16.992a11.028,11.028,0,0,1-.927-2.811,9.083,9.083,0,0,1-7.536,3.391,11.127,11.127,0,0,1-7.536-2.681,8.534,8.534,0,0,1-3.1-6.739,8.77,8.77,0,0,1,3.768-7.71q3.768-2.609,10.956-2.609H58.93v-1.66q0-4.339-3.739-4.339-3.478,0-3.478,3.437H41.945A8.756,8.756,0,0,1,45.815-46.1a16.261,16.261,0,0,1,9.869-2.837q6,0,9.478,2.927a10.178,10.178,0,0,1,3.565,8.029v13.883a14.217,14.217,0,0,0,1.333,6.608v.493Zm-6.116-6.376a5.449,5.449,0,0,0,3.029-.783,4.9,4.9,0,0,0,1.725-1.768v-5.014h-2.84q-5.1,0-5.1,4.579a2.8,2.8,0,0,0,.9,2.159A3.251,3.251,0,0,0,54.177-23.368Zm37.918,6.376a11.029,11.029,0,0,1-.927-2.811,9.083,9.083,0,0,1-7.536,3.391A11.127,11.127,0,0,1,76.1-19.093a8.534,8.534,0,0,1-3.1-6.739,8.771,8.771,0,0,1,3.768-7.71Q80.53-36.15,87.718-36.15h3.014v-1.66q0-4.339-3.739-4.339-3.478,0-3.478,3.437H73.748A8.756,8.756,0,0,1,77.617-46.1a16.261,16.261,0,0,1,9.869-2.837q6,0,9.478,2.927a10.178,10.178,0,0,1,3.565,8.029v13.883a14.218,14.218,0,0,0,1.333,6.608v.493Zm-6.116-6.376a5.449,5.449,0,0,0,3.029-.783,4.9,4.9,0,0,0,1.725-1.768v-5.014h-2.84q-5.1,0-5.1,4.579a2.8,2.8,0,0,0,.9,2.159A3.251,3.251,0,0,0,85.979-23.368Zm32.846-5.3-2.753,2.753v8.927H106.3V-61.54h9.768v23.651l.985-1.3,7.362-9.159h11.709l-10.985,12.9,11.709,18.463H125.665Zm30.469,11.68h-9.8V-48.352h9.8Zm23.977,0a11.029,11.029,0,0,1-.927-2.811,9.083,9.083,0,0,1-7.536,3.391,11.127,11.127,0,0,1-7.536-2.681,8.534,8.534,0,0,1-3.1-6.739,8.77,8.77,0,0,1,3.768-7.71q3.768-2.609,10.956-2.609h3.014v-1.66q0-4.339-3.739-4.339-3.478,0-3.478,3.437h-9.768a8.756,8.756,0,0,1,3.869-7.382,16.261,16.261,0,0,1,9.869-2.837q6,0,9.478,2.927a10.178,10.178,0,0,1,3.565,8.029v13.883a14.217,14.217,0,0,0,1.333,6.608v.493Zm-6.116-6.376a5.448,5.448,0,0,0,3.029-.783,4.9,4.9,0,0,0,1.725-1.768v-5.014h-2.84q-5.1,0-5.1,4.579a2.8,2.8,0,0,0,.9,2.159A3.252,3.252,0,0,0,167.154-23.368Z" transform="translate(-22456.904 -16212.964)" fill="#222"/><g transform="translate(-22329.439 -16298.001)"><path d="M9.453,31.761s-.562-.306-.9-.543C8.54,31.218,0,33.441,0,33.441s2.951-7.4,2.942-7.379A13.679,13.679,0,0,1,1.68,23.988a16.769,16.769,0,1,1,7.772,7.772Z" transform="translate(0 0)" fill="#00a9ee"/><path d="M1.108-6.413q.058.183.136.4a4.424,4.424,0,0,0,.185.436,3.947,3.947,0,0,0,.241.426,1.916,1.916,0,0,0,.308.366,1.443,1.443,0,0,0,.383.255,1.118,1.118,0,0,0,.467.1,1.1,1.1,0,0,0,.428-.074.766.766,0,0,0,.284-.2A.759.759,0,0,0,3.7-5a1.249,1.249,0,0,0,.049-.35.75.75,0,0,0-.29-.627A1.343,1.343,0,0,0,2.618-6.2q-.066,0-.132,0t-.132.012v-.592a.459.459,0,0,0,.056,0h.029a1.584,1.584,0,0,0,.485-.068,1.087,1.087,0,0,0,.356-.185A.78.78,0,0,0,3.5-7.3a.753.753,0,0,0,.074-.327A.665.665,0,0,0,3.517-7.9a.584.584,0,0,0-.148-.2.616.616,0,0,0-.222-.123.92.92,0,0,0-.28-.041,1.459,1.459,0,0,0-.2.014,1.725,1.725,0,0,0-.206.043,2.392,2.392,0,0,0-.232.076q-.123.047-.278.117l-.222-.533a3.323,3.323,0,0,1,.584-.224,2.179,2.179,0,0,1,.572-.076,1.472,1.472,0,0,1,.52.09,1.262,1.262,0,0,1,.413.247,1.118,1.118,0,0,1,.271.376,1.142,1.142,0,0,1,.1.471,1.282,1.282,0,0,1-.666,1.121v.016a1.5,1.5,0,0,1,.436.269q.113.019.239.031t.232.012a1.8,1.8,0,0,0,.23-.016A1.284,1.284,0,0,0,4.9-6.3a1.343,1.343,0,0,0,.257-.121,1.537,1.537,0,0,0,.263-.2V-8.776H6.877V-8.2H6.059v4.7H5.421V-5.93l-.016,0a1.321,1.321,0,0,1-.417.195,1.712,1.712,0,0,1-.4.047q-.066,0-.136-.006l-.144-.014,0,.016a1.086,1.086,0,0,1,.062.393,1.589,1.589,0,0,1-.105.584,1.34,1.34,0,0,1-.3.465,1.367,1.367,0,0,1-.475.306,1.7,1.7,0,0,1-.625.109,1.648,1.648,0,0,1-.668-.13,2.12,2.12,0,0,1-.537-.337,2.457,2.457,0,0,1-.418-.465,4.1,4.1,0,0,1-.308-.52,4.38,4.38,0,0,1-.21-.5Q.637-6.023.6-6.179Z" transform="translate(12.671 23.394)" fill="#fff" stroke="#fff" stroke-linecap="round" stroke-width="0.3"/><path d="M5.415-14.22l.417-.3.212.5a1.763,1.763,0,0,1-.372.181,1.068,1.068,0,0,1-.343.065.349.349,0,0,1-.29-.123.531.531,0,0,1-.1-.34v-1.127a1.753,1.753,0,0,1-.272.067,1.814,1.814,0,0,1-.293.023.991.991,0,0,1-.414-.085.958.958,0,0,1-.325-.239H3.63a1.3,1.3,0,0,1-.419.694,1.093,1.093,0,0,1-.706.233,1.139,1.139,0,0,1-.4-.068,1.175,1.175,0,0,1-.342-.2,1.633,1.633,0,0,1-.293-.322,3.29,3.29,0,0,1-.256-.438q-.107,0-.2-.01T.84-15.73l.055-.437a1.317,1.317,0,0,0,.185.017l.2,0a.779.779,0,0,0,.3-.056.673.673,0,0,0,.232-.156.706.706,0,0,0,.148-.233.78.78,0,0,0,.052-.287.879.879,0,0,0-.051-.306.659.659,0,0,0-.145-.235.634.634,0,0,0-.227-.149.813.813,0,0,0-.3-.052q-.084,0-.164,0a.928.928,0,0,0-.146.019L.909-18.03a1.023,1.023,0,0,1,.174-.032q.09-.009.183-.009a1.3,1.3,0,0,1,.548.106,1.074,1.074,0,0,1,.375.278A1.125,1.125,0,0,1,2.4-17.3a1.469,1.469,0,0,1,.07.448,1.206,1.206,0,0,1-.056.372,1.125,1.125,0,0,1-.158.316,1.1,1.1,0,0,1-.243.245,1.088,1.088,0,0,1-.313.159,1.56,1.56,0,0,0,.34.472.638.638,0,0,0,.436.162.666.666,0,0,0,.294-.067.633.633,0,0,0,.242-.217,1.184,1.184,0,0,0,.164-.393,2.54,2.54,0,0,0,.059-.6v-.614h.475v.5a.991.991,0,0,0,.061.372.711.711,0,0,0,.155.242.549.549,0,0,0,.209.132.684.684,0,0,0,.222.039,1.006,1.006,0,0,0,.31-.045.989.989,0,0,0,.269-.138V-18h.475ZM3.529-19.687A2.5,2.5,0,0,1,4-19.648a1.309,1.309,0,0,1,.356.119,1.023,1.023,0,0,1,.268.2,1.362,1.362,0,0,1,.2.278L5.415-18l-.391.171L4.589-18.7a.922.922,0,0,0-.183-.256.841.841,0,0,0-.235-.159,1.065,1.065,0,0,0-.288-.083,2.349,2.349,0,0,0-.34-.023H2.868v-.469Z" transform="translate(23.621 34.01)" fill="#fff" stroke="#fff" stroke-width="0.5"/><path d="M77.362,241.447c0-.013.138-.218.138-.218l-.786-.335s-.112.254-.15.241a3.37,3.37,0,0,0-1.272.025c0-.287.012-.549.025-.786l2.746.013v-.748l-2.683-.013a7.358,7.358,0,0,1,.15-.742l-.723-.15a7.318,7.318,0,0,0-.175.9H72.639v.748h1.93c-.025.3-.025.648-.025,1.01a3.493,3.493,0,0,0-.761.424,2.237,2.237,0,0,0-.948,1.484,1.618,1.618,0,0,0,1.621,1.8,1.808,1.808,0,0,0,1.072-.349,5.8,5.8,0,0,0,1.584-2.531,1.263,1.263,0,0,1,.162.2c.486.786.112,1.247-.561,1.92l-.125.125.524.524.112-.112c.561-.561,1.521-1.5.673-2.843A1.519,1.519,0,0,0,77.362,241.447Zm-3.591,2.569a.829.829,0,0,1-.2-.648,1.544,1.544,0,0,1,.648-.973,3.245,3.245,0,0,1,.349-.212,9.282,9.282,0,0,0,.387,2.02A.937.937,0,0,1,73.771,244.016Zm1.8-.4a9.186,9.186,0,0,1-.262-1.7,3.335,3.335,0,0,1,.686-.087,2.341,2.341,0,0,1,.424.037h.025A7.377,7.377,0,0,1,75.567,243.617Zm0,0" transform="translate(-69.186 -224.703)" fill="#fff"/><path d="M5.545-8.013H4.768L4.133-9.693H1.593L1-8.013H.215L2.512-14h.727ZM3.9-10.324l-.94-2.552a2.444,2.444,0,0,1-.092-.4H2.855a2.238,2.238,0,0,1-.1.4l-.932,2.552Z" transform="translate(13.627 17.886)" fill="#fff" stroke="#fff" stroke-width="0.3"/><g transform="translate(13.038 24.787)"><g transform="translate(0)" clip-path="url(#a)"><path d="M5.537,4.064q0-.543,0-1.087,0-1.148,0-2.3c0-.169,0-.169-.164-.169H.177C0,.512,0,.512,0,.337,0,0,0,0,.335,0H6.786c.187,0,.187,0,.187.187,0,.325,0,.325-.32.325H6.275c-.176,0-.176,0-.176.17q0,.953,0,1.906Q6.1,3.9,6.1,5.2c0,.06.031.142-.077.153s-.16-.01-.192-.12A2.741,2.741,0,0,0,4.706,3.745c-.13-.091-.126-.081-.222.038a3.151,3.151,0,0,1-.431.483,1.432,1.432,0,0,1-1.322.228,2.346,2.346,0,0,1-1.224-.848A6.088,6.088,0,0,1,.452,1.57C.4,1.409.355,1.246.313,1.082.281.954.358.867.485.891.518.9.553.95.566.988c.135.383.238.779.4,1.148A2.8,2.8,0,0,0,2.252,3.558,1.673,1.673,0,0,0,3.727,3.6a1.223,1.223,0,0,0,.684-1.3,1.175,1.175,0,0,0-.369-.722A.8.8,0,0,0,3.5,1.364c-.142,0-.164.034-.137.171a1.929,1.929,0,0,1,.068.45.652.652,0,0,1-.761.652.7.7,0,0,1-.651-.7A1,1,0,0,1,3.069.875,1.592,1.592,0,0,1,4.7,2.171a2,2,0,0,1,.031.763.341.341,0,0,0,.088.3c.234.271.457.551.685.828h.034" transform="translate(0 0)" fill="#fff" stroke="#fff" stroke-width="0.3"/></g></g></g><g transform="translate(-22452.5 -16220.269)"><g transform="translate(0 5.866)"><path d="M-16973.045-9189.01h14.666v-1.086h-14.666Z" transform="translate(17137.307 9190.096)" fill="url(#b)"/><path d="M-16958.379-9189.01h-14.666v-1.086h14.666Z" transform="translate(16973.045 9190.096)" fill="url(#c)"/></g><g transform="translate(19.065 0)"><path d="M7.713-.9A2.814,2.814,0,0,1,9.327,0,2.6,2.6,0,0,1,9.9,1.737a2.443,2.443,0,0,1-1.008,2.1,5.03,5.03,0,0,1-2.979.735H1.026V-6.041H5.605a4.607,4.607,0,0,1,2.752.713,2.348,2.348,0,0,1,.978,2.017A2.529,2.529,0,0,1,8.9-1.818,2.591,2.591,0,0,1,7.713-.9ZM2.148-5.116v3.851H5.529a3.412,3.412,0,0,0,1.986-.493,1.645,1.645,0,0,0,.7-1.433,1.645,1.645,0,0,0-.7-1.433,3.412,3.412,0,0,0-1.986-.493ZM5.893,3.648a3.9,3.9,0,0,0,2.153-.485,1.693,1.693,0,0,0,.728-1.516Q8.774-.34,5.893-.34H2.148V3.648Zm7.369-5.489a2.609,2.609,0,0,1,1.13-1.213,3.838,3.838,0,0,1,1.857-.409v1.046l-.258-.015a2.547,2.547,0,0,0-1.971.773A3.081,3.081,0,0,0,13.307.509V4.572H12.231V-3.4h1.031ZM18.19-3.4h1.077V4.572H18.19Zm.546-1.744a.762.762,0,0,1-.561-.227.744.744,0,0,1-.227-.546.727.727,0,0,1,.227-.531.762.762,0,0,1,.561-.227.776.776,0,0,1,.561.22.7.7,0,0,1,.227.523.762.762,0,0,1-.227.561A.762.762,0,0,1,18.736-5.147ZM29.546-6.678V4.572H28.515V3a3.283,3.283,0,0,1-1.281,1.228,3.758,3.758,0,0,1-1.8.425,4.048,4.048,0,0,1-2.032-.516,3.685,3.685,0,0,1-1.425-1.44A4.255,4.255,0,0,1,21.465.585a4.255,4.255,0,0,1,.516-2.108,3.632,3.632,0,0,1,1.425-1.433,4.1,4.1,0,0,1,2.032-.508,3.771,3.771,0,0,1,1.751.4A3.319,3.319,0,0,1,28.47-1.887V-6.678ZM25.528,3.693a2.98,2.98,0,0,0,1.509-.387,2.746,2.746,0,0,0,1.061-1.1A3.347,3.347,0,0,0,28.485.585,3.347,3.347,0,0,0,28.1-1.038a2.746,2.746,0,0,0-1.061-1.1,2.98,2.98,0,0,0-1.509-.387A3.009,3.009,0,0,0,24-2.137a2.746,2.746,0,0,0-1.061,1.1A3.347,3.347,0,0,0,22.556.585a3.347,3.347,0,0,0,.387,1.622A2.746,2.746,0,0,0,24,3.306,3.009,3.009,0,0,0,25.528,3.693Zm14.4-7.1v7a4.06,4.06,0,0,1-.993,3.01,4.108,4.108,0,0,1-2.995.978,6.691,6.691,0,0,1-2.1-.326,4.319,4.319,0,0,1-1.615-.9l.546-.819a4.1,4.1,0,0,0,1.4.8,5.236,5.236,0,0,0,1.736.288,3.063,3.063,0,0,0,2.229-.705,2.968,2.968,0,0,0,.713-2.191V2.723a3.245,3.245,0,0,1-1.312,1.152,4.056,4.056,0,0,1-1.8.394,4.24,4.24,0,0,1-2.039-.493,3.639,3.639,0,0,1-1.44-1.38A3.88,3.88,0,0,1,31.745.388a3.839,3.839,0,0,1,.523-2A3.615,3.615,0,0,1,33.7-2.978a4.281,4.281,0,0,1,2.047-.485,4.045,4.045,0,0,1,1.835.409A3.306,3.306,0,0,1,38.9-1.872V-3.4ZM35.854,3.314a3.27,3.27,0,0,0,1.562-.371A2.683,2.683,0,0,0,38.5,1.9,2.968,2.968,0,0,0,38.886.388,2.927,2.927,0,0,0,38.5-1.121a2.711,2.711,0,0,0-1.077-1.031,3.257,3.257,0,0,0-1.569-.371A3.28,3.28,0,0,0,34.3-2.16a2.645,2.645,0,0,0-1.077,1.031A2.968,2.968,0,0,0,32.837.388,2.968,2.968,0,0,0,33.223,1.9,2.7,2.7,0,0,0,34.3,2.942,3.225,3.225,0,0,0,35.854,3.314ZM42.95-3.4h1.077V4.572H42.95ZM43.5-5.147a.762.762,0,0,1-.561-.227.744.744,0,0,1-.227-.546.727.727,0,0,1,.227-.531.762.762,0,0,1,.561-.227.776.776,0,0,1,.561.22.7.7,0,0,1,.227.523.762.762,0,0,1-.227.561A.762.762,0,0,1,43.5-5.147Zm7.6,1.683a3.259,3.259,0,0,1,2.388.872,3.405,3.405,0,0,1,.887,2.54V4.572H53.29V.054a2.644,2.644,0,0,0-.622-1.9,2.335,2.335,0,0,0-1.774-.652,2.725,2.725,0,0,0-2.039.766A2.892,2.892,0,0,0,48.1.388V4.572H47.028V-3.4h1.031v1.471a3,3,0,0,1,1.221-1.13A3.907,3.907,0,0,1,51.092-3.464ZM64.708-3.4v7a4.06,4.06,0,0,1-.993,3.01,4.108,4.108,0,0,1-2.995.978,6.691,6.691,0,0,1-2.1-.326,4.319,4.319,0,0,1-1.615-.9l.546-.819a4.1,4.1,0,0,0,1.4.8,5.235,5.235,0,0,0,1.736.288,3.063,3.063,0,0,0,2.229-.705,2.968,2.968,0,0,0,.713-2.191V2.723A3.245,3.245,0,0,1,62.32,3.875a4.056,4.056,0,0,1-1.8.394,4.24,4.24,0,0,1-2.039-.493,3.639,3.639,0,0,1-1.44-1.38A3.88,3.88,0,0,1,56.52.388a3.839,3.839,0,0,1,.523-2,3.615,3.615,0,0,1,1.433-1.365,4.281,4.281,0,0,1,2.047-.485,4.045,4.045,0,0,1,1.835.409,3.306,3.306,0,0,1,1.319,1.183V-3.4ZM60.629,3.314a3.269,3.269,0,0,0,1.562-.371A2.683,2.683,0,0,0,63.275,1.9,2.968,2.968,0,0,0,63.661.388a2.927,2.927,0,0,0-.387-1.509A2.711,2.711,0,0,0,62.2-2.152a3.257,3.257,0,0,0-1.569-.371,3.28,3.28,0,0,0-1.554.364A2.645,2.645,0,0,0,58-1.129,2.968,2.968,0,0,0,57.612.388,2.968,2.968,0,0,0,58,1.9a2.7,2.7,0,0,0,1.077,1.039A3.225,3.225,0,0,0,60.629,3.314ZM81.978-3.4h1.077V4.572H81.978Zm.546-1.744a.762.762,0,0,1-.561-.227.744.744,0,0,1-.227-.546.727.727,0,0,1,.227-.531.762.762,0,0,1,.561-.227.776.776,0,0,1,.561.22.7.7,0,0,1,.227.523.762.762,0,0,1-.227.561A.762.762,0,0,1,82.523-5.147Zm5.671,9.795a6.123,6.123,0,0,1-1.857-.281,4,4,0,0,1-1.387-.705l.485-.849a4.085,4.085,0,0,0,1.258.644,5,5,0,0,0,1.577.25,3.011,3.011,0,0,0,1.615-.341,1.086,1.086,0,0,0,.523-.963.866.866,0,0,0-.288-.69,1.914,1.914,0,0,0-.728-.379,10.382,10.382,0,0,0-1.167-.25A13.385,13.385,0,0,1,86.663.714,2.3,2.3,0,0,1,85.654.069a1.793,1.793,0,0,1-.417-1.258,1.972,1.972,0,0,1,.834-1.638,3.745,3.745,0,0,1,2.32-.637,6.021,6.021,0,0,1,1.547.2,4.255,4.255,0,0,1,1.274.538l-.47.864a4.026,4.026,0,0,0-2.35-.682,2.725,2.725,0,0,0-1.554.364,1.115,1.115,0,0,0-.523.955.943.943,0,0,0,.3.728,1.819,1.819,0,0,0,.735.4,11.866,11.866,0,0,0,1.213.265,13.953,13.953,0,0,1,1.531.364,2.25,2.25,0,0,1,.986.622,1.711,1.711,0,0,1,.409,1.213,1.929,1.929,0,0,1-.872,1.66A4.145,4.145,0,0,1,88.194,4.648Zm9.476-.561a2.038,2.038,0,0,1-.751.417,3.023,3.023,0,0,1-.932.144,2.338,2.338,0,0,1-1.729-.606,2.317,2.317,0,0,1-.606-1.713V-2.493H92.227V-3.4h1.425V-5.147h1.077V-3.4h2.426v.91H94.729V2.268a1.507,1.507,0,0,0,.356,1.084,1.352,1.352,0,0,0,1.023.371,1.98,1.98,0,0,0,.644-.106,1.6,1.6,0,0,0,.538-.3Zm4.746-7.551a3.376,3.376,0,0,1,2.4.781,3.018,3.018,0,0,1,.834,2.312V4.572h-1.031V3.329a2.468,2.468,0,0,1-1.069.97,3.741,3.741,0,0,1-1.675.349,3.281,3.281,0,0,1-2.123-.637,2.056,2.056,0,0,1-.788-1.683A2.039,2.039,0,0,1,99.695.691a3.6,3.6,0,0,1,2.343-.622h2.532V-.416a2.044,2.044,0,0,0-.576-1.569,2.379,2.379,0,0,0-1.683-.538,4.278,4.278,0,0,0-1.456.25,3.668,3.668,0,0,0-1.2.69l-.485-.8a4.3,4.3,0,0,1,1.456-.8A5.667,5.667,0,0,1,102.416-3.464ZM102.037,3.8a2.837,2.837,0,0,0,1.562-.417,2.49,2.49,0,0,0,.97-1.205V.873h-2.5q-2.047,0-2.047,1.425a1.3,1.3,0,0,0,.531,1.1A2.416,2.416,0,0,0,102.037,3.8Zm10.6-7.263a3.259,3.259,0,0,1,2.388.872,3.405,3.405,0,0,1,.887,2.54V4.572h-1.077V.054a2.643,2.643,0,0,0-.622-1.9,2.335,2.335,0,0,0-1.774-.652,2.725,2.725,0,0,0-2.039.766,2.892,2.892,0,0,0-.751,2.115V4.572h-1.077V-3.4H109.6v1.471a3,3,0,0,1,1.221-1.13A3.907,3.907,0,0,1,112.636-3.464Zm9.537,8.112a4.3,4.3,0,0,1-2.115-.516,3.732,3.732,0,0,1-1.463-1.448,4.17,4.17,0,0,1-.531-2.1,4.128,4.128,0,0,1,.531-2.092,3.746,3.746,0,0,1,1.463-1.44,4.3,4.3,0,0,1,2.115-.516,4.1,4.1,0,0,1,1.842.4A3.059,3.059,0,0,1,125.3-1.887l-.8.546a2.514,2.514,0,0,0-1-.887,2.97,2.97,0,0,0-1.319-.3,3.124,3.124,0,0,0-1.554.387,2.717,2.717,0,0,0-1.077,1.1,3.347,3.347,0,0,0-.387,1.622,3.335,3.335,0,0,0,.387,1.63,2.729,2.729,0,0,0,1.077,1.092,3.124,3.124,0,0,0,1.554.387,3.035,3.035,0,0,0,1.319-.288,2.458,2.458,0,0,0,1-.879l.8.546a3.049,3.049,0,0,1-1.289,1.175A4.109,4.109,0,0,1,122.173,4.648ZM134.212.918H127.54a2.85,2.85,0,0,0,.955,2.009,3.171,3.171,0,0,0,2.183.766,3.44,3.44,0,0,0,1.365-.265,2.98,2.98,0,0,0,1.077-.781l.607.7a3.415,3.415,0,0,1-1.327.97,4.487,4.487,0,0,1-1.751.334,4.428,4.428,0,0,1-2.176-.523,3.772,3.772,0,0,1-1.478-1.448,4.128,4.128,0,0,1-.531-2.092,4.274,4.274,0,0,1,.508-2.092,3.678,3.678,0,0,1,1.395-1.44,3.894,3.894,0,0,1,1.994-.516,3.854,3.854,0,0,1,1.986.516,3.655,3.655,0,0,1,1.38,1.433,4.314,4.314,0,0,1,.5,2.1ZM130.36-2.539a2.712,2.712,0,0,0-1.933.735A2.888,2.888,0,0,0,127.54.115H133.2a2.888,2.888,0,0,0-.887-1.918A2.732,2.732,0,0,0,130.36-2.539Zm8.2,7.187a6.124,6.124,0,0,1-1.857-.281,4,4,0,0,1-1.387-.705l.485-.849a4.086,4.086,0,0,0,1.258.644,5,5,0,0,0,1.577.25,3.011,3.011,0,0,0,1.615-.341,1.086,1.086,0,0,0,.523-.963.866.866,0,0,0-.288-.69,1.914,1.914,0,0,0-.728-.379,10.382,10.382,0,0,0-1.167-.25,13.385,13.385,0,0,1-1.562-.371,2.3,2.3,0,0,1-1.008-.644,1.793,1.793,0,0,1-.417-1.258,1.972,1.972,0,0,1,.834-1.638,3.745,3.745,0,0,1,2.32-.637,6.022,6.022,0,0,1,1.547.2,4.256,4.256,0,0,1,1.274.538l-.47.864a4.026,4.026,0,0,0-2.35-.682,2.726,2.726,0,0,0-1.554.364,1.115,1.115,0,0,0-.523.955.943.943,0,0,0,.3.728,1.819,1.819,0,0,0,.735.4,11.868,11.868,0,0,0,1.213.265,13.956,13.956,0,0,1,1.531.364,2.25,2.25,0,0,1,.986.622,1.711,1.711,0,0,1,.409,1.213,1.929,1.929,0,0,1-.872,1.66A4.145,4.145,0,0,1,138.563,4.648Z" transform="translate(-1.026 6.678)" fill="#222"/><path d="M2.224,2.928h.86a15.337,15.337,0,0,0,2.9-.182,3.163,3.163,0,0,0,1.341-.624A3.674,3.674,0,0,0,8.386.622a5.676,5.676,0,0,0,.364-2.1,5.63,5.63,0,0,0-.36-2.1A3.687,3.687,0,0,0,7.324-5.071a3.187,3.187,0,0,0-1.36-.639,14.759,14.759,0,0,0-2.88-.19h-.86ZM.859,4.2V-7.148H3.037A16.2,16.2,0,0,1,6.444-6.9a4.612,4.612,0,0,1,1.732.818,4.751,4.751,0,0,1,1.48,1.922,6.77,6.77,0,0,1,.5,2.7,6.766,6.766,0,0,1-.5,2.686A4.7,4.7,0,0,1,8.177,3.138a4.63,4.63,0,0,1-1.694.818A12.963,12.963,0,0,1,3.526,4.2H.859Z" transform="translate(68.903 7.148)" fill="#222"/></g></g></g></svg>