<svg xmlns="http://www.w3.org/2000/svg" xmlns:xlink="http://www.w3.org/1999/xlink" width="122" height="62.729" viewBox="0 0 122 62.729"><defs><clipPath id="a"><rect width="4.755" height="3.654" fill="none" stroke="#fff" stroke-width="0.3"/></clipPath><linearGradient id="b" x1="1" y1="0.5" x2="0" y2="0.5" gradientUnits="objectBoundingBox"><stop offset="0" stop-color="#f79726"/><stop offset="0.378" stop-color="#fef7ef"/><stop offset="0.508" stop-color="#fff"/><stop offset="0.626" stop-color="#d7eee2"/><stop offset="1" stop-color="#09964b"/></linearGradient><linearGradient id="c" x1="0" x2="1" xlink:href="#b"/></defs><g transform="translate(-255 -13.999)"><path d="M4.4-31.165V-59.939h9.269A13.634,13.634,0,0,1,20.53-58.21a12.155,12.155,0,0,1,4.753,4.881,14.738,14.738,0,0,1,1.729,7.065v1.324a14.823,14.823,0,0,1-1.67,7.085,12.207,12.207,0,0,1-4.7,4.9,13.334,13.334,0,0,1-6.769,1.788Zm6.937-23.418V-36.5h2.411a5.4,5.4,0,0,0,4.585-2.124q1.6-2.124,1.6-6.314v-1.245q0-4.17-1.6-6.284a5.49,5.49,0,0,0-4.664-2.115Zm31.17,23.418a7.519,7.519,0,0,1-.632-1.917A6.193,6.193,0,0,1,36.74-30.77,7.587,7.587,0,0,1,31.6-32.6a5.819,5.819,0,0,1-2.115-4.595,5.98,5.98,0,0,1,2.569-5.257q2.569-1.779,7.47-1.779h2.055V-45.36q0-2.959-2.549-2.959a2.084,2.084,0,0,0-2.371,2.343H30a5.97,5.97,0,0,1,2.638-5.033,11.087,11.087,0,0,1,6.729-1.934,9.721,9.721,0,0,1,6.462,2,6.94,6.94,0,0,1,2.431,5.474v9.466a9.694,9.694,0,0,0,.909,4.506v.336Zm-4.17-4.348a3.715,3.715,0,0,0,2.065-.534,3.344,3.344,0,0,0,1.176-1.206v-3.419H39.645q-3.478,0-3.478,3.122a1.906,1.906,0,0,0,.613,1.472A2.217,2.217,0,0,0,38.341-35.513ZM64.2-31.165a7.52,7.52,0,0,1-.632-1.917,6.193,6.193,0,0,1-5.138,2.312A7.587,7.587,0,0,1,53.286-32.6a5.819,5.819,0,0,1-2.115-4.595,5.98,5.98,0,0,1,2.569-5.257q2.569-1.779,7.47-1.779h2.055V-45.36q0-2.959-2.549-2.959a2.084,2.084,0,0,0-2.371,2.343h-6.66a5.97,5.97,0,0,1,2.638-5.033,11.087,11.087,0,0,1,6.729-1.934,9.721,9.721,0,0,1,6.462,2,6.94,6.94,0,0,1,2.431,5.474v9.466a9.694,9.694,0,0,0,.909,4.506v.336Zm-4.17-4.348a3.715,3.715,0,0,0,2.065-.534,3.344,3.344,0,0,0,1.176-1.206v-3.419H61.33q-3.478,0-3.478,3.122a1.906,1.906,0,0,0,.613,1.472A2.217,2.217,0,0,0,60.025-35.513Zm22.4-3.617-1.877,1.877v6.087h-6.66V-61.54h6.66v16.126l.672-.889,5.02-6.245h7.984l-7.49,8.794,7.984,12.589H87.085ZM103.2-31.165h-6.68V-52.548h6.68Zm16.348,0a7.519,7.519,0,0,1-.632-1.917,6.193,6.193,0,0,1-5.138,2.312,7.587,7.587,0,0,1-5.138-1.828,5.819,5.819,0,0,1-2.115-4.595,5.98,5.98,0,0,1,2.569-5.257q2.569-1.779,7.47-1.779h2.055V-45.36q0-2.959-2.549-2.959a2.084,2.084,0,0,0-2.371,2.343h-6.66a5.97,5.97,0,0,1,2.638-5.033,11.087,11.087,0,0,1,6.729-1.934,9.721,9.721,0,0,1,6.462,2,6.94,6.94,0,0,1,2.431,5.474v9.466A9.694,9.694,0,0,0,126.2-31.5v.336Zm-4.17-4.348a3.715,3.715,0,0,0,2.065-.534,3.344,3.344,0,0,0,1.176-1.206v-3.419h-1.937q-3.478,0-3.478,3.122a1.907,1.907,0,0,0,.613,1.472A2.217,2.217,0,0,0,115.374-35.513Z" transform="translate(250.596 91.561)" fill="#fff"/><g transform="translate(338.908 13.999)"><path d="M6.445,21.656s-.383-.208-.615-.37C5.823,21.286,0,22.8,0,22.8L2.006,17.77a9.327,9.327,0,0,1-.86-1.414,11.434,11.434,0,1,1,5.3,5.3Z" transform="translate(0 0)" fill="#00a9ee"/><path d="M.945-7.189q.04.125.093.272a3.017,3.017,0,0,0,.126.3,2.692,2.692,0,0,0,.165.291,1.306,1.306,0,0,0,.21.25.984.984,0,0,0,.261.174.762.762,0,0,0,.319.065.751.751,0,0,0,.292-.05A.522.522,0,0,0,2.6-6.027a.517.517,0,0,0,.107-.2.852.852,0,0,0,.033-.239.511.511,0,0,0-.2-.427.916.916,0,0,0-.572-.154l-.09,0-.09.008v-.4l.038,0h.02a1.08,1.08,0,0,0,.33-.046.741.741,0,0,0,.243-.126.532.532,0,0,0,.149-.186.513.513,0,0,0,.05-.223.453.453,0,0,0-.037-.188.4.4,0,0,0-.1-.138.42.42,0,0,0-.151-.084.627.627,0,0,0-.191-.028,1,1,0,0,0-.138.009,1.176,1.176,0,0,0-.141.029,1.631,1.631,0,0,0-.158.052q-.084.032-.19.08l-.151-.364a2.266,2.266,0,0,1,.4-.153,1.486,1.486,0,0,1,.39-.052,1,1,0,0,1,.354.061.861.861,0,0,1,.281.169.763.763,0,0,1,.184.256.779.779,0,0,1,.066.321.874.874,0,0,1-.454.764v.011a1.021,1.021,0,0,1,.3.183q.077.013.163.021t.158.008a1.226,1.226,0,0,0,.157-.011.875.875,0,0,0,.169-.04.916.916,0,0,0,.175-.082,1.048,1.048,0,0,0,.179-.138V-8.8h.993v.39H4.322v3.2H3.886V-6.86l-.011,0a.9.9,0,0,1-.284.133,1.167,1.167,0,0,1-.273.032q-.045,0-.093,0l-.1-.009,0,.011a.741.741,0,0,1,.042.268,1.083,1.083,0,0,1-.072.4.914.914,0,0,1-.206.317.932.932,0,0,1-.324.208,1.16,1.16,0,0,1-.426.074,1.123,1.123,0,0,1-.455-.089,1.446,1.446,0,0,1-.366-.23,1.675,1.675,0,0,1-.285-.317,2.794,2.794,0,0,1-.21-.354A2.987,2.987,0,0,1,.68-6.763Q.624-6.924.6-7.03Z" transform="translate(8.45 18.767)" fill="#fff" stroke="#fff" stroke-linecap="round" stroke-width="0.3"/><path d="M3.959-15.96l.284-.2.144.34a1.2,1.2,0,0,1-.254.123.728.728,0,0,1-.234.044.238.238,0,0,1-.2-.084.362.362,0,0,1-.067-.232v-.768a1.2,1.2,0,0,1-.186.045,1.237,1.237,0,0,1-.2.016.676.676,0,0,1-.283-.058.653.653,0,0,1-.221-.163h0a.887.887,0,0,1-.285.473.745.745,0,0,1-.481.159.777.777,0,0,1-.272-.046.8.8,0,0,1-.233-.135,1.113,1.113,0,0,1-.2-.219,2.243,2.243,0,0,1-.175-.3q-.073,0-.137-.007t-.12-.015l.038-.3A.9.9,0,0,0,1-17.275l.138,0a.531.531,0,0,0,.205-.039.459.459,0,0,0,.158-.107.481.481,0,0,0,.1-.159.532.532,0,0,0,.036-.2.6.6,0,0,0-.035-.208.45.45,0,0,0-.1-.16.432.432,0,0,0-.155-.1.554.554,0,0,0-.2-.036q-.057,0-.112,0a.633.633,0,0,0-.1.013l-.051-.294a.7.7,0,0,1,.119-.022q.061-.006.124-.006a.884.884,0,0,1,.373.072.732.732,0,0,1,.256.19.767.767,0,0,1,.147.267,1,1,0,0,1,.047.305.823.823,0,0,1-.039.254.767.767,0,0,1-.108.215.753.753,0,0,1-.166.167.742.742,0,0,1-.213.109,1.064,1.064,0,0,0,.232.322.435.435,0,0,0,.3.111.454.454,0,0,0,.2-.045.432.432,0,0,0,.165-.148.807.807,0,0,0,.112-.268,1.732,1.732,0,0,0,.04-.406v-.419H2.8v.34a.676.676,0,0,0,.041.254.485.485,0,0,0,.106.165.374.374,0,0,0,.142.09.466.466,0,0,0,.151.027.686.686,0,0,0,.211-.031.674.674,0,0,0,.184-.094v-1.428h.324ZM2.673-19.687a1.705,1.705,0,0,1,.32.027.893.893,0,0,1,.243.081.7.7,0,0,1,.183.135.929.929,0,0,1,.139.19l.4.717-.267.117-.3-.591a.629.629,0,0,0-.124-.175.573.573,0,0,0-.16-.109.726.726,0,0,0-.2-.056,1.6,1.6,0,0,0-.232-.016h-.46v-.32Z" transform="translate(15.839 29.453)" fill="#fff" stroke="#fff" stroke-width="0.5"/><path d="M75.859,240.584c0-.009.094-.148.094-.148l-.536-.228s-.077.173-.1.164a2.3,2.3,0,0,0-.867.017c0-.2.008-.374.017-.536l1.872.009v-.51l-1.83-.009a5.016,5.016,0,0,1,.1-.506l-.493-.1a4.991,4.991,0,0,0-.119.617H72.639v.51h1.316c-.017.2-.017.442-.017.689a2.381,2.381,0,0,0-.519.289,1.525,1.525,0,0,0-.646,1.012,1.1,1.1,0,0,0,1.105,1.224,1.233,1.233,0,0,0,.731-.238,3.957,3.957,0,0,0,1.08-1.726.861.861,0,0,1,.111.136c.332.536.076.85-.383,1.309l-.085.085.357.357.077-.077a1.437,1.437,0,0,0,.459-1.939A1.036,1.036,0,0,0,75.859,240.584Zm-2.449,1.752a.565.565,0,0,1-.136-.442,1.053,1.053,0,0,1,.442-.663,2.214,2.214,0,0,1,.238-.145,6.329,6.329,0,0,0,.264,1.377A.639.639,0,0,1,73.411,242.336Zm1.224-.272a6.264,6.264,0,0,1-.179-1.156,2.274,2.274,0,0,1,.468-.059,1.6,1.6,0,0,1,.289.025h.017A5.03,5.03,0,0,1,74.635,242.064Zm0,0" transform="translate(-70.285 -229.168)" fill="#fff"/><path d="M3.849-9.919H3.32l-.433-1.145H1.155L.747-9.919H.215L1.781-14h.5ZM2.73-11.495l-.641-1.74a1.666,1.666,0,0,1-.063-.273H2.015a1.526,1.526,0,0,1-.066.273l-.635,1.74Z" transform="translate(9.223 16.651)" fill="#fff" stroke="#fff" stroke-width="0.3"/><g transform="translate(8.89 16.901)"><g transform="translate(0)" clip-path="url(#a)"><path d="M3.775,2.771q0-.371,0-.741,0-.783,0-1.566c0-.115,0-.115-.112-.115H.121C0,.349,0,.349,0,.23,0,0,0,0,.228,0h4.4c.128,0,.128,0,.128.128,0,.221,0,.221-.218.221H4.278c-.12,0-.12,0-.12.116q0,.65,0,1.3,0,.892,0,1.784c0,.041.021.1-.053.1S4,3.646,3.974,3.57a1.869,1.869,0,0,0-.766-1.017c-.088-.062-.086-.056-.152.026a2.148,2.148,0,0,1-.294.329.976.976,0,0,1-.9.155,1.6,1.6,0,0,1-.834-.578A4.151,4.151,0,0,1,.308,1.071C.273.961.242.849.214.738.192.651.244.591.331.607c.022,0,.046.04.055.066.092.261.162.531.275.782a1.909,1.909,0,0,0,.874.97,1.141,1.141,0,0,0,1.006.028.834.834,0,0,0,.466-.887.8.8,0,0,0-.252-.492A.545.545,0,0,0,2.389.93c-.1,0-.112.023-.093.117a1.315,1.315,0,0,1,.046.307.445.445,0,0,1-.519.445.474.474,0,0,1-.444-.474A.68.68,0,0,1,2.093.6,1.086,1.086,0,0,1,3.2,1.48,1.362,1.362,0,0,1,3.224,2a.232.232,0,0,0,.06.206c.16.184.312.376.467.564h.023" transform="translate(0 0)" fill="#fff" stroke="#fff" stroke-width="0.3"/></g></g></g><g transform="translate(255 68.809)"><path d="M-16973.045-9189.355h10v-.74h-10Z" transform="translate(17085.045 9192.287)" fill="url(#b)"/><path d="M-16963.045-9189.355h-10v-.74h10Z" transform="translate(16973.045 9192.287)" fill="url(#c)"/></g><g transform="translate(239.597 67)"><path d="M5.585-2.739a1.919,1.919,0,0,1,1.1.615A1.774,1.774,0,0,1,7.074-.94,1.666,1.666,0,0,1,6.386.492a3.43,3.43,0,0,1-2.031.5H1.026V-6.244H4.148a3.141,3.141,0,0,1,1.876.486,1.6,1.6,0,0,1,.667,1.375A1.724,1.724,0,0,1,6.4-3.365,1.766,1.766,0,0,1,5.585-2.739ZM1.791-5.613v2.626H4.1a2.326,2.326,0,0,0,1.354-.336A1.121,1.121,0,0,0,5.926-4.3a1.121,1.121,0,0,0-.476-.977A2.326,2.326,0,0,0,4.1-5.613ZM4.345.362A2.66,2.66,0,0,0,5.813.032,1.154,1.154,0,0,0,6.309-1q0-1.354-1.964-1.354H1.791V.362ZM9.369-3.38a1.779,1.779,0,0,1,.77-.827,2.617,2.617,0,0,1,1.266-.279v.713l-.176-.01a1.737,1.737,0,0,0-1.344.527A2.1,2.1,0,0,0,9.4-1.778V.993H8.666V-4.445h.7Zm3.36-1.065h.734V.993h-.734ZM13.1-5.634a.52.52,0,0,1-.383-.155.508.508,0,0,1-.155-.372.5.5,0,0,1,.155-.362.52.52,0,0,1,.383-.155.529.529,0,0,1,.383.15.479.479,0,0,1,.155.357.52.52,0,0,1-.155.383A.52.52,0,0,1,13.1-5.634Zm7.371-1.044V.993h-.7V-.082A2.239,2.239,0,0,1,18.9.755a2.562,2.562,0,0,1-1.225.289A2.76,2.76,0,0,1,16.285.693a2.512,2.512,0,0,1-.972-.982,2.9,2.9,0,0,1-.352-1.437,2.9,2.9,0,0,1,.352-1.437,2.477,2.477,0,0,1,.972-.977,2.793,2.793,0,0,1,1.385-.346,2.571,2.571,0,0,1,1.194.274,2.263,2.263,0,0,1,.874.8V-6.678ZM17.733.393A2.032,2.032,0,0,0,18.761.13a1.872,1.872,0,0,0,.724-.75,2.282,2.282,0,0,0,.264-1.106,2.282,2.282,0,0,0-.264-1.106,1.872,1.872,0,0,0-.724-.75,2.032,2.032,0,0,0-1.029-.264,2.052,2.052,0,0,0-1.039.264,1.872,1.872,0,0,0-.724.75,2.282,2.282,0,0,0-.264,1.106A2.282,2.282,0,0,0,15.97-.62a1.872,1.872,0,0,0,.724.75A2.052,2.052,0,0,0,17.733.393Zm9.821-4.838V.331a2.769,2.769,0,0,1-.677,2.052,2.8,2.8,0,0,1-2.042.667A4.562,4.562,0,0,1,23.4,2.828a2.945,2.945,0,0,1-1.1-.615l.372-.558a2.793,2.793,0,0,0,.956.548,3.57,3.57,0,0,0,1.184.2,2.089,2.089,0,0,0,1.52-.481A2.024,2.024,0,0,0,26.82.424V-.268a2.212,2.212,0,0,1-.894.786A2.765,2.765,0,0,1,24.7.786,2.891,2.891,0,0,1,23.31.45a2.481,2.481,0,0,1-.982-.941,2.645,2.645,0,0,1-.357-1.37,2.618,2.618,0,0,1,.357-1.365,2.465,2.465,0,0,1,.977-.93,2.919,2.919,0,0,1,1.4-.331,2.758,2.758,0,0,1,1.251.279,2.254,2.254,0,0,1,.9.806V-4.445ZM24.773.135a2.229,2.229,0,0,0,1.065-.253,1.83,1.83,0,0,0,.739-.708,2.024,2.024,0,0,0,.264-1.034,2,2,0,0,0-.264-1.029,1.849,1.849,0,0,0-.734-.7,2.221,2.221,0,0,0-1.07-.253,2.236,2.236,0,0,0-1.06.248,1.8,1.8,0,0,0-.734.7,2.024,2.024,0,0,0-.264,1.034,2.024,2.024,0,0,0,.264,1.034,1.838,1.838,0,0,0,.734.708A2.2,2.2,0,0,0,24.773.135Zm4.838-4.58h.734V.993h-.734Zm.372-1.189a.52.52,0,0,1-.383-.155.508.508,0,0,1-.155-.372.5.5,0,0,1,.155-.362.52.52,0,0,1,.383-.155.529.529,0,0,1,.383.15.479.479,0,0,1,.155.357.52.52,0,0,1-.155.383A.52.52,0,0,1,29.984-5.634Zm5.179,1.148a2.222,2.222,0,0,1,1.628.594,2.322,2.322,0,0,1,.6,1.732V.993h-.734V-2.088a1.8,1.8,0,0,0-.424-1.292,1.592,1.592,0,0,0-1.21-.445,1.858,1.858,0,0,0-1.39.522,1.972,1.972,0,0,0-.512,1.442V.993h-.734V-4.445h.7v1a2.042,2.042,0,0,1,.832-.77A2.664,2.664,0,0,1,35.163-4.486Zm9.284.041V.331a2.769,2.769,0,0,1-.677,2.052,2.8,2.8,0,0,1-2.042.667A4.562,4.562,0,0,1,40.3,2.828a2.945,2.945,0,0,1-1.1-.615l.372-.558a2.793,2.793,0,0,0,.956.548,3.57,3.57,0,0,0,1.184.2,2.089,2.089,0,0,0,1.52-.481A2.024,2.024,0,0,0,43.713.424V-.268a2.212,2.212,0,0,1-.894.786,2.765,2.765,0,0,1-1.225.269A2.891,2.891,0,0,1,40.2.45a2.481,2.481,0,0,1-.982-.941,2.645,2.645,0,0,1-.357-1.37,2.618,2.618,0,0,1,.357-1.365,2.465,2.465,0,0,1,.977-.93,2.919,2.919,0,0,1,1.4-.331,2.758,2.758,0,0,1,1.251.279,2.254,2.254,0,0,1,.9.806V-4.445ZM41.666.135a2.229,2.229,0,0,0,1.065-.253,1.83,1.83,0,0,0,.739-.708,2.024,2.024,0,0,0,.264-1.034,2,2,0,0,0-.264-1.029,1.848,1.848,0,0,0-.734-.7,2.221,2.221,0,0,0-1.07-.253,2.236,2.236,0,0,0-1.06.248,1.8,1.8,0,0,0-.734.7,2.024,2.024,0,0,0-.264,1.034,2.024,2.024,0,0,0,.264,1.034,1.838,1.838,0,0,0,.734.708A2.2,2.2,0,0,0,41.666.135Zm14.556-4.58h.734V.993h-.734Zm.372-1.189a.52.52,0,0,1-.383-.155.508.508,0,0,1-.155-.372.5.5,0,0,1,.155-.362.52.52,0,0,1,.383-.155.529.529,0,0,1,.383.15.479.479,0,0,1,.155.357.52.52,0,0,1-.155.383A.52.52,0,0,1,56.594-5.634Zm3.867,6.679A4.175,4.175,0,0,1,59.194.853a2.724,2.724,0,0,1-.946-.481l.331-.579a2.786,2.786,0,0,0,.858.439A3.409,3.409,0,0,0,60.513.4a2.053,2.053,0,0,0,1.1-.233.74.74,0,0,0,.357-.656.59.59,0,0,0-.2-.47,1.3,1.3,0,0,0-.5-.258,7.079,7.079,0,0,0-.8-.171,9.127,9.127,0,0,1-1.065-.253,1.565,1.565,0,0,1-.687-.439,1.222,1.222,0,0,1-.284-.858,1.345,1.345,0,0,1,.569-1.117A2.553,2.553,0,0,1,60.6-4.486a4.106,4.106,0,0,1,1.055.14,2.9,2.9,0,0,1,.868.367l-.32.589a2.745,2.745,0,0,0-1.6-.465,1.858,1.858,0,0,0-1.06.248.76.76,0,0,0-.357.651.643.643,0,0,0,.2.5,1.24,1.24,0,0,0,.5.274,8.091,8.091,0,0,0,.827.181,9.514,9.514,0,0,1,1.044.248,1.534,1.534,0,0,1,.672.424,1.166,1.166,0,0,1,.279.827A1.315,1.315,0,0,1,62.11.626,2.826,2.826,0,0,1,60.461,1.045ZM66.922.662a1.39,1.39,0,0,1-.512.284,2.061,2.061,0,0,1-.636.1A1.594,1.594,0,0,1,64.6.631a1.58,1.58,0,0,1-.414-1.168V-3.825h-.972v-.62h.972V-5.634h.734v1.189h1.654v.62H64.917V-.578a1.027,1.027,0,0,0,.243.739.922.922,0,0,0,.7.253A1.35,1.35,0,0,0,66.3.342a1.092,1.092,0,0,0,.367-.207Zm3.236-5.148a2.3,2.3,0,0,1,1.633.532,2.057,2.057,0,0,1,.569,1.577V.993h-.7V.145a1.683,1.683,0,0,1-.729.662,2.551,2.551,0,0,1-1.142.238A2.237,2.237,0,0,1,68.339.611,1.4,1.4,0,0,1,67.8-.537a1.39,1.39,0,0,1,.5-1.117,2.454,2.454,0,0,1,1.6-.424h1.727v-.331a1.394,1.394,0,0,0-.393-1.07,1.622,1.622,0,0,0-1.148-.367,2.917,2.917,0,0,0-.992.171,2.5,2.5,0,0,0-.817.47l-.331-.548a2.934,2.934,0,0,1,.992-.543A3.864,3.864,0,0,1,70.158-4.486ZM69.9.466A1.934,1.934,0,0,0,70.965.181a1.7,1.7,0,0,0,.662-.822V-1.53H69.92q-1.4,0-1.4.972a.889.889,0,0,0,.362.75A1.647,1.647,0,0,0,69.9.466Zm7.226-4.952a2.222,2.222,0,0,1,1.628.594,2.322,2.322,0,0,1,.6,1.732V.993h-.734V-2.088A1.8,1.8,0,0,0,78.2-3.38a1.592,1.592,0,0,0-1.21-.445A1.858,1.858,0,0,0,75.6-3.3,1.972,1.972,0,0,0,75.09-1.86V.993h-.734V-4.445h.7v1a2.042,2.042,0,0,1,.832-.77A2.664,2.664,0,0,1,77.126-4.486Zm6.5,5.531A2.93,2.93,0,0,1,82.187.693a2.545,2.545,0,0,1-1-.987,2.843,2.843,0,0,1-.362-1.432,2.815,2.815,0,0,1,.362-1.427,2.554,2.554,0,0,1,1-.982,2.93,2.93,0,0,1,1.442-.352,2.793,2.793,0,0,1,1.256.274,2.086,2.086,0,0,1,.874.8l-.548.372a1.714,1.714,0,0,0-.682-.6,2.025,2.025,0,0,0-.9-.2,2.13,2.13,0,0,0-1.06.264,1.853,1.853,0,0,0-.734.75,2.282,2.282,0,0,0-.264,1.106,2.274,2.274,0,0,0,.264,1.111,1.861,1.861,0,0,0,.734.744,2.13,2.13,0,0,0,1.06.264,2.069,2.069,0,0,0,.9-.2,1.676,1.676,0,0,0,.682-.6l.548.372a2.079,2.079,0,0,1-.879.8A2.8,2.8,0,0,1,83.629,1.045ZM91.838-1.5H87.289a1.943,1.943,0,0,0,.651,1.37,2.162,2.162,0,0,0,1.489.522,2.346,2.346,0,0,0,.93-.181,2.032,2.032,0,0,0,.734-.532l.414.476a2.329,2.329,0,0,1-.9.662,3.06,3.06,0,0,1-1.194.227A3.019,3.019,0,0,1,87.925.688,2.572,2.572,0,0,1,86.917-.3a2.815,2.815,0,0,1-.362-1.427A2.914,2.914,0,0,1,86.9-3.153a2.508,2.508,0,0,1,.951-.982,2.655,2.655,0,0,1,1.359-.352,2.628,2.628,0,0,1,1.354.352,2.492,2.492,0,0,1,.941.977,2.942,2.942,0,0,1,.341,1.432ZM89.212-3.856a1.849,1.849,0,0,0-1.318.5,1.969,1.969,0,0,0-.6,1.308h3.856a1.969,1.969,0,0,0-.6-1.308A1.863,1.863,0,0,0,89.212-3.856Zm5.593,4.9A4.175,4.175,0,0,1,93.538.853a2.724,2.724,0,0,1-.946-.481l.331-.579a2.786,2.786,0,0,0,.858.439A3.409,3.409,0,0,0,94.856.4a2.053,2.053,0,0,0,1.1-.233.74.74,0,0,0,.357-.656.59.59,0,0,0-.2-.47,1.3,1.3,0,0,0-.5-.258,7.079,7.079,0,0,0-.8-.171,9.126,9.126,0,0,1-1.065-.253,1.565,1.565,0,0,1-.688-.439,1.222,1.222,0,0,1-.284-.858,1.345,1.345,0,0,1,.569-1.117,2.553,2.553,0,0,1,1.582-.434,4.106,4.106,0,0,1,1.055.14,2.9,2.9,0,0,1,.868.367l-.321.589a2.745,2.745,0,0,0-1.6-.465,1.858,1.858,0,0,0-1.06.248.76.76,0,0,0-.357.651.643.643,0,0,0,.2.5,1.24,1.24,0,0,0,.5.274,8.092,8.092,0,0,0,.827.181,9.516,9.516,0,0,1,1.044.248,1.534,1.534,0,0,1,.672.424,1.166,1.166,0,0,1,.279.827A1.315,1.315,0,0,1,96.454.626,2.826,2.826,0,0,1,94.8,1.045Z" transform="translate(27.377 6.678)" fill="#fff"/><path d="M1.79-.278h.587A10.457,10.457,0,0,0,4.353-.4a2.157,2.157,0,0,0,.914-.425A2.5,2.5,0,0,0,5.991-1.85,3.87,3.87,0,0,0,6.24-3.285a3.839,3.839,0,0,0-.246-1.43,2.514,2.514,0,0,0-.727-1.017,2.173,2.173,0,0,0-.928-.436A10.063,10.063,0,0,0,2.376-6.3H1.79ZM.859.589V-7.148H2.345a11.044,11.044,0,0,1,2.323.166,3.144,3.144,0,0,1,1.181.558A3.239,3.239,0,0,1,6.858-5.114,4.616,4.616,0,0,1,7.2-3.274a4.614,4.614,0,0,1-.341,1.831A3.2,3.2,0,0,1,5.849-.135,3.157,3.157,0,0,1,4.694.423,8.838,8.838,0,0,1,2.677.589H.859Z" transform="translate(75.111 7.148)" fill="#fff"/></g></g></svg>