<svg xmlns="http://www.w3.org/2000/svg" width="34.647" height="42.598" viewBox="0 0 34.647 42.598">
  <g id="PDF_file_icon" transform="translate(53.548 -183.974)">
    <path id="Path_170015" data-name="Path 170015" d="M-49.148,183.974a4.406,4.406,0,0,0-4.4,4.4v33.8a4.406,4.406,0,0,0,4.4,4.4h25.843a4.406,4.406,0,0,0,4.4-4.4v-27.79a3.643,3.643,0,0,0-.284-1.606,4.449,4.449,0,0,0-.871-1.259l0-.005-6.412-6.289-.011-.011a5.073,5.073,0,0,0-1.359-.869,4.966,4.966,0,0,0-1.94-.367H-49.148Z" fill="#ff2116"/>
    <path id="Path_170016" data-name="Path 170016" d="M-47.452,187.117H-28.06a4.129,4.129,0,0,1,1.342.251,3.677,3.677,0,0,1,.935.591l0,0,6.4,6.274a3.529,3.529,0,0,1,.572.825,3.134,3.134,0,0,1,.16.956q0,.015,0,.031v27.82a2.932,2.932,0,0,1-2.954,2.955H-47.452a2.932,2.932,0,0,1-2.954-2.955v-33.8a2.932,2.932,0,0,1,2.954-2.955Z" transform="translate(-1.697 -1.697)" fill="#f5f5f5"/>
    <path id="Path_170017" data-name="Path 170017" d="M-35.168,218.97c-.995-.995.081-2.361,3-3.813l1.838-.913.716-1.566c.394-.861.981-2.267,1.306-3.124l.59-1.557-.407-1.152a8.234,8.234,0,0,1-.361-4.312c.43-1.037,1.837-.931,2.394.181.435.868.391,2.441-.125,4.424l-.423,1.626.372.632a21.947,21.947,0,0,0,1.33,1.835l.99,1.231,1.231-.161c3.912-.51,5.251.357,5.251,1.6,0,1.57-3.071,1.7-5.651-.112a7.832,7.832,0,0,1-.979-.812s-1.616.329-2.411.543c-.821.221-1.231.36-2.434.766,0,0-.422.613-.7,1.058a11.4,11.4,0,0,1-3.071,3.532A2.094,2.094,0,0,1-35.168,218.97Zm1.561-.558a11.769,11.769,0,0,0,2.474-2.926l.317-.5-1.444.726c-2.23,1.121-3.251,2.178-2.72,2.818.3.359.655.329,1.373-.115Zm14.487-4.066a.839.839,0,0,0-.151-1.466,4.059,4.059,0,0,0-2.119-.273c-.768.052-2,.207-2.212.254,0,0,.678.469.98.641a13.019,13.019,0,0,0,2.087.872c.7.215,1.108.192,1.415-.028Zm-5.825-2.421a14.3,14.3,0,0,1-1.251-1.614,8.99,8.99,0,0,1-.7-1.044s-.341,1.1-.621,1.757l-.873,2.158-.253.49s1.346-.441,2.03-.62c.725-.189,2.2-.479,2.2-.479Zm-1.877-7.528a3.162,3.162,0,0,0-.107-1.772c-.631-.69-1.393-.115-1.264,1.526a11.191,11.191,0,0,0,.364,2.077l.333,1.057.235-.8a20.9,20.9,0,0,0,.44-2.092Z" transform="translate(-9.73 -9.633)" fill="#ff2116"/>
    <path id="Path_170018" data-name="Path 170018" d="M-31.067,249.123h1.615a4.388,4.388,0,0,1,1.256.148,1.475,1.475,0,0,1,.812.645,2.12,2.12,0,0,1,.33,1.2,2.18,2.18,0,0,1-.268,1.108,1.571,1.571,0,0,1-.721.669,3.514,3.514,0,0,1-1.385.205h-.559v2.546h-1.08Zm1.08.836v2.274h.535a1.409,1.409,0,0,0,.989-.268,1.167,1.167,0,0,0,.277-.869,1.3,1.3,0,0,0-.182-.726.744.744,0,0,0-.4-.344,2.51,2.51,0,0,0-.683-.067Zm3.76-.836h1.467a3.315,3.315,0,0,1,1.7.377,2.347,2.347,0,0,1,.965,1.123,4.042,4.042,0,0,1,.33,1.653,4.614,4.614,0,0,1-.3,1.706,2.712,2.712,0,0,1-.9,1.2,2.792,2.792,0,0,1-1.72.459h-1.548Zm1.08.865v4.792h.449a1.512,1.512,0,0,0,1.366-.65,3.162,3.162,0,0,0,.425-1.744q0-2.4-1.792-2.4Zm4.419-.865h3.621v.865h-2.542v1.949h2.035v.865h-2.035v2.843h-1.08Z" transform="translate(-12.14 -35.181)" fill="#2c2c2c"/>
  </g>
</svg>
