<svg xmlns="http://www.w3.org/2000/svg" width="86" height="86" viewBox="0 0 86 86">
  <g id="Group_182785" data-name="Group 182785" transform="translate(-920 -329)">
    <g id="Group_182784" data-name="Group 182784" transform="translate(885.933 143.572)">
      <path id="Path_253568" data-name="Path 253568" d="M89.21,218.466c-1.385-1.335-2.8-2.639-4.145-4.015a1.913,1.913,0,0,1,.678-3.3,1.822,1.822,0,0,1,1.988.52q3.822,3.789,7.612,7.611a1.823,1.823,0,0,1,.436,2.211,2.123,2.123,0,0,1-2.2,1.155q-12.338-.021-24.676-.008c-3.064,0-6.128,0-9.193,0-1.54,0-2.424-.7-2.451-1.895-.028-1.238.893-1.976,2.488-1.977q13.608,0,27.216,0h2.046Z" transform="translate(-0.048 0)" fill="#30ca9f"/>
      <path id="Path_253569" data-name="Path 253569" d="M63.978,311.049c1.383,1.336,2.8,2.643,4.138,4.018a1.913,1.913,0,0,1-.679,3.3,1.819,1.819,0,0,1-1.988-.513q-3.819-3.792-7.611-7.611a1.834,1.834,0,0,1-.44-2.213,2.031,2.031,0,0,1,2.075-1.149q11.914.017,23.828.006,5.08,0,10.16,0c1.545,0,2.428.69,2.456,1.885.029,1.247-.878,1.983-2.483,1.983q-13.788,0-27.577,0H64.171Z" transform="translate(0 -72.641)" fill="#30ca9f"/>
    </g>
    <g id="Ellipse_11769" data-name="Ellipse 11769" transform="translate(920 329)" fill="none" stroke="#30ca9f" stroke-width="3">
      <circle cx="43" cy="43" r="43" stroke="none"/>
      <circle cx="43" cy="43" r="41.5" fill="none"/>
    </g>
  </g>
</svg>
