<svg xmlns="http://www.w3.org/2000/svg" width="84.203" height="77.001" viewBox="0 0 84.203 77.001">
  <g id="Group_182843" data-name="Group 182843" transform="translate(0.015 -0.484)">
    <path id="Path_253592" data-name="Path 253592" d="M220.612,16.246H180.576a7.881,7.881,0,0,1,0-15.762h40.036a7.881,7.881,0,0,1,0,15.762Zm0,0" transform="translate(-144.305)" fill="#b8ffeb"/>
    <path id="Path_253593" data-name="Path 253593" d="M220.612,109.332H180.576a7.881,7.881,0,0,1,0-15.762h40.036a7.881,7.881,0,0,1,0,15.762Zm0,0" transform="translate(-144.305 -77.777)" fill="#6aecc8"/>
    <path id="Path_253594" data-name="Path 253594" d="M173.943,115.61a7.882,7.882,0,0,0,6.634,12.137H200C192.791,118.374,181.938,115.955,173.943,115.61Zm0,0" transform="translate(-144.305 -96.192)" fill="#30ca9f"/>
    <path id="Path_253595" data-name="Path 253595" d="M220.612,202.422H180.576a7.881,7.881,0,0,1,0-15.762h40.036a7.881,7.881,0,0,1,0,15.762Zm0,0" transform="translate(-144.305 -155.557)" fill="#b8ffeb"/>
    <path id="Path_253596" data-name="Path 253596" d="M172.694,194.541a7.881,7.881,0,0,0,7.881,7.881h25.743a30.724,30.724,0,0,0-2.291-8.379,31.769,31.769,0,0,0-4.381-7.384h-19.07a7.881,7.881,0,0,0-7.881,7.881Zm0,0" transform="translate(-144.304 -155.557)" fill="#30ca9f" opacity="0.6"/>
    <path id="Path_253597" data-name="Path 253597" d="M220.612,295.508H180.576a7.881,7.881,0,0,1,0-15.762h40.036a7.881,7.881,0,0,1,0,15.762Zm0,0" transform="translate(-144.305 -233.333)" fill="#6aecc8"/>
    <path id="Path_253598" data-name="Path 253598" d="M172.7,287.627a7.881,7.881,0,0,0,7.881,7.881h24.392c1.145-4.794,2.093-10.025,1.29-15.762H180.576A7.881,7.881,0,0,0,172.7,287.627Zm0,0" transform="translate(-144.305 -233.333)" fill="#30ca9f"/>
    <path id="Path_253599" data-name="Path 253599" d="M220.612,388.6H180.576a7.881,7.881,0,0,1,0-15.762h40.036a7.881,7.881,0,0,1,0,15.762Zm0,0" transform="translate(-144.305 -311.113)" fill="#b8ffeb"/>
    <path id="Path_253600" data-name="Path 253600" d="M205.075,372.836h-24.5a7.881,7.881,0,0,0,0,15.762h22.076C201.961,383.91,203.7,378.7,205.075,372.836Zm0,0" transform="translate(-144.305 -311.113)" fill="#30ca9f" opacity="0.6"/>
    <path id="Path_253601" data-name="Path 253601" d="M65.655,203.356l-7.571-9.184L21.508,224.321l7.57,9.184c6.583,7.986,20.106,7.71,30.207-.615s12.952-21.548,6.37-29.534Zm0,0" transform="translate(-17.983 -161.833)" fill="#6aecc8"/>
    <path id="Path_253602" data-name="Path 253602" d="M33.732,194.157c10.1-8.325,12.952-21.547,6.37-29.532s-20.1-7.709-30.2.616-12.952,21.546-6.37,29.531S23.632,202.481,33.732,194.157Zm0,0" transform="translate(0 -132.289)" fill="#b8ffeb"/>
    <path id="Path_253603" data-name="Path 253603" d="M33.25,217.379c-2.174-2.637-2.893-6.308-2.025-10.334A21.935,21.935,0,0,1,38.931,195a21.934,21.934,0,0,1,13.293-5.265c4.119-.084,7.584,1.322,9.758,3.959S64.875,200,64.006,204.03A21.936,21.936,0,0,1,56.3,216.074a21.938,21.938,0,0,1-13.293,5.265c-4.119.084-7.584-1.322-9.758-3.96Zm0,0" transform="translate(-25.803 -158.124)" fill="#6aecc8"/>
    <g id="Group_182842" data-name="Group 182842" transform="translate(11.642 38.487)">
      <path id="Path_253604" data-name="Path 253604" d="M90.445,235.434a1.27,1.27,0,0,1-1.789-.172l-1.342-1.628a1.271,1.271,0,0,1,1.961-1.616l1.342,1.628a1.27,1.27,0,0,1-.172,1.789ZM74.284,248.755a1.27,1.27,0,0,1-1.789-.172l-1.341-1.628a1.271,1.271,0,0,1,1.961-1.616l1.342,1.628a1.27,1.27,0,0,1-.173,1.789Zm7.135-9.173a1.048,1.048,0,0,1-.372.914,1.026,1.026,0,0,1-.968.191,1.271,1.271,0,1,0-.752,2.428,3.58,3.58,0,0,0,4.617-3.807,1.271,1.271,0,0,0-1.4-1.126,1.3,1.3,0,0,0-1.126,1.4Zm0,0" transform="translate(-70.864 -231.555)" fill="#13294b"/>
    </g>
    <path id="Path_253605" data-name="Path 253605" d="M105.353,15.741l.243.445a2.646,2.646,0,0,0,1.051,1.051l.445.243a.656.656,0,0,1,0,1.152l-.445.243a2.647,2.647,0,0,0-1.051,1.051l-.243.445a.656.656,0,0,1-1.152,0l-.243-.445a2.649,2.649,0,0,0-1.051-1.051l-.445-.243a.657.657,0,0,1,0-1.152l.445-.243a2.647,2.647,0,0,0,1.051-1.051l.243-.445A.656.656,0,0,1,105.353,15.741ZM85.21,4.487l.372.68a4.044,4.044,0,0,0,1.607,1.607l.68.372a1,1,0,0,1,0,1.76l-.68.372a4.043,4.043,0,0,0-1.607,1.607l-.372.68a1,1,0,0,1-1.76,0l-.372-.68a4.041,4.041,0,0,0-1.607-1.607l-.68-.372a1,1,0,0,1,0-1.76l.68-.372a4.043,4.043,0,0,0,1.607-1.607l.372-.68a1,1,0,0,1,1.76,0Zm0,0" transform="translate(-63.788 -1.293)" fill="#13294b"/>
  </g>
</svg>
