<svg xmlns="http://www.w3.org/2000/svg" width="73.992" height="77.126" viewBox="0 0 73.992 77.126">
  <g id="Group_182845" data-name="Group 182845" transform="translate(-38.135 -21.056)">
    <path id="Path_253606" data-name="Path 253606" d="M108.093,58.11l3.06-4.961a6.529,6.529,0,0,0-3.076-9.467l-5.389-2.214a2.875,2.875,0,0,1-1.774-2.44l-.444-5.82a6.529,6.529,0,0,0-8.046-5.849l-5.672,1.373a2.875,2.875,0,0,1-2.865-.931L80.1,23.354a6.53,6.53,0,0,0-9.945,0L66.375,27.8a2.874,2.874,0,0,1-2.865.931l-5.672-1.373a6.529,6.529,0,0,0-8.046,5.849l-.444,5.82a2.875,2.875,0,0,1-1.774,2.44l-5.389,2.215a6.529,6.529,0,0,0-3.076,9.467l3.06,4.961a2.875,2.875,0,0,1,0,3.018l-3.06,4.961a6.529,6.529,0,0,0,3.076,9.467l5.389,2.215a2.874,2.874,0,0,1,1.774,2.44l.444,5.82a6.529,6.529,0,0,0,8.046,5.849l5.672-1.373a2.875,2.875,0,0,1,2.865.931l3.783,4.446a6.53,6.53,0,0,0,9.945,0l3.783-4.446a2.874,2.874,0,0,1,2.865-.931l5.672,1.373a6.529,6.529,0,0,0,8.046-5.849l.444-5.82a2.875,2.875,0,0,1,1.774-2.44l5.389-2.214a6.53,6.53,0,0,0,3.076-9.467l-3.06-4.961a2.874,2.874,0,0,1,0-3.018Z" fill="#6aecc8"/>
    <path id="Path_253607" data-name="Path 253607" d="M86.752,119.638l5.672,1.373a6.531,6.531,0,0,0,7.817-4.563C66.035,105.863,60.165,75.639,62.964,57.729l-5.127-1.241a6.529,6.529,0,0,0-8.046,5.849l-.444,5.82a2.875,2.875,0,0,1-1.774,2.44l-5.389,2.215a6.529,6.529,0,0,0-3.076,9.467l3.06,4.961a2.875,2.875,0,0,1,0,3.018l-3.06,4.961a6.529,6.529,0,0,0,3.076,9.467l5.389,2.214a2.874,2.874,0,0,1,1.774,2.44l.444,5.82a6.529,6.529,0,0,0,8.046,5.849l5.672-1.373a2.875,2.875,0,0,1,2.865.931l3.783,4.446a6.529,6.529,0,0,0,9.945,0l3.783-4.446a2.875,2.875,0,0,1,2.865-.931Z" transform="translate(0 -29.13)" fill="#30ca9f"/>
    <path id="Path_253608" data-name="Path 253608" d="M205.481,115.589a2.015,2.015,0,0,1,0-2.116L207.626,110a4.577,4.577,0,0,0-2.156-6.637l-3.778-1.553a2.015,2.015,0,0,1-1.243-1.711l-.311-4.08a4.577,4.577,0,0,0-5.641-4.1l-3.976.962a2.015,2.015,0,0,1-2.009-.653l-2.652-3.117a4.577,4.577,0,0,0-6.972,0l-2.652,3.117a2.015,2.015,0,0,1-2.009.653l-3.976-.962a4.62,4.62,0,0,0-.655-.108c-5.415,14.706,1.783,36.9,26.116,45.467a4.579,4.579,0,0,0,4.426-4.228l.311-4.08a2.015,2.015,0,0,1,1.243-1.711l3.778-1.552a4.577,4.577,0,0,0,2.156-6.637Z" transform="translate(-107.243 -54.912)" fill="#b8ffeb"/>
    <path id="Path_253609" data-name="Path 253609" d="M135.962,156.616l3.976.962a4.59,4.59,0,0,0,1.215.127c-19.914-11.01-26.07-30.308-26.116-45.467a4.577,4.577,0,0,0-4.985,4.209l-.311,4.08a2.015,2.015,0,0,1-1.243,1.711l-3.778,1.552a4.577,4.577,0,0,0-2.156,6.637l2.145,3.478a2.015,2.015,0,0,1,0,2.116l-2.145,3.478a4.577,4.577,0,0,0,2.156,6.637l3.778,1.553a2.015,2.015,0,0,1,1.243,1.711l.311,4.08a4.577,4.577,0,0,0,5.641,4.1l3.976-.962a2.015,2.015,0,0,1,2.009.653l2.652,3.117a4.577,4.577,0,0,0,6.972,0l2.652-3.117a2.015,2.015,0,0,1,2.008-.653Z" transform="translate(-52.684 -75.344)" fill="#6aecc8"/>
    <g id="Group_182844" data-name="Group 182844" transform="translate(64.131 46.762)">
      <path id="Path_253612" data-name="Path 253612" d="M186.763,184.656a1.164,1.164,0,0,1-.623-1.524l8.8-20.98a1.164,1.164,0,0,1,2.147.9l-8.8,20.98A1.164,1.164,0,0,1,186.763,184.656Zm-1.235-12.825c-2.787,0-5.054-2.55-5.054-5.685s2.267-5.685,5.054-5.685,5.055,2.55,5.055,5.685S188.315,171.831,185.528,171.831Zm0-9.042c-1.5,0-2.726,1.506-2.726,3.357s1.223,3.357,2.726,3.357,2.726-1.506,2.726-3.357S187.032,162.789,185.528,162.789Zm11.891,23.386c-2.787,0-5.054-2.55-5.054-5.685s2.267-5.685,5.054-5.685,5.055,2.55,5.055,5.685S200.207,186.175,197.42,186.175Zm0-9.042c-1.5,0-2.726,1.506-2.726,3.357s1.223,3.357,2.726,3.357,2.726-1.506,2.726-3.357S198.923,177.134,197.42,177.134Z" transform="translate(-180.474 -160.461)" fill="#13294b" stroke="#13294b" stroke-width="1"/>
    </g>
  </g>
</svg>
