<svg xmlns="http://www.w3.org/2000/svg" width="60" height="60" viewBox="0 0 60 60">
  <g id="Group_182741" data-name="Group 182741" transform="translate(-536 -3929.01)">
    <circle id="Ellipse_2" data-name="Ellipse 2" cx="30" cy="30" r="30" transform="translate(536 3929.01)" fill="#5a00ac"/>
    <g id="Group_59688" data-name="Group 59688" transform="translate(562.004 3940.001)">
      <g id="surface1" transform="translate(-10.004 2.009)">
        <path id="Path_89447" data-name="Path 89447" d="M126.919,158.457a6.478,6.478,0,1,0,6.478,6.478A6.485,6.485,0,0,0,126.919,158.457Zm3.846,5.258-4.641,4.641a1,1,0,0,1-1.411,0l-1.773-1.774a1,1,0,0,1,1.411-1.411l1.068,1.068,3.936-3.936a1,1,0,0,1,1.411,1.411Zm0,0" transform="translate(-112.443 -147.934)" fill="#fff"/>
        <path id="Path_89448" data-name="Path 89448" d="M28.919,9.224V9.2c-.015-.327-.025-.672-.031-1.057a3.6,3.6,0,0,0-3.393-3.53A13.983,13.983,0,0,1,15.978.6L15.956.579A2.176,2.176,0,0,0,13,.579L12.976.6A13.984,13.984,0,0,1,3.459,4.611,3.6,3.6,0,0,0,.066,8.141C.061,8.523.05,8.869.036,9.2l0,.061c-.076,3.986-.17,8.947,1.489,13.45a17.122,17.122,0,0,0,4.108,6.4,21.487,21.487,0,0,0,8.038,4.755,2.49,2.49,0,0,0,.329.09,2.433,2.433,0,0,0,.957,0,2.5,2.5,0,0,0,.331-.09,21.5,21.5,0,0,0,8.03-4.757,17.146,17.146,0,0,0,4.108-6.4C29.089,18.188,29,13.218,28.919,9.224ZM14.476,25.473A8.473,8.473,0,1,1,22.95,17,8.483,8.483,0,0,1,14.476,25.473Zm0,0" transform="translate(0 0.001)" fill="#fff"/>
      </g>
    </g>
  </g>
</svg>
