<svg xmlns="http://www.w3.org/2000/svg" xmlns:xlink="http://www.w3.org/1999/xlink" width="61" height="61" viewBox="0 0 61 61">
  <defs>
    <clipPath id="clip-path">
      <rect id="Rectangle_13236" data-name="Rectangle 13236" width="3.678" height="2.827" fill="none" stroke="#fff" stroke-width="0.3"/>
    </clipPath>
  </defs>
  <g id="Group_182740" data-name="Group 182740" transform="translate(-535.5 -3915.51)">
    <circle id="Ellipse_2" data-name="Ellipse 2" cx="30" cy="30" r="30" transform="translate(536 3916.01)" fill="#d2d2d2" stroke="rgba(0,0,0,0)" stroke-miterlimit="10" stroke-width="1"/>
    <g id="Group_182566" data-name="Group 182566" transform="translate(552 3928.01)">
      <path id="Path_122259" data-name="Path 122259" d="M-16.912-12.217A11.876,11.876,0,0,1-5.263-.771,11.759,11.759,0,0,1-16.912,11.02,11.439,11.439,0,0,1-28.38-.771C-28.531-7.238-22.842-12.217-16.912-12.217Z" transform="translate(28.384 24.218)" fill="#414a59"/>
      <g id="Group_115047" data-name="Group 115047" transform="translate(2.741 14.807)">
        <path id="Union_77" data-name="Union 77" d="M4.978,16.319A17.581,17.581,0,0,1,2.81,14.791a6.734,6.734,0,0,1-1.266-1.478,7.237,7.237,0,0,1-.666-1.094,8.845,8.845,0,1,1,4.1,4.1Z" transform="translate(0.008 0.485)" fill="#00a9ee"/>
        <path id="Path_122123" data-name="Path 122123" d="M.869-7.567q.031.1.072.21a2.334,2.334,0,0,0,.1.23,2.082,2.082,0,0,0,.128.225,1.01,1.01,0,0,0,.162.193.761.761,0,0,0,.2.135.59.59,0,0,0,.246.05A.581.581,0,0,0,2-6.563a.388.388,0,0,0,.233-.259.659.659,0,0,0,.026-.185.4.4,0,0,0-.153-.331.708.708,0,0,0-.442-.119l-.07,0-.07.006V-7.76l.03,0h.015a.836.836,0,0,0,.255-.036.573.573,0,0,0,.188-.1.411.411,0,0,0,.115-.144.4.4,0,0,0,.039-.172.351.351,0,0,0-.029-.146.308.308,0,0,0-.078-.106.325.325,0,0,0-.117-.065A.485.485,0,0,0,1.8-8.546a.769.769,0,0,0-.106.007.91.91,0,0,0-.109.023,1.261,1.261,0,0,0-.123.04q-.065.025-.147.062L1.2-8.7A1.753,1.753,0,0,1,1.5-8.814a1.149,1.149,0,0,1,.3-.04.776.776,0,0,1,.274.047.666.666,0,0,1,.218.13.59.59,0,0,1,.142.2.6.6,0,0,1,.051.248.676.676,0,0,1-.351.591v.008a.79.79,0,0,1,.23.142q.06.011.126.016t.122.006a.948.948,0,0,0,.121-.008.677.677,0,0,0,.13-.031.708.708,0,0,0,.135-.064.811.811,0,0,0,.138-.106V-8.813h.768v.3H3.48v2.479H3.144v-1.28l-.008,0a.7.7,0,0,1-.22.1.9.9,0,0,1-.212.025l-.072,0L2.557-7.2l0,.008a.573.573,0,0,1,.033.207.838.838,0,0,1-.055.308.707.707,0,0,1-.16.245.721.721,0,0,1-.251.161.9.9,0,0,1-.33.058.869.869,0,0,1-.352-.069,1.118,1.118,0,0,1-.283-.177A1.3,1.3,0,0,1,.936-6.7a2.161,2.161,0,0,1-.162-.274,2.31,2.31,0,0,1-.11-.262Q.62-7.361.6-7.444Z" transform="translate(6.4 16.575)" fill="#fff" stroke="#fff" stroke-linecap="round" stroke-width="0.3"/>
        <path id="Union_385" data-name="Union 385" d="M2.239,3.169l0-.005a.351.351,0,0,1-.067-.222v-.5a.565.565,0,0,1-.064.013.876.876,0,0,1-.163.015H1.934a.6.6,0,0,1-.24-.051.571.571,0,0,1-.113-.069.742.742,0,0,1-.212.3l0,0a.648.648,0,0,1-.414.138H.948a.637.637,0,0,1-.227-.041.691.691,0,0,1-.2-.115.865.865,0,0,1-.166-.184,1.373,1.373,0,0,1-.121-.2c-.026,0-.049,0-.069-.005S.1,2.228.064,2.223L0,2.213l.047-.365.069.01c.03.005.058.008.089.01H.314a.311.311,0,0,0,.129-.026.235.235,0,0,0,.1-.066.281.281,0,0,0,.064-.1.358.358,0,0,0,.023-.125.448.448,0,0,0-.023-.141.3.3,0,0,0-.061-.1.268.268,0,0,0-.1-.064.337.337,0,0,0-.125-.023h0c-.031,0-.056,0-.084,0a.584.584,0,0,0-.066.008L.1,1.252.035.894.1.876A.671.671,0,0,1,.2.859C.233.856.267.853.3.853H.319a.748.748,0,0,1,.3.061.649.649,0,0,1,.222.166.657.657,0,0,1,.129.23A.9.9,0,0,1,1,1.566a.691.691,0,0,1-.031.217A.753.753,0,0,1,.88,1.97a.6.6,0,0,1-.144.143.7.7,0,0,1-.11.066.837.837,0,0,0,.13.164.282.282,0,0,0,.179.066H.943a.3.3,0,0,0,.123-.028.293.293,0,0,0,.1-.092.529.529,0,0,0,.074-.184,1.156,1.156,0,0,0,.031-.3V1.416h.389v.33a.446.446,0,0,0,.028.174.258.258,0,0,0,.066.1.213.213,0,0,0,.083.054.405.405,0,0,0,.094.018H1.94a.406.406,0,0,0,.136-.023.432.432,0,0,0,.094-.043V.976L1.993.621A.576.576,0,0,0,1.909.5.373.373,0,0,0,1.8.434.567.567,0,0,0,1.671.4,1.159,1.159,0,0,0,1.508.383H1.078V0h.431a1.3,1.3,0,0,1,.244.023A.757.757,0,0,1,1.96.092.6.6,0,0,1,2.119.21a.8.8,0,0,1,.12.161l.289.519h.028V.94l.048.087H2.556V2.821l.184-.13.166.394-.048.031a.938.938,0,0,1-.211.1.542.542,0,0,1-.2.038.036.036,0,0,1-.016,0A.253.253,0,0,1,2.239,3.169Z" transform="translate(12.827 7.537)" fill="#fff"/>
        <path id="Path_122128" data-name="Path 122128" d="M75.13,240.167c0-.007.073-.115.073-.115l-.415-.177s-.059.134-.079.128a1.778,1.778,0,0,0-.671.013c0-.151.007-.289.013-.415l1.448.007v-.395l-1.415-.007a3.879,3.879,0,0,1,.079-.392l-.382-.079a3.858,3.858,0,0,0-.092.477H72.639v.395h1.018c-.013.158-.013.342-.013.533a1.84,1.84,0,0,0-.4.223,1.18,1.18,0,0,0-.5.783.853.853,0,0,0,.855.947.954.954,0,0,0,.566-.184A3.061,3.061,0,0,0,75,240.574a.667.667,0,0,1,.085.105c.257.415.059.658-.3,1.013l-.066.066.276.277.059-.059a1.111,1.111,0,0,0,.355-1.5.8.8,0,0,0-.283-.309Zm-1.894,1.355a.437.437,0,0,1-.105-.342.814.814,0,0,1,.342-.513,1.712,1.712,0,0,1,.184-.112,4.9,4.9,0,0,0,.2,1.066A.494.494,0,0,1,73.236,241.521Zm.947-.21a4.843,4.843,0,0,1-.138-.894,1.756,1.756,0,0,1,.362-.046,1.236,1.236,0,0,1,.223.02h.013A3.89,3.89,0,0,1,74.183,241.311Zm0,0" transform="translate(-70.817 -231.283)" fill="#fff"/>
        <path id="Path_122131" data-name="Path 122131" d="M2.737-11.166H2.37l-.3-.795H.867l-.283.795H.215L1.3-14h.344ZM1.96-12.259l-.445-1.208a1.157,1.157,0,0,1-.043-.19H1.464a1.059,1.059,0,0,1-.046.19L.978-12.259Z" transform="translate(7.231 16.262)" fill="#fff" stroke="#fff" stroke-width="0.3"/>
        <g id="Group_114885" data-name="Group 114885" transform="translate(6.878 13.126)">
          <g id="Group_114884" data-name="Group 114884" clip-path="url(#clip-path)">
            <path id="Path_122132" data-name="Path 122132" d="M2.92,2.144V1.571q0-.606,0-1.211c0-.089,0-.089-.087-.089H.093C0,.27,0,.27,0,.178,0,0,0,0,.176,0h3.4c.1,0,.1,0,.1.1,0,.171,0,.171-.169.171h-.2c-.093,0-.093,0-.093.09V1.365q0,.69,0,1.38c0,.032.016.075-.041.081s-.084-.005-.1-.064a1.446,1.446,0,0,0-.592-.787c-.068-.048-.066-.043-.117.02a1.662,1.662,0,0,1-.228.255.755.755,0,0,1-.7.12,1.237,1.237,0,0,1-.645-.447A3.212,3.212,0,0,1,.238.828C.21.743.186.657.165.571.148.5.188.458.255.47.273.473.291.5.3.521c.071.2.126.411.213.605a1.477,1.477,0,0,0,.676.75.883.883,0,0,0,.778.021.645.645,0,0,0,.361-.686A.62.62,0,0,0,2.131.831.422.422,0,0,0,1.848.719c-.075,0-.087.018-.072.09a1.018,1.018,0,0,1,.036.238.344.344,0,0,1-.4.344.367.367,0,0,1-.343-.367A.527.527,0,0,1,1.618.461a.84.84,0,0,1,.859.685,1.054,1.054,0,0,1,.016.4.18.18,0,0,0,.047.16c.124.143.241.291.362.437H2.92" transform="translate(0.001)" fill="#fff" stroke="#fff" stroke-width="0.3"/>
          </g>
        </g>
      </g>
      <path id="Path_122258" data-name="Path 122258" d="M-7.914,0h4.451V35.111H-7.455l-.38-20.157Z" transform="translate(26.572 0)" fill="#414a59"/>
      <rect id="Rectangle_13256" data-name="Rectangle 13256" width="13.913" height="2.003" transform="translate(13.821 2.694)" fill="#09f"/>
    </g>
  </g>
</svg>
