<svg xmlns="http://www.w3.org/2000/svg" width="28" height="28" viewBox="0 0 28 28">
  <g id="Group_182590" data-name="Group 182590" transform="translate(-921 -5699)">
    <g id="Group_165618" data-name="Group 165618" transform="translate(921 5699)">
      <circle id="Ellipse_10029" data-name="Ellipse 10029" cx="14" cy="14" r="14" fill="#13294b"/>
      <g id="Layer_12" transform="translate(3.235 4.389)">
        <g id="Group_6859" data-name="Group 6859" transform="translate(0 7.287)">
          <path id="Path_6102" data-name="Path 6102" d="M32.045,103.02a1.1,1.1,0,0,1-.053.2,1.339,1.339,0,0,1,1.266,1.36c0,.837-.711,1.339-2.019,1.485a1.664,1.664,0,0,0-.146-.314c1.088-.1,1.778-.481,1.778-1.161v-.042a1.014,1.014,0,0,0-.994-.994,3.983,3.983,0,0,1-1.046,1.537,1.185,1.185,0,0,0,.136.28l-.314.2a.868.868,0,0,1-.125-.261,1.674,1.674,0,0,1-.994.4.63.63,0,0,1-.638-.7,1.878,1.878,0,0,1,1.36-1.6c-.011-.272-.011-.575-.011-.878-.889,0-.981,0-1.151-.01l-.011-.345c.272.011.721.011,1.171.011,0-.24.01-.534.021-.784l.523.042a.149.149,0,0,1-.136.1c-.011.188-.021.439-.042.63a12.56,12.56,0,0,0,2.1-.22l.042.356a13.326,13.326,0,0,1-2.165.21c-.011.272-.021.534-.011.784a2.825,2.825,0,0,1,.784-.125h.21a1.978,1.978,0,0,0,.053-.24Zm-1.6,1.956a6.137,6.137,0,0,1-.157-1.224,1.464,1.464,0,0,0-1.014,1.191c0,.314.167.42.366.4a1.446,1.446,0,0,0,.805-.364Zm1.067-1.474a2.476,2.476,0,0,0-.889.125,5.961,5.961,0,0,0,.115,1.077,3.267,3.267,0,0,0,.775-1.2Z" transform="translate(-28.892 -101.396)" fill="#fff" stroke="#fff" stroke-width="0.2"/>
        </g>
        <g id="Group_6860" data-name="Group 6860" transform="translate(8.289 0)">
          <path id="Path_6103" data-name="Path 6103" d="M110.474,34.44h-1.663l-.324.868H108.1l1.339-3.608h.42l1.331,3.608H110.8Zm-.827-2.28-.721,1.977h1.444Z" transform="translate(-108.1 -31.7)" fill="#fff" stroke="#fff" stroke-width="0.2"/>
        </g>
        <g id="Group_6861" data-name="Group 6861" transform="translate(8.257 7.4)">
          <path id="Path_6104" data-name="Path 6104" d="M109.63,103.471a.672.672,0,0,0-.721-.69.684.684,0,0,0-.753.67h-.314a.962.962,0,0,1,1.067-.952.932.932,0,0,1,1.025.92.8.8,0,0,1-.659.816v.01a.926.926,0,0,1,.272.083H110.8v-1.778h1.067v.28h-.742v3.589H110.8v-1.8h-.952a.993.993,0,0,1-.9,1.527,1.051,1.051,0,0,1-1.15-1.046h.324a.753.753,0,0,0,.806.763.708.708,0,0,0,.763-.742.73.73,0,0,0-.2-.5h0v-.011a.822.822,0,0,0-.6-.22h-.2v-.28h.2a.661.661,0,0,0,.732-.64Z" transform="translate(-107.8 -102.493)" fill="#fff" stroke="#fff" stroke-width="0.2"/>
        </g>
        <g id="Group_6862" data-name="Group 6862" transform="translate(7.854 15.406)">
          <path id="Path_6105" data-name="Path 6105" d="M109.028,179.293h-.607v3.618h-.21a2.644,2.644,0,0,0-.167-.345,3.03,3.03,0,0,0-.2-.3,2.974,2.974,0,0,0-.24-.272,3.411,3.411,0,0,0-.28-.251,1.266,1.266,0,0,1-.439.324,1.568,1.568,0,0,1-.607.115,1.668,1.668,0,0,1-.7-.157,1.9,1.9,0,0,1-.63-.471,3.182,3.182,0,0,1-.513-.784,5.3,5.3,0,0,1-.366-1.088l.28-.167h.01a5.133,5.133,0,0,0,.377,1.056,3.3,3.3,0,0,0,.46.721,1.66,1.66,0,0,0,.523.408,1.38,1.38,0,0,0,.565.125,1.052,1.052,0,0,0,.408-.07.919.919,0,0,0,.314-.21.807.807,0,0,0,.2-.314,1.157,1.157,0,0,0,.07-.387,1,1,0,0,0-.063-.366.894.894,0,0,0-.167-.293.723.723,0,0,0-.251-.188.761.761,0,0,0-.3-.07l-.011.021a.791.791,0,0,1,.094.188.531.531,0,0,1,.032.178.491.491,0,0,1-.032.178.438.438,0,0,1-.094.146.741.741,0,0,1-.146.1.5.5,0,0,1-.188.042.425.425,0,0,1-.2-.042.437.437,0,0,1-.157-.115.455.455,0,0,1-.1-.167.467.467,0,0,1-.042-.21.61.61,0,0,1,.063-.272.55.55,0,0,1,.167-.21,1.575,1.575,0,0,0-.22-.24,2.16,2.16,0,0,0-.261-.2h-1.4V179h5.043v.293Zm-3.127,0a1.658,1.658,0,0,1,.136.136c.042.053.094.1.136.157l.125-.031a.6.6,0,0,1,.136-.011,1.131,1.131,0,0,1,.46.094,1.06,1.06,0,0,1,.377.261,1.339,1.339,0,0,1,.251.408,1.409,1.409,0,0,1,.094.523,1.7,1.7,0,0,1-.032.324,1.043,1.043,0,0,1-.1.3,3.657,3.657,0,0,1,.293.28c.094.1.188.21.28.324h.011V179.29Z" transform="translate(-103.991 -179)" fill="#fff" stroke="#fff" stroke-width="0.2"/>
        </g>
        <g id="Group_6863" data-name="Group 6863" transform="translate(16.472 6.442)">
          <path id="Path_6106" data-name="Path 6106" d="M190.234,98.163l.408-.23.136.314a1.077,1.077,0,0,1-.314.178.614.614,0,0,1-.261.053.28.28,0,0,1-.23-.094.378.378,0,0,1-.07-.251V97.023a1.261,1.261,0,0,1-.261.083,1.186,1.186,0,0,1-.261.032.981.981,0,0,1-.387-.07.841.841,0,0,1-.314-.24h-.011a1.26,1.26,0,0,1-.345.617.84.84,0,0,1-.607.21.921.921,0,0,1-.345-.063.962.962,0,0,1-.28-.167,1.312,1.312,0,0,1-.24-.28c-.07-.115-.136-.24-.21-.377h-.01a1.15,1.15,0,0,1-.324-.042l.053-.28a2.42,2.42,0,0,0,.251.021.886.886,0,0,0,.3-.042.79.79,0,0,0,.24-.136.745.745,0,0,0,.157-.23,1,1,0,0,0,.053-.324.987.987,0,0,0-.053-.314.581.581,0,0,0-.146-.23.6.6,0,0,0-.22-.136.859.859,0,0,0-.293-.053.429.429,0,0,0-.115.011.525.525,0,0,0-.125.021l-.063-.293a1.949,1.949,0,0,1,.335-.042,1.081,1.081,0,0,1,.429.083,1.017,1.017,0,0,1,.314.23.957.957,0,0,1,.188.335,1.248,1.248,0,0,1,.063.387,1.194,1.194,0,0,1-.053.345.91.91,0,0,1-.146.28.735.735,0,0,1-.23.21,1.257,1.257,0,0,1-.293.136,1.423,1.423,0,0,0,.324.471.586.586,0,0,0,.408.157.567.567,0,0,0,.261-.063.669.669,0,0,0,.23-.2,1.252,1.252,0,0,0,.157-.356,2.048,2.048,0,0,0,.063-.544v-.518h.324v.4a1.308,1.308,0,0,0,.053.377.623.623,0,0,0,.146.23.548.548,0,0,0,.2.115.8.8,0,0,0,.22.032.985.985,0,0,0,.544-.188V94.733h.324v3.432ZM188.623,93.3a2.064,2.064,0,0,1,.387.032,1.069,1.069,0,0,1,.293.094.873.873,0,0,1,.22.167,1.437,1.437,0,0,1,.178.24l.534.92-.293.115-.387-.763a1,1,0,0,0-.167-.23.65.65,0,0,0-.2-.146.882.882,0,0,0-.251-.07,2.6,2.6,0,0,0-.3-.021h-.6V93.3Z" transform="translate(-186.306 -93.3)" fill="#fff" stroke="#fff" stroke-width="0.2"/>
        </g>
      </g>
    </g>
  </g>
</svg>
