<svg xmlns="http://www.w3.org/2000/svg" width="60" height="60" viewBox="0 0 60 60">
  <g id="Group_182738" data-name="Group 182738" transform="translate(-459 -4445)">
    <circle id="Ellipse_2" data-name="Ellipse 2" cx="30" cy="30" r="30" transform="translate(459 4445)" fill="#01d27f"/>
    <g id="Group_165323" data-name="Group 165323" transform="translate(-7.355 -8.967)">
      <path id="Path_169762" data-name="Path 169762" d="M18.625,0A18.625,18.625,0,1,1,0,18.625,18.625,18.625,0,0,1,18.625,0Z" transform="translate(477.354 4464.967)" fill="#fff"/>
      <path id="Path_6102" data-name="Path 6102" d="M33.279,103.655a1.534,1.534,0,0,1-.073.277,1.862,1.862,0,0,1,1.761,1.891c0,1.164-.989,1.862-2.808,2.066a2.315,2.315,0,0,0-.2-.437c1.513-.145,2.473-.669,2.473-1.615v-.058a1.41,1.41,0,0,0-1.383-1.383,5.54,5.54,0,0,1-1.455,2.139,1.649,1.649,0,0,0,.189.39l-.437.277a1.208,1.208,0,0,1-.174-.363,2.329,2.329,0,0,1-1.383.553.877.877,0,0,1-.888-.974,2.612,2.612,0,0,1,1.891-2.226c-.015-.378-.015-.8-.015-1.222-1.236,0-1.364,0-1.6-.015l-.015-.48c.378.015,1,.015,1.629.015,0-.334.015-.742.029-1.091l.728.058a.208.208,0,0,1-.189.145c-.015.262-.029.611-.058.877a17.47,17.47,0,0,0,2.923-.306l.058.495a18.538,18.538,0,0,1-3.012.292c-.015.378-.029.742-.015,1.091a3.93,3.93,0,0,1,1.091-.174h.292a2.752,2.752,0,0,0,.073-.334Zm-2.226,2.72a8.537,8.537,0,0,1-.218-1.7,2.036,2.036,0,0,0-1.411,1.656c0,.436.233.585.51.552a2.012,2.012,0,0,0,1.121-.506Zm1.484-2.051a3.444,3.444,0,0,0-1.236.174,8.292,8.292,0,0,0,.16,1.5,4.545,4.545,0,0,0,1.078-1.674Z" transform="translate(452.661 4378.323)" fill="#01d27f" stroke="#01d27f" stroke-width="0.2"/>
      <path id="Path_6103" data-name="Path 6103" d="M111.4,35.512H109.09l-.451,1.207H108.1l1.862-5.019h.585l1.851,5.019h-.538Zm-1.15-3.172-1,2.75h2.008Z" transform="translate(384.984 4437.881)" fill="#01d27f" stroke="#01d27f" stroke-width="0.2"/>
      <path id="Path_6104" data-name="Path 6104" d="M110.346,103.853a.935.935,0,0,0-1-.96.951.951,0,0,0-1.047.931h-.437a1.338,1.338,0,0,1,1.484-1.324,1.3,1.3,0,0,1,1.426,1.28,1.106,1.106,0,0,1-.917,1.135v.015a1.288,1.288,0,0,1,.378.116h1.746v-2.473h1.484v.39h-1.033v4.993h-.451v-2.5h-1.324a1.382,1.382,0,0,1-1.251,2.124,1.462,1.462,0,0,1-1.6-1.455h.451a1.047,1.047,0,0,0,1.121,1.062.985.985,0,0,0,1.062-1.033,1.015,1.015,0,0,0-.277-.7h0v-.015a1.143,1.143,0,0,0-.829-.306h-.277v-.39h.277a.919.919,0,0,0,1.018-.891Z" transform="translate(385.241 4377.383)" fill="#01d27f" stroke="#01d27f" stroke-width="0.2"/>
      <path id="Path_6105" data-name="Path 6105" d="M111,179.407h-.844v5.034h-.292a3.678,3.678,0,0,0-.233-.48,4.219,4.219,0,0,0-.277-.422,4.135,4.135,0,0,0-.334-.378,4.751,4.751,0,0,0-.39-.349,1.762,1.762,0,0,1-.611.451,2.181,2.181,0,0,1-.844.16,2.32,2.32,0,0,1-.974-.218,2.65,2.65,0,0,1-.877-.655,4.426,4.426,0,0,1-.713-1.091,7.365,7.365,0,0,1-.51-1.513l.39-.233h.015a7.139,7.139,0,0,0,.524,1.469,4.6,4.6,0,0,0,.64,1,2.308,2.308,0,0,0,.728.567,1.92,1.92,0,0,0,.785.174,1.463,1.463,0,0,0,.567-.1,1.278,1.278,0,0,0,.436-.292,1.123,1.123,0,0,0,.277-.437,1.61,1.61,0,0,0,.1-.538,1.385,1.385,0,0,0-.088-.51,1.243,1.243,0,0,0-.233-.407,1.006,1.006,0,0,0-.349-.262,1.058,1.058,0,0,0-.422-.1l-.015.029a1.1,1.1,0,0,1,.131.262.739.739,0,0,1,.044.247.682.682,0,0,1-.044.247.61.61,0,0,1-.131.2,1.032,1.032,0,0,1-.2.145.7.7,0,0,1-.262.058.591.591,0,0,1-.277-.059.608.608,0,0,1-.218-.16.633.633,0,0,1-.145-.233.65.65,0,0,1-.058-.292.849.849,0,0,1,.088-.378.765.765,0,0,1,.233-.292,2.194,2.194,0,0,0-.306-.334,3,3,0,0,0-.363-.277h-1.949V179h7.016v.407Zm-4.351,0a2.3,2.3,0,0,1,.189.189c.058.073.131.145.189.218l.174-.044a.83.83,0,0,1,.189-.015,1.574,1.574,0,0,1,.64.131,1.475,1.475,0,0,1,.524.363,1.862,1.862,0,0,1,.349.567,1.96,1.96,0,0,1,.131.728,2.372,2.372,0,0,1-.044.451,1.452,1.452,0,0,1-.145.422,5.1,5.1,0,0,1,.407.39c.131.145.262.292.39.451h.015V179.4Z" transform="translate(388.488 4312.013)" fill="#01d27f" stroke="#01d27f" stroke-width="0.2"/>
      <path id="Path_6106" data-name="Path 6106" d="M191.77,100.065l.567-.32.189.437a1.5,1.5,0,0,1-.436.247.854.854,0,0,1-.363.073.39.39,0,0,1-.321-.131.525.525,0,0,1-.1-.349V98.48a1.756,1.756,0,0,1-.363.116,1.65,1.65,0,0,1-.363.044,1.364,1.364,0,0,1-.538-.1,1.17,1.17,0,0,1-.437-.334h-.015a1.754,1.754,0,0,1-.48.858,1.169,1.169,0,0,1-.844.292,1.281,1.281,0,0,1-.48-.088,1.337,1.337,0,0,1-.39-.233,1.824,1.824,0,0,1-.334-.39c-.1-.16-.189-.334-.292-.524h-.015a1.6,1.6,0,0,1-.451-.058l.073-.39a3.379,3.379,0,0,0,.349.029,1.233,1.233,0,0,0,.422-.058,1.1,1.1,0,0,0,.334-.189,1.036,1.036,0,0,0,.218-.321,1.394,1.394,0,0,0,.073-.451,1.372,1.372,0,0,0-.073-.437.808.808,0,0,0-.2-.32.831.831,0,0,0-.306-.189,1.2,1.2,0,0,0-.407-.073.6.6,0,0,0-.16.015.73.73,0,0,0-.174.029l-.088-.407a2.71,2.71,0,0,1,.466-.058,1.5,1.5,0,0,1,.6.116,1.414,1.414,0,0,1,.437.321,1.331,1.331,0,0,1,.262.466,1.737,1.737,0,0,1,.088.538,1.661,1.661,0,0,1-.073.48,1.266,1.266,0,0,1-.2.39,1.023,1.023,0,0,1-.32.292,1.749,1.749,0,0,1-.407.189,1.979,1.979,0,0,0,.451.655.815.815,0,0,0,.567.218.789.789,0,0,0,.363-.088.931.931,0,0,0,.321-.277,1.741,1.741,0,0,0,.218-.495,2.848,2.848,0,0,0,.088-.756v-.721h.451v.552a1.819,1.819,0,0,0,.073.524.867.867,0,0,0,.2.321.763.763,0,0,0,.277.16,1.107,1.107,0,0,0,.306.044,1.37,1.37,0,0,0,.756-.262V95.294h.451v4.774ZM189.529,93.3a2.871,2.871,0,0,1,.538.044,1.488,1.488,0,0,1,.407.131,1.215,1.215,0,0,1,.306.233,2,2,0,0,1,.247.334l.742,1.28-.407.16-.538-1.062a1.4,1.4,0,0,0-.233-.321.9.9,0,0,0-.277-.2,1.227,1.227,0,0,0-.349-.1,3.617,3.617,0,0,0-.422-.029h-.829V93.3Z" transform="translate(318.162 4385.244)" fill="#01d27f" stroke="#01d27f" stroke-width="0.2"/>
    </g>
  </g>
</svg>
