<svg xmlns="http://www.w3.org/2000/svg" width="100" height="100" viewBox="0 0 100 100">
  <g id="Group_171356" data-name="Group 171356" transform="translate(-588 -369)">
    <circle id="Ellipse_927" data-name="Ellipse 927" cx="50" cy="50" r="50" transform="translate(588 369)" fill="#13294b" opacity="0.05"/>
    <g id="Group_165618" data-name="Group 165618" transform="translate(-80.449 -1.449)">
      <circle id="Ellipse_10029" data-name="Ellipse 10029" cx="28" cy="28" r="28" transform="translate(690.449 392.449)" fill="#13294b"/>
      <g id="Layer_12" transform="translate(696.92 401.227)">
        <g id="Group_6859" data-name="Group 6859" transform="translate(0 14.575)">
          <path id="Path_6102" data-name="Path 6102" d="M35.2,104.643a2.206,2.206,0,0,1-.105.4,2.677,2.677,0,0,1,2.531,2.719c0,1.674-1.422,2.677-4.037,2.97a3.328,3.328,0,0,0-.293-.628c2.176-.209,3.555-.962,3.555-2.321V107.7a2.027,2.027,0,0,0-1.988-1.988,7.965,7.965,0,0,1-2.092,3.075,2.37,2.37,0,0,0,.272.56l-.628.4a1.736,1.736,0,0,1-.251-.523,3.348,3.348,0,0,1-1.988.794,1.261,1.261,0,0,1-1.276-1.4,3.756,3.756,0,0,1,2.719-3.2c-.021-.544-.021-1.15-.021-1.757-1.778,0-1.961,0-2.3-.021l-.021-.691c.544.021,1.443.021,2.342.021,0-.481.021-1.067.042-1.569l1.046.084a.3.3,0,0,1-.272.209c-.021.377-.042.878-.084,1.261a25.12,25.12,0,0,0,4.2-.44l.084.712a26.652,26.652,0,0,1-4.33.42c-.021.544-.042,1.067-.021,1.569a5.651,5.651,0,0,1,1.569-.251h.42a3.956,3.956,0,0,0,.105-.48ZM32,108.554a12.274,12.274,0,0,1-.314-2.447,2.928,2.928,0,0,0-2.028,2.381c0,.628.335.841.733.794A2.893,2.893,0,0,0,32,108.556Zm2.134-2.949a4.952,4.952,0,0,0-1.778.251,11.922,11.922,0,0,0,.23,2.155,6.534,6.534,0,0,0,1.549-2.407Z" transform="translate(-28.892 -101.396)" fill="#fff" stroke="#fff" stroke-width="0.2"/>
        </g>
        <g id="Group_6860" data-name="Group 6860" transform="translate(16.577 0)">
          <path id="Path_6103" data-name="Path 6103" d="M112.849,37.18h-3.326l-.649,1.736H108.1l2.677-7.216h.84l2.662,7.216h-.773ZM111.2,32.62l-1.443,3.953h2.887Z" transform="translate(-108.1 -31.7)" fill="#fff" stroke="#fff" stroke-width="0.2"/>
        </g>
        <g id="Group_6861" data-name="Group 6861" transform="translate(16.514 14.8)">
          <path id="Path_6104" data-name="Path 6104" d="M111.46,104.449a1.345,1.345,0,0,0-1.443-1.38,1.367,1.367,0,0,0-1.506,1.339h-.628a1.923,1.923,0,0,1,2.134-1.9,1.863,1.863,0,0,1,2.049,1.841,1.59,1.59,0,0,1-1.318,1.632V106a1.852,1.852,0,0,1,.544.167h2.51v-3.555h2.134v.56h-1.485v7.178H113.8v-3.6h-1.9a1.986,1.986,0,0,1-1.8,3.054,2.1,2.1,0,0,1-2.3-2.091h.649a1.506,1.506,0,0,0,1.611,1.527,1.416,1.416,0,0,0,1.527-1.485,1.459,1.459,0,0,0-.4-1h0v-.021a1.643,1.643,0,0,0-1.192-.44h-.4v-.56h.4a1.321,1.321,0,0,0,1.464-1.28Z" transform="translate(-107.8 -102.493)" fill="#fff" stroke="#fff" stroke-width="0.2"/>
        </g>
        <g id="Group_6862" data-name="Group 6862" transform="translate(15.707 30.812)">
          <path id="Path_6105" data-name="Path 6105" d="M114.065,179.586h-1.213v7.237h-.42a5.286,5.286,0,0,0-.335-.691,6.062,6.062,0,0,0-.4-.607,5.948,5.948,0,0,0-.48-.544,6.824,6.824,0,0,0-.56-.5,2.532,2.532,0,0,1-.878.649,3.136,3.136,0,0,1-1.213.23,3.336,3.336,0,0,1-1.4-.314,3.81,3.81,0,0,1-1.261-.942,6.363,6.363,0,0,1-1.025-1.569,10.591,10.591,0,0,1-.733-2.175l.56-.335h.021a10.265,10.265,0,0,0,.754,2.112,6.609,6.609,0,0,0,.92,1.443,3.319,3.319,0,0,0,1.046.815,2.76,2.76,0,0,0,1.129.251,2.1,2.1,0,0,0,.815-.14,1.837,1.837,0,0,0,.628-.42,1.614,1.614,0,0,0,.4-.628,2.314,2.314,0,0,0,.14-.773,1.991,1.991,0,0,0-.126-.733,1.788,1.788,0,0,0-.335-.586,1.446,1.446,0,0,0-.5-.377,1.521,1.521,0,0,0-.607-.14l-.021.042a1.581,1.581,0,0,1,.188.377,1.063,1.063,0,0,1,.063.356.981.981,0,0,1-.063.356.876.876,0,0,1-.188.293,1.483,1.483,0,0,1-.293.209,1,1,0,0,1-.377.084.849.849,0,0,1-.4-.084.875.875,0,0,1-.314-.23.91.91,0,0,1-.209-.335.935.935,0,0,1-.084-.42,1.221,1.221,0,0,1,.126-.544,1.1,1.1,0,0,1,.335-.42,3.151,3.151,0,0,0-.44-.481,4.32,4.32,0,0,0-.523-.4h-2.8V179h10.086v.586Zm-6.255,0a3.313,3.313,0,0,1,.272.272c.084.105.188.209.272.314l.251-.063a1.194,1.194,0,0,1,.272-.021,2.263,2.263,0,0,1,.92.188,2.121,2.121,0,0,1,.754.522,2.678,2.678,0,0,1,.5.815,2.818,2.818,0,0,1,.188,1.046,3.409,3.409,0,0,1-.063.649,2.087,2.087,0,0,1-.209.607,7.32,7.32,0,0,1,.586.56c.188.209.377.42.56.648h.021V179.58Z" transform="translate(-103.991 -179)" fill="#fff" stroke="#fff" stroke-width="0.2"/>
        </g>
        <g id="Group_6863" data-name="Group 6863" transform="translate(32.944 12.885)">
          <path id="Path_6106" data-name="Path 6106" d="M194.162,103.026l.815-.459.272.628a2.153,2.153,0,0,1-.628.356,1.228,1.228,0,0,1-.523.105.56.56,0,0,1-.461-.188.755.755,0,0,1-.14-.5v-2.219a2.523,2.523,0,0,1-.523.167,2.372,2.372,0,0,1-.523.063,1.961,1.961,0,0,1-.773-.14,1.681,1.681,0,0,1-.628-.48h-.021a2.521,2.521,0,0,1-.691,1.234,1.681,1.681,0,0,1-1.213.42,1.841,1.841,0,0,1-.691-.126,1.923,1.923,0,0,1-.56-.335,2.623,2.623,0,0,1-.48-.56c-.14-.23-.272-.481-.42-.754h-.021a2.3,2.3,0,0,1-.649-.084l.105-.56a4.848,4.848,0,0,0,.5.042,1.773,1.773,0,0,0,.607-.084,1.579,1.579,0,0,0,.481-.272,1.489,1.489,0,0,0,.314-.461,2,2,0,0,0,.105-.649,1.973,1.973,0,0,0-.105-.628,1.161,1.161,0,0,0-.293-.459,1.194,1.194,0,0,0-.44-.272A1.718,1.718,0,0,0,187,96.7a.857.857,0,0,0-.23.021,1.049,1.049,0,0,0-.251.042l-.126-.586a3.9,3.9,0,0,1,.67-.084,2.162,2.162,0,0,1,.857.167,2.033,2.033,0,0,1,.628.461,1.914,1.914,0,0,1,.377.67,2.5,2.5,0,0,1,.126.773,2.389,2.389,0,0,1-.105.691,1.82,1.82,0,0,1-.293.56,1.47,1.47,0,0,1-.459.42,2.514,2.514,0,0,1-.586.272,2.846,2.846,0,0,0,.649.941,1.172,1.172,0,0,0,.815.314,1.134,1.134,0,0,0,.522-.126,1.338,1.338,0,0,0,.461-.4,2.5,2.5,0,0,0,.314-.712,4.1,4.1,0,0,0,.126-1.087V98.007h.648V98.8a2.615,2.615,0,0,0,.105.754,1.247,1.247,0,0,0,.293.461,1.1,1.1,0,0,0,.4.23,1.592,1.592,0,0,0,.44.063,1.969,1.969,0,0,0,1.087-.377V96.166h.649v6.864ZM190.94,93.3a4.128,4.128,0,0,1,.773.063,2.139,2.139,0,0,1,.586.188,1.745,1.745,0,0,1,.44.335,2.874,2.874,0,0,1,.356.481l1.067,1.841-.586.23L192.8,94.91a2.009,2.009,0,0,0-.335-.461,1.3,1.3,0,0,0-.4-.293,1.764,1.764,0,0,0-.5-.14,5.2,5.2,0,0,0-.607-.042H189.77V93.3Z" transform="translate(-186.306 -93.3)" fill="#fff" stroke="#fff" stroke-width="0.2"/>
        </g>
      </g>
    </g>
  </g>
</svg>
