<svg xmlns="http://www.w3.org/2000/svg" width="30.948" height="17.685" viewBox="0 0 30.948 17.685">
  <g id="Group_182589" data-name="Group 182589" transform="translate(-441.967 -5705.5)">
    <g id="Group_182588" data-name="Group 182588" transform="translate(441.967 5705.5)">
      <path id="Path_122282" data-name="Path 122282" d="M31.56,10.8a1.18,1.18,0,0,0-.642.187l-5.976,3.772a.591.591,0,0,0-.276.5v5.25a.591.591,0,0,0,.276.5l5.976,3.772a1.242,1.242,0,0,0,.642.187H33a.588.588,0,0,0,.594-.587V11.387A.593.593,0,0,0,33,10.8Z" transform="translate(-2.642 -9.032)" fill="#13294b"/>
      <path id="Path_122283" data-name="Path 122283" d="M18.933,26.685H5.808A3.569,3.569,0,0,1,2.25,23.134V12.551A3.563,3.563,0,0,1,5.8,9H18.926a3.563,3.563,0,0,1,3.551,3.551V23.127A3.554,3.554,0,0,1,18.933,26.685Z" transform="translate(-2.25 -9)" fill="#13294b"/>
    </g>
  </g>
</svg>
