<svg xmlns="http://www.w3.org/2000/svg" xmlns:xlink="http://www.w3.org/1999/xlink" width="100" height="100" viewBox="0 0 100 100">
  <defs>
    <clipPath id="clip-path">
      <rect id="Rectangle_13236" data-name="Rectangle 13236" width="5.01" height="3.851" fill="none" stroke="#fff" stroke-width="0.3"/>
    </clipPath>
  </defs>
  <g id="Group_171356" data-name="Group 171356" transform="translate(-588 -369)">
    <circle id="Ellipse_927" data-name="Ellipse 927" cx="50" cy="50" r="50" transform="translate(588 369)" fill="#13294b" opacity="0.05"/>
    <g id="Group_165442" data-name="Group 165442" transform="translate(364 -5822)">
      <path id="Path_122259" data-name="Path 122259" d="M-12.758-12.217C-4.125-12.217,3.11-4.7,3.11,3.374A16.018,16.018,0,0,1-12.758,19.436,15.582,15.582,0,0,1-28.379,3.374C-28.584-5.434-20.835-12.217-12.758-12.217Z" transform="translate(283.383 6245.564)" fill="#414a59"/>
      <g id="Group_115047" data-name="Group 115047" transform="translate(258.732 6237.169)">
        <path id="Union_77" data-name="Union 77" d="M6.784,22.4a23.949,23.949,0,0,1-2.953-2.081,9.173,9.173,0,0,1-1.725-2.013,9.859,9.859,0,0,1-.907-1.49A12.048,12.048,0,1,1,6.784,22.4Z" transform="translate(0.008 0.485)" fill="#00a9ee"/>
        <path id="Path_122123" data-name="Path 122123" d="M.966-7.1q.042.132.1.287A3.179,3.179,0,0,0,1.2-6.5a2.836,2.836,0,0,0,.174.306,1.376,1.376,0,0,0,.221.263,1.036,1.036,0,0,0,.275.183A.8.8,0,0,0,2.2-5.68a.791.791,0,0,0,.308-.053.528.528,0,0,0,.318-.352.9.9,0,0,0,.035-.252.539.539,0,0,0-.208-.45.965.965,0,0,0-.6-.162l-.1,0-.1.008v-.426l.041,0h.021A1.138,1.138,0,0,0,2.27-7.41a.781.781,0,0,0,.256-.133.56.56,0,0,0,.157-.2.541.541,0,0,0,.053-.235.478.478,0,0,0-.039-.2.42.42,0,0,0-.106-.145.443.443,0,0,0-.159-.088.661.661,0,0,0-.2-.029,1.049,1.049,0,0,0-.145.01,1.239,1.239,0,0,0-.148.031,1.718,1.718,0,0,0-.167.054q-.088.034-.2.084l-.159-.383a2.388,2.388,0,0,1,.42-.161,1.566,1.566,0,0,1,.411-.055,1.057,1.057,0,0,1,.373.064.907.907,0,0,1,.3.178.8.8,0,0,1,.194.27A.821.821,0,0,1,3.176-8,.921.921,0,0,1,2.7-7.2v.011a1.076,1.076,0,0,1,.313.193q.081.014.172.022t.166.008a1.291,1.291,0,0,0,.165-.011.922.922,0,0,0,.178-.042A.965.965,0,0,0,3.877-7.1a1.1,1.1,0,0,0,.188-.145V-8.8H5.111v.411H4.524v3.377H4.065V-6.754l-.011,0a.95.95,0,0,1-.3.14,1.23,1.23,0,0,1-.288.034q-.048,0-.1,0l-.1-.01,0,.011a.781.781,0,0,1,.045.282,1.141,1.141,0,0,1-.075.42.963.963,0,0,1-.217.334.982.982,0,0,1-.341.22,1.222,1.222,0,0,1-.449.078,1.184,1.184,0,0,1-.48-.094,1.523,1.523,0,0,1-.385-.242,1.765,1.765,0,0,1-.3-.334A2.944,2.944,0,0,1,.837-6.3a3.147,3.147,0,0,1-.151-.357Q.628-6.821.6-6.933Z" transform="translate(8.935 19.371)" fill="#fff" stroke="#fff" stroke-linecap="round" stroke-width="0.3"/>
        <path id="Path_122130" data-name="Path 122130" d="M4.127-15.762l.3-.214.152.358a1.267,1.267,0,0,1-.268.13.768.768,0,0,1-.246.047.251.251,0,0,1-.208-.089.382.382,0,0,1-.071-.245v-.81a1.26,1.26,0,0,1-.2.048,1.3,1.3,0,0,1-.21.017.712.712,0,0,1-.3-.061.688.688,0,0,1-.234-.172h0a.935.935,0,0,1-.3.5.785.785,0,0,1-.507.168.818.818,0,0,1-.286-.049.844.844,0,0,1-.246-.143,1.173,1.173,0,0,1-.21-.232,2.363,2.363,0,0,1-.183-.314q-.077,0-.145-.007T.84-16.846l.04-.314a.946.946,0,0,0,.133.012l.146,0a.56.56,0,0,0,.217-.041.484.484,0,0,0,.167-.112.507.507,0,0,0,.106-.168.561.561,0,0,0,.038-.206.631.631,0,0,0-.036-.22.474.474,0,0,0-.105-.168.456.456,0,0,0-.163-.107.584.584,0,0,0-.213-.038q-.06,0-.118,0a.666.666,0,0,0-.105.013L.89-18.5a.735.735,0,0,1,.125-.023q.064-.006.131-.006a.932.932,0,0,1,.393.076.772.772,0,0,1,.269.2.808.808,0,0,1,.155.281,1.055,1.055,0,0,1,.05.322.867.867,0,0,1-.041.268.809.809,0,0,1-.113.227.793.793,0,0,1-.175.175.782.782,0,0,1-.225.114,1.121,1.121,0,0,0,.245.339.458.458,0,0,0,.313.116.478.478,0,0,0,.211-.048.455.455,0,0,0,.174-.156.85.85,0,0,0,.118-.282,1.825,1.825,0,0,0,.043-.428v-.441h.342v.358a.712.712,0,0,0,.043.268.511.511,0,0,0,.111.174.394.394,0,0,0,.149.095.491.491,0,0,0,.159.028.723.723,0,0,0,.223-.032.711.711,0,0,0,.194-.1v-1.505h.341ZM2.772-19.69a1.8,1.8,0,0,1,.337.028.941.941,0,0,1,.256.085.735.735,0,0,1,.193.143.979.979,0,0,1,.147.2l.423.756-.281.123-.312-.623a.662.662,0,0,0-.131-.184.6.6,0,0,0-.169-.114.765.765,0,0,0-.207-.059,1.687,1.687,0,0,0-.245-.017H2.3v-.337Z" transform="translate(16.736 30.05)" fill="#fff" stroke="#fff" stroke-width="0.9"/>
        <path id="Path_122128" data-name="Path 122128" d="M76.033,240.685c0-.009.1-.156.1-.156l-.565-.241s-.081.182-.107.174a2.422,2.422,0,0,0-.914.018c0-.206.009-.394.018-.565l1.973.009v-.538l-1.928-.009a5.285,5.285,0,0,1,.107-.533l-.52-.107a5.256,5.256,0,0,0-.125.65H72.639v.538h1.387c-.018.215-.018.466-.018.726a2.508,2.508,0,0,0-.547.3,1.608,1.608,0,0,0-.681,1.066,1.162,1.162,0,0,0,1.165,1.29,1.3,1.3,0,0,0,.771-.251,4.17,4.17,0,0,0,1.138-1.819.908.908,0,0,1,.116.143c.349.565.081.9-.4,1.38l-.09.09.377.377.081-.081a1.514,1.514,0,0,0,.484-2.042,1.091,1.091,0,0,0-.385-.422Zm-2.58,1.846a.6.6,0,0,1-.143-.466,1.11,1.11,0,0,1,.466-.7,2.331,2.331,0,0,1,.251-.152,6.67,6.67,0,0,0,.278,1.451A.673.673,0,0,1,73.452,242.53Zm1.29-.287a6.6,6.6,0,0,1-.188-1.218,2.391,2.391,0,0,1,.492-.063,1.679,1.679,0,0,1,.3.027h.018A5.3,5.3,0,0,1,74.743,242.244Zm0,0" transform="translate(-70.157 -228.584)" fill="#fff"/>
        <path id="Path_122131" data-name="Path 122131" d="M3.651-10.139h-.5l-.409-1.082H1.1L.719-10.139h-.5L1.7-14h.469ZM2.593-11.628l-.606-1.645a1.575,1.575,0,0,1-.059-.259H1.917a1.442,1.442,0,0,1-.062.259l-.6,1.645Z" transform="translate(9.928 17.082)" fill="#fff" stroke="#fff" stroke-width="0.3"/>
        <g id="Group_114885" data-name="Group 114885" transform="translate(9.369 17.879)">
          <g id="Group_114884" data-name="Group 114884" clip-path="url(#clip-path)">
            <path id="Path_122132" data-name="Path 122132" d="M3.977,2.92V2.139q0-.825,0-1.65c0-.121,0-.121-.118-.121H.127C0,.368,0,.368,0,.243,0,0,0,0,.24,0H4.876C5.01,0,5.01,0,5.01.135c0,.233,0,.233-.23.233H4.508c-.126,0-.126,0-.126.122V1.859q0,.94,0,1.879c0,.043.022.1-.055.11s-.115-.007-.138-.087A1.97,1.97,0,0,0,3.38,2.69c-.093-.065-.09-.058-.159.028a2.264,2.264,0,0,1-.31.348,1.028,1.028,0,0,1-.95.164,1.685,1.685,0,0,1-.879-.609A4.375,4.375,0,0,1,.324,1.128C.287,1.013.254.9.225.777.2.686.257.623.348.64.372.645.4.683.406.71c.1.275.171.56.29.825a2.012,2.012,0,0,0,.921,1.022,1.2,1.2,0,0,0,1.06.029.879.879,0,0,0,.491-.935A.844.844,0,0,0,2.9,1.132.574.574,0,0,0,2.517.979c-.1,0-.118.024-.1.123a1.386,1.386,0,0,1,.049.324.469.469,0,0,1-.547.469.5.5,0,0,1-.468-.5A.717.717,0,0,1,2.2.628a1.144,1.144,0,0,1,1.17.933,1.435,1.435,0,0,1,.022.548.245.245,0,0,0,.064.217c.168.194.329.4.493.595h.025" transform="translate(0.001)" fill="#fff" stroke="#fff" stroke-width="0.3"/>
          </g>
        </g>
      </g>
      <path id="Path_122258" data-name="Path 122258" d="M-7.914,0h6.063V47.827H-7.288L-7.806,20.37Z" transform="translate(288.327 6217)" fill="#414a59"/>
      <rect id="Rectangle_13256" data-name="Rectangle 13256" width="18.952" height="2.728" transform="translate(273.825 6220.67)" fill="#09f"/>
    </g>
  </g>
</svg>
