<svg xmlns="http://www.w3.org/2000/svg" width="54.5" height="54.552" viewBox="0 0 54.5 54.552">
  <path id="Subtraction_1638" data-name="Subtraction 1638" d="M-3783.333,54.052h-33.855a10.241,10.241,0,0,1-7.287-3.024,10.238,10.238,0,0,1-3.024-7.288V39.447a1.344,1.344,0,0,1,.393-.947,1.34,1.34,0,0,1,.947-.392h7.31V6.662A7.171,7.171,0,0,1-3811.687-.5h17.051c.035,0,.069.007.1.009.064,0,.155.006.3.01.224.005.556.01,1.046.015.87.009,2.035.016,3.468.025h.1c3.964.026,10.6.069,11.337.192h.006A7.181,7.181,0,0,1-3773,6.662V43.433a10.493,10.493,0,0,1-9.627,10.6C-3782.862,54.044-3783.1,54.052-3783.333,54.052Zm-28.354-51.873a4.45,4.45,0,0,0-3.169,1.315,4.45,4.45,0,0,0-1.316,3.169V38.108h23.89a1.34,1.34,0,0,1,1.339,1.339V43.74a7.561,7.561,0,0,0,2.415,5.571,7.6,7.6,0,0,0,5.185,2.062h.046c.163,0,.33-.006.5-.016a7.81,7.81,0,0,0,7.123-7.923V6.662a4.49,4.49,0,0,0-4.486-4.484Zm-13.134,39.358v2.2a7.641,7.641,0,0,0,7.633,7.633h26.772l-.964-1.216a10.379,10.379,0,0,1-2.241-6.417V40.787h-30.45v.75Zm40.883-14.718h-25.478a1.013,1.013,0,0,1-.879-1.087,1.013,1.013,0,0,1,.879-1.087h25.478a1.013,1.013,0,0,1,.878,1.087A1.013,1.013,0,0,1-3783.939,26.818Zm0-10.37h-25.479a.786.786,0,0,1-.589-.285,1.2,1.2,0,0,1-.289-.8,1,1,0,0,1,.878-1.087h25.479a1,1,0,0,1,.876,1.087A1,1,0,0,1-3783.938,16.449Z" transform="translate(3827.5 0.5)" fill="#13294b"/>
</svg>
