<svg xmlns="http://www.w3.org/2000/svg" width="56.977" height="58.989" viewBox="0 0 56.977 58.989">
  <g id="Group_85798" data-name="Group 85798" transform="translate(-5.009 -5.368)">
    <g id="Group_85797" data-name="Group 85797" transform="translate(6.259 5.368)">
      <g id="Group_85799" data-name="Group 85799" transform="translate(0 0)">
        <path id="Path_160444" data-name="Path 160444" d="M8.893,17.8A28.34,28.34,0,0,1,23.81,13.76,28.48,28.48,0,0,1,38.7,17.767c3.878,2.429,6.821,6.033,6.821,10.259a7.615,7.615,0,0,1-2.145,5.4,12.486,12.486,0,0,1-5.088,3.008c-3.914,1.332-9.106,1.743-14.476,1.743-5.337,0-10.526-.4-14.445-1.71a12.5,12.5,0,0,1-5.1-2.983,7.574,7.574,0,0,1-2.161-5.4c0-4.219,2.918-7.838,6.792-10.285Z" transform="translate(-2.1 19.56)" fill="none" stroke="#002333" stroke-width="2.5" fill-rule="evenodd"/>
        <g id="Ellipse_10001" data-name="Ellipse 10001" transform="translate(7.851)" fill="none" stroke="#002333" stroke-width="2.5">
          <circle cx="14.274" cy="14.274" r="14.274" stroke="none"/>
          <circle cx="14.274" cy="14.274" r="13.024" fill="none"/>
        </g>
        <rect id="Rectangle_13442" data-name="Rectangle 13442" width="2" height="14" rx="1" transform="translate(47.727 18.801)" fill="#002333"/>
        <rect id="Rectangle_13443" data-name="Rectangle 13443" width="2" height="14" rx="1" transform="translate(41.727 26.801) rotate(-90)" fill="#002333"/>
      </g>
    </g>
  </g>
</svg>
