<svg xmlns="http://www.w3.org/2000/svg" width="61.951" height="46.502" viewBox="0 0 61.951 46.502">
  <path id="Union_178" data-name="Union 178" d="M-3828,44a1,1,0,0,1-1-1v-.594a1,1,0,0,1,1-1h59.451a1,1,0,0,1,1,1V43a1,1,0,0,1-1,1Zm7.43-4.675a5.334,5.334,0,0,1-5.276-5.39V3.39A5.334,5.334,0,0,1-3820.57-2h43.968a5.334,5.334,0,0,1,5.276,5.39V33.937a5.334,5.334,0,0,1-5.276,5.39Zm43.968-2.7a2.67,2.67,0,0,0,2.638-2.695V19.961h-22.47V36.632h4.645c.035-4.441,3.158-8.046,6.989-8.05h0a6.534,6.534,0,0,1,4.934,2.391,8.835,8.835,0,0,1,2.006,5.659Zm-21.641,0V19.961h-24.966V33.937a2.67,2.67,0,0,0,2.638,2.695h1.788c.036-4.441,3.158-8.046,6.989-8.05h0a6.534,6.534,0,0,1,4.934,2.391,8.833,8.833,0,0,1,2.006,5.659Zm13.447-7.826h0Zm-26.993,0h0Zm37.825-10.693V3.39a2.671,2.671,0,0,0-2.638-2.7h-19.832V18.113h4.647c0-.006,0-.012,0-.018v-.016a7.084,7.084,0,0,1,6.989-7.14h0a6.914,6.914,0,0,1,4.924,2.093,7.219,7.219,0,0,1,2.015,5.049v.014c0,.006,0,.012,0,.018Zm-24.279,0V.695h-22.328a2.671,2.671,0,0,0-2.638,2.7V18.113h4.431c0-.015,0-.029,0-.044v-.015a7.085,7.085,0,0,1,6.99-7.141h0a6.919,6.919,0,0,1,4.924,2.094,7.219,7.219,0,0,1,2.015,5.049v.013c0,.015,0,.03,0,.044Zm9.555,6.732a3.484,3.484,0,0,1,3.442-3.516,3.483,3.483,0,0,1,3.441,3.516,3.483,3.483,0,0,1-3.441,3.516A3.484,3.484,0,0,1-3788.687,24.845Zm-26.547,0a3.483,3.483,0,0,1,3.442-3.516,3.483,3.483,0,0,1,3.441,3.516,3.483,3.483,0,0,1-3.441,3.516A3.483,3.483,0,0,1-3815.235,24.845ZM-3788.687,7.2a3.484,3.484,0,0,1,3.442-3.516A3.483,3.483,0,0,1-3781.8,7.2a3.483,3.483,0,0,1-3.441,3.516A3.484,3.484,0,0,1-3788.687,7.2Zm-26.547-.026a3.483,3.483,0,0,1,3.442-3.516,3.483,3.483,0,0,1,3.441,3.516,3.484,3.484,0,0,1-3.441,3.517A3.484,3.484,0,0,1-3815.235,7.176Z" transform="translate(3829.25 2.25)" fill="#13294b" stroke="#fff" stroke-width="0.5"/>
</svg>
