<svg id="chat_active" xmlns="http://www.w3.org/2000/svg" width="56.586" height="56.586" viewBox="0 0 56.586 56.586">
  <g id="Layer_2_copy">
    <g id="Group_6858" data-name="Group 6858">
      <g id="Path_6101" data-name="Path 6101" fill="none">
        <path d="M56.586,28.293a28.291,28.291,0,0,1-28.3,28.293c-5.7,0-14.321-3.912-14.321-3.912L.111,56.431,4.664,43.677S0,35.366,0,28.293a28.293,28.293,0,0,1,56.586,0Z" stroke="none"/>
        <path d="M 28.29321479797363 1.999996185302734 C 24.74277496337891 1.999996185302734 21.29959487915039 2.694904327392578 18.059326171875 4.065425872802734 C 14.92858505249023 5.389614105224609 12.11647415161133 7.285736083984375 9.701103210449219 9.701095581054688 C 7.285736083984375 12.1164665222168 5.389614105224609 14.9285774230957 4.065425872802734 18.0593147277832 C 2.694904327392578 21.29959487915039 1.999996185302734 24.74277496337891 1.999996185302734 28.29321479797363 C 1.999996185302734 34.74692535400391 6.365005493164062 42.61996459960938 6.408523559570312 42.69771575927734 L 6.854133605957031 43.49163436889648 L 3.281276702880859 53.49936676025391 L 14.14093399047852 50.55534362792969 L 14.79621505737305 50.85271453857422 C 14.8168830871582 50.86209487915039 16.89459609985352 51.80141448974609 19.6384162902832 52.73726654052734 C 23.18520355224609 53.94699478149414 26.17696571350098 54.58642578125 28.29025459289551 54.58642578125 L 28.29628562927246 54.58642578125 C 31.84595489501953 54.58642578125 35.28848266601562 53.89155578613281 38.52825546264648 52.52112579345703 C 41.65862274169922 51.19698715209961 44.47043609619141 49.30093383789062 46.88559341430664 46.88565444946289 C 49.30083465576172 44.47028350830078 51.19686508178711 41.65818786621094 52.52100372314453 38.52745819091797 C 53.89151382446289 35.28709411621094 54.58642578125 31.84379577636719 54.58642578125 28.29321479797363 C 54.58642578125 24.74277496337891 53.89151382446289 21.29959487915039 52.52099609375 18.059326171875 C 51.19680404663086 14.92858505249023 49.30069351196289 12.11647415161133 46.88532257080078 9.701107025146484 C 44.46995544433594 7.285736083984375 41.65784454345703 5.389614105224609 38.52710723876953 4.065425872802734 C 35.28683471679688 2.694904327392578 31.84365463256836 1.999996185302734 28.29321479797363 1.999996185302734 M 28.29321479797363 -3.814697265625e-06 C 43.91912460327148 -3.814697265625e-06 56.58642578125 12.66730499267578 56.58642578125 28.29321479797363 C 56.58642578125 43.91990280151367 43.91892242431641 56.58642578125 28.29628562927246 56.58642578125 C 28.29342460632324 56.58642578125 28.29311561584473 56.58642578125 28.29025459289551 56.58642578125 C 22.59104537963867 56.58642578125 13.9697151184082 52.67395401000977 13.9697151184082 52.67395401000977 L 0.11102294921875 56.43099594116211 L 4.664463043212891 43.67661666870117 C 4.664463043212891 43.67661666870117 -3.814697265625e-06 35.36614608764648 -3.814697265625e-06 28.29321479797363 C -3.814697265625e-06 12.66729736328125 12.66730499267578 -3.814697265625e-06 28.29321479797363 -3.814697265625e-06 Z" stroke="none" fill="#002333"/>
      </g>
    </g>
  </g>
  <path id="Union_131" data-name="Union 131" d="M25.587,41.226l-.054-.128a5.794,5.794,0,0,0-.349-.7,4.485,4.485,0,0,0-.4-.625c-.176-.209-.337-.391-.491-.544-.138-.145-.278-.273-.424-.4a2.817,2.817,0,0,1-.871.59,3.627,3.627,0,0,1-2.921-.091,3.924,3.924,0,0,1-1.406-1.044,6.961,6.961,0,0,1-1.116-1.7,10.935,10.935,0,0,1-.786-2.348l-.028-.145.124-.073.6-.363H16.6v-1.1H27.672V33.58h-1.3v7.646ZM21.978,33.7h.044a2.62,2.62,0,0,1,.995.208,2.413,2.413,0,0,1,.873.607,3.141,3.141,0,0,1,.583.924,3.593,3.593,0,0,1,.2,1.188,3.224,3.224,0,0,1-.075.727,2.392,2.392,0,0,1-.161.543c.178.172.353.337.515.509.094.1.183.19.255.281V33.572l-3.871.008c.035.046.073.083.108.129.009.016.037.035.044.053l.147-.036a1.227,1.227,0,0,1,.262-.03A.692.692,0,0,1,21.978,33.7Zm-4.18.09a9.8,9.8,0,0,0,.768,2.186,7.42,7.42,0,0,0,.945,1.5,3.511,3.511,0,0,0,1.032.807,2.83,2.83,0,0,0,1.114.245,1.946,1.946,0,0,0,.782-.145,1.8,1.8,0,0,0,.592-.39,1.443,1.443,0,0,0,.36-.589l.007-.009a2.023,2.023,0,0,0,.138-.744,1.947,1.947,0,0,0-.117-.689l-.009-.018a1.49,1.49,0,0,0-.311-.545,1.414,1.414,0,0,0-.449-.344,1.128,1.128,0,0,0-.239-.082c.021.036.035.073.056.109V35.1a1.418,1.418,0,0,1,.073.435,1.656,1.656,0,0,1-.073.435v.019a1.323,1.323,0,0,1-.246.371l-.009.009a2.016,2.016,0,0,1-.344.253l-.028.019a1.177,1.177,0,0,1-.543.091,1.042,1.042,0,0,1-.454-.1,1.2,1.2,0,0,1-.388-.289,1.449,1.449,0,0,1-.264-.408,1.34,1.34,0,0,1-.1-.536,1.545,1.545,0,0,1,.154-.67,1.331,1.331,0,0,1,.255-.363,2.181,2.181,0,0,0-.309-.326,4.876,4.876,0,0,0-.489-.38h-1.94ZM4.974,25.529a3.64,3.64,0,0,0-.29-.626L4.5,24.621l.337-.027C6.169,24.467,8.4,24,8.4,22.345v-.09a1.923,1.923,0,0,0-1.743-1.886,8.946,8.946,0,0,1-2.113,3.1,2.109,2.109,0,0,0,.218.418l.11.172-1,.635-.117-.154a1.843,1.843,0,0,1-.19-.336,3.691,3.691,0,0,1-2,.708H1.529a1.489,1.489,0,0,1-1.126-.5,1.478,1.478,0,0,1-.391-1.206A4.123,4.123,0,0,1,2.87,19.7c-.009-.481-.009-.978-.009-1.5-1.7,0-1.9,0-2.24-.019l-.183-.009L.394,17.013l.22.019c.534.018,1.392.027,2.256.027.007-.326.019-.689.035-1.033,0-.146.009-.291.009-.427l.012-.218,1.575.128-.073.245a.475.475,0,0,1-.281.318c-.019.308-.028.652-.063.961a26.834,26.834,0,0,0,4.18-.454l.218-.046L8.608,17.7l-.19.036a29.283,29.283,0,0,1-4.407.443c-.016.39-.03.79-.03,1.17a6.163,6.163,0,0,1,1.463-.191h.293c.016-.109.044-.218.051-.336l.037-.218,1.259.254-.016.191a1.755,1.755,0,0,1-.035.218,3.023,3.023,0,0,1,2.6,3.056c0,1.3-.77,2.929-4.444,3.337l-.161.018ZM1.22,23.108c.009.625.353.625.461.625h.082a2.883,2.883,0,0,0,1.5-.644,12.59,12.59,0,0,1-.3-2.213A2.864,2.864,0,0,0,1.22,23.108Zm2.855-2.64a11.931,11.931,0,0,0,.154,1.686,6.61,6.61,0,0,0,1.208-1.9A4.918,4.918,0,0,0,4.075,20.468Zm39.15,4.5a.805.805,0,0,1-.608-.263l-.028-.018a1,1,0,0,1-.171-.672V21.982c-.1.028-.2.055-.307.082a3.261,3.261,0,0,1-.592.073,2.369,2.369,0,0,1-.9-.163,2.442,2.442,0,0,1-.508-.317,3.011,3.011,0,0,1-.679,1.068l-.009.009a2.047,2.047,0,0,1-1.432.49,2.222,2.222,0,0,1-.8-.145,1.975,1.975,0,0,1-.653-.4,2.615,2.615,0,0,1-.548-.634c-.133-.218-.262-.445-.4-.7a2.346,2.346,0,0,1-.637-.1l-.183-.046.037-.191.145-.789.2.036a4.376,4.376,0,0,0,.5.044h.07a1.539,1.539,0,0,0,.5-.081,1.686,1.686,0,0,0,.435-.245,1.392,1.392,0,0,0,.271-.408,1.877,1.877,0,0,0,.1-.617,1.841,1.841,0,0,0-.1-.59l-.009-.008a.834.834,0,0,0-.243-.391,1.049,1.049,0,0,0-.4-.245,1.613,1.613,0,0,0-.543-.1h-.028a.317.317,0,0,0-.154.018h-.035a1.443,1.443,0,0,0-.227.036l-.22.073L34.852,16.7l.2-.044a3.9,3.9,0,0,1,.742-.091,2.662,2.662,0,0,1,.995.181,2.31,2.31,0,0,1,.737.545,2.547,2.547,0,0,1,.454.779,3.067,3.067,0,0,1,.133.88,2.488,2.488,0,0,1-.117.8,2.256,2.256,0,0,1-.344.653,1.808,1.808,0,0,1-.543.5,3.064,3.064,0,0,1-.445.227,3.086,3.086,0,0,0,.543.725,1.087,1.087,0,0,0,.716.281,1.019,1.019,0,0,0,.466-.118,1.17,1.17,0,0,0,.4-.344,2.521,2.521,0,0,0,.309-.7,4.029,4.029,0,0,0,.129-1.088v-1.3h1.1v1.034a3.061,3.061,0,0,0,.1.744,1.384,1.384,0,0,0,.255.4.988.988,0,0,0,.346.191,1.648,1.648,0,0,0,.4.063,2,2,0,0,0,.952-.309V16.949L41.7,15.617a1.893,1.893,0,0,0-.328-.445,1.115,1.115,0,0,0-.344-.263,1.854,1.854,0,0,0-.482-.136c-.208-.027-.419-.036-.615-.046H38.482V13.612h1.435a4.959,4.959,0,0,1,.85.063,2.538,2.538,0,0,1,.672.218,2.085,2.085,0,0,1,.527.4,3.06,3.06,0,0,1,.4.544L43.614,17l-.147.054v6.72l.812-.453.089.208.351.807-.124.1a2.38,2.38,0,0,1-.709.407,1.6,1.6,0,0,1-.625.128ZM23.8,24.341v-3.8h-1.47a2.305,2.305,0,0,1-2.1,3.237.755.755,0,0,1-.138-.008,2.44,2.44,0,0,1-2.649-2.421v-.2h1.119l-.012.209a1.368,1.368,0,0,0,.428,1.033,1.419,1.419,0,0,0,.945.372h.241a1.229,1.229,0,0,0,.887-.363,1.289,1.289,0,0,0,.4-.989,1.359,1.359,0,0,0-.365-.934l-.054-.063a1.585,1.585,0,0,0-1.044-.355h-.632V19.053H20c.044,0,.089.009.126.009a1.192,1.192,0,0,0,.805-2.077,1.209,1.209,0,0,0-.842-.335h-.117a1.239,1.239,0,0,0-.943.316,1.212,1.212,0,0,0-.417.9l-.009.2h-1.06v-.208a2.216,2.216,0,0,1,.744-1.659,2.268,2.268,0,0,1,1.486-.571c.073,0,.147.009.215.009h.2a2.173,2.173,0,0,1,2.176,2.158,1.887,1.887,0,0,1-.96,1.722H23.8V15.762h2.659v1H24.889v7.582ZM23.3,8.026,23.244,7.9,22.6,6.194H19.373l-.688,1.832H17.417l.105-.281L20.405,0h1.17l.059.136,2.907,7.89ZM19.762,5.142h2.471L20.988,1.777Z" transform="translate(6.17 6.806)" fill="#002333"/>
</svg>
