<svg xmlns="http://www.w3.org/2000/svg" width="55.492" height="55.6" viewBox="0 0 55.492 55.6">
  <path id="Subtraction_1636" data-name="Subtraction 1636" d="M-4441.3-2745.9c-.186,0-.378-.009-.573-.026l-.019,0a53.936,53.936,0,0,1-23.4-8.324l-.007,0a53.261,53.261,0,0,1-16.268-16.269l0-.007a53.97,53.97,0,0,1-8.323-23.516l0-.017a6.377,6.377,0,0,1,1.638-4.861,6.376,6.376,0,0,1,4.691-2.073h8.035a6.367,6.367,0,0,1,4.17,1.558,6.352,6.352,0,0,1,2.127,3.911l0,.012a33.161,33.161,0,0,0,1.806,7.25,6.378,6.378,0,0,1-1.434,6.708l-2.821,2.822.418.673a41.5,41.5,0,0,0,5.924,7.473,41.579,41.579,0,0,0,7.472,5.926l.673.418,2.817-2.818-.707-.707.711.7a6.327,6.327,0,0,1,4.475-1.839,6.323,6.323,0,0,1,2.239.408,33.13,33.13,0,0,0,7.244,1.8h.007a6.364,6.364,0,0,1,5.471,6.433v7.984a6.364,6.364,0,0,1-2.061,4.706A6.349,6.349,0,0,1-4441.3-2745.9Zm-42.27-53.018a4.283,4.283,0,0,0-3.154,1.395,4.291,4.291,0,0,0-1.1,3.251l0,.02a51.859,51.859,0,0,0,8,22.593l0,.008a51.155,51.155,0,0,0,15.641,15.642l.007.006a51.865,51.865,0,0,0,22.482,8l.024,0c.125.01.248.016.364.016a4.268,4.268,0,0,0,2.893-1.126,4.284,4.284,0,0,0,1.387-3.167v-8.016a4.28,4.28,0,0,0-3.671-4.343h-.011a35.219,35.219,0,0,1-7.69-1.918,4.273,4.273,0,0,0-1.508-.275,4.258,4.258,0,0,0-3,1.231l-3.38,3.38a1.035,1.035,0,0,1-.737.305,1.045,1.045,0,0,1-.514-.136,43.624,43.624,0,0,1-16.35-16.353,1.046,1.046,0,0,1,.169-1.251l3.375-3.375.005,0a4.3,4.3,0,0,0,.958-4.507,35.243,35.243,0,0,1-1.919-7.7l0-.01a4.3,4.3,0,0,0-4.24-3.672Z" transform="translate(4490.18 2801.25)" fill="#13294b" stroke="#13294b" stroke-linecap="round" stroke-width="0.5"/>
</svg>
