<svg xmlns="http://www.w3.org/2000/svg" width="53.501" height="53.501" viewBox="0 0 53.501 53.501">
  <path id="Subtraction_1637" data-name="Subtraction 1637" d="M-3798.7,55.054a26.843,26.843,0,0,1-26.75-26.875,1.55,1.55,0,0,1,1.541-1.556,1.55,1.55,0,0,1,1.54,1.556A23.744,23.744,0,0,0-3798.7,51.943a23.762,23.762,0,0,0,4.923-.514,1.5,1.5,0,0,1,.32-.035,1.55,1.55,0,0,1,1.5,1.233,1.558,1.558,0,0,1-1.189,1.846A26.8,26.8,0,0,1-3798.7,55.054Zm13.411-3.877a1.536,1.536,0,0,1-1.307-.726,1.561,1.561,0,0,1,.484-2.148,23.9,23.9,0,0,0,8.034-8.462,23.83,23.83,0,0,0,3.047-11.662,23.8,23.8,0,0,0-5.858-15.645,23.627,23.627,0,0,0-14.478-7.886,1.553,1.553,0,0,1-1.311-1.759,1.55,1.55,0,0,1,1.521-1.337,1.528,1.528,0,0,1,.218.015,26.946,26.946,0,0,1,22.988,26.611,26.794,26.794,0,0,1-12.528,22.761A1.522,1.522,0,0,1-3785.286,51.176Zm-36.807-30.888a1.522,1.522,0,0,1-.572-.112,1.562,1.562,0,0,1-.855-2.027,26.855,26.855,0,0,1,15.974-15.338,1.524,1.524,0,0,1,.506-.087,1.545,1.545,0,0,1,1.454,1.039,1.559,1.559,0,0,1-.944,1.985A23.752,23.752,0,0,0-3820.657,19.3l-.01.023,0,.008,0,.009A1.539,1.539,0,0,1-3822.094,20.289Z" transform="translate(3825.447 -1.553)" fill="#13294b"/>
</svg>
