<svg xmlns="http://www.w3.org/2000/svg" width="56.495" height="56.495" viewBox="0 0 56.495 56.495">
  <path id="Union_179" data-name="Union 179" d="M-1972.514,56.495a4.938,4.938,0,0,1-4.932-4.932V43.941h-2.69v2.242a1.354,1.354,0,0,1-2.3.951l-7.174-7.174a1.345,1.345,0,0,1,0-1.9l7.174-7.174a1.347,1.347,0,0,1,1.466-.292,1.345,1.345,0,0,1,.83,1.243v2.242h2.69V4.932A4.938,4.938,0,0,1-1972.514,0h21.523a4.937,4.937,0,0,1,4.932,4.932v7.622h2.69V10.312a1.344,1.344,0,0,1,.831-1.242,1.342,1.342,0,0,1,1.465.292l7.175,7.174a1.346,1.346,0,0,1,0,1.9l-7.175,7.174a1.353,1.353,0,0,1-2.3-.95V22.419h-2.69V51.563a4.937,4.937,0,0,1-4.932,4.932Zm-2.241-4.932a2.243,2.243,0,0,0,2.241,2.242h21.523a2.244,2.244,0,0,0,2.242-2.242V49.321h-26.005Zm0-4.932h26.005V22.419h-4.036a1.346,1.346,0,0,1-1.346-1.346,1.346,1.346,0,0,1,1.346-1.345h10.761a1.345,1.345,0,0,1,1.345,1.345v.339l3.927-3.926-3.927-3.927V13.9a1.345,1.345,0,0,1-1.345,1.345h-10.761a1.346,1.346,0,0,1-1.346-1.345,1.346,1.346,0,0,1,1.346-1.345h4.036V9.864h-26.005V34.077h4.035a1.345,1.345,0,0,1,1.345,1.345,1.345,1.345,0,0,1-1.345,1.346h-10.76a1.345,1.345,0,0,1-1.345-1.346v-.339l-3.927,3.927,3.927,3.927V42.6a1.345,1.345,0,0,1,1.345-1.345h10.76a1.345,1.345,0,0,1,1.345,1.345,1.345,1.345,0,0,1-1.345,1.346h-4.035Zm0-41.7V7.174h26.005V4.932a2.245,2.245,0,0,0-2.242-2.242h-21.523A2.244,2.244,0,0,0-1974.755,4.932Zm11.658,34.077V36.767h-1.345a4.041,4.041,0,0,1-4.036-4.036,1.346,1.346,0,0,1,1.346-1.346,1.345,1.345,0,0,1,1.344,1.346,1.348,1.348,0,0,0,1.346,1.346h4.484a2.242,2.242,0,0,0,2.242-2.242,2.242,2.242,0,0,0-2.242-2.242h-3.587a4.933,4.933,0,0,1-4.932-4.932,4.933,4.933,0,0,1,4.932-4.933h.449V17.486a1.345,1.345,0,0,1,1.345-1.345,1.345,1.345,0,0,1,1.345,1.345v2.242h1.345a4.04,4.04,0,0,1,4.036,4.036,1.345,1.345,0,0,1-1.345,1.345,1.345,1.345,0,0,1-1.345-1.345,1.346,1.346,0,0,0-1.346-1.345h-4.484a2.242,2.242,0,0,0-2.242,2.242,2.242,2.242,0,0,0,2.242,2.241h3.587a4.932,4.932,0,0,1,4.932,4.933,4.932,4.932,0,0,1-4.932,4.932h-.448v2.242a1.345,1.345,0,0,1-1.345,1.345A1.345,1.345,0,0,1-1963.1,39.009Z" transform="translate(1990)" fill="#13294b"/>
</svg>
