<svg xmlns="http://www.w3.org/2000/svg" xmlns:xlink="http://www.w3.org/1999/xlink" width="190" height="190" viewBox="0 0 190 190"><defs><clipPath id="a"><rect width="190" height="190" transform="translate(1279 473)" fill="none"/></clipPath><clipPath id="b"><rect width="19.623" height="15.081" fill="none" stroke="#fff" stroke-width="0.3"/></clipPath></defs><g transform="translate(-1279 -473)" clip-path="url(#a)"><g transform="translate(22205.383 14661)"><path d="M32.817-12.217c33.814,0,62.15,29.428,62.15,61.063s-25.119,62.911-62.15,62.911c-35.422,0-61.988-28.981-61.182-62.911C-29.171,14.349,1.182-12.217,32.817-12.217Z" transform="translate(-20877 -14110.757)" fill="#414a59"/><g transform="translate(-20890.766 -14108.005)"><path d="M26.6,89.166a93.8,93.8,0,0,1-11.565-8.152,35.928,35.928,0,0,1-6.755-7.886,38.612,38.612,0,0,1-3.552-5.836A47.188,47.188,0,1,1,26.6,89.163Z" transform="translate(0.008 0.485)" fill="#00a9ee"/><path d="M2.034-1.985q.165.515.384,1.123A12.451,12.451,0,0,0,2.937.365a11.107,11.107,0,0,0,.681,1.2,5.39,5.39,0,0,0,.865,1.03,4.059,4.059,0,0,0,1.078.718,3.145,3.145,0,0,0,1.315.268,3.1,3.1,0,0,0,1.205-.208,2.068,2.068,0,0,0,1.244-1.38,3.514,3.514,0,0,0,.137-.986A2.11,2.11,0,0,0,8.645-.759a3.78,3.78,0,0,0-2.361-.633q-.186,0-.372.011t-.372.033V-3.015A1.291,1.291,0,0,0,5.7-3h.082A4.458,4.458,0,0,0,7.143-3.2a3.059,3.059,0,0,0,1-.521,2.2,2.2,0,0,0,.613-.767,2.119,2.119,0,0,0,.208-.92,1.872,1.872,0,0,0-.153-.778A1.645,1.645,0,0,0,8.4-6.75a1.733,1.733,0,0,0-.624-.345,2.589,2.589,0,0,0-.789-.113,4.107,4.107,0,0,0-.567.039,4.851,4.851,0,0,0-.58.12,6.731,6.731,0,0,0-.654.212q-.345.132-.784.328l-.622-1.5a9.352,9.352,0,0,1,1.645-.63,6.133,6.133,0,0,1,1.61-.214A4.142,4.142,0,0,1,8.5-8.6a3.552,3.552,0,0,1,1.161.7,3.147,3.147,0,0,1,.759,1.058,3.214,3.214,0,0,1,.274,1.325A3.608,3.608,0,0,1,8.817-2.369v.044a4.215,4.215,0,0,1,1.227.756q.318.057.673.087t.652.033a5.059,5.059,0,0,0,.646-.044,3.612,3.612,0,0,0,.7-.165A3.779,3.779,0,0,0,13.434-2a4.326,4.326,0,0,0,.738-.567V-8.636h4.1v1.61h-2.3V6.2h-1.8V-.627l-.044-.011a3.719,3.719,0,0,1-1.172.547,4.818,4.818,0,0,1-1.128.132q-.186,0-.384-.016t-.4-.039L11.028.03A3.057,3.057,0,0,1,11.2,1.136a4.47,4.47,0,0,1-.3,1.645,3.771,3.771,0,0,1-.851,1.309,3.847,3.847,0,0,1-1.337.86,4.788,4.788,0,0,1-1.759.307,4.636,4.636,0,0,1-1.88-.369,5.966,5.966,0,0,1-1.509-.947A6.914,6.914,0,0,1,2.4,2.633,11.529,11.529,0,0,1,1.53,1.17,12.326,12.326,0,0,1,.94-.227Q.708-.89.6-1.328Z" transform="translate(36.746 50.045)" fill="#fff" stroke="#fff" stroke-linecap="round" stroke-width="0.3"/><path d="M13.714-4.3l1.173-.84.6,1.4a4.961,4.961,0,0,1-1.048.511,3.007,3.007,0,0,1-.964.183.982.982,0,0,1-.815-.347,1.494,1.494,0,0,1-.277-.958V-7.524a4.936,4.936,0,0,1-.766.188,5.106,5.106,0,0,1-.823.065,2.788,2.788,0,0,1-1.166-.241,2.7,2.7,0,0,1-.915-.673H8.691a3.662,3.662,0,0,1-1.18,1.953,3.076,3.076,0,0,1-1.986.656,3.206,3.206,0,0,1-1.121-.192,3.307,3.307,0,0,1-.964-.558,4.6,4.6,0,0,1-.823-.908A9.256,9.256,0,0,1,1.9-8.462q-.3-.008-.567-.028T.84-8.551L.995-9.782a3.705,3.705,0,0,0,.522.049q.284.008.571.008a2.192,2.192,0,0,0,.848-.159,1.894,1.894,0,0,0,.652-.44A1.986,1.986,0,0,0,4-10.981a2.2,2.2,0,0,0,.147-.807,2.473,2.473,0,0,0-.142-.86,1.856,1.856,0,0,0-.411-.66,1.785,1.785,0,0,0-.64-.42,2.288,2.288,0,0,0-.835-.147q-.237,0-.461.012a2.61,2.61,0,0,0-.412.053l-.212-1.215a2.879,2.879,0,0,1,.489-.09q.252-.024.513-.024a3.65,3.65,0,0,1,1.541.3,3.022,3.022,0,0,1,1.055.782,3.165,3.165,0,0,1,.607,1.1,4.134,4.134,0,0,1,.2,1.262,3.394,3.394,0,0,1-.159,1.048,3.167,3.167,0,0,1-.444.888,3.107,3.107,0,0,1-.685.686,3.064,3.064,0,0,1-.881.448A4.39,4.39,0,0,0,4.228-7.3a1.794,1.794,0,0,0,1.227.454,1.872,1.872,0,0,0,.828-.188,1.781,1.781,0,0,0,.681-.612,3.331,3.331,0,0,0,.461-1.1,7.149,7.149,0,0,0,.167-1.675v-1.725H8.93v1.4A2.789,2.789,0,0,0,9.1-9.7a2,2,0,0,0,.436.681,1.545,1.545,0,0,0,.585.37,1.924,1.924,0,0,0,.624.11,2.83,2.83,0,0,0,.873-.127,2.783,2.783,0,0,0,.758-.387v-5.895h1.337ZM8.406-19.688a7.035,7.035,0,0,1,1.321.11,3.684,3.684,0,0,1,1,.334,2.879,2.879,0,0,1,.754.558,3.833,3.833,0,0,1,.575.783l1.655,2.96-1.1.481L11.39-16.9a2.593,2.593,0,0,0-.513-.722,2.365,2.365,0,0,0-.66-.448A3,3,0,0,0,9.4-18.3a6.608,6.608,0,0,0-.958-.065h-1.9V-19.69Z" transform="translate(67.999 60.267)" fill="#fff" stroke="#fff" stroke-width="0.9"/><path d="M85.931,246.368c0-.035.387-.613.387-.613l-2.213-.943s-.316.714-.421.681a9.482,9.482,0,0,0-3.579.07c0-.807.035-1.544.07-2.213l7.726.035v-2.105l-7.551-.035a20.692,20.692,0,0,1,.421-2.089l-2.036-.421a20.591,20.591,0,0,0-.491,2.545H72.639v2.105h5.432c-.07.842-.07,1.825-.07,2.842a9.819,9.819,0,0,0-2.141,1.191,6.3,6.3,0,0,0-2.667,4.176,4.552,4.552,0,0,0,4.562,5.053,5.089,5.089,0,0,0,3.018-.983c2.141-1.579,3.649-4.913,4.456-7.124a3.559,3.559,0,0,1,.454.561c1.368,2.213.315,3.509-1.579,5.4l-.351.351,1.475,1.475.316-.315c1.579-1.579,4.281-4.211,1.895-8A4.274,4.274,0,0,0,85.931,246.368ZM75.825,253.6a2.333,2.333,0,0,1-.561-1.825,4.345,4.345,0,0,1,1.825-2.737,9.136,9.136,0,0,1,.983-.6,26.122,26.122,0,0,0,1.088,5.685,2.635,2.635,0,0,1-3.334-.527Zm5.053-1.123a25.841,25.841,0,0,1-.738-4.772,9.367,9.367,0,0,1,1.929-.246,6.581,6.581,0,0,1,1.191.1h.07A20.756,20.756,0,0,1,80.878,252.474Zm0,0" transform="translate(-62.918 -198.976)" fill="#fff"/><path d="M13.672,1.122H11.711l-1.6-4.24H3.7L2.187,1.122H.215L6.016-14H7.851ZM9.527-4.71,7.155-11.155a6.17,6.17,0,0,1-.232-1.013H6.881a5.649,5.649,0,0,1-.243,1.013L4.286-4.71Z" transform="translate(39.512 26.069)" fill="#fff" stroke="#fff" stroke-width="0.3"/><g transform="translate(36.696 70.026)"><g clip-path="url(#b)"><path d="M15.58,11.437V8.379q0-3.231,0-6.462c0-.475,0-.475-.462-.475H.5c-.5,0-.5,0-.5-.491C0,0,0,0,.943,0H19.1c.526,0,.526,0,.526.527,0,.914,0,.914-.9.914H17.657c-.495,0-.495,0-.495.479V7.282q0,3.68,0,7.361c0,.17.088.4-.217.431-.272.027-.45-.028-.54-.34a7.716,7.716,0,0,0-3.16-4.2c-.365-.256-.354-.227-.624.108A8.867,8.867,0,0,1,11.4,12.006a4.028,4.028,0,0,1-3.721.642A6.6,6.6,0,0,1,4.239,10.26,17.134,17.134,0,0,1,1.272,4.42C1.125,3.966,1,3.507.881,3.045c-.09-.359.127-.6.485-.537.091.017.189.166.227.274.38,1.078.67,2.192,1.135,3.229a7.879,7.879,0,0,0,3.608,4,4.709,4.709,0,0,0,4.152.113,3.442,3.442,0,0,0,1.925-3.661,3.306,3.306,0,0,0-1.039-2.032,2.249,2.249,0,0,0-1.511-.6c-.4-.007-.462.094-.385.482a5.429,5.429,0,0,1,.191,1.267A1.837,1.837,0,0,1,7.527,7.421,1.956,1.956,0,0,1,5.7,5.465C5.536,3.491,7.114,2.543,8.636,2.458A4.482,4.482,0,0,1,13.219,6.11a5.621,5.621,0,0,1,.087,2.146.959.959,0,0,0,.249.851c.66.761,1.287,1.551,1.929,2.33h.1" transform="translate(0)" fill="#fff" stroke="#fff" stroke-width="0.3"/></g></g></g><path d="M-7.914,0H15.834V187.324h-21.3L-7.49,79.782Z" transform="translate(-20797.932 -14187)" fill="#414a59"/><rect width="74.228" height="10.684" transform="translate(-20831.652 -14172.623)" fill="#09f"/></g></g></svg>