<svg xmlns="http://www.w3.org/2000/svg" xmlns:xlink="http://www.w3.org/1999/xlink" width="50" height="50" viewBox="0 0 50 50"><defs><clipPath id="a"><rect width="50" height="50" transform="translate(1279 473)" fill="none"/></clipPath><clipPath id="b"><rect width="5.164" height="3.969" fill="none" stroke="#fff" stroke-width="0.3"/></clipPath></defs><g transform="translate(-1279 -473)" clip-path="url(#a)"><g transform="translate(1284.526 473.263)"><path d="M-12.278-12.217c8.9,0,16.355,7.744,16.355,16.069s-6.61,16.556-16.355,16.556a16.06,16.06,0,0,1-16.1-16.556C-28.59-5.226-20.6-12.217-12.278-12.217Z" transform="translate(28.383 29.066)" fill="#fff"/><g transform="translate(3.847 20.788)"><path d="M7,23.107a24.684,24.684,0,0,1-3.043-2.145,9.455,9.455,0,0,1-1.778-2.075A10.161,10.161,0,0,1,1.24,17.35,12.418,12.418,0,1,1,7,23.106Z" transform="translate(0.005 0.486)" fill="#00a9ee"/><path d="M.977-7.046q.043.136.1.3a3.277,3.277,0,0,0,.137.323,2.923,2.923,0,0,0,.179.316,1.418,1.418,0,0,0,.228.271,1.068,1.068,0,0,0,.284.189.828.828,0,0,0,.346.071.816.816,0,0,0,.317-.055A.544.544,0,0,0,2.9-6a.925.925,0,0,0,.036-.259.555.555,0,0,0-.215-.465A1,1,0,0,0,2.1-6.89l-.1,0-.1.009v-.439l.042,0h.022a1.173,1.173,0,0,0,.358-.053A.8.8,0,0,0,2.585-7.5a.579.579,0,0,0,.161-.2A.558.558,0,0,0,2.8-7.947a.493.493,0,0,0-.04-.2A.433.433,0,0,0,2.653-8.3a.456.456,0,0,0-.164-.091.681.681,0,0,0-.208-.03,1.081,1.081,0,0,0-.149.01,1.277,1.277,0,0,0-.153.032,1.772,1.772,0,0,0-.172.056q-.091.035-.206.086l-.164-.395A2.461,2.461,0,0,1,1.87-8.8a1.614,1.614,0,0,1,.424-.056,1.09,1.09,0,0,1,.386.067.935.935,0,0,1,.306.184.828.828,0,0,1,.2.278.846.846,0,0,1,.072.349.949.949,0,0,1-.494.828v.012a1.109,1.109,0,0,1,.323.2q.084.015.177.023t.172.009a1.331,1.331,0,0,0,.17-.012.951.951,0,0,0,.184-.043.994.994,0,0,0,.189-.09A1.138,1.138,0,0,0,4.172-7.2V-8.8H5.251v.424H4.645v3.481H4.172v-1.8l-.012,0a.979.979,0,0,1-.308.144,1.268,1.268,0,0,1-.3.035q-.049,0-.1,0l-.105-.01,0,.012a.8.8,0,0,1,.045.291,1.176,1.176,0,0,1-.079.433.992.992,0,0,1-.224.344,1.012,1.012,0,0,1-.352.226,1.26,1.26,0,0,1-.463.081,1.22,1.22,0,0,1-.495-.1,1.57,1.57,0,0,1-.4-.249,1.819,1.819,0,0,1-.306-.344,3.034,3.034,0,0,1-.229-.385,3.244,3.244,0,0,1-.155-.368Q.628-6.758.6-6.873Z" transform="translate(9.227 19.693)" fill="#fff" stroke="#fff" stroke-linecap="round" stroke-width="0.3"/><path d="M4.228-15.64l.309-.221.158.368a1.306,1.306,0,0,1-.276.134.791.791,0,0,1-.254.048.258.258,0,0,1-.214-.091.393.393,0,0,1-.073-.252v-.835a1.3,1.3,0,0,1-.2.049,1.344,1.344,0,0,1-.217.017.734.734,0,0,1-.307-.063.711.711,0,0,1-.241-.177H2.906a.964.964,0,0,1-.311.514.809.809,0,0,1-.523.173.844.844,0,0,1-.295-.051.87.87,0,0,1-.254-.147,1.211,1.211,0,0,1-.217-.239,2.436,2.436,0,0,1-.189-.323q-.079,0-.149-.007a1.254,1.254,0,0,1-.13-.016l.041-.324a.975.975,0,0,0,.137.013l.15,0a.577.577,0,0,0,.223-.042.5.5,0,0,0,.172-.116.523.523,0,0,0,.108-.173.579.579,0,0,0,.039-.212.651.651,0,0,0-.037-.226.488.488,0,0,0-.108-.174.47.47,0,0,0-.168-.111.6.6,0,0,0-.22-.039q-.062,0-.121,0a.687.687,0,0,0-.108.014l-.056-.32a.758.758,0,0,1,.129-.024q.066-.006.135-.006a.961.961,0,0,1,.406.079.8.8,0,0,1,.278.206.833.833,0,0,1,.16.289,1.088,1.088,0,0,1,.053.332.893.893,0,0,1-.042.276.833.833,0,0,1-.117.234.818.818,0,0,1-.18.181.806.806,0,0,1-.232.118,1.155,1.155,0,0,0,.252.349.472.472,0,0,0,.323.119.493.493,0,0,0,.218-.049.469.469,0,0,0,.179-.161.877.877,0,0,0,.121-.289,1.881,1.881,0,0,0,.044-.441V-17.7h.352v.368a.734.734,0,0,0,.045.275.526.526,0,0,0,.115.179.407.407,0,0,0,.154.1.506.506,0,0,0,.164.029.745.745,0,0,0,.23-.033.732.732,0,0,0,.2-.1v-1.551h.352Zm-1.4-4.049a1.851,1.851,0,0,1,.348.029.969.969,0,0,1,.263.088.758.758,0,0,1,.2.147,1.009,1.009,0,0,1,.151.206l.436.779-.289.127-.321-.642a.682.682,0,0,0-.135-.19.622.622,0,0,0-.174-.118.789.789,0,0,0-.215-.061,1.739,1.739,0,0,0-.252-.017h-.5v-.349Z" transform="translate(17.275 30.368)" fill="#fff" stroke="#fff" stroke-width="0.9"/><path d="M76.137,240.744c0-.009.1-.161.1-.161l-.582-.248s-.083.188-.111.179a2.5,2.5,0,0,0-.942.018c0-.212.009-.406.018-.582l2.033.009V239.4l-1.987-.009a5.443,5.443,0,0,1,.111-.55l-.536-.111a5.418,5.418,0,0,0-.129.67H72.639v.554h1.429c-.018.222-.018.48-.018.748a2.585,2.585,0,0,0-.563.313,1.658,1.658,0,0,0-.7,1.1,1.2,1.2,0,0,0,1.2,1.33,1.339,1.339,0,0,0,.794-.259,4.3,4.3,0,0,0,1.173-1.875.938.938,0,0,1,.119.148c.36.582.083.923-.416,1.421l-.092.092.388.388.083-.083a1.561,1.561,0,0,0,.5-2.105A1.125,1.125,0,0,0,76.137,240.744Zm-2.659,1.9a.614.614,0,0,1-.148-.48,1.143,1.143,0,0,1,.48-.72,2.406,2.406,0,0,1,.259-.158,6.874,6.874,0,0,0,.286,1.5.693.693,0,0,1-.877-.139Zm1.33-.3a6.8,6.8,0,0,1-.194-1.256,2.464,2.464,0,0,1,.508-.065,1.732,1.732,0,0,1,.313.026h.018a5.462,5.462,0,0,1-.645,1.293Zm0,0" transform="translate(-70.082 -228.272)" fill="#fff"/><path d="M3.756-10.021H3.24l-.421-1.116H1.132l-.4,1.116H.215L1.742-14h.483ZM2.666-11.555l-.624-1.7a1.624,1.624,0,0,1-.061-.267H1.969a1.487,1.487,0,0,1-.064.267l-.619,1.7Z" transform="translate(10.239 17.176)" fill="#fff" stroke="#fff" stroke-width="0.3"/><g transform="translate(9.656 18.428)"><g clip-path="url(#b)"><path d="M4.1,3.01V.5c0-.125,0-.125-.122-.125H.132C0,.379,0,.379,0,.25,0,0,0,0,.248,0H5.026c.138,0,.138,0,.138.139,0,.241,0,.241-.237.241H4.647c-.13,0-.13,0-.13.126V3.853c0,.045.023.105-.057.113s-.118-.007-.142-.089a2.031,2.031,0,0,0-.832-1.105c-.1-.067-.093-.06-.164.028A2.333,2.333,0,0,1,3,3.159a1.06,1.06,0,0,1-.979.169A1.737,1.737,0,0,1,1.116,2.7,4.509,4.509,0,0,1,.335,1.163C.3,1.044.263.923.232.8A.1.1,0,0,1,.359.66c.024,0,.05.044.06.072.1.284.176.577.3.85a2.073,2.073,0,0,0,.949,1.053,1.239,1.239,0,0,0,1.093.03A.906.906,0,0,0,3.267,1.7a.87.87,0,0,0-.273-.535.592.592,0,0,0-.4-.158c-.105,0-.122.025-.1.127a1.429,1.429,0,0,1,.05.333.483.483,0,0,1-.564.484A.515.515,0,0,1,1.5,1.438.738.738,0,0,1,2.273.647a1.179,1.179,0,0,1,1.206.961,1.479,1.479,0,0,1,.023.565.252.252,0,0,0,.066.224c.174.2.339.408.508.613H4.1" fill="#fff" stroke="#fff" stroke-width="0.3"/></g></g></g><path d="M-7.914,0h6.249V49.3H-7.27L-7.8,21Z" transform="translate(34.108 0)" fill="#fff"/><rect width="19.534" height="2.812" transform="translate(19.403 3.783)" fill="#09f"/></g></g></svg>