<svg xmlns="http://www.w3.org/2000/svg" xmlns:xlink="http://www.w3.org/1999/xlink" width="99.883" height="50" viewBox="0 0 99.883 50"><defs><linearGradient id="a" y1="0.5" x2="1" y2="0.5" gradientUnits="objectBoundingBox"><stop offset="0" stop-color="#f79726"/><stop offset="0.378" stop-color="#fef7ef"/><stop offset="0.508" stop-color="#fff"/><stop offset="0.626" stop-color="#d7eee2"/><stop offset="1" stop-color="#09964b"/></linearGradient><linearGradient id="b" x1="1" x2="0" xlink:href="#a"/><clipPath id="c"><rect width="3.894" height="2.992" fill="none" stroke="#fff" stroke-width="0.3"/></clipPath></defs><g transform="translate(-237.018 -6529.933)"><path d="M3.487-4.551a1.036,1.036,0,0,1,.594.332.958.958,0,0,1,.21.64.9.9,0,0,1-.371.773,1.852,1.852,0,0,1-1.1.271h-1.8V-6.444h1.69a1.7,1.7,0,0,1,1.013.262.865.865,0,0,1,.36.743.931.931,0,0,1-.159.55.954.954,0,0,1-.439.337ZM1.439-6.107v1.418H2.684a1.256,1.256,0,0,0,.731-.182A.605.605,0,0,0,3.672-5.4a.605.605,0,0,0-.257-.527,1.256,1.256,0,0,0-.731-.182ZM2.818-2.881a1.436,1.436,0,0,0,.793-.179.623.623,0,0,0,.268-.558q0-.731-1.065-.731H1.438v1.468ZM5.53-4.895a.961.961,0,0,1,.416-.446,1.413,1.413,0,0,1,.684-.151v.385l-.095-.006a.938.938,0,0,0-.726.285,1.134,1.134,0,0,0-.262.8v1.5h-.4V-5.472h.38Zm1.815-.573h.4v2.936h-.4Zm.2-.642a.281.281,0,0,1-.206-.082.274.274,0,0,1-.082-.2.268.268,0,0,1,.082-.2.281.281,0,0,1,.206-.082.286.286,0,0,1,.206.082.259.259,0,0,1,.082.192.281.281,0,0,1-.082.206.281.281,0,0,1-.206.075Zm3.98-.564v4.143h-.38v-.581a1.209,1.209,0,0,1-.472.452,1.384,1.384,0,0,1-.663.152,1.49,1.49,0,0,1-.748-.19,1.357,1.357,0,0,1-.525-.531A1.566,1.566,0,0,1,8.548-4a1.566,1.566,0,0,1,.19-.776A1.337,1.337,0,0,1,9.265-5.3a1.508,1.508,0,0,1,.746-.191,1.392,1.392,0,0,1,.644.148,1.222,1.222,0,0,1,.472.432V-6.678ZM10.046-2.86A1.1,1.1,0,0,0,10.6-3a1.011,1.011,0,0,0,.391-.4,1.228,1.228,0,0,0,.142-.6,1.228,1.228,0,0,0-.142-.6,1.011,1.011,0,0,0-.391-.4,1.1,1.1,0,0,0-.555-.142,1.108,1.108,0,0,0-.561.142,1.011,1.011,0,0,0-.391.4,1.228,1.228,0,0,0-.142.6,1.228,1.228,0,0,0,.142.6,1.011,1.011,0,0,0,.391.4A1.108,1.108,0,0,0,10.046-2.86Zm5.3-2.612v2.579a1.5,1.5,0,0,1-.366,1.11,1.512,1.512,0,0,1-1.1.36,2.463,2.463,0,0,1-.773-.12,1.59,1.59,0,0,1-.594-.332l.2-.3a1.508,1.508,0,0,0,.517.3,1.928,1.928,0,0,0,.64.106,1.128,1.128,0,0,0,.819-.26,1.093,1.093,0,0,0,.262-.807v-.374a1.2,1.2,0,0,1-.483.424,1.494,1.494,0,0,1-.662.145,1.561,1.561,0,0,1-.751-.182,1.34,1.34,0,0,1-.531-.508,1.428,1.428,0,0,1-.192-.737,1.413,1.413,0,0,1,.192-.737,1.331,1.331,0,0,1,.527-.5,1.576,1.576,0,0,1,.753-.179,1.489,1.489,0,0,1,.676.151,1.218,1.218,0,0,1,.486.436v-.564ZM13.848-3a1.2,1.2,0,0,0,.573-.137.988.988,0,0,0,.4-.382,1.093,1.093,0,0,0,.142-.558,1.078,1.078,0,0,0-.142-.555,1,1,0,0,0-.4-.38,1.2,1.2,0,0,0-.578-.137,1.208,1.208,0,0,0-.573.134.974.974,0,0,0-.4.38,1.093,1.093,0,0,0-.142.558,1.093,1.093,0,0,0,.142.558.992.992,0,0,0,.4.382A1.187,1.187,0,0,0,13.848-3Zm2.613-2.473h.4v2.936h-.4Zm.2-.642a.281.281,0,0,1-.206-.082.274.274,0,0,1-.082-.2.268.268,0,0,1,.082-.2.281.281,0,0,1,.206-.082.286.286,0,0,1,.206.082.259.259,0,0,1,.082.192.281.281,0,0,1-.082.206A.281.281,0,0,1,16.662-6.114Zm2.8.62a1.2,1.2,0,0,1,.879.321,1.254,1.254,0,0,1,.328.935v1.7h-.4V-4.2a.974.974,0,0,0-.229-.7.86.86,0,0,0-.655-.24,1,1,0,0,0-.751.282,1.065,1.065,0,0,0-.276.779v1.541h-.4V-5.472h.38v.541a1.1,1.1,0,0,1,.45-.416,1.439,1.439,0,0,1,.667-.148Zm5.013.022v2.579a1.5,1.5,0,0,1-.366,1.11,1.512,1.512,0,0,1-1.1.36,2.463,2.463,0,0,1-.773-.12,1.59,1.59,0,0,1-.592-.334l.2-.3a1.508,1.508,0,0,0,.517.3,1.928,1.928,0,0,0,.64.106,1.128,1.128,0,0,0,.819-.26,1.093,1.093,0,0,0,.262-.807v-.374a1.2,1.2,0,0,1-.483.424,1.494,1.494,0,0,1-.662.145,1.561,1.561,0,0,1-.751-.182,1.34,1.34,0,0,1-.531-.508,1.428,1.428,0,0,1-.192-.737,1.413,1.413,0,0,1,.192-.737,1.331,1.331,0,0,1,.527-.5,1.576,1.576,0,0,1,.753-.179,1.489,1.489,0,0,1,.676.151,1.218,1.218,0,0,1,.486.436V-5.47ZM22.97-3a1.2,1.2,0,0,0,.573-.137.988.988,0,0,0,.4-.382,1.093,1.093,0,0,0,.142-.558,1.078,1.078,0,0,0-.142-.555,1,1,0,0,0-.4-.38,1.2,1.2,0,0,0-.578-.137,1.208,1.208,0,0,0-.573.134.974.974,0,0,0-.4.38,1.093,1.093,0,0,0-.142.558A1.093,1.093,0,0,0,22-3.517a.992.992,0,0,0,.4.382A1.187,1.187,0,0,0,22.97-3Zm7.861-2.473h.4v2.936h-.4Zm.2-.642a.281.281,0,0,1-.206-.082.274.274,0,0,1-.082-.2.268.268,0,0,1,.082-.2.281.281,0,0,1,.206-.082.286.286,0,0,1,.206.082.259.259,0,0,1,.082.192.281.281,0,0,1-.082.206.281.281,0,0,1-.207.079Zm2.088,3.6a2.254,2.254,0,0,1-.684-.1,1.474,1.474,0,0,1-.511-.26l.179-.313a1.5,1.5,0,0,0,.463.237,1.841,1.841,0,0,0,.581.092,1.109,1.109,0,0,0,.594-.125.4.4,0,0,0,.192-.355.319.319,0,0,0-.106-.254.7.7,0,0,0-.268-.139,3.822,3.822,0,0,0-.43-.092,4.929,4.929,0,0,1-.573-.137.845.845,0,0,1-.371-.237.66.66,0,0,1-.153-.463.726.726,0,0,1,.307-.6,1.379,1.379,0,0,1,.854-.234,2.217,2.217,0,0,1,.573.075,1.566,1.566,0,0,1,.469.2l-.173.319a1.482,1.482,0,0,0-.866-.251,1,1,0,0,0-.573.134.409.409,0,0,0-.192.351.347.347,0,0,0,.109.268.67.67,0,0,0,.271.148,4.369,4.369,0,0,0,.446.1,5.137,5.137,0,0,1,.564.134.828.828,0,0,1,.363.229.63.63,0,0,1,.151.446.71.71,0,0,1-.321.612,1.526,1.526,0,0,1-.9.228Zm3.489-.206a.751.751,0,0,1-.276.153,1.113,1.113,0,0,1-.343.053.861.861,0,0,1-.636-.224.853.853,0,0,1-.224-.631V-5.14h-.525v-.335h.525v-.642h.4v.642h.893v.335h-.9v1.753a.555.555,0,0,0,.131.4.5.5,0,0,0,.377.137.729.729,0,0,0,.237-.039.59.59,0,0,0,.2-.111ZM38.357-5.5a1.243,1.243,0,0,1,.882.287,1.111,1.111,0,0,1,.307.852v1.819h-.383V-3a.909.909,0,0,1-.394.357,1.377,1.377,0,0,1-.617.129,1.208,1.208,0,0,1-.781-.234.757.757,0,0,1-.291-.62.751.751,0,0,1,.271-.6,1.325,1.325,0,0,1,.862-.229h.933v-.179a.753.753,0,0,0-.212-.578.876.876,0,0,0-.62-.2,1.575,1.575,0,0,0-.536.092,1.35,1.35,0,0,0-.441.254l-.179-.3a1.584,1.584,0,0,1,.536-.293,2.086,2.086,0,0,1,.661-.1Zm-.139,2.674a1.045,1.045,0,0,0,.573-.153.917.917,0,0,0,.357-.444V-3.9h-.921q-.753,0-.753.525a.48.48,0,0,0,.2.4.889.889,0,0,0,.547.154Zm3.9-2.674A1.2,1.2,0,0,1,43-5.18a1.254,1.254,0,0,1,.328.935v1.7h-.4V-4.2a.974.974,0,0,0-.229-.7.86.86,0,0,0-.655-.24,1,1,0,0,0-.751.282,1.064,1.064,0,0,0-.276.779v1.541h-.4V-5.472H41v.541a1.1,1.1,0,0,1,.45-.416,1.439,1.439,0,0,1,.667-.148Zm3.512,2.994a1.582,1.582,0,0,1-.779-.19,1.374,1.374,0,0,1-.539-.533,1.535,1.535,0,0,1-.2-.773,1.52,1.52,0,0,1,.2-.771,1.38,1.38,0,0,1,.536-.53,1.582,1.582,0,0,1,.779-.19,1.508,1.508,0,0,1,.678.148,1.126,1.126,0,0,1,.472.432l-.3.2a.926.926,0,0,0-.368-.328,1.093,1.093,0,0,0-.483-.108,1.146,1.146,0,0,0-.573.142,1,1,0,0,0-.4.4,1.228,1.228,0,0,0-.142.6,1.228,1.228,0,0,0,.142.6,1,1,0,0,0,.4.4,1.146,1.146,0,0,0,.573.142,1.118,1.118,0,0,0,.486-.106.9.9,0,0,0,.368-.328l.3.2a1.123,1.123,0,0,1-.474.432A1.512,1.512,0,0,1,45.631-2.508Zm4.43-1.373H47.6a1.05,1.05,0,0,0,.352.737,1.168,1.168,0,0,0,.8.282,1.267,1.267,0,0,0,.5-.1,1.1,1.1,0,0,0,.4-.287l.224.257a1.258,1.258,0,0,1-.491.357,1.652,1.652,0,0,1-.644.123,1.63,1.63,0,0,1-.8-.192,1.392,1.392,0,0,1-.545-.533,1.52,1.52,0,0,1-.2-.771,1.574,1.574,0,0,1,.187-.771,1.354,1.354,0,0,1,.516-.527,1.434,1.434,0,0,1,.737-.19,1.419,1.419,0,0,1,.729.19,1.345,1.345,0,0,1,.508.527A1.589,1.589,0,0,1,50.067-4ZM48.644-5.154a1,1,0,0,0-.712.271,1.065,1.065,0,0,0-.328.706h2.082a1.064,1.064,0,0,0-.328-.706A1.006,1.006,0,0,0,48.644-5.154Zm3.02,2.646a2.254,2.254,0,0,1-.684-.1,1.474,1.474,0,0,1-.511-.26l.179-.313a1.5,1.5,0,0,0,.463.237,1.841,1.841,0,0,0,.581.092,1.109,1.109,0,0,0,.594-.125.4.4,0,0,0,.192-.355.319.319,0,0,0-.106-.254.7.7,0,0,0-.268-.139,3.822,3.822,0,0,0-.43-.092,4.928,4.928,0,0,1-.573-.137.845.845,0,0,1-.371-.237.66.66,0,0,1-.153-.463.726.726,0,0,1,.307-.6,1.379,1.379,0,0,1,.854-.234,2.218,2.218,0,0,1,.573.075,1.567,1.567,0,0,1,.469.2l-.173.319a1.482,1.482,0,0,0-.866-.251,1,1,0,0,0-.573.134.409.409,0,0,0-.192.351.347.347,0,0,0,.109.268.67.67,0,0,0,.271.148,4.37,4.37,0,0,0,.446.1,5.138,5.138,0,0,1,.564.134.829.829,0,0,1,.363.229.63.63,0,0,1,.151.446.71.71,0,0,1-.321.612,1.526,1.526,0,0,1-.9.225Z" transform="translate(259.236 6581.351)"/><path d="M-16952.043-9189.494h-20.986v-.606h20.986Z" transform="translate(17210.047 15766.563)" fill="url(#a)"/><path d="M-16973-9189.494h20.986v-.606H-16973Z" transform="translate(17288.043 15766.563)" fill="url(#b)"/><path d="M1.362-3.439h.317a5.65,5.65,0,0,0,1.065-.067,1.164,1.164,0,0,0,.491-.23,1.353,1.353,0,0,0,.391-.552,2.09,2.09,0,0,0,.139-.774,2.073,2.073,0,0,0-.133-.772,1.358,1.358,0,0,0-.392-.549,1.173,1.173,0,0,0-.5-.234,5.434,5.434,0,0,0-1.06-.071H1.362Zm-.5.468V-7.147h.8a5.964,5.964,0,0,1,1.254.09,1.7,1.7,0,0,1,.638.3,1.749,1.749,0,0,1,.545.707,2.493,2.493,0,0,1,.186.993,2.491,2.491,0,0,1-.184.989,1.73,1.73,0,0,1-.546.707,1.7,1.7,0,0,1-.624.3,4.772,4.772,0,0,1-1.089.09H.859Z" transform="translate(285.086 6581.822)"/><path d="M4.4-36.667V-60.229h7.59a11.164,11.164,0,0,1,5.618,1.416,9.953,9.953,0,0,1,3.892,4,12.068,12.068,0,0,1,1.416,5.785v1.084a12.138,12.138,0,0,1-1.367,5.8A10,10,0,0,1,17.7-38.133a10.919,10.919,0,0,1-5.543,1.464Zm5.68-19.176v14.807h1.974a4.422,4.422,0,0,0,3.754-1.739,8.527,8.527,0,0,0,1.31-5.17v-1.019a8.456,8.456,0,0,0-1.31-5.146,4.5,4.5,0,0,0-3.819-1.732ZM35.6-36.667a6.157,6.157,0,0,1-.518-1.57,5.071,5.071,0,0,1-4.2,1.893,6.213,6.213,0,0,1-4.209-1.5,4.765,4.765,0,0,1-1.732-3.763,4.9,4.9,0,0,1,2.1-4.3,10.715,10.715,0,0,1,6.117-1.457h1.683v-.924q0-2.423-2.087-2.423a1.706,1.706,0,0,0-1.45.474,1.707,1.707,0,0,0-.491,1.444H25.363a4.889,4.889,0,0,1,2.16-4.121,9.079,9.079,0,0,1,5.51-1.584,7.96,7.96,0,0,1,5.291,1.638,5.683,5.683,0,0,1,1.991,4.482v7.751a7.938,7.938,0,0,0,.744,3.69v.275Zm-3.415-3.56a3.042,3.042,0,0,0,1.691-.437,2.738,2.738,0,0,0,.963-.988v-2.8H33.26q-2.848,0-2.848,2.556a1.561,1.561,0,0,0,.5,1.205,1.815,1.815,0,0,0,1.278.463Zm21.178,3.56a6.158,6.158,0,0,1-.518-1.57,5.071,5.071,0,0,1-4.207,1.893,6.213,6.213,0,0,1-4.212-1.5A4.765,4.765,0,0,1,42.7-41.605a4.9,4.9,0,0,1,2.1-4.3,10.715,10.715,0,0,1,6.117-1.457H52.6v-.924q0-2.423-2.087-2.423a1.706,1.706,0,0,0-1.45.474,1.707,1.707,0,0,0-.491,1.444H43.119a4.889,4.889,0,0,1,2.16-4.121A9.079,9.079,0,0,1,50.79-54.5a7.96,7.96,0,0,1,5.291,1.638,5.683,5.683,0,0,1,1.991,4.482v7.751a7.938,7.938,0,0,0,.744,3.69v.275Zm-3.415-3.56a3.042,3.042,0,0,0,1.691-.437,2.738,2.738,0,0,0,.963-.988v-2.8H51.017q-2.848,0-2.848,2.556a1.561,1.561,0,0,0,.5,1.205,1.815,1.815,0,0,0,1.277.463ZM68.3-43.19l-1.537,1.537v4.984H61.3V-61.54h5.454v13.2l.55-.728,4.111-5.114h6.538l-6.133,7.2,6.538,10.309H72.107ZM85.3-36.667h-5.47v-17.51H85.3Zm13.387,0a6.157,6.157,0,0,1-.518-1.57,5.071,5.071,0,0,1-4.207,1.893,6.213,6.213,0,0,1-4.207-1.5A4.765,4.765,0,0,1,88.025-41.6a4.9,4.9,0,0,1,2.1-4.3,10.715,10.715,0,0,1,6.117-1.457h1.683v-.926q0-2.423-2.087-2.423a1.706,1.706,0,0,0-1.45.474A1.706,1.706,0,0,0,93.9-48.8H88.446a4.889,4.889,0,0,1,2.16-4.121,9.079,9.079,0,0,1,5.51-1.584,7.96,7.96,0,0,1,5.291,1.638A5.683,5.683,0,0,1,103.4-48.38v7.751a7.938,7.938,0,0,0,.738,3.687v.275Zm-3.415-3.56a3.042,3.042,0,0,0,1.691-.437,2.738,2.738,0,0,0,.963-.988v-2.8H96.342q-2.848,0-2.848,2.556A1.562,1.562,0,0,0,94-40.69a1.815,1.815,0,0,0,1.275.463Z" transform="translate(232.764 6604.646)"/><g transform="translate(305.711 6529.933)"><path d="M5.277,17.721s-.314-.17-.5-.3c-.006,0-4.774,1.24-4.774,1.24l1.643-4.119a7.637,7.637,0,0,1-.7-1.158,9.363,9.363,0,1,1,4.34,4.34Z" transform="translate(0.001 0.067)" fill="#00a9ee"/><path d="M.883-7.491q.033.1.076.223a2.471,2.471,0,0,0,.1.246,2.2,2.2,0,0,0,.135.238,1.069,1.069,0,0,0,.172.2.806.806,0,0,0,.214.142.624.624,0,0,0,.261.053.615.615,0,0,0,.239-.041.427.427,0,0,0,.155-.115A.423.423,0,0,0,2.325-6.7a.7.7,0,0,0,.027-.2.418.418,0,0,0-.164-.35.75.75,0,0,0-.468-.126H1.646l-.074.007V-7.7H1.62a.884.884,0,0,0,.27-.038.607.607,0,0,0,.2-.1.436.436,0,0,0,.122-.152.42.42,0,0,0,.041-.183.371.371,0,0,0-.03-.154.328.328,0,0,0-.082-.113.344.344,0,0,0-.124-.069A.513.513,0,0,0,1.86-8.53a.819.819,0,0,0-.113.007.963.963,0,0,0-.115.024,1.335,1.335,0,0,0-.129.043q-.069.026-.156.066l-.124-.3a1.856,1.856,0,0,1,.328-.125,1.217,1.217,0,0,1,.319-.043.819.819,0,0,1,.29.05.705.705,0,0,1,.23.138.625.625,0,0,1,.151.21.638.638,0,0,1,.054.263.716.716,0,0,1-.372.626v.009a.836.836,0,0,1,.246.15q.063.011.133.017t.129.007A1,1,0,0,0,2.86-7.4.716.716,0,0,0,3-7.43.75.75,0,0,0,3.142-7.5a.858.858,0,0,0,.147-.113v-1.2H4.1v.319H3.648v2.62H3.291V-7.222H3.282a.737.737,0,0,1-.233.109.956.956,0,0,1-.224.026H2.749l-.082-.007v.009a.607.607,0,0,1,.034.219.887.887,0,0,1-.059.328.748.748,0,0,1-.169.26.763.763,0,0,1-.265.17.95.95,0,0,1-.349.061.92.92,0,0,1-.373-.073,1.184,1.184,0,0,1-.3-.188,1.372,1.372,0,0,1-.233-.26,2.288,2.288,0,0,1-.172-.29,2.446,2.446,0,0,1-.117-.284A2.115,2.115,0,0,1,.6-7.361Z" transform="translate(6.811 17.026)" fill="#fff" stroke="#fff" stroke-linecap="round" stroke-width="0.3"/><path d="M3.394-16.635l.233-.164.118.278a.983.983,0,0,1-.208.1.6.6,0,0,1-.192.036.2.2,0,0,1-.164-.069.3.3,0,0,1-.055-.19v-.629a.983.983,0,0,1-.152.037,1.013,1.013,0,0,1-.164.013.554.554,0,0,1-.232-.047A.535.535,0,0,1,2.4-17.4h0a.726.726,0,0,1-.233.387.61.61,0,0,1-.394.13.636.636,0,0,1-.223-.038.655.655,0,0,1-.191-.111.911.911,0,0,1-.164-.179,1.837,1.837,0,0,1-.143-.246,1.034,1.034,0,0,1-.112-.006l-.1-.012.031-.246a.737.737,0,0,0,.1.01h.113a.435.435,0,0,0,.168-.032.376.376,0,0,0,.129-.088.394.394,0,0,0,.082-.13.436.436,0,0,0,.029-.164.491.491,0,0,0-.029-.17.369.369,0,0,0-.082-.131.354.354,0,0,0-.127-.082.454.454,0,0,0-.164-.029H1a.518.518,0,0,0-.082.011l-.042-.241a.573.573,0,0,1,.1-.018q.05,0,.1,0a.724.724,0,0,1,.305.059.6.6,0,0,1,.21.156.628.628,0,0,1,.12.219.819.819,0,0,1,.038.25.674.674,0,0,1-.032.208.628.628,0,0,1-.088.176.617.617,0,0,1-.136.137.608.608,0,0,1-.174.089.871.871,0,0,0,.19.264.356.356,0,0,0,.246.091.372.372,0,0,0,.164-.037.354.354,0,0,0,.135-.121.661.661,0,0,0,.092-.219,1.418,1.418,0,0,0,.033-.332V-18.2h.268v.278a.554.554,0,0,0,.034.208.4.4,0,0,0,.087.135.306.306,0,0,0,.116.074.382.382,0,0,0,.124.022.562.562,0,0,0,.173-.025.552.552,0,0,0,.151-.077v-1.169h.265ZM2.341-19.687a1.4,1.4,0,0,1,.262.022.731.731,0,0,1,.2.066.573.573,0,0,1,.15.111.761.761,0,0,1,.114.156l.328.587-.219.1-.246-.484a.515.515,0,0,0-.1-.143.469.469,0,0,0-.131-.089.6.6,0,0,0-.164-.046,1.31,1.31,0,0,0-.19-.013H1.966v-.262Z" transform="translate(12.818 27.738)" fill="#fff" stroke="#fff" stroke-width="0.5"/><path d="M75.276,240.249c0-.007.077-.121.077-.121l-.439-.187s-.063.142-.082.134a1.884,1.884,0,0,0-.71.014c0-.164.007-.306.014-.439l1.533.007v-.418l-1.5-.007a4.106,4.106,0,0,1,.082-.414l-.4-.082a4.085,4.085,0,0,0-.1.505H72.639v.418h1.078c-.014.164-.014.362-.014.564a1.949,1.949,0,0,0-.425.237,1.249,1.249,0,0,0-.529.829.9.9,0,0,0,.9,1,1.01,1.01,0,0,0,.6-.195,3.24,3.24,0,0,0,.884-1.413.7.7,0,0,1,.091.111c.272.439.062.7-.314,1.072l-.07.07.292.292.063-.063a1.177,1.177,0,0,0,.376-1.588.848.848,0,0,0-.3-.328Zm-2.005,1.435a.463.463,0,0,1-.111-.362.862.862,0,0,1,.362-.543,1.812,1.812,0,0,1,.195-.119,5.183,5.183,0,0,0,.216,1.128.523.523,0,0,1-.661-.1Zm1-.223a5.128,5.128,0,0,1-.147-.947,1.863,1.863,0,0,1,.383-.048,1.309,1.309,0,0,1,.237.02h.014a4.119,4.119,0,0,1-.486.974Zm0,0" transform="translate(-70.711 -230.847)" fill="#fff"/><path d="M3.191-10.658H2.758L2.4-11.6H.985l-.334.938H.215L1.5-14h.409Zm-.916-1.291L1.75-13.374A1.364,1.364,0,0,1,1.7-13.6H1.689a1.25,1.25,0,0,1-.054.224l-.52,1.425Z" transform="translate(7.514 16.225)" fill="#fff" stroke="#fff" stroke-width="0.3"/><g transform="translate(7.28 13.894)"><g clip-path="url(#c)"><path d="M3.091,2.269V.38c0-.094,0-.094-.092-.094H.1c-.1,0-.1,0-.1-.1C0,0,0,0,.187,0h3.6c.1,0,.1,0,.1.1,0,.181,0,.181-.179.181H3.5c-.1,0-.1,0-.1.095V2.906c0,.034.017.082-.043.082s-.086,0-.107-.065a1.53,1.53,0,0,0-.627-.833c-.072-.051-.07-.046-.124.021a1.759,1.759,0,0,1-.241.269.8.8,0,0,1-.737.127,1.31,1.31,0,0,1-.683-.473A3.4,3.4,0,0,1,.252.877C.224.787.2.7.175.6.157.533.2.484.271.5.289.5.309.53.316.551c.075.214.133.435.225.64a1.563,1.563,0,0,0,.716.794.934.934,0,0,0,.824.023.683.683,0,0,0,.382-.726.655.655,0,0,0-.206-.4.446.446,0,0,0-.3-.118c-.082,0-.092.019-.076.1a1.077,1.077,0,0,1,.038.251.364.364,0,0,1-.425.364.388.388,0,0,1-.364-.388A.557.557,0,0,1,1.714.491a.889.889,0,0,1,.906.721,1.115,1.115,0,0,1,.02.426.19.19,0,0,0,.049.169c.131.151.255.308.382.462H3.09" fill="#fff" stroke="#fff" stroke-width="0.3"/></g></g></g></g></svg>