<svg xmlns="http://www.w3.org/2000/svg" xmlns:xlink="http://www.w3.org/1999/xlink" width="99.931" height="50" viewBox="0 0 99.931 50"><defs><linearGradient id="a" y1="0.5" x2="1" y2="0.5" gradientUnits="objectBoundingBox"><stop offset="0" stop-color="#f79726"/><stop offset="0.378" stop-color="#fef7ef"/><stop offset="0.508" stop-color="#fff"/><stop offset="0.626" stop-color="#d7eee2"/><stop offset="1" stop-color="#09964b"/></linearGradient><linearGradient id="b" x1="1" x2="0" xlink:href="#a"/><clipPath id="c"><rect width="3.894" height="2.993" fill="none" stroke="#fff" stroke-width="0.3"/></clipPath></defs><g transform="translate(16746.041 9477.089)"><g transform="translate(-16746.041 -9432.35)"><path d="M3.488-4.551a1.036,1.036,0,0,1,.595.332.958.958,0,0,1,.209.639.9.9,0,0,1-.368.773,1.852,1.852,0,0,1-1.1.271h-1.8v-3.91H2.712a1.7,1.7,0,0,1,1.013.262.864.864,0,0,1,.36.743.931.931,0,0,1-.159.552.954.954,0,0,1-.439.338ZM1.44-6.1v1.418H2.684a1.256,1.256,0,0,0,.731-.184A.605.605,0,0,0,3.672-5.4a.605.605,0,0,0-.257-.527,1.256,1.256,0,0,0-.731-.184ZM2.818-2.877a1.436,1.436,0,0,0,.793-.179.623.623,0,0,0,.268-.558q0-.731-1.061-.731H1.44v1.468ZM5.531-4.9a.961.961,0,0,1,.416-.444,1.412,1.412,0,0,1,.684-.151v.385l-.1-.009a.938.938,0,0,0-.726.285,1.134,1.134,0,0,0-.262.8v1.5h-.4V-5.473h.379Zm1.815-.575h.4v2.937h-.4Zm.2-.642A.281.281,0,0,1,7.339-6.2a.274.274,0,0,1-.083-.2.268.268,0,0,1,.083-.2.281.281,0,0,1,.207-.083.285.285,0,0,1,.206.081.259.259,0,0,1,.083.193.281.281,0,0,1-.083.206.281.281,0,0,1-.206.083Zm3.98-.564v4.143h-.379v-.581a1.209,1.209,0,0,1-.471.452,1.384,1.384,0,0,1-.662.157,1.49,1.49,0,0,1-.748-.19,1.357,1.357,0,0,1-.525-.53A1.567,1.567,0,0,1,8.552-4a1.567,1.567,0,0,1,.19-.776,1.338,1.338,0,0,1,.525-.527,1.508,1.508,0,0,1,.748-.184,1.389,1.389,0,0,1,.645.148,1.222,1.222,0,0,1,.471.43V-6.678ZM10.048-2.86A1.1,1.1,0,0,0,10.6-3a1.011,1.011,0,0,0,.391-.4,1.233,1.233,0,0,0,.142-.6,1.233,1.233,0,0,0-.142-.6,1.011,1.011,0,0,0-.391-.4,1.1,1.1,0,0,0-.552-.142,1.108,1.108,0,0,0-.561.142,1.011,1.011,0,0,0-.391.4,1.233,1.233,0,0,0-.142.6,1.233,1.233,0,0,0,.142.6,1.011,1.011,0,0,0,.391.4,1.108,1.108,0,0,0,.561.142Zm5.3-2.613v2.578a1.5,1.5,0,0,1-.368,1.108,1.513,1.513,0,0,1-1.1.36,2.463,2.463,0,0,1-.773-.123,1.59,1.59,0,0,1-.595-.332l.206-.3a1.508,1.508,0,0,0,.516.3,1.927,1.927,0,0,0,.639.106,1.128,1.128,0,0,0,.821-.26,1.093,1.093,0,0,0,.262-.807v-.374a1.2,1.2,0,0,1-.483.424,1.493,1.493,0,0,1-.662.145,1.561,1.561,0,0,1-.751-.184,1.339,1.339,0,0,1-.53-.508,1.428,1.428,0,0,1-.193-.74,1.412,1.412,0,0,1,.193-.737,1.331,1.331,0,0,1,.527-.5A1.576,1.576,0,0,1,13.81-5.5a1.489,1.489,0,0,1,.675.151,1.217,1.217,0,0,1,.486.435v-.564ZM13.849-3a1.2,1.2,0,0,0,.575-.137.988.988,0,0,0,.4-.382,1.093,1.093,0,0,0,.142-.558,1.078,1.078,0,0,0-.142-.552,1,1,0,0,0-.4-.379,1.2,1.2,0,0,0-.578-.137,1.207,1.207,0,0,0-.572.134.974.974,0,0,0-.4.379,1.093,1.093,0,0,0-.142.558,1.093,1.093,0,0,0,.142.558.993.993,0,0,0,.4.382A1.188,1.188,0,0,0,13.849-3Zm2.613-2.473h.4v2.937h-.4Zm.2-.641a.281.281,0,0,1-.206-.083.274.274,0,0,1-.083-.2.268.268,0,0,1,.083-.2.281.281,0,0,1,.206-.083.285.285,0,0,1,.207.081.259.259,0,0,1,.083.193.281.281,0,0,1-.083.206.281.281,0,0,1-.207.083Zm2.8.62a1.2,1.2,0,0,1,.879.321,1.254,1.254,0,0,1,.327.937v1.7h-.4V-4.2a.974.974,0,0,0-.23-.7.859.859,0,0,0-.653-.24,1,1,0,0,0-.751.282,1.065,1.065,0,0,0-.276.779v1.541h-.4V-5.473h.379v.541a1.1,1.1,0,0,1,.449-.416,1.438,1.438,0,0,1,.668-.147Zm5.013.022v2.578A1.5,1.5,0,0,1,24.1-1.786a1.513,1.513,0,0,1-1.1.36,2.463,2.463,0,0,1-.773-.123,1.59,1.59,0,0,1-.595-.332l.2-.3a1.508,1.508,0,0,0,.516.3,1.927,1.927,0,0,0,.639.106,1.128,1.128,0,0,0,.827-.257,1.093,1.093,0,0,0,.263-.807v-.374a1.2,1.2,0,0,1-.483.424,1.494,1.494,0,0,1-.662.145,1.561,1.561,0,0,1-.751-.184,1.339,1.339,0,0,1-.53-.508,1.428,1.428,0,0,1-.193-.74,1.412,1.412,0,0,1,.193-.737,1.331,1.331,0,0,1,.527-.5,1.576,1.576,0,0,1,.754-.179,1.489,1.489,0,0,1,.675.151,1.217,1.217,0,0,1,.483.435v-.564ZM22.972-3a1.2,1.2,0,0,0,.575-.137.988.988,0,0,0,.4-.382,1.093,1.093,0,0,0,.145-.558,1.078,1.078,0,0,0-.142-.552,1,1,0,0,0-.4-.379,1.2,1.2,0,0,0-.578-.137,1.207,1.207,0,0,0-.572.134.974.974,0,0,0-.4.379,1.093,1.093,0,0,0-.142.558,1.093,1.093,0,0,0,.142.558.993.993,0,0,0,.4.382A1.188,1.188,0,0,0,22.972-3Zm7.86-2.473h.4v2.937h-.4Zm.2-.642a.281.281,0,0,1-.206-.083.274.274,0,0,1-.083-.2.268.268,0,0,1,.083-.2.281.281,0,0,1,.206-.083.285.285,0,0,1,.207.081.259.259,0,0,1,.083.193.281.281,0,0,1-.083.206.281.281,0,0,1-.207.083ZM33.12-2.509a2.255,2.255,0,0,1-.681-.1,1.473,1.473,0,0,1-.511-.26l.179-.312a1.5,1.5,0,0,0,.461.236,1.842,1.842,0,0,0,.581.092,1.109,1.109,0,0,0,.595-.123.4.4,0,0,0,.193-.355.319.319,0,0,0-.106-.254.7.7,0,0,0-.268-.139,3.822,3.822,0,0,0-.43-.092,4.929,4.929,0,0,1-.575-.137.845.845,0,0,1-.368-.238.66.66,0,0,1-.153-.463.726.726,0,0,1,.307-.6,1.379,1.379,0,0,1,.854-.234,2.217,2.217,0,0,1,.57.076,1.567,1.567,0,0,1,.469.2l-.173.318a1.482,1.482,0,0,0-.866-.251,1,1,0,0,0-.572.134.41.41,0,0,0-.193.352.347.347,0,0,0,.109.268.67.67,0,0,0,.271.148,4.369,4.369,0,0,0,.447.1,5.137,5.137,0,0,1,.564.134.828.828,0,0,1,.363.229.63.63,0,0,1,.151.447.71.71,0,0,1-.321.614,1.526,1.526,0,0,1-.893.222Zm3.489-.206a.751.751,0,0,1-.276.153,1.113,1.113,0,0,1-.343.053.859.859,0,0,1-.637-.223.853.853,0,0,1-.223-.631V-5.138h-.524v-.335h.525v-.641h.4v.642h.893v.335h-.893v1.753a.552.552,0,0,0,.131.4.5.5,0,0,0,.377.137.729.729,0,0,0,.237-.038.59.59,0,0,0,.2-.112Zm1.749-2.78a1.243,1.243,0,0,1,.882.287,1.111,1.111,0,0,1,.307.851v1.82h-.38v-.458a.909.909,0,0,1-.393.357,1.377,1.377,0,0,1-.614.128,1.208,1.208,0,0,1-.781-.234.757.757,0,0,1-.29-.619.751.751,0,0,1,.271-.6,1.325,1.325,0,0,1,.862-.229h.932v-.179a.753.753,0,0,0-.212-.578.876.876,0,0,0-.619-.2,1.575,1.575,0,0,0-.536.092,1.35,1.35,0,0,0-.441.254L37.166-5.1a1.584,1.584,0,0,1,.536-.293,2.087,2.087,0,0,1,.656-.106Zm-.14,2.674a1.044,1.044,0,0,0,.575-.153.916.916,0,0,0,.357-.444V-3.9H38.23q-.754,0-.754.525a.48.48,0,0,0,.2.4.889.889,0,0,0,.547.148Zm3.9-2.674A1.2,1.2,0,0,1,43-5.174a1.254,1.254,0,0,1,.327.937v1.7h-.4V-4.2a.974.974,0,0,0-.229-.7.859.859,0,0,0-.653-.24,1,1,0,0,0-.751.282,1.065,1.065,0,0,0-.276.779v1.541h-.4V-5.473H41v.541a1.105,1.105,0,0,1,.449-.416A1.438,1.438,0,0,1,42.12-5.495Zm3.512,2.987a1.583,1.583,0,0,1-.779-.19,1.374,1.374,0,0,1-.539-.533,1.535,1.535,0,0,1-.2-.773,1.52,1.52,0,0,1,.2-.77,1.379,1.379,0,0,1,.539-.53,1.583,1.583,0,0,1,.779-.19,1.508,1.508,0,0,1,.675.148,1.126,1.126,0,0,1,.471.43l-.3.2a.926.926,0,0,0-.368-.327,1.093,1.093,0,0,0-.486-.109,1.15,1.15,0,0,0-.572.142,1,1,0,0,0-.4.4,1.232,1.232,0,0,0-.142.6,1.228,1.228,0,0,0,.142.6,1,1,0,0,0,.4.4,1.15,1.15,0,0,0,.572.142,1.117,1.117,0,0,0,.486-.106.9.9,0,0,0,.368-.323l.3.2a1.123,1.123,0,0,1-.475.43,1.513,1.513,0,0,1-.672.154Zm4.433-1.373H47.609a1.05,1.05,0,0,0,.352.74,1.166,1.166,0,0,0,.8.282,1.266,1.266,0,0,0,.5-.1,1.1,1.1,0,0,0,.4-.287l.223.257a1.258,1.258,0,0,1-.491.357,1.652,1.652,0,0,1-.645.123,1.63,1.63,0,0,1-.8-.194,1.389,1.389,0,0,1-.544-.533,1.52,1.52,0,0,1-.2-.77,1.574,1.574,0,0,1,.184-.77,1.354,1.354,0,0,1,.514-.53,1.434,1.434,0,0,1,.737-.19,1.419,1.419,0,0,1,.731.19,1.346,1.346,0,0,1,.508.527,1.589,1.589,0,0,1,.184.773Zm-1.42-1.276a1,1,0,0,0-.712.271,1.064,1.064,0,0,0-.327.706h2.082a1.063,1.063,0,0,0-.327-.706,1,1,0,0,0-.717-.271Zm3.022,2.649a2.255,2.255,0,0,1-.684-.1,1.473,1.473,0,0,1-.511-.26l.179-.312a1.5,1.5,0,0,0,.463.238,1.842,1.842,0,0,0,.581.092,1.109,1.109,0,0,0,.595-.123.4.4,0,0,0,.193-.355.319.319,0,0,0-.106-.254.7.7,0,0,0-.268-.139,3.823,3.823,0,0,0-.43-.092,4.928,4.928,0,0,1-.575-.137.845.845,0,0,1-.368-.238.66.66,0,0,1-.153-.463.726.726,0,0,1,.307-.6,1.379,1.379,0,0,1,.854-.234,2.217,2.217,0,0,1,.57.076,1.567,1.567,0,0,1,.469.2l-.173.318a1.482,1.482,0,0,0-.866-.251,1,1,0,0,0-.572.134.411.411,0,0,0-.193.351.347.347,0,0,0,.109.268.67.67,0,0,0,.271.148,4.37,4.37,0,0,0,.447.1,5.138,5.138,0,0,1,.564.134.829.829,0,0,1,.363.229.63.63,0,0,1,.151.447.71.71,0,0,1-.321.614,1.526,1.526,0,0,1-.894.221Z" transform="translate(22.258 6.682)" fill="#fff"/><path d="M-16952.1-9189.492h-20.986v-.606h20.986Z" transform="translate(16973.088 9191.894)" fill="url(#a)"/><path d="M-16973-9189.492h20.986v-.606H-16973Z" transform="translate(17051.059 9191.894)" fill="url(#b)"/><path d="M1.362-3.438h.317A5.647,5.647,0,0,0,2.746-3.5a1.166,1.166,0,0,0,.491-.23,1.35,1.35,0,0,0,.391-.552,2.087,2.087,0,0,0,.136-.778,2.073,2.073,0,0,0-.133-.772,1.358,1.358,0,0,0-.392-.548,1.174,1.174,0,0,0-.5-.236,5.434,5.434,0,0,0-1.06-.071H1.362Zm-.5.465V-7.15h.8a5.964,5.964,0,0,1,1.254.091,1.7,1.7,0,0,1,.638.3A1.749,1.749,0,0,1,4.1-6.05a2.493,2.493,0,0,1,.184.993,2.492,2.492,0,0,1-.184.989,1.73,1.73,0,0,1-.546.707,1.7,1.7,0,0,1-.624.3,4.773,4.773,0,0,1-1.089.09H.859Z" transform="translate(48.111 7.153)" fill="#fff"/></g><path d="M4.4-36.667v-23.56h7.593a11.165,11.165,0,0,1,5.615,1.412,9.954,9.954,0,0,1,3.892,4,12.068,12.068,0,0,1,1.416,5.786v1.084a12.138,12.138,0,0,1-1.368,5.8A10,10,0,0,1,17.7-38.133a10.919,10.919,0,0,1-5.542,1.465Zm5.683-19.177v14.808h1.974a4.42,4.42,0,0,0,3.754-1.74,8.526,8.526,0,0,0,1.311-5.17v-1.02a8.457,8.457,0,0,0-1.311-5.147,4.5,4.5,0,0,0-3.819-1.732ZM35.608-36.667a6.158,6.158,0,0,1-.518-1.57,5.071,5.071,0,0,1-4.207,1.894,6.213,6.213,0,0,1-4.207-1.5A4.765,4.765,0,0,1,24.943-41.6a4.9,4.9,0,0,1,2.1-4.3,10.716,10.716,0,0,1,6.117-1.457h1.683v-.927q0-2.421-2.087-2.421a1.706,1.706,0,0,0-1.942,1.919H25.364a4.889,4.889,0,0,1,2.161-4.122A9.079,9.079,0,0,1,33.035-54.5a7.961,7.961,0,0,1,5.292,1.635,5.683,5.683,0,0,1,1.991,4.481v7.752a7.938,7.938,0,0,0,.745,3.69v.275Zm-3.415-3.56a3.042,3.042,0,0,0,1.691-.437,2.738,2.738,0,0,0,.963-.986v-2.8H33.261q-2.848,0-2.848,2.557a1.561,1.561,0,0,0,.5,1.206,1.816,1.816,0,0,0,1.279.462Zm21.172,3.56a6.158,6.158,0,0,1-.518-1.57,5.071,5.071,0,0,1-4.207,1.894,6.213,6.213,0,0,1-4.207-1.5A4.765,4.765,0,0,1,42.7-41.6a4.9,4.9,0,0,1,2.1-4.3,10.716,10.716,0,0,1,6.117-1.457H52.6v-.927q0-2.423-2.087-2.423a1.706,1.706,0,0,0-1.942,1.919H43.12a4.889,4.889,0,0,1,2.162-4.121A9.079,9.079,0,0,1,50.793-54.5a7.961,7.961,0,0,1,5.292,1.635,5.683,5.683,0,0,1,1.991,4.481v7.752a7.938,7.938,0,0,0,.745,3.69v.275Zm-3.415-3.56a3.042,3.042,0,0,0,1.691-.437,2.738,2.738,0,0,0,.963-.987v-2.8H51.018q-2.848,0-2.848,2.557a1.561,1.561,0,0,0,.5,1.206,1.816,1.816,0,0,0,1.276.462Zm18.339-2.961-1.535,1.535v4.984H61.3V-61.54h5.453v13.206l.552-.728,4.113-5.114h6.538l-6.134,7.2,6.534,10.308H72.108ZM85.3-36.667h-5.47v-17.51H85.3Zm13.387,0a6.157,6.157,0,0,1-.518-1.57,5.071,5.071,0,0,1-4.207,1.894,6.213,6.213,0,0,1-4.208-1.5A4.765,4.765,0,0,1,88.024-41.6a4.9,4.9,0,0,1,2.1-4.3,10.716,10.716,0,0,1,6.117-1.457h1.683v-.927q0-2.423-2.087-2.423A1.706,1.706,0,0,0,93.9-48.795H88.445a4.889,4.889,0,0,1,2.161-4.122A9.079,9.079,0,0,1,96.117-54.5a7.96,7.96,0,0,1,5.292,1.635,5.683,5.683,0,0,1,1.991,4.481v7.752a7.938,7.938,0,0,0,.745,3.69v.275Zm-3.415-3.56a3.042,3.042,0,0,0,1.691-.437,2.738,2.738,0,0,0,.963-.987v-2.8H96.342q-2.848,0-2.848,2.557a1.561,1.561,0,0,0,.5,1.206,1.816,1.816,0,0,0,1.279.462Z" transform="translate(-16750.254 -9402.374)" fill="#fff"/><g transform="translate(-16677.305 -9477.089)"><path d="M5.278,17.7s-.314-.171-.5-.3C4.768,17.4,0,18.637,0,18.637l1.643-4.12a7.638,7.638,0,0,1-.7-1.158,9.363,9.363,0,1,1,4.34,4.34Z" transform="translate(0.002 0.089)" fill="#00a9ee"/><path d="M.884-7.488q.033.1.076.223a2.47,2.47,0,0,0,.1.246,2.2,2.2,0,0,0,.135.238,1.07,1.07,0,0,0,.172.2.805.805,0,0,0,.214.142.624.624,0,0,0,.261.053.614.614,0,0,0,.238-.043.43.43,0,0,0,.158-.111A.424.424,0,0,0,2.329-6.7a.7.7,0,0,0,.027-.2.419.419,0,0,0-.162-.35.75.75,0,0,0-.468-.126H1.652a.408.408,0,0,0-.074.007v-.33h.048A.885.885,0,0,0,1.9-7.732a.607.607,0,0,0,.2-.1.435.435,0,0,0,.123-.152.42.42,0,0,0,.041-.184.368.368,0,0,0-.031-.154.327.327,0,0,0-.083-.113.344.344,0,0,0-.123-.069.514.514,0,0,0-.157-.023.815.815,0,0,0-.113.007.963.963,0,0,0-.115.024,1.336,1.336,0,0,0-.13.048q-.069.026-.155.065l-.123-.3a1.856,1.856,0,0,1,.326-.123,1.217,1.217,0,0,1,.32-.042.822.822,0,0,1,.29.05.7.7,0,0,1,.23.138.624.624,0,0,1,.151.21.638.638,0,0,1,.055.263.716.716,0,0,1-.371.626v.009a.836.836,0,0,1,.246.15q.061.011.134.017t.13.007a1,1,0,0,0,.128-.009.717.717,0,0,0,.138-.033.75.75,0,0,0,.144-.068A.859.859,0,0,0,3.3-7.6V-8.808H4.1v.32H3.648v2.624H3.292V-7.219H3.283a.737.737,0,0,1-.233.109.956.956,0,0,1-.224.026l-.076,0L2.67-7.1v.009a.606.606,0,0,1,.035.22.887.887,0,0,1-.061.326.748.748,0,0,1-.168.26.763.763,0,0,1-.265.171.95.95,0,0,1-.349.061.921.921,0,0,1-.373-.073,1.184,1.184,0,0,1-.3-.188,1.372,1.372,0,0,1-.234-.26,2.288,2.288,0,0,1-.171-.289A2.445,2.445,0,0,1,.667-7.14,2.1,2.1,0,0,1,.6-7.358Z" transform="translate(6.811 17.024)" fill="#fff" stroke="#fff" stroke-linecap="round" stroke-width="0.3"/><path d="M3.4-16.635l.233-.166.118.278a.982.982,0,0,1-.208.1.6.6,0,0,1-.192.036.2.2,0,0,1-.162-.069.3.3,0,0,1-.055-.19v-.629a.982.982,0,0,1-.152.037,1.012,1.012,0,0,1-.163.013.552.552,0,0,1-.231-.048A.535.535,0,0,1,2.4-17.4h0a.727.727,0,0,1-.232.387.61.61,0,0,1-.394.13.636.636,0,0,1-.222-.038.656.656,0,0,1-.191-.111.912.912,0,0,1-.163-.18,1.837,1.837,0,0,1-.143-.246,1.047,1.047,0,0,1-.112-.006l-.1-.012.031-.246a.737.737,0,0,0,.1.01h.113a.435.435,0,0,0,.168-.031.376.376,0,0,0,.13-.087.394.394,0,0,0,.082-.13.436.436,0,0,0,.029-.16.491.491,0,0,0-.028-.171.368.368,0,0,0-.081-.131.354.354,0,0,0-.127-.083.454.454,0,0,0-.166-.029H1.006a.518.518,0,0,0-.082.01l-.046-.234a.571.571,0,0,1,.1-.018q.05,0,.1,0a.724.724,0,0,1,.307.061.6.6,0,0,1,.209.155.628.628,0,0,1,.123.219.82.82,0,0,1,.039.25.675.675,0,0,1-.031.208.629.629,0,0,1-.088.176.614.614,0,0,1-.136.137.608.608,0,0,1-.175.089.871.871,0,0,0,.19.264.356.356,0,0,0,.246.091.372.372,0,0,0,.164-.037.354.354,0,0,0,.135-.123.661.661,0,0,0,.091-.219,1.419,1.419,0,0,0,.033-.333v-.343h.265v.278a.552.552,0,0,0,.034.208.4.4,0,0,0,.087.135.307.307,0,0,0,.117.074.382.382,0,0,0,.123.022.562.562,0,0,0,.173-.025.553.553,0,0,0,.15-.077v-1.169H3.4ZM2.342-19.688a1.4,1.4,0,0,1,.262.022.731.731,0,0,1,.2.066.572.572,0,0,1,.15.111.761.761,0,0,1,.114.155l.328.586-.218.095-.246-.484a.514.514,0,0,0-.1-.143.47.47,0,0,0-.131-.089.6.6,0,0,0-.161-.046,1.311,1.311,0,0,0-.19-.013H1.974v-.262Z" transform="translate(12.818 27.74)" fill="#fff" stroke="#fff" stroke-width="0.5"/><path d="M75.276,240.248c0-.007.077-.123.077-.123l-.439-.184s-.061.142-.083.134a1.881,1.881,0,0,0-.71.014c0-.16.007-.307.014-.439l1.535.007v-.418l-1.5-.007a4.106,4.106,0,0,1,.083-.414l-.4-.083a4.089,4.089,0,0,0-.1.505H72.639v.418h1.078c-.014.167-.014.362-.014.564a1.948,1.948,0,0,0-.425.237,1.249,1.249,0,0,0-.529.829.9.9,0,0,0,.905,1,1.01,1.01,0,0,0,.6-.2,3.241,3.241,0,0,0,.884-1.412.7.7,0,0,1,.091.111c.271.439.061.7-.313,1.072l-.069.069.292.292.061-.061a1.177,1.177,0,0,0,.376-1.587.848.848,0,0,0-.3-.331Zm-2.005,1.435a.463.463,0,0,1-.111-.362.859.859,0,0,1,.362-.543,1.818,1.818,0,0,1,.2-.118,5.183,5.183,0,0,0,.216,1.128.523.523,0,0,1-.662-.1Zm1-.223a5.128,5.128,0,0,1-.146-.947,1.861,1.861,0,0,1,.383-.048,1.307,1.307,0,0,1,.237.021h.017a4.118,4.118,0,0,1-.491.976Zm0,0" transform="translate(-70.71 -230.846)" fill="#fff"/><path d="M3.191-10.658H2.758L2.4-11.6H.985l-.334.938H.215L1.495-14H1.9Zm-.916-1.289L1.75-13.372A1.365,1.365,0,0,1,1.7-13.6H1.689a1.249,1.249,0,0,1-.053.224l-.52,1.425Z" transform="translate(7.514 16.225)" fill="#fff" stroke="#fff" stroke-width="0.3"/><g transform="translate(7.281 13.894)"><g clip-path="url(#c)"><path d="M3.091,2.271V.382c0-.094,0-.095-.092-.095H.1c-.1,0-.1,0-.1-.1C0,0,0,0,.184,0H3.789c.1,0,.1,0,.1.1,0,.184,0,.184-.179.184H3.5c-.1,0-.1,0-.1.1V2.908c0,.034.017.08-.043.085s-.089-.006-.107-.068a1.53,1.53,0,0,0-.627-.835c-.072-.051-.07-.045-.123.021a1.759,1.759,0,0,1-.241.269.8.8,0,0,1-.737.127,1.31,1.31,0,0,1-.686-.473A3.4,3.4,0,0,1,.252.877C.223.787.2.7.175.6.157.533.2.484.271.5.289.5.307.53.316.552c.076.214.133.435.225.641a1.563,1.563,0,0,0,.716.794.934.934,0,0,0,.824.023.683.683,0,0,0,.382-.726.656.656,0,0,0-.206-.4.446.446,0,0,0-.3-.119c-.079,0-.091.018-.076.1a1.077,1.077,0,0,1,.038.252.364.364,0,0,1-.425.364.388.388,0,0,1-.363-.388A.557.557,0,0,1,1.714.491a.889.889,0,0,1,.909.721,1.115,1.115,0,0,1,.017.426.19.19,0,0,0,.049.168c.131.151.255.307.382.462h.019" fill="#fff" stroke="#fff" stroke-width="0.3"/></g></g></g></g></svg>